<?xml version="1.0" encoding="utf-8"?>
<!-- Generator: Adobe Illustrator 16.0.0, SVG Export Plug-In . SVG Version: 6.00 Build 0)  -->
<!DOCTYPE svg PUBLIC "-//W3C//DTD SVG 1.1//EN" "http://www.w3.org/Graphics/SVG/1.1/DTD/svg11.dtd">
<svg version="1.1" id="Layer_1" xmlns="http://www.w3.org/2000/svg" xmlns:xlink="http://www.w3.org/1999/xlink" x="0px" y="0px"
	 width="612px" height="792px" viewBox="0 0 612 792" enable-background="new 0 0 612 792" xml:space="preserve">
<g>
	<path fill="#FFFFFF" d="M36.352,105.365c0,0,223.327-3.401,275.085-3.401c51.757,0,171.74,28.564,171.74,141.834
		s-86.312,152.609-136.352,164.048l156.088,200.42c0,0,42.534,55.543,68.671,63.531c9.245,2.824,18.771,3.258,18.292,9.836
		c-0.262,3.627-3.805,4.869-10.993,4.869c-7.19,0-59.593,0.396-59.593,0.396s-46.695,4.826-81.018-43.723
		c-31.891-45.109-148.507-196.935-148.507-196.935s-1.344-51.347-1.344-59.191c0-7.845,1.437-8.307,8.148-10.152
		c6.71-1.846,112.157-18.45,112.157-122.74s-80.753-136.283-136.833-136.283c-56.079,0-124.388,33.001-124.388,131.941
		s69.083,118.196,97.897,125.558c11.232,2.871,9.787,8.778,8.63,16.649c-1.25,8.492-3.749,11.573-3.749,11.573
		s-26.215-23.922-56.785-23.333c-29.577,0.57-34.969,14.371-34.453,32.646c0.625,22.131-0.963,142.571-0.963,142.571l-69.334-0.352
		c0,0-0.675-354.966-1.155-384.96c-0.479-29.994-9.497-48.299-44.725-51.414c-4.67-0.413-15.717-0.521-15.89-7.048
		C26.796,104.881,36.352,105.365,36.352,105.365z"/>
	<path fill="#FFFFFF" d="M277.933,680.643c0,3.455-2.675,6.258-5.975,6.258l0,0c-3.301,0-5.977-2.803-5.977-6.258V256.058
		c0-3.455,2.676-6.256,5.977-6.256l0,0c3.3,0,5.975,2.801,5.975,6.256V680.643z"/>
	<path fill="#FFFFFF" d="M272.285,130.66c-7.359,0-30.273,34.281-30.273,57.58c0,21.207,12.708,39.834,25.927,43.011v-51.236
		c0-2.323,1.753-4.205,3.917-4.205c2.163,0,3.916,1.882,3.916,4.205v51.329c15.58-2.972,29.3-23.136,29.3-44.539
		C305.071,163.624,279.644,130.66,272.285,130.66z"/>
	<path fill="#FFFFFF" d="M373.255,213.333c-4.091-6.187-44.418-5.498-63.17,8.061c-17.066,12.341-24.994,33.862-20.203,46.821
		l41.235-29.815c1.87-1.352,4.36-0.973,5.563,0.846c1.202,1.818,0.663,4.388-1.209,5.739l-41.308,29.87
		c11.053,11.367,34.908,11.165,52.13-1.289C364.951,260.075,377.346,219.52,373.255,213.333z"/>
	<path fill="#FFFFFF" d="M168.115,216.262c-3.589,6.476,14.323,44.476,34.089,56.6c17.988,11.036,39.982,9.547,49.12-0.428
		l-43.463-26.663c-1.97-1.209-2.712-3.731-1.657-5.635c1.054-1.903,3.505-2.466,5.476-1.258l43.539,26.71
		c5.074-15.255-5.345-37.819-23.5-48.957C212.054,204.567,171.701,209.787,168.115,216.262z"/>
	<path fill="#FFFFFF" d="M211.418,350.316c3.667,3.256,29.075-3.689,38.584-15.299c8.652-10.566,9.923-25.469,4.633-32.898
		l-20.91,25.529c-0.947,1.158-2.589,1.32-3.668,0.363c-1.078-0.957-1.184-2.671-0.235-3.828l20.948-25.576
		c-8.976-5.412-24.04-1.433-32.774,9.231C208.534,319.389,207.752,347.061,211.418,350.316z"/>
	<path fill="#FFFFFF" d="M332.519,350.545c3.64-3.289,0.84-30.482-8.767-42.005c-8.741-10.489-22.707-14.021-30.552-9.688
		l21.123,25.34c0.956,1.149,0.867,2.863-0.205,3.83c-1.068,0.967-2.712,0.819-3.671-0.329l-21.158-25.385
		c-6.48,8.431-4.953,24.535,3.871,35.119C302.714,348.894,328.879,353.833,332.519,350.545z"/>
	<path fill="#FFFFFF" d="M379.52,317.947c1.859-3.479-7.306-22.969-17.468-28.853c-9.25-5.355-20.582-4.051-25.308,1.395
		l22.348,12.939c1.015,0.587,1.391,1.89,0.845,2.915c-0.548,1.021-1.81,1.376-2.822,0.79l-22.388-12.962
		c-2.639,8.116,2.691,19.693,12.026,25.098C356.864,325.124,377.662,321.426,379.52,317.947z"/>
	<path fill="#FFFFFF" d="M165.67,315.42c-1.857-3.479,7.307-22.97,17.469-28.853c9.25-5.355,20.583-4.051,25.306,1.395L186.1,300.9
		c-1.015,0.586-1.392,1.891-0.847,2.914c0.548,1.022,1.811,1.376,2.824,0.791l22.386-12.962c2.64,8.116-2.692,19.694-12.026,25.099
		C188.326,322.596,167.529,318.899,165.67,315.42z"/>
	<path fill="#FFFFFF" d="M211.418,541.816c3.667,3.256,29.075-3.689,38.584-15.299c8.652-10.566,9.923-25.469,4.633-32.898
		l-20.91,25.529c-0.947,1.156-2.589,1.318-3.668,0.361c-1.078-0.957-1.184-2.67-0.235-3.828l20.948-25.574
		c-8.976-5.412-24.04-1.434-32.774,9.23C208.534,510.889,207.752,538.561,211.418,541.816z"/>
	<path fill="#FFFFFF" d="M165.151,506.453c-1.858-3.479,7.306-22.969,17.469-28.854c9.25-5.355,20.583-4.051,25.306,1.395
		l-22.345,12.939c-1.015,0.586-1.392,1.891-0.847,2.914c0.548,1.023,1.812,1.377,2.825,0.791l22.386-12.963
		c2.64,8.117-2.692,19.693-12.026,25.1C187.807,513.629,167.01,509.932,165.151,506.453z"/>
	<path fill="#FFFFFF" d="M322.485,524.119c-3.312,2.266-24.655-3.697-32.148-12.547c-6.82-8.053-7.091-19.039-2.163-24.314
		l16.479,19.457c0.746,0.883,2.142,1.059,3.117,0.393c0.975-0.668,1.158-1.922,0.411-2.805l-16.508-19.49
		c7.969-3.67,20.631-0.234,27.514,7.893C326.645,501.508,325.798,521.854,322.485,524.119z"/>
	<path fill="#FFFFFF" d="M193.692,165.603c-2.437,3.066,3.15,23.972,12.109,31.69c8.156,7.026,19.526,7.899,25.125,3.445
		l-19.699-16.974c-0.894-0.769-1.035-2.123-0.318-3.026c0.717-0.9,2.021-1.008,2.914-0.239l19.733,17.003
		c4.021-7.478,0.812-19.875-7.417-26.964C217.228,162.859,196.132,162.536,193.692,165.603z"/>
	<path fill="#FFFFFF" d="M347.963,161.171c-2.946-2.538-23.027,3.28-30.439,12.607c-6.747,8.491-7.585,20.329-3.308,26.159
		l16.303-20.509c0.74-0.931,2.039-1.079,2.907-0.332c0.864,0.747,0.968,2.104,0.229,3.034l-16.331,20.545
		c7.183,4.185,19.089,0.845,25.899-7.723C350.598,185.674,350.909,163.71,347.963,161.171z"/>
	<path fill="#FFFFFF" d="M182.259,398.521c-5.358,4.476-1.237,41.485,12.901,57.168c12.867,14.274,33.419,19.083,44.967,13.185
		l-31.088-34.488c-1.409-1.564-1.276-3.896,0.301-5.213c1.574-1.315,3.992-1.115,5.402,0.448l31.143,34.55
		c9.539-11.477,7.289-33.393-5.696-47.798C226.123,400.768,187.616,394.045,182.259,398.521z"/>
	<path fill="#FFFFFF" d="M249.838,576.939H74.804c-2.78,0-5.033-2.17-5.033-4.846s2.252-4.846,5.033-4.846h175.035
		c2.779,0,5.033,2.17,5.033,4.846S252.617,576.939,249.838,576.939z"/>
	<path fill="#FFFFFF" d="M249.838,598.727H61.83c-2.779,0-5.033-2.17-5.033-4.846s2.254-4.844,5.033-4.844h188.009
		c2.779,0,5.033,2.168,5.033,4.844S252.617,598.727,249.838,598.727z"/>
	<path fill="#FFFFFF" d="M249.838,620.514H74.804c-2.78,0-5.033-2.168-5.033-4.846c0-2.676,2.252-4.846,5.033-4.846h175.035
		c2.779,0,5.033,2.17,5.033,4.846C254.872,618.346,252.617,620.514,249.838,620.514z"/>
	<path fill="#FFFFFF" d="M249.838,643.709H176.82c-2.78,0-5.033-2.17-5.033-4.846s2.253-4.846,5.033-4.846h73.018
		c2.779,0,5.033,2.17,5.033,4.846S252.617,643.709,249.838,643.709z"/>
	<path fill="#FFFFFF" d="M249.838,665.498H200.59c-2.78,0-5.034-2.17-5.034-4.846c0-2.678,2.254-4.846,5.034-4.846h49.248
		c2.779,0,5.033,2.168,5.033,4.846C254.872,663.328,252.617,665.498,249.838,665.498z"/>
	<path fill="#FFFFFF" d="M365.385,576.939h-71.51c-2.779,0-5.034-2.17-5.034-4.846s2.254-4.846,5.034-4.846h71.51
		c2.78,0,5.033,2.17,5.033,4.846S368.165,576.939,365.385,576.939z"/>
	<path fill="#FFFFFF" d="M379.884,598.727h-86.009c-2.779,0-5.034-2.17-5.034-4.846s2.254-4.844,5.034-4.844h86.009
		c2.78,0,5.034,2.168,5.034,4.844S382.664,598.727,379.884,598.727z"/>
	<path fill="#FFFFFF" d="M394.5,620.514H293.875c-2.779,0-5.034-2.168-5.034-4.846c0-2.676,2.254-4.846,5.034-4.846H394.5
		c2.779,0,5.031,2.17,5.031,4.846C399.531,618.346,397.279,620.514,394.5,620.514z"/>
	<path fill="#FFFFFF" d="M409.927,643.709H293.875c-2.779,0-5.034-2.17-5.034-4.846s2.254-4.846,5.034-4.846h116.052
		c2.78,0,5.033,2.17,5.033,4.846S412.707,643.709,409.927,643.709z"/>
	<path fill="#FFFFFF" d="M377.796,665.498h-83.921c-2.779,0-5.034-2.17-5.034-4.846c0-2.678,2.254-4.846,5.034-4.846h83.921
		c2.78,0,5.032,2.168,5.032,4.846C382.828,663.328,380.576,665.498,377.796,665.498z"/>
	<path fill="#FFFFFF" d="M329.63,687.283h-35.755c-2.779,0-5.034-2.17-5.034-4.846c0-2.674,2.254-4.844,5.034-4.844h35.755
		c2.78,0,5.032,2.17,5.032,4.844C334.662,685.113,332.41,687.283,329.63,687.283z"/>
	<path fill="#FFFFFF" d="M87.925,631.746c0,0,2.626,27.625-16.123,35.182c-18.748,7.557-29.649,7.15-38.936,7.381
		c-7.109,0.176-6.81,6.791-6.81,6.791s-0.592,5.801,7.766,5.801c4.898,0,9.285-0.893,87.413-0.893s82.711,0.893,89.182,0.893
		c6.472,0,7.772-5.764,7.772-5.764s0.497-6.566-9.03-6.566c-9.526,0-25.293-2.254-32.802-7.613
		c-14.02-10.01-18.19-35.176-18.19-35.176L87.925,631.746z"/>
</g>
</svg>
