<?xml version="1.0" encoding="utf-8"?>
<!-- Generator: Adobe Illustrator 22.0.1, SVG Export Plug-In . SVG Version: 6.00 Build 0)  -->
<svg version="1.1" id="Layer_1" xmlns="http://www.w3.org/2000/svg" xmlns:xlink="http://www.w3.org/1999/xlink" x="0px" y="0px"
	 viewBox="0 0 511.8 221.2" style="enable-background:new 0 0 511.8 221.2;" xml:space="preserve">
<style type="text/css">
	.st0{fill:#4C9D4C;}
	.st1{fill:#154E3C;}
	.st2{fill:#06110D;}
	.st3{fill:#1D713D;}
</style>
<path class="st0" d="M511.8-0.1c0,74,0,148,0,222c-170.7,0-341.3,0-512,0c0-9.2,0-18.4,0-27.6C287.9,194.4,287.9-0.1,511.8-0.1z"/>
<path class="st1" d="M511.8,14.1c0,69.3,0,138.5,0,207.8c-170.7,0-341.3,0-512,0c0-7.3,0-14.6,0-22C287.9,200,287.9,14.1,511.8,14.1
	z"/>
<path class="st2" d="M511.8,53.9c0,56,0,112,0,168.1c-170.7,0-341.3,0-512,0c0-4.5,0-8.9,0-13.4C287.9,208.6,287.9,53.9,511.8,53.9z
	"/>
<path class="st0" d="M-0.2,208.2c144.1,0,144.1-97.2,256-97.2c111.9,0,111.9,97.2,256,97.2c0,4.6,0,9.2,0,13.8
	c-170.7,0-341.3,0-512,0C-0.2,217.4-0.2,212.8-0.2,208.2z"/>
<path class="st1" d="M511.8,211c-144.1,0-144.1-92.9-256-92.9C143.9,118,143.9,211-0.2,211c0,3.7,0,7.3,0,11c170.7,0,341.3,0,512,0
	C511.8,218.3,511.8,214.6,511.8,211z"/>
<path class="st2" d="M-0.2,215.3c144.1,0,144.1-77.3,256-77.3c111.9,0,111.9,77.3,256,77.3c0,2.2,0,4.5,0,6.7
	c-170.7,0-341.3,0-512,0C-0.2,219.7-0.2,217.5-0.2,215.3z"/>
<path class="st0" d="M255.8,215.1c72,0,72-48.6,128-48.6c56,0,56,48.6,128,48.6c0,2.3,0,4.6,0,6.9c-85.3,0-170.7,0-256,0
	C255.8,219.7,255.8,217.4,255.8,215.1z"/>
<path class="st0" d="M255.8,215.1c-72,0-72-48.6-128-48.6s-56,48.6-128,48.6c0,2.3,0,4.6,0,6.9c85.3,0,170.7,0,256,0
	C255.8,219.7,255.8,217.4,255.8,215.1z"/>
<path class="st3" d="M511.8,216.5c-72,0-72-46.5-128-46.5c-56,0-56,46.5-128,46.5c0,1.8,0,3.7,0,5.5c85.3,0,170.7,0,256,0
	C511.8,220.1,511.8,218.3,511.8,216.5z"/>
<path class="st3" d="M-0.2,216.5c72,0,72-46.5,128-46.5s56,46.5,128,46.5c0,1.8,0,3.7,0,5.5c-85.3,0-170.7,0-256,0
	C-0.2,220.1-0.2,218.3-0.2,216.5z"/>
<path class="st2" d="M255.8,218.6c72,0,72-38.7,128-38.7c56,0,56,38.7,128,38.7c0,1.1,0,2.2,0,3.3c-85.3,0-170.7,0-256,0
	C255.8,220.8,255.8,219.7,255.8,218.6z"/>
<path class="st2" d="M255.8,218.6c-72,0-72-38.7-128-38.7s-56,38.7-128,38.7c0,1.1,0,2.2,0,3.3c85.3,0,170.7,0,256,0
	C255.8,220.8,255.8,219.7,255.8,218.6z"/>
<path class="st0" d="M341.1,217.4c48,0,48-32.4,85.3-32.4c37.3,0,37.3,32.4,85.3,32.4c0,1.5,0,3.1,0,4.6c-56.9,0-113.8,0-170.7,0
	C341.1,220.4,341.1,218.9,341.1,217.4z"/>
<path class="st0" d="M341.1,217.4c-48,0-48-32.4-85.3-32.4c-37.3,0-37.3,32.4-85.3,32.4c0,1.5,0,3.1,0,4.6c56.9,0,113.8,0,170.7,0
	C341.1,220.4,341.1,218.9,341.1,217.4z"/>
<path class="st0" d="M-0.2,217.4c48,0,48-32.4,85.3-32.4c37.3,0,37.3,32.4,85.3,32.4c0,1.5,0,3.1,0,4.6c-56.9,0-113.8,0-170.7,0
	C-0.2,220.4-0.2,218.9-0.2,217.4z"/>
<path class="st1" d="M511.8,218.3c-48,0-48-31-85.3-31c-37.3,0-37.3,31-85.3,31c0,1.2,0,2.4,0,3.7c56.9,0,113.8,0,170.7,0
	C511.8,220.7,511.8,219.5,511.8,218.3z"/>
<path class="st1" d="M170.4,218.3c48,0,48-31,85.3-31c37.3,0,37.3,31,85.3,31c0,1.2,0,2.4,0,3.7c-56.9,0-113.8,0-170.7,0
	C170.4,220.7,170.4,219.5,170.4,218.3z"/>
<path class="st1" d="M170.4,218.3c-48,0-48-31-85.3-31c-37.3,0-37.3,31-85.3,31c0,1.2,0,2.4,0,3.7c56.9,0,113.8,0,170.7,0
	C170.4,220.7,170.4,219.5,170.4,218.3z"/>
<path class="st2" d="M341.1,219.7c48,0,48-25.8,85.3-25.8c37.3,0,37.3,25.8,85.3,25.8c0,0.7,0,1.5,0,2.2c-56.9,0-113.8,0-170.7,0
	C341.1,221.2,341.1,220.5,341.1,219.7z"/>
<path class="st2" d="M341.1,219.7c-48,0-48-25.8-85.3-25.8c-37.3,0-37.3,25.8-85.3,25.8c0,0.7,0,1.5,0,2.2c56.9,0,113.8,0,170.7,0
	C341.1,221.2,341.1,220.5,341.1,219.7z"/>
<path class="st2" d="M-0.2,219.7c48,0,48-25.8,85.3-25.8c37.3,0,37.3,25.8,85.3,25.8c0,0.7,0,1.5,0,2.2c-56.9,0-113.8,0-170.7,0
	C-0.2,221.2-0.2,220.5-0.2,219.7z"/>
</svg>
