<?xml version="1.0" encoding="utf-8"?>
<!-- Generator: Adobe Illustrator 22.0.1, SVG Export Plug-In . SVG Version: 6.00 Build 0)  -->
<svg version="1.1" id="Layer_1" xmlns="http://www.w3.org/2000/svg" xmlns:xlink="http://www.w3.org/1999/xlink" x="0px" y="0px"
	 viewBox="0 0 1024 221.2" style="enable-background:new 0 0 1024 221.2;" xml:space="preserve">
<style type="text/css">
	.st0{fill:#4C9D4C;}
	.st1{fill:#1D713D;}
	.st2{fill:#154E3C;}
	.st3{fill:#0D1C2D;}
</style>
<path class="st0" d="M1024-0.1c0,74,0,148,0,222c-170.7,0-341.3,0-512,0c0-9.2,0-18.4,0-27.6C800.1,194.4,800.1-0.1,1024-0.1z"/>
<path class="st1" d="M1024,14.1c0,69.3,0,138.5,0,207.8c-170.7,0-341.3,0-512,0c0-7.3,0-14.6,0-22C800.1,200,800.1,14.1,1024,14.1z"
	/>
<path class="st2" d="M1024,53.9c0,56,0,112,0,168.1c-170.7,0-341.3,0-512,0c0-4.5,0-8.9,0-13.4C800.1,208.6,800.1,53.9,1024,53.9z"
	/>
<path class="st0" d="M512,208.2c144.1,0,144.1-97.2,256-97.2c111.9,0,111.9,97.2,256,97.2c0,4.6,0,9.2,0,13.8
	c-170.7,0-341.3,0-512,0C512,217.4,512,212.8,512,208.2z"/>
<path class="st1" d="M1024,211C879.9,211,879.9,118,768,118C656.1,118,656.1,211,512,211c0,3.7,0,7.3,0,11c170.7,0,341.3,0,512,0
	C1024,218.3,1024,214.6,1024,211z"/>
<path class="st2" d="M512,215.3c144.1,0,144.1-77.3,256-77.3c111.9,0,111.9,77.3,256,77.3c0,2.2,0,4.5,0,6.7c-170.7,0-341.3,0-512,0
	C512,219.7,512,217.5,512,215.3z"/>
<path class="st0" d="M768,215.1c72,0,72-48.6,128-48.6c56,0,56,48.6,128,48.6c0,2.3,0,4.6,0,6.9c-85.3,0-170.7,0-256,0
	C768,219.7,768,217.4,768,215.1z"/>
<path class="st0" d="M768,215.1c-72,0-72-48.6-128-48.6c-56,0-56,48.6-128,48.6c0,2.3,0,4.6,0,6.9c85.3,0,170.7,0,256,0
	C768,219.7,768,217.4,768,215.1z"/>
<path class="st1" d="M1024,216.5c-72,0-72-46.5-128-46.5c-56,0-56,46.5-128,46.5c0,1.8,0,3.7,0,5.5c85.3,0,170.7,0,256,0
	C1024,220.1,1024,218.3,1024,216.5z"/>
<path class="st1" d="M512,216.5c72,0,72-46.5,128-46.5c56,0,56,46.5,128,46.5c0,1.8,0,3.7,0,5.5c-85.3,0-170.7,0-256,0
	C512,220.1,512,218.3,512,216.5z"/>
<path class="st2" d="M768,218.6c72,0,72-38.7,128-38.7c56,0,56,38.7,128,38.7c0,1.1,0,2.2,0,3.3c-85.3,0-170.7,0-256,0
	C768,220.8,768,219.7,768,218.6z"/>
<path class="st2" d="M768,218.6c-72,0-72-38.7-128-38.7c-56,0-56,38.7-128,38.7c0,1.1,0,2.2,0,3.3c85.3,0,170.7,0,256,0
	C768,220.8,768,219.7,768,218.6z"/>
<path class="st0" d="M853.3,217.4c48,0,48-32.4,85.3-32.4c37.3,0,37.3,32.4,85.3,32.4c0,1.5,0,3.1,0,4.6c-56.9,0-113.8,0-170.7,0
	C853.3,220.4,853.3,218.9,853.3,217.4z"/>
<path class="st0" d="M853.3,217.4c-48,0-48-32.4-85.3-32.4c-37.3,0-37.3,32.4-85.3,32.4c0,1.5,0,3.1,0,4.6c56.9,0,113.8,0,170.7,0
	C853.3,220.4,853.3,218.9,853.3,217.4z"/>
<path class="st0" d="M512,217.4c48,0,48-32.4,85.3-32.4c37.3,0,37.3,32.4,85.3,32.4c0,1.5,0,3.1,0,4.6c-56.9,0-113.8,0-170.7,0
	C512,220.4,512,218.9,512,217.4z"/>
<path class="st2" d="M1024,218.3c-48,0-48-31-85.3-31c-37.3,0-37.3,31-85.3,31c0,1.2,0,2.4,0,3.7c56.9,0,113.8,0,170.7,0
	C1024,220.7,1024,219.5,1024,218.3z"/>
<path class="st2" d="M682.7,218.3c48,0,48-31,85.3-31c37.3,0,37.3,31,85.3,31c0,1.2,0,2.4,0,3.7c-56.9,0-113.8,0-170.7,0
	C682.7,220.7,682.7,219.5,682.7,218.3z"/>
<path class="st2" d="M682.7,218.3c-48,0-48-31-85.3-31c-37.3,0-37.3,31-85.3,31c0,1.2,0,2.4,0,3.7c56.9,0,113.8,0,170.7,0
	C682.7,220.7,682.7,219.5,682.7,218.3z"/>
<path class="st3" d="M853.3,219.7c48,0,48-25.8,85.3-25.8c37.3,0,37.3,25.8,85.3,25.8c0,0.7,0,1.5,0,2.2c-56.9,0-113.8,0-170.7,0
	C853.3,221.2,853.3,220.5,853.3,219.7z"/>
<path class="st3" d="M853.3,219.7c-48,0-48-25.8-85.3-25.8c-37.3,0-37.3,25.8-85.3,25.8c0,0.7,0,1.5,0,2.2c56.9,0,113.8,0,170.7,0
	C853.3,221.2,853.3,220.5,853.3,219.7z"/>
<path class="st3" d="M512,219.7c48,0,48-25.8,85.3-25.8c37.3,0,37.3,25.8,85.3,25.8c0,0.7,0,1.5,0,2.2c-56.9,0-113.8,0-170.7,0
	C512,221.2,512,220.5,512,219.7z"/>
<path class="st0" d="M0-0.1c0,74,0,148,0,222c170.7,0,341.3,0,512,0c0-9.2,0-18.4,0-27.6C223.9,194.4,223.9-0.1,0-0.1z"/>
<path class="st1" d="M0,14.1c0,69.3,0,138.5,0,207.8c170.7,0,341.3,0,512,0c0-7.3,0-14.6,0-22C223.9,200,223.9,14.1,0,14.1z"/>
<path class="st2" d="M0,53.9c0,56,0,112,0,168.1c170.7,0,341.3,0,512,0c0-4.5,0-8.9,0-13.4C223.9,208.6,223.9,53.9,0,53.9z"/>
<path class="st0" d="M512,208.2c-144.1,0-144.1-97.2-256-97.2c-111.9,0-111.9,97.2-256,97.2c0,4.6,0,9.2,0,13.8
	c170.7,0,341.3,0,512,0C512,217.4,512,212.8,512,208.2z"/>
<path class="st1" d="M0,211c144.1,0,144.1-92.9,256-92.9c111.9,0,111.9,92.9,256,92.9c0,3.7,0,7.3,0,11c-170.7,0-341.3,0-512,0
	C0,218.3,0,214.6,0,211z"/>
<path class="st2" d="M512,215.3c-144.1,0-144.1-77.3-256-77.3c-111.9,0-111.9,77.3-256,77.3c0,2.2,0,4.5,0,6.7
	c170.7,0,341.3,0,512,0C512,219.7,512,217.5,512,215.3z"/>
<path class="st0" d="M256,215.1c-72,0-72-48.6-128-48.6c-56,0-56,48.6-128,48.6c0,2.3,0,4.6,0,6.9c85.3,0,170.7,0,256,0
	C256,219.7,256,217.4,256,215.1z"/>
<path class="st0" d="M256,215.1c72,0,72-48.6,128-48.6s56,48.6,128,48.6c0,2.3,0,4.6,0,6.9c-85.3,0-170.7,0-256,0
	C256,219.7,256,217.4,256,215.1z"/>
<path class="st1" d="M0,216.5c72,0,72-46.5,128-46.5c56,0,56,46.5,128,46.5c0,1.8,0,3.7,0,5.5c-85.3,0-170.7,0-256,0
	C0,220.1,0,218.3,0,216.5z"/>
<path class="st1" d="M512,216.5c-72,0-72-46.5-128-46.5s-56,46.5-128,46.5c0,1.8,0,3.7,0,5.5c85.3,0,170.7,0,256,0
	C512,220.1,512,218.3,512,216.5z"/>
<path class="st2" d="M256,218.6c-72,0-72-38.7-128-38.7c-56,0-56,38.7-128,38.7c0,1.1,0,2.2,0,3.3c85.3,0,170.7,0,256,0
	C256,220.8,256,219.7,256,218.6z"/>
<path class="st2" d="M256,218.6c72,0,72-38.7,128-38.7s56,38.7,128,38.7c0,1.1,0,2.2,0,3.3c-85.3,0-170.7,0-256,0
	C256,220.8,256,219.7,256,218.6z"/>
<path class="st0" d="M170.7,217.4c-48,0-48-32.4-85.3-32.4C48,184.9,48,217.4,0,217.4c0,1.5,0,3.1,0,4.6c56.9,0,113.8,0,170.7,0
	C170.7,220.4,170.7,218.9,170.7,217.4z"/>
<path class="st0" d="M170.7,217.4c48,0,48-32.4,85.3-32.4c37.3,0,37.3,32.4,85.3,32.4c0,1.5,0,3.1,0,4.6c-56.9,0-113.8,0-170.7,0
	C170.7,220.4,170.7,218.9,170.7,217.4z"/>
<path class="st0" d="M512,217.4c-48,0-48-32.4-85.3-32.4c-37.3,0-37.3,32.4-85.3,32.4c0,1.5,0,3.1,0,4.6c56.9,0,113.8,0,170.7,0
	C512,220.4,512,218.9,512,217.4z"/>
<path class="st2" d="M0,218.3c48,0,48-31,85.3-31c37.3,0,37.3,31,85.3,31c0,1.2,0,2.4,0,3.7c-56.9,0-113.8,0-170.7,0
	C0,220.7,0,219.5,0,218.3z"/>
<path class="st2" d="M341.3,218.3c-48,0-48-31-85.3-31c-37.3,0-37.3,31-85.3,31c0,1.2,0,2.4,0,3.7c56.9,0,113.8,0,170.7,0
	C341.3,220.7,341.3,219.5,341.3,218.3z"/>
<path class="st2" d="M341.3,218.3c48,0,48-31,85.3-31c37.3,0,37.3,31,85.3,31c0,1.2,0,2.4,0,3.7c-56.9,0-113.8,0-170.7,0
	C341.3,220.7,341.3,219.5,341.3,218.3z"/>
<path class="st3" d="M170.7,219.7c-48,0-48-25.8-85.3-25.8C48,193.9,48,219.7,0,219.7c0,0.7,0,1.5,0,2.2c56.9,0,113.8,0,170.7,0
	C170.7,221.2,170.7,220.5,170.7,219.7z"/>
<path class="st3" d="M170.7,219.7c48,0,48-25.8,85.3-25.8c37.3,0,37.3,25.8,85.3,25.8c0,0.7,0,1.5,0,2.2c-56.9,0-113.8,0-170.7,0
	C170.7,221.2,170.7,220.5,170.7,219.7z"/>
<path class="st3" d="M512,219.7c-48,0-48-25.8-85.3-25.8c-37.3,0-37.3,25.8-85.3,25.8c0,0.7,0,1.5,0,2.2c56.9,0,113.8,0,170.7,0
	C512,221.2,512,220.5,512,219.7z"/>
</svg>
