<?xml version="1.0" encoding="utf-8"?>
<!-- Generator: Adobe Illustrator 22.0.1, SVG Export Plug-In . SVG Version: 6.00 Build 0)  -->
<svg version="1.1" id="Layer_1" xmlns="http://www.w3.org/2000/svg" xmlns:xlink="http://www.w3.org/1999/xlink" x="0px" y="0px"
	 viewBox="0 0 731.6 730.3" style="enable-background:new 0 0 731.6 730.3;" xml:space="preserve">
<style type="text/css">
	.st0{fill:#009245;}
	.st1{fill:#030705;}
	.st2{fill:#39B54A;}
</style>
<circle class="st0" cx="365.9" cy="365.4" r="362"/>
<circle class="st1" cx="365.9" cy="365.4" r="328.2"/>
<path class="st2" d="M518.2,128.8c-6.3-6.5-11.5-14.6-21.9-15.2c-4.9-0.3-8.7-3.4-11.6-7.1c-1.2-1.5-1.1-4-1.5-6.1
	c1.7-0.2,3.4-0.9,5.1-0.7c10.6,1.2,19.2,5.4,25.3,15c5,7.8,11.7,14.6,17.7,21.9c0.4-0.2,0.8-0.5,1.1-0.7c-0.2-0.7-0.4-1.5-0.6-2.2
	c-1.7-4.3-3.7-8.6-5-13c-0.5-1.6,0.7-3.7,1.1-5.6c1.7,0.6,4,0.8,5.1,2c2.2,2.6,4.3,5.6,5.4,8.8c1.7,5,2.7,10.2,3.8,15.4
	c0.9,4.1,2.8,7.1,6.1,9.9c4.5,3.8,8.4,8.3,12.5,12.6c0.3-0.1,0.6-0.2,0.9-0.4c-0.5-1.7-1-3.4-1.5-5c-2.2-6.8-4.6-13.7-6.7-20.6
	c-0.5-1.8-0.3-3.9,0-5.8c0.2-1.4,1.3-3.7,1.8-3.7c1.8,0.2,4,0.8,5,2c4.1,5.5,6.4,11.9,6.6,18.7c0.1,5.4-0.6,10.8-0.6,16.3
	c0,2.4,0.6,5.2,1.9,7.1c4.4,6.5,9.2,12.7,13.9,19.1c0.6,0.8,1.2,1.6,1.7,2.5c0.5-0.2,1-0.4,1.4-0.6c-0.8-4.7-1.9-9.4-2.2-14.2
	c-0.3-5.1,0-10.3,0.5-15.4c0.2-1.6,2.1-4.2,3.2-4.2c1.6,0,4,1.6,4.8,3.1c3.3,6.6,3.7,13.7,1.3,20.7c-1.1,3.4-3.6,6.3-4.8,9.7
	c-0.7,1.9-0.9,4.8,0,6.4c6.7,12.2,13.8,24.2,20.8,36.3c0.2,0.3,0.5,0.5,1.1,1c3.4-3.6,2.5-7.6,1.2-11.5c-2.5-7.5-4.1-15.1-2.2-22.8
	c1.3-5,3.8-9.8,6.1-14.5c1.5-3.1,3.8-2.6,6-0.5c0.6,0.5,1.1,1.1,1.4,1.8c7.1,14.1,9.7,31-3.5,43.9c-7.9,7.7-7,7.9-3.1,18
	c6.8,17.7,12.8,35.6,19.2,53.4c0.6,1.7,1.1,3.4,1.8,5.7c3.2-3.1,4.5-6.4,4.4-10.2c-0.2-12.7,4.6-23.9,10-35c0.3-0.7,0.7-1.4,1.3-1.9
	c1.9-1.6,4.7-4.8,5.7-4.4c2.2,1,4.2,3.7,5.2,6.1c7.3,17.4-3.2,37.8-17.1,44.1c-6.5,3-8.6,6-6.4,14.1c3.6,13,5.5,26.5,8.1,39.7
	c0.3,1.3,0.8,2.5,1.2,3.8c0.4,0.1,0.9,0.2,1.3,0.3c0.8-1.7,1.9-3.3,2.4-5.1c1.6-5.4,2.8-11,4.4-16.4c2.7-9.6,10.1-15.4,17.4-21.3
	c2.7-2.2,3.6,0.3,4.1,2.4c1.6,7.2,0.5,14.1-2,20.9c-4.2,11.4-13.6,17.1-24,21.6c-0.9,0.4-2,0.6-2.3,0.7c0,9.3,0,18.3,0,27.3
	c0,7.9,0.1,15.7-0.1,23.6c0,1.2-1.1,2.6-2,3.5c-2,1.8-4.2,3.4-6.9,5.5c3.2-16.6,2.7-32.8,2.2-49c0-1.3-0.1-2.6-0.2-3.9
	c-0.3-4-1.8-6.5-6.2-8c-11-3.7-21.3-9-28.2-18.8c-2.8-4-4.7-8.8-6.7-13.3c-1.4-3.3,0.8-4.7,3.6-4.6c2.8,0.1,5.6,0.9,8.3,1.8
	c11.2,3.9,17,12.9,21.5,23.1c0.9,2,1.4,4.2,2.5,6.1c0.7,1.2,2.1,2,3.2,3c0.4-0.3,0.8-0.5,1.2-0.8c-0.7-4-1.3-7.9-2.2-11.9
	c-2.3-10.9-4.6-21.8-7-32.7c-1.6-7.4-10.5-13.5-17.8-12.1c-16.8,3.1-28.9-4.9-39.2-16.8c-1.9-2.2-4-5.5-1.7-8c1.7-1.9,5.1-3.1,7.7-3
	c10,0.2,19,3.4,26.3,10.6c4.5,4.4,9.3,8.6,14.1,12.7c1.8,1.6,4,2.8,6.8,4.7c-0.3-2.3-0.3-3.5-0.7-4.6c-6.6-17.9-13.2-35.7-19.8-53.6
	c-2.1-5.7-6.5-8.5-12.3-9.1c-6.2-0.7-12.3-1.2-18.5-2.2c-6.2-1-11.5-4-16-8.2c-1.2-1.1-2.3-3.3-2-4.5c0.4-1.5,2.3-3.3,3.9-3.6
	c9.7-2,18.7-1.2,26.1,6.6c3.4,3.6,7,7.2,13.4,8.4c-3.5-6.6-6.6-12.3-9.7-18c-1.1-2-3-3.7-3.8-5.8c-2.3-6.3-6.4-7.6-12.9-7.1
	c-6.7,0.6-13.6-0.4-20.4-1.3c-2.6-0.4-5.3-2.2-7.2-4c-2.3-2.2-1.5-4.7,1.6-5.5c8.7-2.3,16.9-1.1,24.4,4.2c2.2,1.5,4.8,2.5,7.2,3.7
	c0.3-0.4,0.6-0.8,0.9-1.1c-1.3-2-2.5-4.1-3.9-6c-5.7-8.1-11.2-16.4-17.4-24.2c-5.2-6.5-11.2-12.4-17.1-18.4
	c-4.6-4.7-9.3-9.3-14.2-13.6c-3.9-3.4-8.2-5.5-14-4.1c-6.5,1.5-12.4-1.8-17.6-5.6c-0.9-0.6-1.5-2.7-1.1-3.5c0.6-1.3,2.4-2.9,3.4-2.8
	c4.1,0.5,8.1,1.5,12.1,2.4C515.9,127.8,517,128.4,518.2,128.8z M585.6,291.9c5.8,7.5,13.4,12.2,22.5,13.6
	C600.8,301.1,593.2,296.5,585.6,291.9z M660.1,272.5c-0.2,11.1-4.8,20.4-12,28.6C656.6,293.4,661.8,284.4,660.1,272.5z M675.7,333.3
	c-2.3,5.7-4.6,11.1-7.1,17.3C673.2,345.2,676.1,340,675.7,333.3z M584.6,235.4c-5.3-2.3-11.2-4.9-16.9-7.4
	C572.3,232.4,581.3,236.1,584.6,235.4z M621.2,353.6c0.4-0.4,0.8-0.8,1.3-1.2c-3.3-3.6-6.7-7.2-10-10.8c-0.3,0.3-0.6,0.6-0.9,0.8
	C614.7,346.2,617.9,349.9,621.2,353.6z M606.3,297.8c0.3-0.4,0.6-0.9,0.9-1.3c-4.3-2.7-8.5-5.4-12.8-8.2c-0.2,0.3-0.4,0.6-0.6,0.9
	C597.9,292.2,602.1,295,606.3,297.8z M625.6,348.9c0.4-0.4,0.9-0.9,1.3-1.3c-2.8-2.8-5.6-5.5-8.4-8.3c-0.3,0.3-0.7,0.7-1,1
	C620.2,343.1,622.9,346,625.6,348.9z M586.6,231.2c0.1-0.4,0.3-0.8,0.4-1.2c-4.8-1.8-9.5-3.6-14.3-5.4c-0.1,0.4-0.3,0.8-0.4,1.2
	C577.1,227.6,581.9,229.4,586.6,231.2z M567,201.9c0-0.3,0-0.6,0-0.8c-4-0.6-8.1-1.3-12.1-1.9c-0.1,0.4-0.1,0.8-0.2,1.2
	C558.8,200.9,562.9,201.4,567,201.9z M652.6,280.9c-0.3-0.2-0.6-0.4-1-0.5c-1.4,3.6-2.8,7.2-4.2,10.8c0.3,0.1,0.6,0.2,0.9,0.4
	C649.8,288,651.2,284.5,652.6,280.9z"/>
<path class="st2" d="M279.3,211.9c-2.4,2.6-4.8,5.3-7.3,7.8c-2.1,2.1-4.4,4.1-7.4,6.9c-0.6-3.6-0.8-5.8-1.3-8
	c-2.2-8.6-4.9-17.1-6.5-25.8c-3.1-16,3.5-27.3,18.9-32.7c8.2-2.9,16.8-4,25.5-3c8.4,0.9,16.5,0.1,24.1-3.6c3.1-1.5,4.4-0.6,6.1,2.1
	c5.9,9.8,1.5,17.5-8.1,19.8c-3.9,0.9-7.8,1.8-11.7,2.2c-5.4,0.5-9.1,3.2-10.6,8.2c-1.2,3.9-1.5,8-1.8,12.1c-0.1,1.1,1.1,2.3,1.7,3.5
	c0.6-0.1,1.2-0.3,1.7-0.4c0-2.1-0.1-4.2,0-6.3c0.2-4.7,1.3-9.4,5.7-11.7c2.9-1.5,6.7-1.4,10.1-2c0.9-0.1,1.8,0,2.7-0.1
	c5.4-0.6,5.6-0.6,6.7,4.7c1.7,8.5,3.2,17.1,4.7,25.7c0.1,0.7,0.3,1.9-0.1,2.2c-4.3,3.3-3.2,8.4-4.1,12.7
	c-2.6,11.6-8.5,12.7-17.9,10.8c-8-1.6-14.1-6.1-18.1-13.4c-0.4-0.7-1-1.3-1.9-1.7c-0.1,8.4,5.1,13.2,12.6,17
	c-5.6,6-11,11.7-16.2,17.3c-7.5-8.6-14.7-16.9-22-25.4C271.9,226.3,278.5,221.3,279.3,211.9c3.8,2.3,7.4,5.4,12.7,4.8
	c-1.3-1.7-2.9-3-4.7-4.1c-4-2.5-6.6-5.8-6.6-10.6c0-2.9,0.9-5.5,4.1-6.2c3.1-0.7,4.2,1.7,5.3,4c1.1,2.3,2.3,4.6,3.4,6.8
	c0.5-0.2,0.9-0.3,1.4-0.5c-0.4-2.5-0.6-5-1.2-7.3c-1.4-5.1-4.5-7.6-8.7-7.2c-4.8,0.5-8.5,3.9-8.3,9
	C276.9,204.3,278.4,208.1,279.3,211.9z M301,170.8c14.2,1.9,26.7-3.1,27.7-11C321.1,168.2,310.3,167.4,301,170.8z M286.2,164.8
	c-5.3-0.8-12.7,5.1-13.2,10.4C277.2,171.9,281.9,168.2,286.2,164.8z M262.4,184.3c0.6,0.2,1.1,0.3,1.7,0.5c1.4-4.6,2.7-9.1,4.1-13.7
	c-0.5-0.1-0.9-0.3-1.4-0.4C265.3,175.2,263.9,179.8,262.4,184.3z"/>
<path class="st2" d="M399.5,261.4c-11.8,0-23.5,0.1-35.3,0c-6-0.1-6.6-0.8-6.6-6.9c0-11.4,0-22.8,0.1-34.1c0.1-5.2,0.5-5.3,5.6-5.4
	c14.3-0.4,28.7-1.4,43-1.5c9.4-0.1,18.8,1.1,28.2,1.6c3.6,0.2,3.2,2.7,3.3,4.9c0.2,10.9,0.3,21.7,0.4,32.6c0,1.2,0,2.3,0.1,3.5
	c0.9,6.2,0.9,6.2-5.1,6.2c-11.3,0-22.5,0-33.8,0C399.5,261.9,399.5,261.6,399.5,261.4z M367.6,220.7c-0.5,0-0.9,0-1.4,0
	c-0.2,0.3-0.7,0.5-0.7,0.8c-0.2,10.7-0.4,21.4-0.5,32.1c0,0.8,1,1.6,1.5,2.3c0.4-0.1,0.8-0.3,1.1-0.4
	C367.8,243.8,369,232.2,367.6,220.7z M374.1,253.5c0,0.4-0.1,0.7-0.1,1.1c9.6,0,19.3,0,29.4,0C400.7,252.6,378.6,252,374.1,253.5z
	 M403.3,247.8c0-0.4,0-0.8,0-1.2c-9.6,0-19.3,0-28.9,0c0,0.4,0,0.8,0,1.2C384.1,247.8,393.7,247.8,403.3,247.8z M389.1,227.4
	c-2.6-4.8-14.6-5.4-18.1-1C376.8,226.7,382.5,227,389.1,227.4z M374.5,240.2c0,0.3,0,0.7,0,1c7.3,1.2,27.4,0.4,29-1
	C393.9,240.2,384.2,240.2,374.5,240.2z M381.7,233.3c15.4,2.4,19.7,2.4,22.6,0C396.4,233.3,389.1,233.3,381.7,233.3z"/>
<path class="st2" d="M499.4,349.9c1.5-1.7,3-3.2,4.4-5c7.4-9.7,16.1-17.2,29.3-16.6c0.6,0,1.4-0.1,1.9,0.2c1.7,0.8,3.3,1.8,4.9,2.7
	c-0.9,1.6-1.4,3.9-2.8,4.6c-5.6,2.9-11.3,5.5-17.1,7.8c-3.3,1.3-7,1.7-10.3,3.1c-9.2,3.8-12.4,12-13,20.9c-0.8,11.4-0.2,23-0.2,34.5
	c0,1,0.6,2.1,1.1,4.1c2.7-6,4.7-11.3,7.3-16.3c5.2-10.1,13.2-16.8,24.9-17.9c3.6-0.4,4.7,1.3,3.3,4.7c-3.8,9.1-11.7,13.9-19.7,18.4
	c-4.1,2.4-8.1,4.6-10.9,9c-5.4,8.3-3,16.5-0.4,24.5c2.8,8.2,6.7,16.1,10.1,24.1c0.7,1.5,1.3,3.1,1.8,4.7c0.7,2.5,1.5,4.6,4.9,3.3
	c-3.4,1.7-6.7,3.4-9.6,4.8c-1.9-5.4-3.9-10.4-5.4-15.5c-3.5-11.7-7.2-23.4-10-35.4c-1.9-8.2-5.8-14.7-11.6-20.5
	c-8.9-8.9-15.1-19.3-16.8-32c-0.2-1.5,0-3.1,0-5.3c9.7,3.3,15,9.7,17.7,18.1c1.8,5.5,2.6,11.3,4,16.9c0.6,2.4,1.5,4.6,2.3,6.9
	c0.5-0.1,1-0.2,1.5-0.3c0.1-1.3,0.3-2.5,0.4-3.8c0.5-10,0.9-20,1.3-30.1c0-0.9-0.3-2.1-0.9-2.8c-5.2-6.6-10.3-13.3-15.9-19.5
	c-4.4-4.9-6.3-10.6-6.6-16.9c0-0.8,0.5-2.1,0.9-2.2c1.3-0.2,2.9-0.2,3.9,0.4c8.9,5.2,13.1,13.5,14.6,23.5c0.6,3.8,1.3,7.5,5,10.4
	c1.1-6.3,2-12,3.1-17.8c0.3-1.9,1.4-3.8,1.2-5.6c-0.2-2.8-0.7-5.7-1.7-8.3c-3.6-9.9-10.7-19-7.9-30.4c0.9-3.6,3.3-6.9,5.5-10
	c1.5-2,3.4-1.7,4.9,0.8c6.4,10.9,7.3,22,2.7,33.8c-0.8,2.2-0.6,4.8-0.8,7.2c0.5,0.2,1,0.4,1.5,0.5c1.6-2.1,3.3-4.1,4.6-6.4
	c6-10.1,11.3-20.7,20.4-28.5c1.7-1.5,3.8-2.5,6.2-3.1c-2.1,5.4-3.6,10.9-9.1,13.7c-5.2,2.7-7.2,7.7-9.6,13.4
	c7.4-2.6,13.9-4.9,20.4-7.2c-0.2-0.6-0.4-1.2-0.6-1.8c-5.6,1.9-11.3,3.8-16.6,5.5c3.6-7.4,16.4-10.4,22.2-4.2
	c-1.8,1.5-3.4,3.5-5.5,4.5c-4.9,2.3-9.8,4.8-15,6c-6.6,1.5-10.9,5.4-14.6,10.6c-4,5.7-5.9,12.1-7,18.9
	C498.6,349.3,499,349.6,499.4,349.9z M497.6,291.7c1,7,2.1,14,3.2,21.5c2-9.2,0-20.6-4-24.9c-6.7,6.6-5.9,18.3,0,29.4
	c-0.5-4.4-1.5-8.6-2.1-13C494,300.2,493.4,295.7,497.6,291.7z M480.6,387.2c2.5-9.6-4.4-23.7-11.9-25.1
	C470,371.5,473.2,380,480.6,387.2z M525.2,375.4c-7.9,3.4-15.6,6.9-17.2,16.8C510.7,383.3,519.7,381.2,525.2,375.4z M529.5,375
	c-5.6,5.4-10.5,10-15.3,14.6C520.7,386.6,526.9,383.4,529.5,375z M534.2,332.2c-0.2-0.4-0.4-0.8-0.6-1.2c-5.3,2.7-10.6,5.4-15.9,8
	c0.2,0.3,0.3,0.6,0.5,1C523.7,337.8,530.1,337.3,534.2,332.2z M474,326.7c-0.4,0.2-0.8,0.5-1.2,0.7c3.5,5.4,7,10.8,10.5,16.2
	C483,336.3,477.6,332,474,326.7z"/>
<path class="st2" d="M394.1,294.1c0.1-3-0.4-6.2,0.5-8.9c3.7-10.5,16.7-13.2,24.1-5c2.9,3.3,4.9,7.4,6.9,10.5
	c2.7-11.5-12-21.4-23-16.7c-5.3,2.3-9.3,5.4-11.1,11.1c-0.3,1-1.7,2.2-2.7,2.4c-17.2,2.5-33.2,8.8-49.1,15.2c-3.5,1.4-4.8-0.1-6-2.5
	c-1.4-2.7,0-3.8,2.5-4.8c15.1-6,30.2-11.6,46.3-14.5c2.3-0.4,4.5-1.2,6.5-2.3c1.3-0.7,2.2-2.3,3.3-3.5c-0.2-0.4-0.4-0.8-0.6-1.3
	c-5.2-0.3-10.4-0.5-15.9-0.8c0-2.4,0-4.6,0-7.4c1.3-0.1,2.7-0.2,4-0.2c18.5,0,37,0,55.5,0.1c5.4,0,5.8,0.6,4.3,7
	c-4.6,0-9.4,0-14.6,0c1,4.4,2,8,2.7,11.7c1.9,10.7-5.2,20.1-16.9,20.7c-3.8,0.2-7.6-1-11.4-1.5C397.7,300.3,395.9,297.2,394.1,294.1
	z M409.4,282.4c-4.8,0-8.4,2.9-8.4,6.7c0,4.5,3.5,8.1,8,8.1c4,0,7.5-3.4,7.5-7.3C416.5,285.5,413.5,282.4,409.4,282.4z"/>
<path class="st2" d="M538.2,207.2c0,2.6,0,4,0,5.4c0,17.2-0.1,34.3,0,51.5c0,3-1.1,4-4,3.6c-6-0.9-12-1.5-18-2.6
	c-5.3-1-7-3.7-6.7-9.1c0.4-8.4,0.9-16.8,1-25.2c0.1-4-0.5-8-0.9-11.9c-0.4-4.9,1-7,5.7-7.8C522.7,209.7,530.1,208.6,538.2,207.2z
	 M514.8,221.7c2.2-1.1,4.4-2.5,6.8-3.2c3.7-1.1,7.5-1.7,11.2-2.7c1.1-0.3,2-1.4,3-2.1c-0.2-0.3-0.5-0.6-0.7-1
	c-4.7,1-9.4,2.2-14.2,2.9C516.6,216.2,514,217.8,514.8,221.7z"/>
<path class="st2" d="M437,189.6c1-1.7,2-3.5,3.1-5.3c-0.1-0.2-0.2-0.6-0.5-0.7c-6.7-3-8-5.7-6.4-13c0.9-4,3.2-6,7.3-6.1
	c5.1-0.1,10.3,0,15.7,0c0,6.4,0,12.6,0,19.1c-3.5,0.3-6.7,0.7-9.6,1c0.2,1.7,0.9,3.3,0.5,4.6c-0.9,2.7-2.2,5.2-3.6,7.7
	c-1.6,2.9-3.6,5.6-5,8.7c-3.2,6.9-3.6,7.2-11.9,4.8c1.5-3.4,3.1-6.8,4.7-10.5c-1.2-0.1-2.1-0.3-3.1-0.3c-14.5,0-29,0.1-43.4-0.1
	c-3.8,0-6.1,1.2-7.2,4.8c-0.5,1.7-1.3,3.4-2.3,4.9c-0.6,0.9-1.8,1.8-2.7,1.9c-6.9,0.5-7.3-0.1-4.8-6.7c0-0.1,0.1-0.3,0.1-0.4
	c4.6-12.2,5.8-13,18.7-13c16.8,0,33.6,0,50.4,0C437,190.4,437,190,437,189.6z"/>
<path class="st2" d="M151.8,120.2c-2.9,2.1-5.8,4.3-8.7,6.4c0.2,0.5,0.4,0.9,0.6,1.4c4.8,0,9.6,0,14.3,0c0.1,0.4,0.1,0.8,0.2,1.2
	c-1,0.2-1.9,0.6-2.9,0.7c-3.9,0.1-7.8,0.3-11.6,0.1c-4.1-0.2-5.9,2.2-7.8,5.7c8.1,0.9,15.8-0.7,23.4,0.7c0,0.4,0,0.8,0,1.2
	c-0.7,0.2-1.3,0.6-2,0.6c-8-0.1-16,0.1-24-0.5c-1.9-0.1-4-2.6-5.1-4.4c-0.5-0.8,0.7-3.4,1.8-4.5c15.8-15.7,33.2-29.5,51.8-41.8
	c9.1-6,18.7-11.5,28.1-17.1c0.7-0.4,1.5-0.8,2.6-1.3c-0.4,6.5-2.2,11.9-7.4,16.4c0.5-0.1,0.3,0,0,0c-7.9-2.6-10.3-2.1-15.3,4.6
	c-2.6,3.5-5.5,6.3-9.3,8.3c-1.8,1-3.2,2.8-4.5,5.2c4.7,0,9.3,0,14,0c0.1,0.3,0.1,0.7,0.2,1c-0.7,0.3-1.4,1-2.1,1
	c-3.6,0-7.4,0.5-10.8-0.4c-6.1-1.6-9.5,2.2-13.4,5.6c11.2,1.2,22.3,0.2,33.4,1.1c0,0.5,0.1,1.1,0.1,1.6c-1.7,0.3-3.3,0.8-5,0.8
	c-8.9-0.2-17.9-0.2-26.7-1c-5.5-0.5-9,2.1-12.3,5.7C152.8,119,152.3,119.6,151.8,120.2C151.8,120.2,151.8,120.2,151.8,120.2z"/>
<path class="st2" d="M343.7,355.2c1.1,0.4,2.3,0.7,3.2,1.4c1.1,0.8,2.8,2.6,2.5,3c-1.1,1.8-2.8,4.8-4.2,4.7
	c-7.4-0.2-14.9-1.1-22.3-2c-1.2-0.1-2.8-1.5-3.1-2.6c-1.4-4.8-2.5-9.7-3.5-14.6c-0.2-0.9,0.3-2.5,1-3c9.4-6.6,19.4-11,31.2-6.8
	c3.4,1.2,6.8,2.9,7.3,7.2c0.1,0.7-0.3,1.4-0.4,2c-3.3-1.4-6.4-2.6-9.5-3.9c-0.2,0.4-0.4,0.9-0.6,1.3c2.2,1.2,4.5,2.2,6.6,3.5
	c1,0.7,1.7,1.9,2.5,2.9c-1.2,0.2-2.5,0.4-3.7,0.5c-0.5,0-1-0.2-2.5-0.5c1.6,1.1,2.8,1.5,3.1,2.2c0.5,1.3,0.5,2.9,0.8,4.4
	c-1.2,0.2-2.5,0.6-3.6,0.5c-1.5-0.2-3-0.9-4.4-1.4C343.9,354.4,343.8,354.8,343.7,355.2z"/>
<path class="st2" d="M399.2,566.7c1.4-9.2,2.1-17.4,4-25.4c1.8-7.4,6.3-9.6,13.7-8.3c1,0.2,2.1,0.2,3,0c10.5-3.3,19.4-9,25.8-18.1
	c5.6-7.9,5.1-16.9,4.1-25.8c-0.5-4.6,0.8-8.2,3-11.8c0.4,0,0.8,0,1.2,0.1c0,1.9-0.1,3.9,0,5.8c1.4,27.1-11.2,47.9-30.3,65.6
	c-6.2,5.8-13.3,10.6-20,15.8C402.7,565.3,401.4,565.6,399.2,566.7z M410.2,552c5.8-4.4,10.2-12.7,9-16.7
	C415.1,538.1,410.1,547.5,410.2,552z"/>
<path class="st2" d="M394.7,553.5c1,3.7,2.3,7.6,3.1,11.5c0.2,0.9-1,2.6-1.9,3.2c-5.3,3.1-10.7,6.2-16.3,9
	c-13.9,7-27,15.2-39.1,25.1c-0.8,0.6-1.7,1.1-2.8,1.9c-1.4-6.8,1.2-12.7,2.1-18.8c0.9-6.1,4.4-9.2,9.9-11.4
	c5.7-2.3,11.3-3.9,17.5-3.9c12.2,0,21.9-4.4,27.1-16.3C394.6,553.5,395,553.2,394.7,553.5z M346.7,586.9c0.5,0.4,1,0.9,1.5,1.3
	c2.5-1.9,5.3-3.5,7.6-5.7c0.8-0.8,0.6-2.6,0.9-3.9c-1.5,0-3.7-0.6-4.4,0.2C350.2,581.2,348.6,584.1,346.7,586.9z"/>
<path class="st2" d="M241,493.7c-1.2,5-5.7,10.4,2.4,14.7c0-2.8,0.3-5.5-0.1-8c-1.3-8.6,2.1-14.6,10.3-17.1c0.7-0.2,2.6,1.4,2.9,2.4
	c1,4.5,1.6,9.2,2.5,13.7c0.3,1.4,0.9,2.7,1.4,4c0.4,0,0.7-0.1,1.1-0.1c0.2-2,0.5-4,0.9-7.2c2.2,3.5,4.4,6,3,9.1
	c-3.1,7-6.7,13.9-11,20.9c-0.5-6.2-0.9-12.4-1.5-18.6c-0.4-4.6-0.9-9.2-1.7-13.8c-0.2-1.4-1.7-2.5-2.6-3.7c-0.6,1.6-2,3.3-1.8,4.8
	c1.5,12.7,3.5,25.3,4.9,38c0.4,3.2-0.7,6.6-1.2,10C234.1,536.5,228.7,509.1,241,493.7z M245.6,533.3c0.4-0.1,0.7-0.2,1.1-0.3
	c-1.1-5.1-2.1-10.3-3.4-15.4c-0.2-0.7-1.6-1.1-2.4-1.6c-0.4,1-1.5,2.2-1.2,2.9C241.4,523.7,243.6,528.5,245.6,533.3z M240.3,514.6
	c1.8-3.8,0.2-6.8-4.3-8.2C237.5,509.1,238.9,511.9,240.3,514.6z"/>
<path class="st2" d="M560.3,474.7c1.9-4.6,3.7-9.2,5.8-13.8c2.3-5.2,4.6-10.4,7.2-15.4c1.8-3.5,4.8-6.4,6.3-10
	c1.9-4.4,5.9-5.5,9.3-7.9c2-1.4,3.7-3.9,4.5-6.3c3.8-11.9,11.8-19.5,23.1-24c2.7-1.1,5.6-1.6,8,0.7c2.5,2.3,2,5.1,1.1,7.9
	c-4.5,13.8-14,21.6-28.2,23.9c-2.3,0.4-4.6,0.9-6.8,1.5c-6.4,1.7-10.6,5.3-12.6,12.1c-3.4,11.6-9.6,21.9-16.3,31.8
	C561.1,475.1,560.7,474.9,560.3,474.7z M620.8,402.5c-0.2-0.2-0.4-0.5-0.7-0.7c-6.4,3.4-18.7,15.8-19.6,20.7
	C607.3,415.7,614.1,409.1,620.8,402.5z"/>
<path class="st2" d="M583.2,427.1c0.4-3.4,0.5-6.8,1.2-10c1.4-6.6,3.2-13,4.6-19.6c0.3-1.5-0.1-3.5-0.8-4.9c-8-15-6.8-29.5,2.2-43.6
	c1.9-3.1,4.1-3,6.4,0.1c4,5.5,5.8,11.8,6,18.5c0.3,9.6-0.9,18.8-8,26.2c-1,1.1-1.3,3-1.7,4.5c-2,8-3.8,16.1-5.8,24
	c-0.5,1.8-1.7,3.4-2.6,5C584.2,427.3,583.7,427.2,583.2,427.1z M594.7,354.3c-0.6,0-1.2,0-1.8,0c-0.7,12.9-2.7,25.7-0.1,38.7
	C593.5,380.1,594.1,367.2,594.7,354.3z"/>
<path class="st2" d="M458.2,184.7c0.5-7.4,1-13.9,1.4-20.6c8.4,0,17,0,25.6,0c1.8,0,3.6,0.3,5.4,0.4c4.8,0.2,7.3,2.7,7.4,7.5
	c0,2.1,0.5,4.5-0.4,6.1c-1.2,2-3.4,4.5-5.4,4.7C481,183.8,469.7,184.1,458.2,184.7z"/>
<path class="st2" d="M403.4,439.4c-1.4-1.5-2.8-2.9-4.7-4.9c0.9,5.3,1.8,9.9,2.4,14.5c0.6,4.6,0.9,9.2,0.4,13.8
	c-2.9-6.5-6.5-12.7-8.5-19.5c-1.3-4.4-2-10.4,0.1-13.9c3-5,2.3-10.3,4.4-15.1c2-4.6,4.4-9,7.1-13.2c2.1-3.3,3.6-3,5.4,0.6
	c4.9,10.2,5.6,20.8,2.3,31.6c-1.3,4.4-3.2,8.7-5.1,13.7c-1.5-3.1-2.6-5.4-3.8-7.8c0.5-1.2,1.4-2.4,1.5-3.6c0.5-4.4,0.6-8.8,1-13.1
	c0.4-5.1,1-10.1,1.5-15.2c-0.4,0-0.8-0.1-1.2-0.1C404.4,417.9,403,428.6,403.4,439.4z"/>
<path class="st2" d="M232.2,589.3c-6.4-11.4-14-21.3-29.5-22.4c0.8-6,1.5-11.6,2.2-17.3c0.4,0,0.9,0,1.3,0c0.9,1.2,1.8,2.5,2.7,3.8
	c4.2-4.6,5.3-4.4,8.2,0.9c6.8,12.3,13.6,24.6,20.3,37c1.3,2.4,2.1,5.2,3.2,8c-18.7-1.2-37.2-15.9-37.1-29.2
	c5.6,4.1,11,8.2,16.8,12.4c-1.2,0.8-2.2,1.4-3.8,2.4c5.3,1.8,10.1,3.5,14.9,5.2C231.7,589.8,231.9,589.5,232.2,589.3z M213.4,564.8
	c0.3-0.3,0.6-0.7,0.9-1c-2.9-2.2-5.8-4.4-9.4-7.2C205.8,562.6,210.3,563,213.4,564.8z"/>
<path class="st2" d="M493.1,613.3c-0.7-6.8-1.1-13.1-1.9-19.4c-1.4-10.3-7.9-16.3-19.2-17.7c0.9-7.5,1.8-14.9,2.8-23.6
	c1.6,2.1,2.5,3.2,3.3,4.4c4.1,6.7,9.7,11.7,16.8,15c1.2,0.5,2.3,1.3,3.4,1.9c8,4.4,8.5,5.8,5,14.4c-3,7.5-5.9,15.1-8.9,22.6
	C494.1,611.6,493.7,612.2,493.1,613.3z"/>
<path class="st2" d="M361.2,489.6c14.8-2,33.9,13.4,30.5,35.1c-8.5-7.9-11.5-19.8-20.9-26.4c-0.3,0.2-0.6,0.4-0.9,0.7
	c6.8,9.2,13.5,18.4,20.2,27.5C372.1,529.4,358.3,502.9,361.2,489.6z"/>
<path class="st2" d="M409.4,527c10.3-9.1,20.3-17.9,30.4-26.8c-12.7,3.9-19.3,15.3-29.1,22.7c-0.5-0.3-1-0.6-1.5-0.9
	c1.3-3.6,2.1-7.5,4-10.8c6.6-10.9,16.4-16.8,29.2-17.5c2.4-0.1,3.5,0.6,3.5,3.2c-0.2,16.7-17.3,32.2-34,30.5
	C411.1,527.5,410.3,527.2,409.4,527z"/>
<path class="st2" d="M531,564.5c4.4-14.8,20.4-25.1,35.3-22.4c5.2,0.9,7.2,1.9,4.9,8c-3.9,10.2-12.9,17-23.8,17.3
	C541.7,567.6,536,568.1,531,564.5z M567.6,546c-5.9-0.2-24.8,9.2-29,14.3C548.9,556.2,558.3,552.3,567.6,546z"/>
<path class="st2" d="M535.4,516.4c-5-5.2-10.9-11.1-16.6-17.3c-6.1-6.7-8.8-14.4-6.7-23.5c1.5-6.3,5.6-8.3,11.2-5
	c6.2,3.7,10.1,9.2,11.8,16.2c0.8,3.1,1,6.4,1,9.6C536.1,503.3,535.6,510.3,535.4,516.4z M519.7,473c-0.6,0.3-1.2,0.5-1.8,0.8
	c4.7,10.1,9.3,20.3,14,30.4c0.4-0.2,0.8-0.4,1.2-0.5C531.2,492.2,524.8,482.9,519.7,473z"/>
<path class="st2" d="M554.9,479.4c-1.4-5.9-5.5-9.7-9.3-13.7c-5.2-5.4-11-10.6-11.7-18.6c-0.4-4.2,0.5-8.6,1.1-12.9
	c0.4-2.4,2.2-3.4,4.8-3.4c7,0.1,10.7,4.8,13.7,10c4.3,7.5,5.6,15.6,3.3,24.2c-0.8,2.8-0.8,5.8-1.2,8.8
	C555.4,475.6,555.2,477.5,554.9,479.4z M553.2,465.3c0.3-0.1,0.6-0.2,0.9-0.3c-2.1-11-6.3-21.1-13.9-29.7
	C544.5,445.3,548.8,455.3,553.2,465.3z"/>
<path class="st2" d="M448.8,457.4c-5.3,22-16.9,30.3-39,28.8C409.2,469.3,429.6,457,448.8,457.4z M439.9,463.9
	c-0.3-0.4-0.5-0.8-0.8-1.1c-7.7,3.5-24.9,16.3-25.9,20.2C422.6,476.2,431.2,470.1,439.9,463.9z"/>
<path class="st2" d="M395.1,471.3c-15.3-0.6-29.5-16.7-24.4-39.2c11.3,0.2,29.3,24.9,26.1,37.2c-8.8-9.5-15.4-19.6-20.3-30.9
	C378.2,451.8,387.6,461,395.1,471.3z"/>
<path class="st2" d="M428.9,436.4c-6.1,6.7-12.1,13.4-18.7,20.7c-1.8-13.3,15.3-27.6,30.2-26.4c-1.1,7.4-2.6,14.7-6.9,21
	c-1,1.4-2.6,2.5-4.1,3.4c-1.8,1.1-3.6,2.2-5.6,2.6c-10.3,2.2-13.2,10.1-15,19c-0.2,0.9-1.2,1.6-1.9,2.4c-0.6-1-2.1-2.3-1.8-3
	c3-8.8,3.5-19,12.9-24.5c5.5-3.3,9.1-8.5,12.5-13.7C429.9,437.3,429.4,436.8,428.9,436.4z"/>
<path class="st2" d="M575.5,434.6c-5.4-5.3-11.1-10.4-16-16.1c-5.6-6.5-6.6-14.3-3.8-22.5c1.1-3.4,3.2-4.5,6.5-3.4
	c8.7,2.8,13,9.5,15,17.7c1.3,5.5,1.5,11.1-0.5,16.7c-0.8,2.1-0.1,4.7-0.1,7.1C576.2,434.3,575.8,434.5,575.5,434.6z M563.3,398.5
	c-0.7,0.3-1.3,0.7-2,1c4.1,8.4,8.3,16.9,12.4,25.3c0.5-0.3,1.1-0.5,1.6-0.8C571.3,415.5,567.3,407,563.3,398.5z"/>
<path class="st2" d="M334.2,308.5c-6.5,2.4-13,4.9-19.5,7.2c-4.9,1.7-9.7,3.4-14.7,4.7c-4,1-7.1-0.9-8.1-4.5c-1.1-4,0.3-7.2,4.3-8.7
	c8.3-3.1,16.7-6,25-9c7-2.5,7-2.5,10,4.5C332,304.5,333,306.2,334.2,308.5z"/>
<path class="st2" d="M505.7,573.3c-6.1-4-11.5-7-16.2-10.9c-7.1-5.9-12.3-13.1-10.1-23.1c0.9-4.3,3.9-5.9,8.1-4.4
	c10.1,3.6,17.7,14.6,18.3,26.6C505.9,565.3,505.7,569.2,505.7,573.3z M484.6,540.6c5.4,7.7,10.8,15.5,16.2,23.2
	c0.3-0.2,0.5-0.4,0.8-0.6C498.2,554.1,490.4,543.1,484.6,540.6z"/>
<path class="st2" d="M251.9,132.8c0.9,0.5,2,0.8,2.6,1.5c2.1,2.1,4.4,4.3,2.2,7.7c-2.1,3.2-6.4,4.7-9.8,3.1
	c-1.7-0.8-3.4-1.9-4.8-3.2c-2.9-2.8-6.4-3.7-10.2-4c-1.7-0.1-3.3-0.9-5-1.4c0-0.3,0-0.6,0-1c6.5-2.1,13-4.1,19.5-6.3
	c2.9-1,5.9-1.9,8.4-3.5c6-3.7,11.8-4,18-0.8c4.5,2.4,6.1,5.1,4.9,8.1c-1.3,3.1-6.2,5.5-9.9,4.1c-3.3-1.2-6.3-3.5-9.5-5
	c-1.6-0.8-3.5-0.9-5.3-1.3C252.5,131.6,252.2,132.2,251.9,132.8z"/>
<path class="st2" d="M511,604.2c1.8-2.6,3.6-5.3,5.5-7.8c5.1-6.6,12.3-9.7,20.2-10.9c3.5-0.5,7.2-0.4,10.8,0
	c3.8,0.4,4.9,2.8,3.5,6.4c-5.6,13.8-18.3,19.4-32.2,14.4C516.2,605.4,513.5,604.9,511,604.2z M547.2,589.2c-0.2-0.4-0.3-0.8-0.5-1.1
	c-8.5,3.5-17.1,7-25.6,10.6c0.2,0.6,0.5,1.1,0.7,1.7C530.5,597,539.8,595.3,547.2,589.2z"/>
<path class="st2" d="M479.4,630.9c0.8-6.7-1.4-11.5-5.3-15.6c-7.2-7.5-7.3-16.3-4.8-25.6c0.2-0.9,0.5-1.7,0.8-2.6
	c1.5-5.3,4.1-6.3,8.8-3.2c5.1,3.4,7.3,8.6,8.2,14.3c1.8,11.1-2.5,21-6.1,31C480.8,629.7,480.4,629.9,479.4,630.9z M480.1,614.2
	c0.5-0.1,1.1-0.2,1.6-0.3c-1.2-9.7-2-19.5-6.6-28.4c-0.4,0.1-0.9,0.2-1.3,0.3C475.9,595.3,478,604.8,480.1,614.2z"/>
<path class="st2" d="M272.4,589.6c6.5,2.2,9.8-2.4,13.6-6c-2.7,11.6-26.6,19-35.7,16.7c3.3-10.5,9.7-19,16.7-27.1
	c1.7-1.9,2.9-4.4,4.9-5.8c4.1-2.9,8.6-5.2,13-7.7c0.5-0.3,1.3-0.2,1.9-0.2c1.4,0,2.7,0.1,4.1,0.1c-1.1,0.9-2.1,2-3.3,2.7
	c-2.8,1.6-5.8,2.9-8.6,4.5c-1.1,0.6-2,1.6-2.7,2.8c6,0.9,11.1-0.7,15.7-4.7c0.5,5.8-0.3,6.7-5.1,7.8c-4.9,1.1-9.9,2.1-14.6,3.8
	c-2.3,0.8-4.2,3-5.8,5c-2.1,2.6-3.8,5.6-5.4,8.5c-0.5,0.9-0.3,2.3-0.5,4.2c6.4-3.6,12.1-6.8,17.8-10c0.3,0.4,0.5,0.9,0.8,1.3
	C276.8,586.9,274.6,588.2,272.4,589.6z"/>
<path class="st2" d="M295,342.3c4.3-0.7,8.6-1.5,12.9-1.9c0.7-0.1,2.1,1.2,2.4,2.1c2.2,7.9,4.2,15.9,6.1,23.9c0.7,3-0.6,4.8-3.6,5.9
	c-3.5,1.2-6.9,2.7-10.7,4.2C299.8,365.1,297.5,354,295,342.3z"/>
<path class="st2" d="M255.4,543.7c0.4-1.8,0.7-3.3,1-4.8c0.2,0.2,0.5,0.5,0.7,0.7c1.5-1,3.3-1.8,4.6-3.1
	c7.6-7.9,14.9-16.1,22.8-23.6c4.2-4,9.6-6.3,15.6-6.6c0.7,4.4-0.8,6.5-4.7,7.5c-3.5,0.9-6.9,2.1-10.4,3.1c0.1,0.4,0.2,0.8,0.2,1.3
	c3.5,0,6.9,0,10.4,0c-9.4,5.1-21.1,6.7-25.8,18.5c8.3-4.2,16.6-8.4,24.2-12.2C287.4,535.8,267.1,546.3,255.4,543.7z"/>
<path class="st2" d="M165.8,393.6c-0.2-1.8,0.1-4.1-0.8-5.2c-2.9-3.1-1.9-6.5-1-9.5c3-9.6,6.3-19.2,14.4-26c0.5-0.4,1-0.8,2.3-1.9
	c0.5,3.6,1.2,6.4,1.2,9.3c0,6,0.1,12.1-0.5,18.1c-0.9,8.4-8.2,11.7-13.9,16.2c-1.7,1.3-3.3,2.7-5.1,4.2c-5.4-7.7-5.1-16-2.3-23
	c1.1,5,2.5,11.5,3.9,17.9C164.7,393.8,165.2,393.7,165.8,393.6z M170.6,389.9c8.7-9.4,7.4-20.5,8.1-31.1c-0.6-0.2-1.2-0.4-1.8-0.5
	c-3.1,8.6-6.1,17.3-9.2,25.9c0.5,0.2,1,0.3,1.4,0.5c2.2-6.5,4.5-13,6.7-19.5c0.3,0.1,0.5,0.2,0.8,0.2
	C174.7,373.3,172.7,381.3,170.6,389.9z"/>
<path class="st2" d="M380.2,472.5c6.7,2.6,6.7,2.6,6.8,9.2c0,2.7,0,5.4,0,8.1c2.6,0.9,3.9,0.4,4-2.1c0.1-2.1,0-4.1,0.2-6.2
	c0.1-1.8-0.4-4,2.7-4.1c2.7,0,4.1,0.6,4.9,3.6c2.2,8.9,0.6,17.8,0.3,26.6c-0.1,4.4-0.9,8.7-2.2,13.3c-0.3-1.3-0.8-2.6-0.9-3.9
	c-0.8-10.5-4.4-19.5-13.2-26C376.9,486.4,376,479.3,380.2,472.5z"/>
<path class="st2" d="M465,219.8c3.8,0,7.4,0,11.1,0c0.1,1.5,0.2,2.7,0.4,4.2c-2.8,0.4-5.4,0.7-8,1c0,0.2,0,0.4,0.1,0.6
	c2.4-0.3,4.9-0.5,7.9-0.8c0.2,4.1,0.4,8,0.7,12.3c-2.9,0.2-5.4,0.3-8,0.5c0,0.2,0,0.3,0,0.5c2.5,0,5,0,7.4,0c0,6,0,11.7,0,17.3
	c0,2.3-1.3,3.1-3.5,3c-2.6-0.1-5.1,0-8,0C465,245.5,465,232.9,465,219.8z"/>
<path class="st2" d="M147.3,476.4c-3.9-5-7.7-9.7-11.3-14.5c-4.1-5.4-6.3-11.5-6.1-18.4c0.1-3.2,0.2-6.5,0.2-9.7
	c0-3.1,2.3-3.6,3.7-2c7.2,8.4,16.5,15.7,15.6,28.5c-0.1,0.9-0.5,1.7-0.9,3.1c-6.6-6-11.3-12.9-15-20.4c1.2,7.4,4.9,13.5,10.1,18.8
	C147.9,466.1,149.1,470.6,147.3,476.4z"/>
<path class="st2" d="M80.3,211.4c14.7,0,29.4,0,44.1,0c0.3,0,0.7,0.4,0.8,1.2c-2.5,0.2-5.1,0.4-7.6,0.4c-12.3,0.1-24.5,0.2-36.8,0.4
	c-1.1,0-3,0.7-3.2,1.5c-1.3,5.3-4.3,3.3-7.3,1.9c-0.6-0.3-1.1-0.7-2.5-1.6c5.7-9.8,11.3-19.6,17.3-30c3.4,4.5,6.1,8.1,9.1,12.1
	c-4.5,0.2-8.7-0.3-9.6,5c5.6,0.4,11,0.7,16.4,1.1c0,0.6,0,1.2-0.1,1.7c-4.5,0-9,0-13.4,0C82.7,205.4,81.3,206.6,80.3,211.4z"/>
<path class="st2" d="M461.1,256.6c-4.1,0.3-7.3,0.6-11.2,0.9c0-12,0-23.8,0-35.9c3.5,0,7.3,0,11.2,0
	C461.1,233.3,461.1,244.8,461.1,256.6z"/>
<path class="st2" d="M382,314.3c-0.4-6.4,0.2-7.2,6.2-7.2c9.6,0,19.1,0.2,28.7,0.2c4.8,0,9.5-0.6,14.3-0.6c4.1,0,5.2,1.2,4.5,5.2
	c-0.2,1-1.7,2.5-2.7,2.6c-4.1,0.4-8.3,0.3-12.4,0.3c-11.8,0-23.5-0.2-35.3-0.3C384.3,314.6,383.3,314.4,382,314.3z"/>
<path class="st2" d="M486,239.8c0-6.5,0-13,0-19.5c3.6-1.2,5,0.3,4.9,3.6c-0.2,10.2-0.4,20.4-0.5,30.6c0,2.1-0.8,3.2-3,3.1
	c-2.4,0-4.8,0-7.3,0c0-12.6,0-25,0-37.4c3-0.8,4.1-0.1,4,2.8c-0.1,5.6,0,11.2,0,16.8C484.7,239.8,485.4,239.8,486,239.8z"/>
<path class="st2" d="M540.3,504.8c0-3.8,0-7.6,0-11.4c0.1-9.8-2.6-18.6-9.4-25.9c-1-1-2.1-2.2-2.4-3.5c-0.3-1.3,0.5-2.8,0.8-4.3
	c1,0.4,2.2,0.5,3,1.2c4.8,4.1,9.6,8.3,14.1,12.6c4,3.9,5.7,8.4,2.9,13.9c-2.9,5.8-5.6,11.8-8.4,17.6
	C540.7,505,540.5,504.9,540.3,504.8z"/>
<path class="st2" d="M146.7,497c-7.7-6.2-16.2-11.3-20.2-21c-2-5.1-2.2-10.1-0.9-15.2c0.9-3.4,2.9-1.8,4.1-0.2
	c4.2,5.2,8.5,10.4,12.4,15.8C147.2,483.6,147.3,485,146.7,497z M145.1,490.4c0.3-0.3,0.6-0.6,0.9-0.8c-5.7-7.1-11.4-14.2-17.1-21.3
	C131.7,477.7,138,484.3,145.1,490.4z"/>
<path class="st2" d="M151.4,446.5c-3.3-4.2-6.6-7.7-9.2-11.7c-4.9-7.5-6.8-15.8-4.3-24.7c0.4-1.3,1.9-3.3,2.6-3.2
	c1.4,0.2,2.9,1.5,3.7,2.7c2.6,4.1,5,8.5,7.5,12.7c3,5.1,2.7,10.2,1,15.6C151.9,440.5,151.8,443.2,151.4,446.5z M140.1,412.1
	c0.8,9.8,6.4,17.4,11.5,25.2C149.7,428.1,144.2,420.5,140.1,412.1z"/>
<path class="st2" d="M57.1,355.7c-1.6-3.2-3.2-6.3-4.7-9.5c-6.5-13.1-6.7-25.9,0.9-38.7c1.7-2.8,4.2-2.7,6.7-2.3
	c1.8,0.2,3.6,0.9,6.2,1.6c-5.8,0.3-8.8,3.6-10,8.2c-1.1,4.3-1.8,8.8-1.5,13.2c0.6,8.1,2.2,16.1,3.3,24.1c0.1,1,0.2,2,0.2,3
	C57.8,355.4,57.4,355.5,57.1,355.7z"/>
<path class="st2" d="M616.1,450.1c-3.2-5.5-2.8-5.8,2.4-7.8c1.8-0.7,3-3.7,3.8-5.9c2.8-7.6,5.2-15.3,7.9-22.9c0.3-0.9,1-1.7,2-3.5
	c1.1,3.1,2,5.3,2.6,7.6c0.3,1.3,0.2,2.8,0.2,4.2c0.5,16.2,0.5,11.2-10.6,21.8C621.9,445.9,619,447.9,616.1,450.1z"/>
<path class="st2" d="M178.3,156.8c-0.7-1.6-1.6-2.7-1.3-3.1c3-5.4-1-8-4.5-10.2c-4-2.5-6.4-5.9-7.3-10.4c-0.7-3.6-0.5-7,3.3-9
	c3.8-2,6.8-0.4,9.3,2.3c4,4.3,6.4,9,4.3,15.3C180.6,146.2,179.7,151,178.3,156.8z M175.7,139.3c0.3-0.1,0.7-0.3,1-0.4
	c-1.1-3-2.2-6-3.4-8.9c-0.5,0.2-0.9,0.4-1.4,0.6C173.2,133.5,174.5,136.4,175.7,139.3z"/>
<path class="st2" d="M389.7,550.7c-4.6,10.2-12.9,13.2-22.4,14.1c-2.7,0.3-5.4-0.1-8.1-0.4c-3.2-0.3-3.8-1.9-1.8-4.7
	c4.2-5.8,10-9,16.8-10.9C379.5,547.4,384.3,548.9,389.7,550.7z M383.6,552.4c-0.2-0.5-0.3-0.9-0.5-1.4c-7.9,3-15.8,6-23.7,9
	c0.1,0.4,0.3,0.7,0.4,1.1C368.7,560.6,376.6,557.5,383.6,552.4z"/>
<path class="st2" d="M156.8,445c0.6-4.9,1.1-10.8,2.1-16.6c0.3-1.7,1.4-3.6,2.8-4.7c5-4.2,10.3-8.1,15.4-12.2
	c1.8-1.4,3.5-3.1,6.5-1.5c-3.6,11.8-14.7,15.7-24,21.4c0.4,0.5,0.8,1.1,1.1,1.6c5.2-2.3,10.3-4.7,15.5-7c0.3,0.2,0.6,0.4,0.9,0.5
	c-1.2,1.6-2.1,3.5-3.5,4.7c-3,2.5-6.3,4.5-9.3,6.9C161.4,440.6,158.8,443.2,156.8,445z"/>
<path class="st2" d="M147.1,518.5c-5.8-4.1-11-7.7-16-11.5c-5.3-3.9-6.7-9.9-7.9-15.9c-0.2-1.2,0.4-3.2,1.3-3.7
	c0.8-0.5,2.9-0.1,3.8,0.6c4.9,3.9,9.9,7.9,14.5,12.2C147.9,505.1,146.1,511.8,147.1,518.5z M128,491.5c1.1,6.5,11.3,17.7,17.3,18.6
	C139.6,503.9,133.8,497.7,128,491.5z"/>
<path class="st2" d="M175.8,465c-1.4,8.6-4.3,15-9.8,19.8c-5,4.4-10.5,8.2-16.1,12.5c0.4-4.8,0.7-9.2,1.3-13.4
	c0.3-1.6,1.2-3.6,2.4-4.6c5.1-4.3,10.4-8.4,15.8-12.3C170.9,466,173.1,465.8,175.8,465z M172,469.7c-10.6,7.3-19,15.5-19.4,19
	C159.1,482.6,167.2,478.6,172,469.7z"/>
<path class="st2" d="M353.8,513.1c4.5,10.5,6.7,20.4,1.6,30.9c-1.8,3.8-3.1,7.8-4.7,11.8c-3-1.4-3.7-4.9-2.6-9.2
	c0.9-3.5,1.2-7.2,1.7-10.8c-0.4-0.1-0.7-0.1-1.1-0.2c-0.4,2-0.8,4-1.3,6.1C346.3,531.7,346.3,522,353.8,513.1z M353.8,520.5
	c-0.4,0-0.8,0.1-1.2,0.1c0,6.4,0,12.7,0,20C354.5,533.3,355.7,526.9,353.8,520.5z"/>
<path class="st2" d="M151.6,518c-0.4-4.1-1.1-8-0.8-11.8c0.2-2.2,1.6-4.8,3.3-6.2c5.3-4.3,11-8.2,16.6-12.1c0.8-0.5,2.5-0.6,3.2-0.1
	c0.7,0.5,0.9,2.1,0.8,3.1c-0.7,6.1-3.9,10.9-8.5,14.8C161.3,509.7,156.5,513.8,151.6,518z M171.4,492.2c-6.3,5.1-13.4,9.2-17.6,16.4
	C160.1,503.6,167.5,499.7,171.4,492.2z"/>
<path class="st2" d="M158.6,413.5c-3.2-7.2-6.3-14.5-9.5-21.7c-0.6,5.7,2,10.5,4.2,15.4c2.2,4.8,5.3,9.4,4.3,15.8
	c-6-8.1-11.7-15.7-12.4-25.4c-0.3-3.6,1-7.5,2.1-11.1c0.7-2.2,3-2.3,4.1-0.1c3,6.6,5.8,13.2,8.2,20c0.8,2.1-0.1,4.9-0.3,7.3
	C159.1,413.6,158.9,413.6,158.6,413.5z"/>
<path class="st2" d="M125.6,508c6.4,5,12.8,9.8,19,14.9c1.1,0.9,1.9,2.7,2.2,4.2c0.6,3.1,0.7,6.3,1,9.4c-17.8-1-19.3-15.2-23.1-27.6
	C125,508.6,125.3,508.3,125.6,508z M131.1,518.3c2.5,6.5,7.3,10.6,13.1,13.7c0.3-0.3,0.6-0.6,0.8-0.9
	C140.4,526.9,135.7,522.6,131.1,518.3z"/>
<path class="st2" d="M499.5,257.3c0.3-7.8,0.8-15.4,1-23c0.1-4-0.3-8-0.1-12c0-1,1.2-2.7,1.9-2.8c1.5-0.1,3.3,0.5,4.5,1.4
	c0.7,0.5,0.6,2.2,0.6,3.3c0.1,8.9,0.2,17.8,0.1,26.7C507.3,256.7,505.9,257.9,499.5,257.3z"/>
<path class="st2" d="M541.8,153.8c-10.2,1.4-20.5,3.8-29.3-4.5c-1.3-1.2-1.8-3.1-2.7-4.7c1.7-0.8,3.4-2.2,5-2.2
	c7.5,0.2,14.7,2.1,21.2,6.1c2.1,1.3,4.1,2.8,6.1,4.2C542.1,153.1,542,153.4,541.8,153.8z"/>
<path class="st2" d="M172.9,506.3c3.3,12.2-7.9,25.5-19.7,29.9c-2.5-4-2-11.7,1.5-15.3c2.7-2.7,5.9-4.9,8.9-7.3
	C166.6,511.2,169.6,508.9,172.9,506.3z M170.9,514.6c-0.4-0.4-0.8-0.7-1.2-1.1c-5.7,4.2-11.2,8.5-13.4,15.5c0.4,0.3,0.8,0.6,1.2,1
	C161.9,524.8,166.4,519.7,170.9,514.6z"/>
<path class="st2" d="M415.3,493.1c2.6-3.5,5.6-6.2,11.2-3.1c-1.4,1.8-2.4,4.2-4.1,5.1c-9.6,4.6-13.5,12.9-15.8,22.6
	c-0.3,1.3-1,2.6-1.9,4.9c-0.8-1.8-1.4-2.4-1.3-3c0.8-8.1,1.4-16.1,2.6-24.1C406.5,491.3,409.5,490.8,415.3,493.1z"/>
<path class="st2" d="M328.2,588.7c-12.8,1.1-23.5-10.7-23.3-22.3C316.1,564.6,327.2,575.2,328.2,588.7z M309.8,569.4
	c3.1,8.1,10.3,12,16.6,16.8C321.6,579.9,316.8,573.6,309.8,569.4z"/>
<path class="st2" d="M151.2,474.7c0.8-4.1,1.6-8.2,2.5-12.2c0.2-0.8,0.8-1.7,1.5-2.2c6.5-5,13.1-10,19.7-14.9c0.6-0.4,1.3-0.7,2-1.1
	c0.4,0.2,0.7,0.3,1.1,0.5c-0.6,1.9-0.8,4-1.9,5.6c-2.8,4-5.6,8.1-9,11.6c-4.6,4.7-9.7,8.9-14.6,13.3
	C152.1,475,151.7,474.9,151.2,474.7z"/>
<path class="st2" d="M341.9,553c-4.9-7.8-9.3-14.9-13.7-22c-0.4,0.2-0.8,0.5-1.2,0.7c1.4,10.8,12.6,16.3,15.5,27
	c-10.5-3.6-20-19-19.4-30.4C331.3,527.3,341.7,540.4,341.9,553z"/>
<path class="st2" d="M259.8,642.1c2-5.7,3.8-11.5,6.2-17c2.8-6.6,8.2-10.6,15.8-13.7c0.3,2.2,0.5,3.9,0.7,5.5
	c-0.4-2.9-1.9-2.8-3.6-1.2c-1.7,1.6-3.1,3.4-4.6,5.2c-2.1,2.4-2.7,4.8-0.7,7.4c3-3.9,6-7.7,9-11.5c-2.4,13.1-11.9,19.7-22.8,25.1
	C259.7,642,259.8,642.1,259.8,642.1z"/>
<path class="st2" d="M569.1,187.9c-5.3,0-10.6,0.3-15.9-0.1c-4-0.3-6.4-3.4-8.7-6.5c-1.5-2-0.3-3.3,1.4-3.9c5-1.8,10-2.8,14.6,1
	c3,2.6,6,5.2,8.9,7.8C569.3,186.8,569.2,187.4,569.1,187.9z"/>
<path class="st2" d="M308.2,110.9c7.6-3.1,15.4-1.9,20,3.1c2.9,3.1,3.5,7.5,1.4,9.8c-2.4,2.5-6.3,2.4-9.8-0.4c-1-0.8-2-1.7-2.8-2.7
	C314,117.5,311.2,114.3,308.2,110.9z M320.3,112.4c-0.4,0.4-0.7,0.8-1.1,1.2c1.8,1.9,3.6,3.8,5.4,5.8c0.4-0.4,0.9-0.8,1.3-1.2
	C324,116.2,322.2,114.3,320.3,112.4z"/>
<path class="st2" d="M562.9,454.9c-1.4-9.6-4-18.6-10.1-26.4c-0.4-0.5-0.4-1.9,0-2.3c0.5-0.5,2-0.7,2.4-0.4c4.7,4,9.3,8,13.8,12.2
	c0.5,0.4,0.4,1.8,0.1,2.6c-1.6,4.9-3.4,9.7-5.1,14.5C563.6,455,563.2,454.9,562.9,454.9z"/>
<path class="st2" d="M293,385.9c3-1.2,6-2.5,9.1-3.6c4.1-1.6,8.2-3,12.4-4.5c4.7-1.7,8.4-4.2,7.3-11c4,0.7,7.4,1.3,10.9,2
	c-4.7,9.1-27.5,19.5-39.3,18.3C293.3,386.7,293.2,386.3,293,385.9z"/>
<path class="st2" d="M554.8,172.8c-7.9,1.2-15.7,3.9-23.3-0.5c-3.8-2.2-3.8-4.6,0-6.7c1.1-0.6,2.4-1,3.7-1
	C542.9,164,549.3,167.2,554.8,172.8z"/>
<path class="st2" d="M277.7,485.9c-2.7,4.2-5.5,8.4-8.4,12.8c-2.7-3.5-3.6-6.8-3.3-11.6c0.4-8.1,4.9-12.3,10.8-16.1
	c2-1.3,3-1.7,4.2,1.1c2.8,6.7,2.3,9.4-3.4,13.9c0.5-4.7,1.1-9.5,1.7-14.7c-6.4,3.5-11.8,16.2-8.5,19.7c1.4-3.3,2.7-6.5,4.1-9.7
	C276,483.1,276.8,484.5,277.7,485.9z"/>
<path class="st2" d="M206.9,113.2c-2.7,0.1-4.9,0.3-7.6,0.4c1.3-1.6,3-2.8,2.8-3.7c-0.2-1.3-1.6-2.4-2.7-3.4
	c-3.5-3.2-5.9-6.8-5.5-11.8c0.4-4.1,3.3-5.9,7.1-4.4c6.5,2.5,8.9,9.7,4.9,14.8C202.4,109.4,202.4,109.4,206.9,113.2z M201.9,101.7
	c0.5-0.1,1-0.3,1.6-0.4c-0.7-2.3-1.4-4.5-2.1-6.8c-0.5,0.1-1,0.3-1.5,0.4C198.1,97.9,201.9,99.3,201.9,101.7z"/>
<path class="st2" d="M185.6,391.6c-1.2,9.7-11.6,18.6-20.8,17.9C163.2,401.5,176.8,389.9,185.6,391.6z M170.9,401.8
	c0.2,0.3,0.5,0.7,0.7,1c3-2,6.1-4,9.1-5.9c-0.3-0.4-0.6-0.8-0.8-1.2C176.8,397.7,173.9,399.7,170.9,401.8z"/>
<path class="st2" d="M441.6,221.5c3.7-0.7,4.9,0.3,4.9,4c-0.1,9.3,0.3,18.6,0.3,27.9c0,1.1-1.5,2.1-2.3,3.2
	c-0.9-0.8-2.7-1.6-2.7-2.4C441.6,243.4,441.6,232.5,441.6,221.5z"/>
<path class="st2" d="M513.1,451.3c0-5.2-0.2-10.4,0.1-15.5c0.2-3.6,0.9-7.2,1.4-10.8c0.4-2.7,1.6-4.5,4.4-5
	c3.7,6.6,0.9,25.5-4.6,31.3C514,451.3,513.6,451.3,513.1,451.3z"/>
<path class="st2" d="M494.8,219.3c0.8,1,2.4,1.9,2.4,2.9c0.2,10.7,0.1,21.3,0.1,32c0,2.6-1.2,4.2-4.6,3.1
	c0.4-12.3,0.8-24.7,1.2-37.2C494.1,219.8,494.4,219.5,494.8,219.3z"/>
<path class="st2" d="M154.5,457.3c-0.6-5.4,0.6-9,4.6-11.5c6.4-4.1,12.6-8.3,18.8-12.5c0.4,0.2,0.8,0.4,1.2,0.6
	c-0.6,1.7-0.7,4-1.9,5C170,445.1,162.5,450.9,154.5,457.3z"/>
<path class="st2" d="M325.5,422.2c-0.6,2-0.8,4.4-2,5.9c-3.7,4.8-7.8,9.3-11.9,13.7c-0.8,0.9-2.6,0.9-3.9,1.3
	c-0.1-1.5-0.9-3.5-0.2-4.4c4.2-5.4,8.7-10.5,13.2-15.6c0.8-0.9,2.4-1.2,3.7-1.8C324.7,421.7,325.1,421.9,325.5,422.2z"/>
<path class="st2" d="M118.1,421.1c-1.9-5.2-0.4-11.8,3.1-14.4c1.3-1,3.4-1,5.1-1.4c0.1,0.4,0.3,0.8,0.4,1.2
	C124,411.2,121.2,415.8,118.1,421.1z"/>
<path class="st2" d="M273.5,340.1c1-3.2,2-6.4,3.1-9.6c0.3-0.1,0.6-0.1,1-0.2c1,2.8,2.2,5.6,2.7,8.5c0.1,0.5-3.6,1.5-5.5,2.2
	C274.3,340.8,273.9,340.4,273.5,340.1z"/>
<path class="st2" d="M293,466.5c-2.9,3.4-5.7,6.6-8.5,9.9C282.6,468.6,285.7,466.3,293,466.5z"/>
<path class="st2" d="M162.3,420c0.5-2,1-4.1,1.2-5.1c1.9-0.3,3.3-0.4,4.5-0.9c1.5-0.6,2.8-1.6,4.3-2.4c0.2,0.3,0.4,0.5,0.6,0.8
	c-3.2,2.7-6.3,5.4-9.5,8.2C163,420.4,162.6,420.2,162.3,420z"/>
<path class="st2" d="M413.5,289c-0.1,3.4-2.5,5.9-5,6c-2.4,0.1-4.5-2.4-4.2-5.3c0.3-3.2,2.2-4.9,5.3-5
	C412.8,284.5,413.2,287.2,413.5,289z"/>
<polyline class="st1" points="116.6,197.5 93.7,181.9 75.6,143.5 60.8,103.3 87,112.4 112.6,125.6 139.3,169.4 135.3,184.6 "/>
<polygon class="st1" points="17.3,224.6 53.4,223.1 72.8,226.6 89.6,233 97.5,245.5 86.1,271.5 64.4,268.5 49.6,263 36.4,250.1 
	19.1,229.8 "/>
<path class="st2" d="M259.7,642c-0.8,0.4-1.6,0.8-2.7,1.5c-4.2-11.8-8.2-23.3-8.9-36.1c6.5-1.1,12.4-2,18.3-3.2
	c14.9-2.9,24.2-12,29-26.1c0.9-2.8,1.8-5.6,3-9.4c0.8,2.4,1.3,3.8,1.7,5.2c4.1,11.9,12.1,19,24.8,20.1c3.8,0.3,5.5,1.7,6.7,5.7
	c1.8,6,0.7,9.7-3.9,14.1c-15.5,15.1-24.4,33.4-24.5,55.4c0,4.1,0.8,8.2,1.3,12.2c0.4,3,2.3,4.1,5.8,4.2c-0.3-2.8-0.5-5.4-0.9-8
	c-2.8-21.1,4.4-39,17.7-54.9c13-15.4,29.4-26.3,46.7-36.1c11.5-6.5,23.7-11.7,34.8-18.8c23.6-15.3,41.2-35.6,48.5-63.5
	c2.6-10,2.5-20.2,0.5-30.4c-0.5-2.6-1.4-5.4,1.8-7.1c0.3,0.2,0.7,0.4,0.6,0.5c-0.9,8.8,3.6,16.5,5,24.8c1.6,9.8,2.6,19.7,4,29.5
	c2.4,17.8,0.8,35.3-2.9,52.7c-3.2,15.1-5.9,30.2-11.6,44.7c-8.7,21.9-20.7,41.4-39.1,56.4c-3.7,3-7.9,5.3-11.7,8.2
	c-2.3,1.7-4.1,3.9-6.2,5.9c0.4,0.5,0.7,1.1,1.1,1.6c5.4-2.5,11.4-4.1,15.9-7.6c7.2-5.6,13.6-12.3,19.8-19
	c14.1-15.5,23.5-33.6,28.7-53.9c0.1-0.3,0.3-0.6,0.5-0.8c3.2,4.1,6.6,8,9.3,12.3c3,4.9,2.3,10.3-0.4,15.2
	c-5.2,9.5-12.5,17.5-20.8,24.3c-8.2,6.8-17.3,12.5-26,18.7c-0.7,0.5-1.3,1.2-2.4,2.3c4.3,1.4,8,1.1,11-1.3
	c10.5-8.4,21.7-16.1,30.9-25.7c11-11.4,20.2-24.5,30.2-36.9c0.6-0.8,1.2-1.7,1.8-2.5c6.1-8.6,9.6-9.5,19.2-5
	c10.7,4.9,21,3.7,30.2-3.5c4.9-3.9,9.3-8.5,10.4-15.3c1.3-8-1.8-12.5-9.8-13.3c-7.7-0.7-14.8,1.6-21.9,4.2c-2.3,0.8-4.8,1.2-6.9,2.2
	c-1.7,0.8-3.4,2.1-4.5,3.6c-2.4,3.4-4.5,7-6.7,10.5c-0.5-0.3-1-0.5-1.4-0.8c1.5-3.1,2.7-6.6,4.7-9.3c4.6-6.2,9.6-12.2,14.6-18.1
	c1.6-2,3.6-2.8,6.1-1.2c6.6,4,14,3.9,21,2.4c7.5-1.5,14.2-5.2,19.8-10.8c4.1-4.1,6.4-9.1,6.9-14.8c0.4-4.5-2.2-7.6-6-9.6
	c-6.5-3.4-13.4-3.1-19.9-0.5c-10,3.9-19,9.3-23.9,19.7c-1.2,2.6-3.9,4.6-5.9,6.8c-0.4-0.3-0.8-0.5-1.2-0.8c2.5-6,4.6-12.1,7.6-17.9
	c4.2-8.1,9-15.9,13.6-23.8c0.1-0.2,0.3-0.5,0.5-0.6c7.3-4,11.1-11.3,16.6-17c7-7.3,15.8-10.4,26-9.5c5.2,0.5,6.5,2.3,4.9,7.4
	c-3.4,10.9-11.1,16.9-22.1,18.6c-4.1,0.6-8.4,0.1-12.6-0.4c-4.6-0.5-9.1-0.7-12.7,2.8c-0.9,0.9-1,2.6-1.4,3.9
	c1.4,0.2,3.3,1.1,4.1,0.5c4.3-3.1,8.7-1.1,13.1-0.9c18.8,0.7,33.9-7.7,38.1-25.6c1.4-5.9-1.4-10.9-7.4-11.9c-4-0.7-8.3-0.8-12.2,0
	c-11.1,2.4-20.9,7.2-27.3,17.4c-2.1,3.4-5.1,6.2-7.8,9.3c-0.4-0.3-0.9-0.6-1.3-0.9c1.3-2.7,2.4-5.5,3.8-8.2
	c3.7-7.1,7.2-14.3,11.4-21.1c2.1-3.4,5.5-6.1,8.8-8.5c3.8-2.8,7.1-5.5,9.3-9.9c5.2-10.4,14.6-15.4,25.6-17.4c7.2-1.3,10.5,3,8.1,9.9
	c-4.1,12-16.8,19.8-29.3,17.9c-5.3-0.8-10.3-0.1-15.1,2.2c-4.5,2.2-5.5,4.7-4.5,9.8c3.7-1.6,7.4-3.4,11.2-4.6
	c2.9-0.9,6.1-1.2,9.1-1.3c13.6-0.7,25-5.6,32.2-17.6c6.3-10.5,15.9-17.4,25.3-24.7c9.1-7,18.8-13.7,26.2-22.3
	c7.7-8.9,13.1-19.8,19.3-29.9c2.6-4.2,4.4-8.8,7.2-12.9c3.1-4.5,3.9-9.3,3.6-14.6c-0.1-2.2-1-2.9-3.1-2.8c-3.6,0.1-7.2,0-10.8,0
	c-0.1-0.3-0.3-0.6-0.4-0.9c1.2-0.5,2.3-1.4,3.5-1.5c1.8-0.2,3.6,0.1,5.4,0.2c5.6,0.5,5.9,0.2,5.3-6c-3.3-0.2-6.6-0.4-9.9-0.7
	c0-0.5,0-1-0.1-1.5c3.3-0.4,6.5-0.9,9.8-1.3c0.7-4.1,0.7-4.1-7.6-5.7c0.6-4.1,4.3-1.3,6.7-3.4c-0.4-1.2-0.5-3.4-1.7-4.3
	c-1.2-1-3.4-0.7-5.2-1c0-0.5,0-0.9-0.1-1.4c1.9-0.5,3.9-1,5.8-1.5c-0.6-5.2-0.7-5.3-7-5.3c0.8-0.9,1.4-2.3,2.3-2.5
	c2.2-0.3,2.9-1.2,2.6-3.3c-0.3-2.5-1.9-2.6-3.9-2.6c-12.2,0.1-24.4,0-36.6-0.7c12.9-1.8,26-0.9,39-1.4c0.7-6.2,0-6.9-5.8-6.8
	c-6.7,0.1-13.5,0.1-20.2,0.1c-0.2,0-0.4-0.3-1.6-1.1c9.1-1.7,17.5-0.1,25.8-1.1c0.2-2.6,0.8-5.3-2.2-6.3c-2.1-0.7-4.4-0.7-6.6-1.1
	c0-0.3-0.1-0.7-0.1-1c2.3-0.3,4.7-0.5,7-0.8c0.3-5.4-0.1-5.7-4.8-5.8c-2.4,0-4.7-0.3-7.1-0.4c0-0.4,0-0.8,0-1.1c3.4,0,6.8,0,10.1,0
	c-0.1-6.5-0.2-6.7-6.2-6.8c-1.2,0-2.3-0.2-3.5-0.3c-0.2,0-0.3-0.4-0.9-1.2c3-0.6,5.8-1.1,8.6-1.7c0.3-3.8-1.8-4.9-5-5.3
	c-1.1-0.1-2.2-1-3.3-1.6c1.2-0.4,2.3-0.9,3.5-1.2c0.7-0.2,1.5-0.2,2.3-0.3c-0.1-5.2-4.1-5.6-7.8-6.7c1.5-0.3,3-0.6,5.3-1.1
	c-1.2-2.1-1.8-4.7-3.3-5.8c-1.4-1-3.9-0.4-6-0.5c0-0.4,0-0.7-0.1-1.1c0.6-0.3,1.3-0.5,1.8-0.8c1.1-0.8,3-1.6,3-2.5
	c0.1-2.1-0.9-4-3.7-4c-3.6,0-7.2-0.3-10.9-0.2c-10.2,0.1-20.4,0.2-30.7,0.3c-1.4,0-2.7-0.1-4.1-0.2c0-0.5,0-1,0-1.4
	c15.4,0,30.9,0,46.4,0c-0.8-6.7-1.3-7.2-6.5-7.3c-6.9-0.2-13.8-0.3-20.7-0.5c-1.5,0-3-0.4-4.4-0.6c0-0.4,0-0.7,0.1-1.1
	c9.1,0,18.3,0,27.6,0c-0.2-4.1-1.3-6-5.3-5.8c-8.1,0.3-16.3,0.1-24.5-0.2c8.6-0.9,17.2-1.8,25.8-2.6c0.1-4.4-1.1-5.9-5.3-5.9
	c-6.9,0-13.9,0-20.8,0c0-0.4,0-0.8,0-1.2c7.5,0,14.9,0,22.4,0c-0.3-5.6-1.5-6.8-6.1-6.8c-3.6,0-7.2,0.1-10.9,0
	c-1.3,0-2.6-0.4-3.9-0.7c0-0.4,0.1-0.9,0.1-1.3c5.3,0,10.5,0,16,0c-1.6-10.9-9.7-6.8-15.4-8.6c3.5-0.3,7-0.5,10.7-0.8
	c-1.2-3.8-3.1-6-7.3-5.6c-2.5,0.2-5.1-0.2-7.6-0.4c0-0.4,0-0.8,0-1.2c3.3,0,6.5,0,9.9,0c-1-4.9-2.3-6-6.8-6.3
	c-2.4-0.1-4.8-0.7-7.2-1c0-0.5,0.1-0.9,0.1-1.4c2.8-0.2,5.5-0.3,8.2-0.5c-1-5.1-3.1-6.5-8.2-5.8c-1.4,0.2-2.9,0-4.4,0
	c0-0.6-0.1-1.1-0.1-1.7c2.4-0.4,4.7-0.8,7.4-1.2c-1.5-3.2-3-5.7-7.1-5.5c-6.6,0.3-13.2,0.2-19.8,0.2c-1.3,0-2.7,0-4,0
	c0-0.5,0-0.9-0.1-1.4c8-0.6,15.9-1.2,23.9-1.8c-0.5-4-2.2-5.3-6.1-5.6c-3.7-0.3-7.3-1-10.9-1.3c-1.4-0.1-2.9,0.5-4.3,0.7
	c0.9-1.7,0.9-1.6,6.6-1.8c2.7-0.1,5.3-0.6,8.2-0.9c-1.4-3.9-3.9-5.4-7.5-5.5c-5.3-0.2-10.5-0.5-15.8-0.8c0-0.3,0-0.7,0-1
	c5.2,0,10.5,0,15.9,0c-1.7-5.1-3.5-6.4-8-6.3c-9.2,0.2-18.4,0.3-27.5,0.4c-0.9,0-1.7-0.4-2.6-0.6c0-0.5,0.1-1,0.1-1.5
	c10.1-0.5,20.3-1.1,30.7-1.6c-1.7-3.5-3.7-5.2-7.4-5.1c-7.1,0.1-14.2,0-21.3-0.1c-1.3,0-2.5-0.5-3.8-0.7c0-0.5,0.1-1,0.1-1.5
	c8,0,16,0,24.5,0c-1.4-4.4-3.8-5.9-7.2-6c-5.8-0.1-11.6-0.1-17.5-0.2c-1.3,0-2.6-0.3-3.9-0.4c0-0.4,0-0.8,0-1.2
	c6.3-0.4,12.6-0.7,19.4-1.1c-1.7-3.2-4.1-4.9-7.4-5c-10.7-0.1-21.4-0.1-32.2-0.2c-1.4,0-2.8-0.3-4.1-1.2c11-2.1,22.2-1.8,33.8-1.6
	c-1.9-4.1-4.8-5.6-8.7-5.6c-9.6,0-19.1-0.1-28.7-0.1c-0.8,0-1.6-0.4-2.4-0.5c0-0.5,0-0.9,0-1.4c9.5,0,19,0,29.3,0
	c-2.1-4.9-4.9-6.3-8.7-6.3c-13.3-0.1-26.7-0.2-40-0.2c-1.4,0-2.8,0-4.2-0.4c13.3-3.2,27-1.3,41-2.7c-2.7-3.2-5.5-5.3-9.6-5.3
	c-10.1,0.2-20.2,0.5-30.2,0.5c-5.4,0-10.8-0.5-16.3-1.1c14.4-2.4,29-0.8,43.9-2.4c-2.7-3.6-6.2-4.9-10.1-5c-6.3-0.1-12.7,1-18.9,0
	c-10.7-1.7-21.2,1.9-32.7-0.6c16.1-3.5,31.7-0.4,47.4-2.5c-2.1-4.7-5.8-5-9.4-5c-12.9-0.2-25.9-0.2-38.8-0.3c-1.9,0-3.7-0.2-5.6-0.3
	c0-0.4,0-0.9,0.1-1.3c3.9,0.2,7.9,0.4,11.8,0.5c0-0.2,0.1-0.4,0.1-0.6c-0.8-0.2-1.5-0.4-2.3-0.6c0-0.2,0-0.3,0-0.5
	c9.3,0,18.6,0,27.8,0c0.2-0.4,0.3-0.8,0.5-1.1c-1.1-0.8-2.2-2-3.4-2.2c-4.6-0.7-9.3-1.4-14-1.6c-9.4-0.4-18.9-0.6-28.3-0.7
	c-8.4-0.1-16.8,0-25.2-0.2c-7.6-0.2-15.1-0.9-22.7-1c-9-0.1-18.1,0.3-27.1,0.4c-2.4,0-4.9-0.5-7.3-0.3c-3.3,0.3-6.6,1.1-9.9,1.6
	c-0.1,0-0.3,0-0.4,0c0,0,0-0.1,0-0.2c0.5-0.1,0.9-0.3,1.4-0.4c0-0.3,0-0.5-0.1-0.8c-11.8,0.5-23.6,1.1-35.4,1.6
	c0-0.5-0.1-1.1-0.1-1.6c1.3-0.2,2.5-0.5,3.8-0.5c23.3-0.3,46.6-0.5,69.9-0.7c26.5-0.2,53-0.3,79.6-0.5c0.7,0,1.5-0.2,2.5-1.1
	c-1.6-0.8-3.1-1.7-4.8-2.4c-8.5-3.6-17.6-2.6-26.5-2.5c-16,0.1-32.1,0.6-48.1,0.7c-22.3,0.2-44.5,0.1-66.8,0.2c-2,0-4,0-6,0
	c0-0.5-0.1-1-0.1-1.5c1.2-0.2,2.5-0.7,3.7-0.7c24.3-0.2,48.7-0.4,73-0.5c1.1,0,2.2,0.8,3.3,0.8c1.9,0.1,3.8-0.2,5.7-0.3
	c0.8,0,1.5,0,2.3,0c12.5-0.3,25.1-0.6,37.6-0.9c0.6,0,1.2-0.2,1.8-0.4c0.1-0.4,0.3-0.8,0.4-1.2c-2.5-1.1-5-2.7-7.6-3.1
	c-4.4-0.7-9-0.7-13.5-1c-4.2-0.3-8.5-1.1-12.7-1.1c-4.1,0-8.2,0.9-12.3,0.9c-10.7,0.2-21.5,0-32.2,0.1c-14.4,0.2-28.7,0.5-43.1,0.7
	c-2.3,0-4.5-0.5-6.8-0.8c0-0.5,0.1-1,0.1-1.5c11.4,0,22.8,0.1,34.2,0c11.6-0.1,23.3-0.1,34.9-0.7c11.3-0.6,22.7,1.6,34-0.2
	c0.1-0.5,0.2-1,0.3-1.6c-2.2-0.7-4.4-1.8-6.6-1.9c-12.9-0.9-25.8-2.1-38.7-2.3c-14.6-0.3-29.2,0.3-43.8,0.6
	c-15.3,0.3-30.5,0.5-45.8,0.8c-6,0.1-12,0-18.1,0.3c-1.8,0.1-3.8,0.4-5.2,1.3c-6.6,4.7-14.2,5.4-21.9,6.4c-4,0.5-7.7,2.4-11.6,3.7
	c0.1,0.4,0.2,0.7,0.2,1.1c6.6,0,13.2,0,19.8,0c0.1,0.4,0.3,0.8,0.4,1.2c-1.3,0.5-2.6,1.4-4,1.5c-4.3,0.2-8.6,0.6-12.8-0.1
	c-8.3-1.4-15.6,0.7-22.9,5.9c-1-2.2-2.4-4.1-2.7-6.2c-0.1-1.2,1.5-3.2,2.7-3.7c9.7-3.8,19.4-7.8,29.4-10.8
	c19.8-5.9,40.2-9.5,60.7-12.6c17.8-2.7,35.7-3.6,53.6-2.9c10.8,0.4,21.5,2.6,32.2,3.5c17.2,1.5,33.9,5.6,50.4,10.3
	c39.4,11.3,75,30,107.9,54.3c34.6,25.5,61.7,57.5,83.9,94c19,31.2,32.2,64.8,40.2,100.4c6.7,29.9,10.7,60.1,8.8,90.9
	c-1.3,21.7-5.6,42.8-11.7,63.6c-6.2,21.1-13.8,41.7-23.7,61.3c-11.3,22.3-25.2,43-41.5,62.1c-9.7,11.4-19.8,22.6-30.6,33
	c-20.7,19.9-44.1,36.2-69.4,49.8c-27.5,14.9-56.7,25.5-87,32.7c-18.8,4.5-37.9,6.9-57.2,8.8c-11.6,1.1-22.9,0.8-34.4-0.2
	c-21.9-1.8-43.4-5.5-64.6-11.4c-29.3-8.3-57.7-19-84-34.5c-15.8-9.3-31-19.5-45.1-31.5c-22.3-18.9-42.5-39.7-60-63.1
	C72.3,530,57,501,47.2,469.1c-4-12.9-7.3-26-10.3-39.2c-1.4-6.1-1.4-12.6-2-19.2c5.2,1.3,9.7,5.1,15.8,3.3c-4.2-6-11.5-5.7-16.7-9
	c0.1-0.5,0.2-0.9,0.3-1.4c1.9,0.2,3.8,0.1,5.6,0.7c10.9,3.5,19.9,10.4,28.5,17.6c18.4,15.2,30,35.3,39.8,56.6
	c0.5,1.2,1.1,2.3,1.7,3.5c0.2,0.4,0.7,0.8,1.1,1.3c2.3-2.5,1.8-5.1,0.6-7.5c-7.5-16.3-16.5-31.7-29-44.7
	c-6.5-6.8-13.4-13.3-20.7-19.2c-7.7-6.4-16.5-11.1-26.5-13.1c-3.1-0.6-4.7-2.2-4.7-5.5c0-15.5-0.8-31.1,0.1-46.6
	c1.3-21.6,4.6-42.9,11.2-63.6c0.7-2.3,1-4.8,2.1-7c0.8-1.6,2.4-2.8,3.6-4.2c1.7,1.9,3.4,3.7,5.1,5.7c0.2,0.3-0.1,1-0.1,1.5
	c2.7,0.5,5.2,0.9,7.8,1.4c0,0.4-0.1,0.8-0.1,1.2c-1.2,0.1-2.3,0.3-3.5,0.2c-6.2-0.5-6.8,0.1-7,6.6c10.6,0,21.1,0,31.7,0
	c0,0.2,0,0.5,0,0.7c-8.8,0.3-17.6,0.7-26.4,0.9c-7.2,0.2-7.6,0.4-8.3,7.3c18.7,0,37.4,0,57.1,0c-9,0.4-17,0.7-25.1,1
	c-9.6,0.3-19.1,0.6-28.7,0.9c-4.7,0.2-5.3,1.1-4.6,6.3c1.4,0.2,2.9,0.3,4.3,0.5c-5.7-0.6-6.4,3.5-6.9,7.4
	c-1.1,8.5-1.8,17.1-2.7,25.6c-0.9,7.6-2.1,15.2-2.7,22.9c-0.3,3.4,0.4,7,0.8,10.4c0.1,0.7,0.8,1.3,1.2,1.9c-0.3,0.6-1.2,1.6-1.3,2.6
	c-0.1,3.7-0.2,7.5,0.2,11.2c0.1,1.1,1.4,2.4,2.5,3c6.5,3.9,13.2,7.7,19.7,11.6c5.6,3.3,11.1,6.7,14.4,12.6c0.4,0.7,1.3,1.1,2,1.6
	c0.4-0.3,0.7-0.4,0.7-0.5c-1.2-8.4-1.9-17-7.6-23.9c-1.1-1.3-3.2-2.2-4.9-2.4c-8.9-1.1-13.3-4.8-16-13.4c-1.5-4.8-3.3-9.5-5-14.3
	c-0.3-0.9-0.8-1.7-0.8-2.6c0.1-2.4,0.4-4.7,0.6-7.1c2.3,0.4,4.7,0.5,6.8,1.3c2.7,1,5.2,2.4,7.7,3.9c0.8,0.5,1.2,1.6,1.7,2.5
	c3.9,7.4,7.7,14.9,12.5,22.1c-0.4-3.7-0.9-7.4-1.1-11.1c-0.3-7.7-0.6-15.5-0.6-23.2c0-3-0.5-5-3.7-6.2c-5.3-2-6.9-6.7-7.4-11.8
	c-0.5-5.2,0.4-10.2,4.6-15.3c1.6,3,2.9,5.3,4.5,8.2c0.3-1.9,0.4-3.7,1-5.4c1.3-3.4,2.6-6.9,4.4-10.1c1-1.8,3.8-2.4,4.9-0.2
	c3.7,7.3,8.9,14.1,8.7,22.8c-0.1,6.6-3.8,10.8-9.2,13.7c-2.1,1.1-3.1,2.3-3,4.7c1,15.3,1.2,30.7,3,46c1.2,9.8,4.4,19.3,7,28.9
	c0.6,2.4,2.3,4.5,3.4,6.7c0.4-0.1,0.8-0.2,1.2-0.3c0.1-1.4,0.3-2.8,0.2-4.2c-0.6-7.3-1.2-14.7-1.8-22c-0.8-8.9-1.8-17.6-5.8-25.8
	c-3.7-7.6,0.1-20.9,6.7-26.3c2.7-2.2,4.9-1.9,5.4,1.5c0.8,5.1,1,10.5,0.3,15.6c-0.5,3.8-2.7,7.5-4.1,11.2c-0.4,0.9-0.6,1.9-0.9,2.8
	c5.2,1.4,4.9,1.4,5.3,6.7c1.1,16.9,2.2,33.7,3.7,50.6c0.2,2.8,2.1,5.5,3.2,8.3c0.5-0.1,1-0.2,1.5-0.3c0-3.1,0.2-6.2,0-9.3
	c-0.8-13-2.2-26-2.4-39.1c-0.2-8.6,0.7-17.3,1.8-25.8c1.7-14.2,3.8-28.3,6-42.4c2.1-13.7,4.1-27.3,0.2-41c-1.8-6.5-3.7-8.8-10.3-9.7
	c-3.2-0.5-6.6-0.9-9.6-0.2c-11.6,2.5-21.3-0.7-30.3-7.9c-5-4-10.8-7.1-16.1-10.7c-1.9-1.3-4-2.6-5.2-4.4
	c-7.5-11.1-15.6-21.6-25.1-30.9c-1-0.9-1.2-2.6-1.7-4c1.4-0.4,2.7-1.2,4.1-1.3c9-0.5,18-0.5,27-1.2c13.2-1,25.7,0,38.2,5.4
	c11.6,5,20.2,12.5,26.9,23c5,7.9,6.3,16.9,5.6,25.7c-0.6,6.6,1.2,12.4,2.3,18.6c0.3,1.5,0.8,2.9,1.4,5.2c0.8-1.6,1.2-2.3,1.4-3
	c4.5-18.5,8.9-37,13.6-55.4c2.5-9.8,1.4-19.4-0.4-29.1c-0.6-3.3-2.8-5.5-6-6.4c-3.9-1-7.8-1.9-11.7-2.8c-8.9-1.9-15.8-6.4-20.6-14.4
	c-2-3.4-5.3-6-7.6-9.2c-6.1-8.8-10.6-18.4-12.9-28.8c-1.6-7-1.8-14.4-4.1-21.2c-2.7-7.9-7-15.2-10.6-22.7c-1.1-2.2-2.7-4.1-3.8-6.3
	c-1.2-2.5,0-4,2.6-3.2c3.9,1.3,7.7,3,11.5,4.7c11.1,5,22,10.3,33.1,15c8.1,3.4,14,9.1,19,15.9c5,6.7,11.1,13,14.6,20.4
	c5.1,10.9,11.3,22.2,8,35.1c-1.2,4.7-4,8.9-5.7,13.4c-0.8,2.1-1.5,4.6-1.2,6.8c0.4,4.3,1.5,8.4,2.3,12.7c0.4,0,0.8,0,1.2,0
	c1.9-3.5,4-6.8,5.6-10.4c5.4-11.8,13.8-21.5,21.1-31.9c11.4-16.3,23-32.5,34.4-48.7c1.3-1.9,2.6-3.8,4.5-6.6c-8.2,0-15.6,0-22.9,0
	c0-0.4,0-0.8-0.1-1.2c0.7-0.2,1.5-0.6,2.2-0.7c6.3,0,12.7-0.3,19,0.1c2.7,0.2,3.7-0.8,4.7-2.7c3.7-6.7,4.7-14.1,5.9-21.5
	c1.6-9.6,4-19.1,6.2-28.7c0.4-1.5,1.6-2.8,3-4.1c7.9,13.5,8.3,27-0.3,40.7c0.3,0.1,0.6,0.3,0.9,0.4c1.5-0.6,3-1.1,4.5-1.8
	c1.5-0.6,3-1.6,4.6-2c2.9-0.7,5.8-0.5,7.3,2.6c1.4,2.8,0.3,7.3-2.4,9.1c-4.2,2.8-8.8,3.7-13.6,1.7c-3.9-1.7-6.7-0.5-9,2.9
	c-4.1,6.1-8.1,12.3-12.4,18.3c-2.9,4.1-6.3,7.8-9.3,11.8c-1.3,1.8-2.1,4-3.6,6.8c10.5-8.2,20.1-15.7,29.9-23.3
	c-3.1-0.5-6.4-1.1-9.6-1.6c0-0.3,0-0.5,0.1-0.8c3.2,0,6.5,0.2,9.7-0.1c1.8-0.1,3.9-0.5,5.4-1.4c12.4-7.2,24.8-14.4,37.1-21.8
	c3.5-2.1,6.9-4.6,10-7.3c5.6-4.9,7.2-11,4.7-18.2c-2.6-7.7,2.7-19.4,10.3-23.2c1.8-0.9,3.2-0.7,3.7,1.6c2,9.5,0.9,18-7,24.7
	c-2.8,2.4-4.4,5.3-3.7,9.5c1.6-0.7,3-1.3,4.4-2c4.9-2.3,10.1-4.2,14.5-7.2c3.5-2.4,6.3-6,8.8-9.5c6.5-8.9,15.6-13.1,26-15.7
	c1.4,4.8,0.5,8.9-2.1,12.5c-3.7,5.1-8.2,9.5-14.7,10.8c-11.7,2.3-21.4,8.8-31.4,14.8c-2.5,1.5-5,2.7-7.2,4.6
	c6.4-1.2,12.8-2.7,19.2-3.7c4.8-0.7,9.7-0.6,14.6-1.1c5.2-0.6,10.4-1.5,15.6-2.3c12.2-1.9,25.1,5.5,32,14.6c0.6,0.7,0.6,1.8,1.1,3.5
	c-8.3,0.5-16.2,1.4-23.9,1.2c-6.1-0.2-10.4-4.8-14.1-8.2c-1.5,0.1-2.6,0.5-3.4,0.2c-6.1-2.6-12.2-4.6-19.1-3.1
	c-9.4,2-19.5,2.2-28.3,5.7c-15.2,6-29.9,13.5-42.9,23.7c-6.7,5.3-13.7,10.1-20.8,14.9c-16,11-29.8,24.3-41.5,39.8
	c-12,15.7-22.3,32.2-27.8,51.4c-4.2,14.6-8.8,29-13.2,43.5c-0.5,1.7-0.7,3.5-1,5.4c5-6.5,9.9-12.9,14.9-19.2
	c1.3-1.7,2.7-3.6,4.4-4.8c4.9-3.5,4.6-8.3,4.3-13.5c-0.7-13.4,2.1-25.7,12.1-35.4c1.7-1.6,3.4-3.2,4.9-4.9c3.4-4.1,7.6-6.7,12.7-8.4
	c3.4-1.1,6.4-3.8,9.6-5.7c4.9-2.9,9.8-5.7,14.6-8.7c5.4-3.5,10.7-7.2,16-10.8c1.8-1.2,3.6-2.4,5.4-3.6c0.4,0.3,0.9,0.6,1.3,0.8
	c-0.5,5.5-0.9,11-1.6,16.4c-1.1,8-2.4,16.1-3.7,24.1c-0.2,1.1-0.3,2.4-0.8,3.4c-4.5,8.8-8.6,17.9-15.7,25.2
	c-2.4,2.4-3.9,5.6-5.9,8.4c-1.3,1.9-2.4,4.3-4.2,5.4c-8.9,4.9-18,9.3-28.9,7.6c-8.3-1.3-15.7,0.4-20.8,8.4
	c-3.7,5.9-8.1,11.3-12.3,16.9c-10.6,14.3-13.9,31.1-16.9,48c-1.8,10-3.7,20-4.9,30.1c-1.4,11.8-1.9,23.7-2.8,35.5
	c-0.1,1.6,0.3,3.2,0.5,4.8c0.4,0.1,0.9,0.1,1.3,0.2c1.1-4.8,2.7-9.5,3.3-14.4c0.7-6.4,3.2-11.9,6.6-17.2c2.7-4.1,5.4-8.2,8.3-12.2
	c1-1.4,2.4-2.4,4.3-4.2c0.4,1.9,0.7,2.8,0.7,3.8c-0.3,6.6-0.6,13.1-0.9,19.7c-0.5,8.2-4.6,13.9-12.2,16.8c-3,1.1-4,3.1-5.2,6
	c-6.5,16.6-4.7,33.8-3.8,50.9c0.1,1.9,1.7,3.7,2.6,5.5c0.4-0.1,0.8-0.2,1.2-0.3c0.1-1.2,0.2-2.4,0.3-3.6c0.5-8.8,1-17.5,1.7-26.3
	c0.4-4.7,2.1-8.8,7.3-10.5c0.9,0.8,2,1.7,3.4,3c1-1.8,1.9-3.4,3.3-5.9c1.4,3.1,2.5,5.6,3.7,8.3c-0.7,0.1-1,0.3-1.3,0.2
	c-6.1-1.1-7.3-0.5-7.5,5.7c-0.2,5.9,0.4,11.8,0.7,17.7c0.1,1.1,0.2,2.3,0.3,3.7c-4.4-0.2-5.2,2.3-5.7,6c-1.1,7.8-0.4,15.2,4.3,21.6
	c-0.4,0.6-0.5,0.9-0.7,1c-7,2.2-8,4.4-5.1,11.6c0.9,2.2,1.7,4.5,2.7,7.2c-4.2,0.5-4.1,2.5-3,5.3c2.4,6.7,4.4,13.5,6.9,20.1
	c3.6,9.6,10.1,15.9,20.9,16.2c3.2,0.1,3.3,2.3,3.8,4.4c2,8.3,4,16.7,6,25c3.4,13.8,10,26.2,16.3,38.8c5,9.9,10.5,19.6,18.1,27.9
	c2.5,2.7,4.7,5.8,9.7,6.2c-0.8-1.5-1.1-2.4-1.7-3.1c-10.6-10.7-17.5-23.9-24.3-37.2c-7.2-13.9-13.3-28.3-16.5-43.6
	c-1.2-5.8-2-11.6-2.9-17.5c-0.5-2.8,1.3-3.6,3.4-3c4.9,1.4,6.9,0.8,10-3.5c6.5-9,10-19.2,12.1-29.9c0.2-1.2-0.8-3.3-1.8-3.8
	c-2.6-1.4-2.5-2.8-1.1-4.9c0.9-1.4,1.7-2.9,2.3-4.5c2.1-5.6,0.6-8.7-5.6-11.2c1.9-3.3,4-6.6,5.5-10.1c3.1-7.1,2.7-8-3.7-13.2
	c1.3-1.7,2.6-3.4,3.9-5.1c2.4-3.2,4.2-6.3,2.7-10.7c-0.5-1.6,0.6-4,1.4-5.8c1.4-3.3,1.9-6.2-2-8.1c-2.5-1.2-2.4-2.9-0.9-5.1
	c2.3-3.3,4.6-6.6,6.5-10.1c3.1-5.8,2.6-6.8-2.8-10.3c1.4-1.8,3-3.6,4.2-5.6c4-6.3,2.6-9.6-4.7-12c4.5-11.7,3.1-23.6,1.1-35.4
	c-0.9-5.5-3.7-6.2-8.1-2.6c-6.9,5.6-11.3,13-15.3,20.9c-1.5-2.6-3.1-2.4-4,0c-1.1,3.1-1.7,6.5-2.4,9.7c-0.3,1.3-0.5,2.7-0.8,4.1
	c-6.6-3.6-6.7-3.6-4.3-10.5c9.8-28.6,21.7-56.3,37.1-82.2c11.8-19.8,26.6-36.9,47.9-47.3c6.5-3.2,6.4-3.4,11.3,2
	c10.1,11.2,17.4,24,20.3,39c0.1,0.6,0.6,1.1,1.1,2c5.8-6.2,11.5-12.1,17.3-18.3c-3.4-1.2-3.4-1.2-14.4,8.2
	c-3.7-7.1-7-14.5-11.3-21.2c-4.3-6.7-9.6-12.8-14.4-19c0.3-0.6,0.4-1,0.7-1.3c6.9-8.3,8.2-8.2,15-0.1c6.7,8.2,14.1,15.9,20.4,24.3
	c3,4,4.6,9.1,6.4,13.9c0.6,1.8-0.2,4.1-0.4,6.2c-0.3,0-0.6,0.1-1,0.1c-1-1.2-2-2.4-3.6-4.4c-2,12.1-3.4,23.5-5.8,34.6
	c-2.4,11.3-5.7,22.4-8.5,33.5c-2.3,0.2-4.2,0.3-5.6,0.4c-2.6-2.2-5.2-4.1-7.4-6.3c-0.9-0.9-1.7-2.4-1.6-3.6
	c1.3-14.1,2.9-28.2,4-42.4c0.3-3.6-0.8-7.4-1.5-11c-0.3-1.2-1.6-2.1-2.9-3.7c0,7.5,0,13.7,0,19.9c-0.8-1.1-1.7-2.3-2.8-4
	c0.1,4.5,4.8,7.5,2.3,12.3c-1.5-1.8-2.9-3.4-4.2-5c0.3,4.8,6.5,7.7,3.3,13.2c-1.8-1.5-3.7-3-6.2-5.1c0.3,5.2,7.9,5.6,5.1,11.5
	c-2.3-0.8-4.6-1.7-6.9-2.5c-0.1,0.2-0.3,0.5-0.4,0.7c1,0.7,2,1.6,3.2,2.1c3.4,1.5,4.9,3.7,2.8,7.3c-1.9-0.8-4-1.7-6.1-2.6
	c-0.3,0.3-0.6,0.7-0.9,1c4.8,1.8,8.3,4.3,6.4,10c-4.5,1.5-10.2-3.2-14,2.1c2.5,0.3,5.1,0.7,7.6,1c-6.3,4.7-13.1,7.7-17.5,13.8
	c0.3,0.4,0.5,0.8,0.8,1.2c1.2-0.6,2.4-1.1,3.5-1.7c4.3-2.6,8.6-5.3,13-7.7c3.5-1.9,7.3-2.3,11.4,0.4c-12.6,4.6-22,11.7-25.4,24.6
	c0.6,0.6,1.3,1.3,1.9,1.9c0.2-0.9,0.3-1.8,0.7-2.6c5.9-10.6,15-16.2,27-17.8c10-1.3,19.9-3.1,29.7-5c2.1-0.4,3.5,0,3.9,1.9
	c2,9.7,4,19.3,5.6,29.1c0.2,1.1-1.7,3.2-3.1,3.7c-17.7,6.3-35.9,10.3-54.7,11c-14.9,0.6-25.4-7.4-29.1-23.1
	c-4.5-19.1-5.3-38.5-2.1-58c1.6-9.7,2.9-19.3,6.7-28.4c3.4-8.2,8.5-14.7,17.1-18c0.4-0.1,0.7-0.3,1-0.5c0.2-0.1,0.3-0.4,0.7-0.9
	c-3.4-1.2-6.3-0.1-9,1.5c-9.3,5.4-14.5,14.1-17.1,24c-2.6,10-4.3,20.4-5.4,30.7c-1.7,15.3-1.8,30.8,1.4,46
	c2.5,11.9,6.1,23.5,18.6,29c7.8,3.4,16.1,3,24.3,2.5c3.4-0.2,6.9-0.7,10.3-1c1.7,5.1,0.3,7.9-4.1,10.5c-6.1,3.6-12.1,7.5-17.7,11.8
	c-2.4,1.9-3.7,5.1-5.4,7.8c-1.3,2.3-2.4,4.7-3.5,7.1c-0.4-0.2-0.8-0.3-1.2-0.5c0.9-2.6,1.7-5.1,2.6-7.7c-0.2-0.3-0.3-0.6-0.5-0.9
	c-1.1,0.7-2.8,1.2-3.2,2.2c-2,4.7-3.8,9.6-5.3,14.5c-0.3,1.1,0.9,2.8,1.7,4.8c-2.7,5.6-8.8,11.6-2.1,19.6c4.1-3.7,6.1-7.6,4.6-12.9
	c-2.2-8.2,2.5-16.4,10.6-19.2c0.8-0.3,2-0.4,2.5-1c4.8-6.8,12.8-9.3,19.1-14.1c3.3-2.5,7.3-4.2,10.9-6.4c3.6-2.2,7.3-4.4,10.8-6.7
	c1.9-1.3,3.6-2.9,5.4-4.4c0.3,0.3,0.6,0.5,0.8,0.8c-2.5,2.7-4.9,5.5-7.5,8.1c-2.6,2.6-5.9,4.8-4.9,9.6c5.5-1.3,8.6-5.3,11.2-9.5
	c2.4-3.8,5.3-5.2,9.8-5.5c4.4-0.3,8.7-2.4,13-3.6c9.5-2.4,19-4.8,28.5-7c2.2-0.5,4.5-0.1,7-0.1c-3.3,5.5-41.3,23.2-46.1,21.6
	c0.7-4,3.2-5.7,7.1-6.3c2.5-0.4,5-1.6,7.3-2.8c-9,1.3-23.9,4.7-27,11.5c5.1,0.6,9.9,1.2,14.8,1.7c0.1,0.3,0.2,0.5,0.2,0.8
	c-0.9,0.5-1.8,1.3-2.7,1.4c-4.2,0.4-8.4,0.7-12.7,1c-3,0.2-5.9,0.1-8.9,0.4c-0.9,0.1-1.7,1.1-2.5,1.7c0.8,0.8,1.6,2.2,2.5,2.2
	c3.3,0.3,6.7,0.2,10.1,0.2c1.4,0,2.8,0,4.4,0.7c-0.9,0.6-1.7,1.4-2.6,1.7c-5.6,1.4-10.9,3.6-17,2.3c-3.9-0.8-8.5-1-11.3,4
	c5.9,0,11.5,0,17.3,0c-2.9,2.7-5.8,5.5-10.4,4.9c-2.6-0.3-5.1-0.9-7.7-1.2c-3.3-0.4-6.1,0.6-8.2,4.1c5.5,0,10.6,0,15.8,0
	c0.2,0.3,0.3,0.6,0.5,0.9c-2.7,1.1-5.3,2.7-8.1,3.2c-3.1,0.6-6.5,0.3-9.7,0.2c-6.3-0.3-9.5,3.6-12.2,9.3c3.6,0.7,7,1.3,10.5,1.9
	c0.2,0.4,0.4,0.7,0.6,1.1c-1.6,0.8-3.1,2.3-4.7,2.4c-2.9,0.3-5.9-0.2-8.9-0.5c-4.9-0.4-7.8,1.5-9.8,6.6c6.5,2.8,12.2-1.3,18.4-2.1
	c-1.8,3.8-10.5,8.1-15.2,7.1c-6-1.3-9.5,1.4-12.9,7c2.6,0.2,4.9,0.9,6.9,0.5c11.3-2.3,21.6-6.4,28.1-16.7c0.6-1,1.5-1.8,2.4-2.5
	c9.7-8.1,19.5-16.1,29.3-24.1c1.4-1.1,3.4-1.5,5.3-2.4c-6.3,5.3-13.1,9.7-18,15.6c-7.6,9.3-18.7,14.1-26.5,22.9
	c-2,2.3-5.5,3.1-8.2,4.9c-4,2.6-7.9,5.4-12,8.2c-2-2.3-7.3-2.3-10.4,1.2c-2.1,2.4-3.3,5.5-4.4,8.8c7.3-0.1,13.1-3.1,18-8
	c0.2,0.2,0.5,0.4,0.7,0.7c-0.6,1.3-1,2.8-1.9,3.8c-6.1,6.9-14.2,8.6-22.8,8.6c-1,0-2.2-1.3-2.9-2.2c-4.8-7.1-5.5-15-3-23
	c1.3-4.2,5.3-5.2,9.2-5.9c3.2-5,0.3-14.5,11.6-14.7c1.6-5.6,3.6-11.7,5-18c0.4-1.7-1.2-3.9-1.9-5.8c-0.8,1.8-2,3.5-2.5,5.4
	c-1,3.7-1.7,7.5-2.7,11.3c-0.3,1.1-1.1,2-2.4,2.7c0.3-4.2,0.6-8.3,0.9-12.5c-0.5-0.1-1-0.2-1.6-0.3c-3.3,9.3-6.7,18.6-10.2,28.6
	c-0.5-1.1-1.1-1.8-1.1-2.5c-1.1-14.8,2.8-28.1,12.4-39.6c3.9-4.7,8.1-9,12.1-13.6c0.9-1,1.3-2.4,2-3.6c-0.4-0.4-0.7-0.7-1.1-1.1
	c-1.5,0.9-3.3,1.6-4.6,2.8c-15.6,14.6-25.6,32.1-26.8,53.8c-0.2,4.5-1.7,8.4-2.8,12.5c-2.8,10.1-1.6,19.4,5.2,27.7
	c0.9,1.1,1.4,3.3,1,4.7c-6.1,22.5-8.6,45.4-6.8,68.6c2.3,30.2,12.9,57.2,34.3,79.2c3.4,3.5,8.4,5.6,12.6,8.4
	c0.3-0.4,0.6-0.8,0.9-1.2c-1-1.1-1.8-2.3-2.9-3.2c-20.9-18-33.1-41.1-38.5-67.7c-3.4-16.6-3.6-33.6-1.1-50.5
	c1.5-10.3,3.7-20.4,5.5-30.6c0.5-2.9,2.1-4.1,5.1-4.6c9.3-1.6,17.1-6.5,24-12.6c2.8-2.5,2.4-3.9-1.6-6.9c0.7-0.7,1.4-1.8,2.1-2
	c7.7-1.2,12.5-6.9,17.8-11.7c8-7.3,15.6-15.1,23.9-22.1c4.6-3.9,10.1-6.7,15.3-9.7c0.8-0.5,2.4-0.3,3.3,0.2
	c10.7,6.2,21.4,12.4,32,18.9c3.4,2.1,4.2,5.1,2.4,9.3c-4,9.1-7.4,18.4-10.8,27.7c-0.9,2.4-1,5.1-1.4,7.7c0.5,0.2,1,0.4,1.5,0.6
	c1.4-2.5,3.1-4.8,4.2-7.4c5.6-14.6,11.3-29.1,16.5-43.8c11.6-33,22.9-66.1,34.4-99.1c3-8.6,6.5-17.1,9.7-25.7
	c0.2-0.7,0.2-1.6-0.1-2.3c-1.4-3.6,1-7.5,4.9-7.5c19-0.1,38-0.1,57.1,0.1c1.6,0,3.8,1.7,4.5,3.2c0.7,1.5,0,3.7-0.8,5.3
	c0.7,1.1,1.6,2.1,2.1,3.3c4.9,12.5,9.7,25,14.5,37.6c7.7,20,15.4,40,23,60.1c6.2,16.2,12.3,32.4,18.3,48.6c5,13.6,12.4,25.5,24,34.5
	c3,2.4,5.8,5.1,8.3,8c0.8,1,0.9,3.3,0.4,4.6c-3.2,8.6-6.5,17.1-9.9,25.6c-2.2,5.6-4.5,11.2-6.9,16.8c-1.1,2.5-2.6,4.8-3.9,7.2
	c-0.5-0.1-0.9-0.2-1.4-0.4c-0.1-1.3-0.6-2.7-0.3-3.9c4.4-15-3.7-25.6-12.5-35.9c-3.8-4.4-4.6-9-3.5-14.4c1-4.5,3.8-6.1,8-4
	c7.5,3.9,12.9,9.7,13.1,18.7c0.2,6.5,0,12.9-0.1,19.4c0,1.3,0.1,2.7,0.2,4c0.5,0.1,1,0.2,1.4,0.3c0.9-3,2.3-6,2.7-9.1
	c1.3-10.5,1.4-21-5-30.2c-2.1-3.1-5.2-5.7-8.3-7.9c-3-2.1-4.9-4.1-5.2-8.2c-0.3-4.2-2.1-8.5-3.7-12.5c-5.9-14.8-12-29.4-17.9-44.2
	c-3.6-9.1-4-9.4-13.4-5c10.4,21.7,17,45.2,29.1,65.9c-2.5,3.1-6.2,6-7.5,9.8c-1.3,3.7-0.3,8.3-0.3,12c-3.7,0.8-7.4,1.6-11,2.4
	c-1.1-11-2.2-22.6-3.4-34.1c0.2-0.2,0.5-0.3,0.7-0.5c1.2,1.7,2.5,3.3,3.6,5c1.6,2.5,3.1,5.1,4.8,7.5c0.5,0.6,1.8,0.7,2.7,1
	c0.2-0.9,0.7-2,0.5-2.7c-2.6-6.9-5.5-13.6-8.1-20.5c-13.5-34.8-27-69.6-40.5-104.4c-3.2-8.3-6.7-16.5-11-24.7
	c-0.2,1.6-0.4,3.3-0.4,4.9c0.2,21,0.4,41.9,0.6,62.9c0,4.8-1.8,6.7-7,7c-0.4-33.5-0.7-66.9-1.1-100.5c4.9-1.5,6-1,8.3,4.9
	c9.8,24.7,19.5,49.5,29.2,74.3c2.8,7.2,5.4,14.5,8.2,22c3-0.9,5.9-1.9,9.3-3c-0.4-1.5-0.6-2.9-1.1-4.1
	c-6.5-17.6-13.1-35.1-19.7-52.6c-5.2-13.8-10.6-27.5-15.7-41.3c-1.1-3-2.4-3.7-5.6-3.7c-14.1,0.3-28.2,0.1-42.2,0.1
	c-1.5,0-3.1,0-4.9,0c-11.9,34-23.8,67.9-35.7,102.2c1.5,0.2,2.5,0.3,3.5,0.5c6.5,1.3,6.6,1.4,8.8-5.1c8.5-23.9,17-47.9,25.5-71.9
	c2.4-6.8,5-13.6,7.4-20.4c0.8-2.2,1.7-4.2,4.6-3.5c3.1,0.8,3.4,2.8,3.1,5.7c-0.5,4.5-0.7,9-0.7,13.5c0,15,0.2,30,0,45
	c0,3.2-1.2,6.6-2.4,9.6c-1.4,3.7-3.4,7.1-4.8,10.1c0-18.9,0-38.5,0-59.1c-1.1,2.5-2,4.2-2.6,6.1c-6.2,18.7-12,37.6-18.7,56.1
	c-9,25-18.9,49.7-28.2,74.6c-2.2,5.9-3.5,12.1-5.2,18.2c-0.2,0.7,0.1,1.5,0.8,2.5c0.8-1.2,1.6-2.4,2.3-3.7
	c7.7-14.2,15.4-28.4,23-42.6c0.4-0.7,0.6-1.5,1.2-2c0.7-0.6,1.9-1.5,2.4-1.3c0.8,0.4,1.9,1.6,1.9,2.4c-0.2,2.4-0.7,4.9-1.5,7.1
	c-1.8,4.8-3,9.6-8.5,12.5c-5.1,2.6-3.6,8.7-2.9,13.5c1.4,9,5.4,16.9,11.2,23.9c4.7,5.8,11.2,8.7,18.1,10.7c8.8,2.6,9.1,2.8,8.5,13.3
	c-14-6.7-25.8-2.7-36.9,6.9c0.8-1.8,1.5-3.6,2.4-5.3c6.2-13.1,5.5-25.8-2.3-38c-2.4-3.8-4.9-3.9-8-0.2c-4.9,6-7.4,13-7.8,20.7
	c0,0.9,0,1.8,0,2.7c-0.3,0.3-0.7,0.6-1,0.9c-0.9-1.2-1.7-2.4-2.6-3.6c-4-5.9-10.1-7.7-16.7-8.3c-3.6-0.3-4.8,1-4.8,4.7
	c0.2,13.7,5.9,24.7,16.6,33c1.3,1,2.8,2,3.8,3.3c1,1.4,2.2,3.3,2,4.8c-1.1,6.5-2.8,12.8-4.2,19.2c-0.3,0-0.7,0.1-1,0.1
	c-0.4-1.1-0.8-2.2-1.2-3.3c-1.3-3.2-2.2-6.7-4-9.6c-6.3-10.6-15.7-14.8-27.9-12.9c-0.6,0.1-1.2,0.2-1.8,0.3
	c-1.5-9-7.4-12.1-15.8-8.2c-12.7,6-21.4,16-28.3,27.9c-2.1,3.6-3.8,7.3-5.7,11c-0.4,0-0.7-0.1-1.1-0.1c0.3-4.2,0.3-8.4,0.9-12.5
	c1.1-7.5,2.6-15,3.6-22.5c0.6-4.1,2.1-6.4,6.6-7.1c10.3-1.6,19.9-5.3,28.9-10.6c10.3-6.2,16.1-15.7,18.9-27.2c0.2-1,0.4-2,0.7-3
	c1.3-4.7-0.4-7.5-5.3-7.8c-3-0.2-6.3,0.4-9,1.5c-10.4,4.6-18.9,11.7-25.3,21.1c-2.6,3.7-5.1,7.5-7.7,11.2c-0.5,0.8-1.3,1.4-1.9,2.1
	c-0.4-0.2-0.8-0.3-1.2-0.5c0.9-3.2,1.5-6.5,2.7-9.6c7-18,17-34.2,29.7-48.7c3.3-3.7,6.4-7.5,9.7-11.4c1.1,5.3-1.3,10.6-1.9,16.1
	c-0.6-0.5-1.3-1.6-1.8-1.5c-4.9,1.2-9.1,3.6-12,7.7c0.2,0.3,0.4,0.7,0.6,1c4.4-2.5,8.8-4.9,13.2-7.4c-2.3,7.6-7.2,12.6-15,14.9
	c-2.8,0.8-5.4,2.4-7.8,4c15.6,1.6,29.2-10.4,30.4-25.9c0.3-3.9,0.7-7.7,0.6-11.6c-0.1-3.8-1.9-5.5-5.4-5c-6.1,0.9-12.3,1.8-18.2,3.4
	c-8.2,2.1-14.6,6.9-19.1,14.3c-0.7,1.1-1.4,2.2-2.2,3.2c-0.1,0.2-0.4,0.3-1,0.7c-3.7-4.4-7.4-2.1-11.2,0.2
	c-10.3,6.2-18,14.1-20.1,26.6c-1.8,11,2.2,20.1,8.1,28.6c3,4.4,7.1,8.2,10.5,12.4c0.8,1,1.7,2.4,1.6,3.5
	c-1.8,12.1-3.8,24.1-5.7,36.2c-0.1,0.6-0.2,1.2-0.5,2.9c-1.2-2.7-2.1-4.5-2.9-6.4c-2.3-5.2-4.9-10.3-7-15.6c-1.8-4.5-3.2-9.2-4.5-14
	c-2.4-8.9-6.2-16.5-15.7-19.6c-0.7-0.2-1.2-0.8-2-1.3c3.6-6.7,7.1-13.3,10.6-19.9c-0.3-0.3-0.5-0.6-0.8-0.9c-1.7,1.1-3.8,1.9-5,3.4
	c-2,2.5-4.1,5.3-4.8,8.3c-1.2,5.5-4.1,9.7-6.9,14.3c-2.7,4.3-4.5,9.6-5.3,14.7c-1.2,8-1.7,16.3,1.4,24.1
	c3.8,9.6,11.7,15.3,20.5,19.7c6,3,12.5,4.8,18.8,7c2.1,0.8,3.8,1.6,4.3,4.3c2.1,10.6,4.6,21.1,6.9,31.6c0.2,0.7,0.2,1.5,0.4,2.2
	c-15.6,2.2-36.8-16-36.6-31.5c3.8-0.5,7.1,1.3,9.2,3.9c5.5,6.8,10.4,14,15.6,21.1c1,1.4,1.7,2.9,2.8,4.1c0.5,0.5,1.8,0.8,2.4,0.5
	c0.5-0.2,0.7-1.5,0.7-2.3c0-0.7-0.2-1.6-0.6-2.2c-5.6-9.6-10.2-19.9-19.2-27c-4-3.2-8.3-5.6-13.8-5.3c-2.7,0.2-3.9,1.3-3.6,3.8
	c0.3,2.8,0.7,5.7,1.6,8.3c6.2,18.8,19.3,29.5,38.6,32.5c5.1,0.8,7.8,3,10,7.6c2.4,5.1,5.8,9.8,9.2,14.3c1.9,2.5,4.2,5.3,9.2,4.6
	c-1.1-2-1.9-3.6-2.8-5.1c-3.8-6-7.7-11.9-11.6-17.8c-1.2-1.8-0.7-2.9,1-4.1c5.6-4.2,11.1-8.4,16.4-13c6-5.2,9.2-12.2,9.7-20.1
	c0.4-6.4-4.6-10.1-10.7-8.2c-5.4,1.7-10.1,4.8-13.3,9.5c-3.9,5.7-6.5,12.1-7.2,19c-0.2,2.2-1.3,5.4,2.5,6.3
	C259.8,642.1,259.7,642,259.7,642z M450.3,607.4c-2.7,4.6-5.3,9.3-8.1,14.1c1.1,0.2,1.7,0.5,2.3,0.4c3.6-0.5,7.9-11.7,5.7-14.7
	c4.7-5.7,6.5-12.4,7.2-19.5c-2.1,4.5-3.7,9.3-5.2,14C451.5,603.6,450.9,605.5,450.3,607.4z M649.1,468.1
	c13.4,0.7,30.1-7.2,30.3-14.8c-1.4,0.7-2.7,1.2-3.8,2c-6.7,5-14.1,8.5-22.3,10.3C651.7,466,650.5,467.3,649.1,468.1
	c0.6-1.1,1.2-2.2,1.9-3.3c7.2-10,14.6-19.8,21.5-29.9c4-5.9,7.3-12.2,10.5-18.5c2.1-4.1,3.3-8.6,4.9-12.7c1.3,1,2.4,1.9,3.8,3
	c1-10.6,3.8-20.5,2.1-30.6c-0.6-0.1-1.1-0.1-1.7-0.2c-0.9,6.9-1.8,13.8-2.7,20.9c-0.1-1.2-0.2-2.4-0.4-3.5
	c-2.6,4.3-4.1,8.8-6.1,13.1c-3.2,7-6,14.3-10.1,20.8c-7,10.9-14.9,21.2-22.4,31.6c-2.4,3.3-5.1,6.4-7.6,9.5
	c-0.5-0.2-1.1-0.3-1.6-0.5c0.4-4.1,0.3-8.3,1.2-12.3c0.9-4.2,2.9-8.1,4.7-13c-7.2,4.9-10.8,17.3-8.4,25c0.6,1.9,0.7,4.6-0.3,6.1
	c-3,4.3-6.6,8.1-10.3,12.5c-2.3-8.7-1.4-16.6,1.6-24.3c0.6-1.6,0.7-3.3,1-5c-0.4-0.1-0.9-0.3-1.3-0.4c-0.7,1-1.7,1.8-2.2,2.9
	c-3.6,8.3-5.5,16.9-1.9,25.5c1.5,3.6,0.5,5.8-1.5,8.3c-11.7,14.3-20.8,30.2-28.8,46.7c-6.7,13.8-12.7,28.1-20.3,41.4
	c-8.6,15.1-18.7,29.4-28,44.1c-3.2,5-6.6,9.6-12.7,11.3c-0.9,0.2-1.5,1.3-2.3,1.9c0.2,0.5,0.4,1,0.6,1.5c2.1-0.4,4.7-0.2,6.2-1.4
	c4.3-3.6,8.7-7.3,12.2-11.7c4.6-5.9,8.5-12.4,12.6-18.6c4.5-6.8,9.6-13.3,13.3-20.4c8.6-16.6,16.4-33.7,24.7-50.4
	c3.5-7,7.4-13.9,11.4-20.7c0.8-1.3,3.2-2.5,4.7-2.2c9.4,1.5,17.2-2.3,24.9-6.7c0.7-0.4,0.8-1.8,1.1-2.7c-1.1-0.2-2.5-1-3.1-0.5
	c-7.2,4.9-15.5,6-24.5,7.4c1.4-2.3,2.3-4.2,3.6-5.9c7.8-10.6,15.6-21.2,23.5-31.7c1.7-2.3,3.9-4.1,5.9-6.2
	C648.5,467.9,648.9,468.1,649.1,468.1z M459.3,525.7c0.3,0.1,0.7,0.3,1,0.4c-1.7,4.7-3.5,9.4-5,14.1c-7,22.4-21.5,39.4-38.7,54.7
	c-11.9,10.6-23.9,21-35.4,31.9c-17.6,16.8-29.5,37-34.6,60.9c3.9,2.6,4.5,2.5,5.7-1.5c0.8-2.5,1.4-4.9,2.1-7.4
	c6.4-22.3,20.8-39.3,37.1-54.9c11.4-10.9,23.5-21,34.9-31.9c24.9-23.8,38.3-52.5,36.8-87.5c0-0.7-0.1-1.4-0.2-2.1
	c-0.9,1-1.2,2-1.5,3.1c-2.2,7.2-3.7,14.8-6.7,21.7c-8.5,19.2-21.9,34.5-39.4,46.3c-15.5,10.5-31.2,20.8-46.1,32.2
	c-10.7,8.1-19.7,18-27.1,29.6c-5.9,9.3-8.8,19.5-11.8,29.6c-1.7,5.9-2.3,12.1-3.1,18.2c-0.1,1,1.4,2.2,2.2,3.3
	c0.8-0.8,2.2-1.7,2.2-2.5c-0.1-8.8,3-16.9,5.2-25.2c4-15.6,12.7-28.2,23.7-39.3c16.9-17,38.1-28.2,57.3-42.1
	c12.4-9,23.7-18.7,30.8-32.6C452.1,538.2,455.8,532,459.3,525.7z M92,131.6c-8.9-8-14.7-18.1-24.1-24.3c-0.4,0.3-0.7,0.6-1.1,1
	c8.6,10.4,17.2,20.8,25.8,31.1c-0.3,0.4-0.7,0.8-1,1.2c-5.2-1.7-10.3-3.3-15.5-5c0.6,1.5,1.4,2.6,2.5,2.9c4.7,1.5,9.4,2.8,14.1,4.2
	c0.7,0.2,1.7,0.1,2.1,0.6c3.3,3.9,6.4,7.8,10.2,12.5c-9.2,0.5-16.2-2.5-23.4-5.3c0.3,0.9,0.7,1.6,1.3,1.9c6.3,3.6,13,6.2,20.5,6.6
	c0.9,0,2.3-0.3,2.6,0.2c2.9,3.9,5.5,8,8.3,12c-0.4,0.5-0.8,1-1.2,1.6c-8.8-2.7-17.7-5.4-26.5-8.1c3.3,4,20.2,10.3,25.7,9.6
	c3.6-0.5,4.7,1.6,5.8,3.8c3.3,6.3,6.2,12.8,9.4,19.1c1.1,2.2,2.6,4.2,3.9,6.3c0.4-0.2,0.8-0.4,1.2-0.6c-0.8-3.1-1.8-6.1-2.5-9.2
	c-0.2-1.1-0.1-2.5,0.2-3.6c1.6-5,3.4-9.9,4.9-14.9c0.3-0.9-0.2-2-0.3-3c-0.4,0-0.8-0.1-1.2-0.1c-1.6,5.5-3.2,11-5.1,17.5
	c-1.4-3.1-2.1-5.2-3.2-7.1c-3.8-6.6-7.8-13.1-11.6-19.7c-0.6-1.1-0.9-2.6-0.7-3.8c1.1-5.9,2.7-11.7,3.6-17.6
	c0.3-2.3-0.9-4.9-1.4-7.3c-0.5,0.1-1,0.1-1.5,0.2c-0.1,7.9,0.7,15.9-2.6,24.2c-1.5-2.2-2.6-4.1-3.9-5.8c-2.5-3.2-3.2-6.2-2.4-10.6
	c1-5.7,0-11.7-0.2-17.6c-0.7,0-1.4,0-2.1,0c0,6.5,0,12.9,0,19.4c-0.4,0.1-0.8,0.1-1.2,0.2c-1.5-1.7-3.1-3.4-4.5-5.2
	c-2.3-3.2-4.4-6.2-3.8-10.8c0.5-3.7,0-7.9-3.5-10.9C90.3,121.7,91.1,126.2,92,131.6z M322.5,504.7c0.1,0.1,0.3,0.2,0.4,0.4
	c-1.3,4.9-2.7,9.7-4,14.6c0.5,0.3,1.1,0.6,1.6,0.9c1.7-2.2,3.8-4.2,4.9-6.7c3.9-8.6,7.7-17.2,11.1-26c6.3-15.9,12.3-31.9,18.5-48.3
	c-3.5-0.6-7.2-1.1-10.8-1.7c-8.5,23.6-17,47-25.4,70.3c0.2,0.1,0.4,0.3,0.6,0.4C320.4,507.3,321.5,506,322.5,504.7z M466.1,535
	c-0.5-0.1-1-0.2-1.5-0.3c-1.5,5.6-2.9,11.1-4.3,16.7c-6.7,26.5-19.1,50.3-36.8,70.8c-15.4,17.9-32.5,34.3-48.7,51.5
	c-4.2,4.5-7.6,9.6-11.4,14.5c4.3,3.3,5.4,3,7.4-0.7c1.4-2.5,2.7-5.1,4.6-7.1c7.3-8.1,14.5-16.2,22.2-23.8
	c14.7-14.6,29.5-28.9,40.6-46.7c9.7-15.6,18.7-31.5,23.2-49.5C463.4,551.9,464.5,543.4,466.1,535z M34.8,242.4
	c0.1,0.8,0.2,1.6,0.3,2.3c4.1-0.5,8.4-0.4,12.3-1.6c3.1-1,5.4-0.6,8,0.9c11,6.5,22.2,12.6,32.8,19.6c6.3,4.1,11.7,9.7,17.4,14.6
	c0.6,0.5,1.3,0.9,2.8,2c-2.1-6.6-4.8-11.3-9.4-15.1c-2.1-1.7-4.8-3.9-5.3-6.3c-2-9.3-6.1-17.5-11.1-25.4c-0.4-0.6-0.6-1.4-0.9-2.1
	c-0.5,0.3-0.9,0.7-1.4,1c3.7,8.6,7.5,17.1,11.2,25.7c-0.4,0.2-0.8,0.4-1.1,0.7c-4.8-3-9.6-5.9-14.3-9.1c-0.9-0.6-1.5-1.9-2-3
	c-2.8-5.7-5.6-11.5-8.4-17.2c-0.4-0.7-1.4-1.1-2.6-2c3,6.7,5.6,12.6,8.7,19.4c-8-2.5-14.1-5.2-16.7-12.6c-1-2.8-3.3-5.2-5-7.7
	c-0.3,0.2-0.6,0.4-0.9,0.6c1.9,3.7,3.9,7.5,5.8,11.2c-0.2,0.2-0.5,0.5-0.7,0.7c-10-4.9-19.8-10.4-31.1-12.1c7,6.4,17.3,7,24.7,13.9
	C43.2,241.5,39,241.9,34.8,242.4z M161.9,620.1c0.4-0.3,0.7-0.5,1.1-0.8c-2-3.6-3.7-7.5-6.1-10.9c-14.5-19.9-23.5-42.5-31.8-65.2
	c-6.2-17-10.7-34.7-16.1-52.1c-0.5-1.7-2.1-3.1-3.2-4.7c-0.2,2-1.1,4.1-0.6,5.8c6.7,21.1,12.9,42.4,20.5,63.2
	c7.5,20.5,16.2,40.6,30,57.8C157.6,615.8,159.8,617.9,161.9,620.1z M58.4,445.9c-0.3,0.3-0.6,0.5-0.9,0.8c0.8,1.2,1.5,2.3,2.3,3.5
	c6.4,10.3,14.2,20,18.9,31c8.7,20.6,15.5,41.9,23.2,62.9c2.2,6.1,4.2,12.3,7.1,18c2.9,5.6,6.8,10.7,10.3,16c0.3-0.2,0.7-0.4,1-0.6
	c-0.1-0.3,0-0.7-0.2-1c-11.1-19.6-16.8-41.2-24.1-62.2c-6.8-19.5-13.2-39.2-26.4-55.6C66,454.2,62.1,450.1,58.4,445.9z M186.9,202.1
	c-0.5,0-1-0.1-1.5-0.1c-0.4,5.1-1.3,10.2-0.9,15.2c0.3,3.3-0.2,5.8-2.2,8.1c-1.9,2.3-3.7,4.7-5.8,6.8c-6.5,6.5-13.2,12.8-19.5,19.4
	c-2.4,2.5-4.1,5.8-6.2,8.7c14.4-6.4,67.6-65.6,67.5-76.7c-10,12.4-19.4,25.5-31.5,36.9C186.9,213.8,186.9,208,186.9,202.1z
	 M92.1,489.1c-0.5,0.3-0.9,0.6-1.4,0.9c0.2,0.5,0.3,0.9,0.5,1.4c6.6,16.8,13.1,33.6,19.7,50.4c5.5,13.9,11,27.8,16.6,41.6
	c0.9,2.3,2.6,4.4,5.3,3.1c2.9-1.4,0.4-3.4-0.3-4.8c-7.4-14.1-14-28.5-19.2-43.6c-4-11.7-8.1-23.4-12.8-34.9
	C98.4,498.1,94.9,493.7,92.1,489.1z M66,442c1.4,9.5,14.3,15.3,25.5,14.8c-1-4.2-1.9-4.7-5.9-5.2c-4.6-0.6-9-1.8-13.5-2.7
	c0.1-0.6,0.2-1.2,0.3-1.7c3.9,0.2,7.8,0.5,11.7,0.7c0.2-0.3,0.4-0.7,0.6-1c-1.1-1.3-1.9-2.9-3.2-3.9c-6.2-4.5-13.6-5.1-20.8-6.6
	c-1.6-0.3-3.1-1.3-4.6-1.9c0.2-0.6,0.3-1.1,0.5-1.7c5.6,0.7,11.3,1.5,17.1,2.2c-1.8-3.7-3.4-6.9-8.7-6.5c-6.1,0.5-12.4,1.3-18.2-2.1
	c-0.4-0.2-1.2,0-2.1,0.1c6.5,9.7,15.5,14.3,26.9,14.8c-0.1,0.3-0.3,0.7-0.4,1C69.5,442.2,67.9,442.1,66,442z M182.4,605.5
	c0.5-0.1,0.9-0.2,1.4-0.2c-0.2-1.2-0.2-2.5-0.5-3.7c-1.3-5.6-2.3-11.4-3.9-16.9c-4.5-14.8-5.9-29.5-1.3-44.5c0.3-1-0.5-2.3-0.8-3.4
	c-1.1,0.6-2.6,0.9-3.1,1.8c-1.6,2.9-2.3,6.6-4.5,8.9c-5.1,5.6-3.8,12-3.6,18.3c0,0.6,0.6,1.2,1.4,2.5c0.7-5.2,1.3-9.5,1.8-13.8
	c0.4,0,0.9-0.1,1.3-0.1C169.6,572.7,175.5,589.3,182.4,605.5z M86.1,532c0.7-0.3,1.4-0.5,2.1-0.8c-7-32.6-17.4-63.8-39.4-90.2
	c-2.6,2-2.1,3.6-0.6,5.8c5.2,7.4,10.9,14.5,15,22.5c8.8,16.7,15.2,34.3,19.5,52.8C83.5,525.4,85,528.7,86.1,532z M140.3,554.8
	c-0.5,0.1-0.9,0.3-1.4,0.4c0.8,3.5,1.2,7.3,2.6,10.5c5.4,11.9,10.9,23.7,17,35.2c4.6,8.8,10,17.2,15.2,25.6c1,1.6,2.9,2.6,4.5,3.8
	c0.7-1.3,0.9-1.9,0.7-2.3c-14.1-23.5-27.9-47.1-37.6-72.9C141.1,555.1,140.6,555,140.3,554.8z M618,550c0.3,0.3,0.6,0.6,0.8,1
	c0.5-0.1,1,0,1.4-0.3c9.1-5.2,18-10.9,23.8-19.9c7.3-11.2,13.9-22.9,20.7-34.4c0.7-1.1,0.8-2.5,1.3-3.7c-0.3-0.2-0.7-0.5-1-0.7
	c-1.2,1-2.6,1.8-3.4,3c-2.9,4.3-6,8.5-8.3,13.1c-7.4,14.5-16.6,27.3-30.4,36.5C620.9,545.8,619.6,548.1,618,550z M460.2,672.4
	c0.2,0.3,0.5,0.7,0.7,1c1.7-0.7,3.4-1.3,5-2.3c8.3-5.3,15.5-11.9,21.5-19.8c8.6-11.3,17.3-22.5,28.5-31.5c0.9-0.7,1.4-1.8,2.1-2.6
	c-1.3-0.3-2.1-0.1-2.7,0.2c-8.4,4.6-15.4,10.9-21.1,18.5c-9.3,12.3-19.3,23.9-31.5,33.5C461.8,670.2,461.1,671.4,460.2,672.4z
	 M284.4,644.2c6,8.4,5,19,11.3,26.5c0.1-3.5-0.1-6.8-1-10c-1.8-6.4-3.4-13-6-19.1c-2-4.8-5.5-4.6-8.2,0c-0.5,0.9-1,1.8-1.2,2.8
	c-1.9,10.9-0.2,21.3,4.6,31.2c0.8,1.5,2.3,2.7,3.5,4c0.4-0.2,0.9-0.4,1.3-0.7C285.6,667.8,280.8,656.9,284.4,644.2z M608.3,567.4
	c-0.3-0.3-0.6-0.5-0.9-0.8c0.6-1.4,1.5-2.7,1.9-4.1c2.2-6.8,4.4-13.7,6.4-20.6c0.3-1.2-0.3-2.7-0.5-4c-0.6-0.1-1.1-0.1-1.7-0.2
	c-0.7,2.3-1.6,4.6-2.2,7c-2.8,12.4-5.3,25-18.8,31.1c-1,0.5-1.8,1.5-2.7,2.2c0.2,0.3,0.3,0.6,0.5,0.9c1.4-0.4,3-0.5,4.3-1.2
	c6.3-3.2,12.8-6.2,18.8-10c5.3-3.4,10.1-7.6,15-11.6c1.1-0.9,1.6-2.7,2.3-4.1c-0.4-0.3-0.8-0.6-1.2-0.9
	C622.6,556.7,615.4,562.1,608.3,567.4z M496.2,659.8c0.5,0.5,1.1,1.1,1.6,1.6c17.2-15.3,34.3-30.6,51.5-45.9
	c-10.8,4.8-20.6,10.9-28.7,19.4C512.5,643.4,503.4,650.7,496.2,659.8z M332.1,42.4c0,0.6,0,1.2,0,1.8c24.2,0,48.3,0,72.5,0
	C380.5,39.2,356.3,39.6,332.1,42.4z M296.4,604.7c-0.7-0.1-1.3-0.2-2-0.3c-0.7,3-1.9,6-2,9c-0.7,11.8,2.7,23,5.6,34.2
	c0.2,0.8,1.5,1.4,2.3,2.1c0.4-1.1,1.2-2.2,1-3.3c-1.1-9.9-2.5-19.7-3.7-29.5C297,612.8,296.7,608.7,296.4,604.7z M300.9,592.5
	c-4.7,4.7-5,6.8-2.7,11.4c0.8,1.7,1.5,3.6,1.7,5.5c0.8,7.3,1.3,14.6,2,21.9c0.2,1.9,0.4,3.9,0.6,5.8c0.4,0,0.8-0.1,1.2-0.1
	C307.6,622.1,304.6,607.7,300.9,592.5z M53.2,462.6c5.4,17.2,12.7,33.6,21.1,49.5C69.2,494.7,63.8,477.6,53.2,462.6z M562.7,609.5
	c0.3,0.3,0.6,0.7,0.9,1c5.4-0.1,10.9-0.9,15.2-4.4c8.1-6.7,15.9-13.7,23.8-20.7c1.1-0.9,1.3-2.8,2-4.2c-0.4-0.2-0.8-0.5-1.1-0.7
	c-12.7,9.8-23.1,22.8-38.8,28.3C564,609.1,563.3,609.3,562.7,609.5z M309.6,607.3c0.6,4,1.2,8.5,2.1,12.9c0.2,1.2,1.6,2.1,2.4,3.2
	c0.7-1.4,2.2-2.8,2.1-4.1c-0.6-6.7-1.5-13.3-2.5-19.9c-0.1-0.8-1-1.5-1.6-2.3c-0.6,0.8-1.7,1.6-1.8,2.5
	C309.8,601.9,309.8,604.4,309.6,607.3z M666.4,449.8c5.9,1.2,10-2.4,13.9-6c5.4-5,10.4-19.9,8.6-25.1c-2.5,6.2-3.9,13.1-7.6,18.3
	C677.6,442.1,671.6,445.5,666.4,449.8z M196.9,475c-5.1,4.1-4.1,15,1.4,17.9C204.5,485,204.2,480.3,196.9,475z M64.3,424.6
	c-5.1-7.5-16.6-9.5-24.3-4.1C47.8,424.6,55.9,424.5,64.3,424.6z M232.7,433.3c-6.8,4.9-8.7,14.2-4.2,19.4
	C234.1,447.7,236.8,442.4,232.7,433.3z M248.8,424.7c-6.1-0.5-10.6,5.4-9.2,11.9c0.3,1.4,1.2,2.6,1.9,3.9c1.2-0.8,2.8-1.4,3.7-2.5
	C247.9,434.1,249.5,429.8,248.8,424.7z M206.7,476.7c7.6-8.3,6.9-10.1,1.8-18.5C202.9,463.7,202.2,470.4,206.7,476.7z M607.6,529.2
	c1.5,0.8,1.9,1.2,2.3,1.2c9.8,1.1,18.2-2.2,25.9-8.1c0.6-0.4,0.4-1.7,0.6-2.6c-1.1,0.1-2.4-0.1-3.2,0.5c-6.4,4.2-13.5,6.2-20.9,7.7
	C611.1,528.1,609.9,528.5,607.6,529.2z M253.8,429.3c8.2-4.2,12.4-10.7,11-16.8C257.5,414.7,252.8,421.7,253.8,429.3z M608.3,479.5
	c-5.6,7.3-4.7,27.3,1.2,31.2c-0.1-1.5,0-2.5-0.2-3.5c-1.1-7.5-2.3-15-0.2-22.6C609.5,483.3,608.7,481.8,608.3,479.5z M417.5,662.7
	c-12.3-3.2-21.6,1.3-30.6,8.9C397.2,668.6,407,665.7,417.5,662.7z M640.3,479.9c0,0.3-0.1,0.7-0.1,1c1.5,0.4,2.9,1,4.4,1.2
	c6.3,0.7,11.9-1.8,17.3-4.5c1.1-0.5,1.6-2.1,2.4-3.2c-1.4,0-3-0.6-4.1,0c-5.6,2.8-11.4,4.8-17.7,4.6
	C641.8,479,641.1,479.6,640.3,479.9z M79.2,458.4c2,5.1,11.3,8.9,18.1,7.3c-1.8-1.9-3-4.4-4.8-4.9C88.3,459.6,84,459.2,79.2,458.4z
	 M604.6,454.2c-0.4-0.6-0.8-1.1-1.1-1.7c-8.8,5.4-17.9,10.3-25.4,17.7c0.2,0.3,0.5,0.7,0.7,1C587.4,465.5,596,459.8,604.6,454.2z
	 M585.9,499.5c-0.3-0.6-0.6-1.1-0.9-1.7c-9.3,4.5-18.5,8.9-27.8,13.4c0.3,0.6,0.5,1.1,0.8,1.7C567.7,509.1,577,504.6,585.9,499.5z
	 M91.7,477.9c0.9,5.5,8.6,8.7,14.4,5.9C104.5,479.8,98,477.1,91.7,477.9z M628.8,494.5c4.1,3.1,16.2,2.1,19.5-0.7
	c0.4-0.3,0.9-0.6,1.1-1.1c0.2-0.6,0.2-1.4,0.3-2.1c-0.7-0.1-1.5-0.4-2.1-0.2c-3,0.8-6,1.9-9,2.6C635.4,493.7,632.1,494,628.8,494.5z
	 M102.1,475.6c-1.5-4-11.1-8.1-16.1-7.1C86.7,472.6,95.5,476.6,102.1,475.6z M606.5,549c-0.5-0.3-1-0.5-1.5-0.8
	c-3.6,6.2-7.2,12.3-10.7,18.5c0.4,0.2,0.8,0.5,1.2,0.7C601.9,562.9,603.9,555.8,606.5,549z M614.8,493.1c0.5,0,1,0.1,1.5,0.1
	c0.7-7.1,1.4-14.1,2.1-21.2c-0.8-0.1-1.5-0.1-2.3-0.2C613.8,478.7,615,486,614.8,493.1z M352.5,107.1c-9.9-6.2-21.2-6.6-32.2-8.1
	c1.9,0.9,4,1.1,6,1.8c4.5,1.5,10.1,0.1,12.7,4.3C344.3,102.1,348.2,106.3,352.5,107.1z M499.2,518.5c3.6,7.4,7.2,14.8,10.8,22.2
	C509.6,531.8,505,524.9,499.2,518.5z M585,525c-4,3.5-2.5,15,2.4,19.4C586.6,537.9,585.8,531.7,585,525z M171.9,232.2
	c0.5,0,0.9,0,1.4,0c0-7.5,0-14.9,0-22.4c-0.4,0-0.7,0-1.1-0.1C172.3,217.3,169.7,224.6,171.9,232.2z M68.7,272.8
	c6.5-3.3,13.3-4,19-8.7c-2.9-0.4-17.5,4.2-18.9,5.9C68.4,270.5,68.7,271.4,68.7,272.8z M118.5,187.3c0.1-0.4,0.2-0.9,0.3-1.3
	c-7.1-1.4-14.1-2.7-21.2-4.1C104.1,186,111,187.7,118.5,187.3z M413.1,656c0.3,0.5,0.6,1,0.8,1.4c5.5-2.4,11-4.8,13.8-11.2
	C422.9,649.5,418,652.7,413.1,656z M215.2,612.3c1.3,5.4,10.1,17.3,13.3,18.2C223.8,624.8,222.3,617,215.2,612.3z M216.8,106.8
	c5.1-9.3,6.2-19.4,6.9-30.7C221.3,87,219,96.9,216.8,106.8z M54.6,262.3c0.1,0.5,0.2,1,0.3,1.5c7.2,0.2,13.4-3.1,19.1-7.5
	C67.6,258.2,61.1,260.2,54.6,262.3z M299.9,542.5c7.7-0.8,12-5.2,10.1-9.8C306.8,535.8,303.6,538.9,299.9,542.5z M126,149.4
	c-1.5,6.4-3.1,12.9-4.8,20C125.3,164.2,127.6,155.5,126,149.4z M594.7,512.1c-2.5,6.2-1.8,13.1,1.3,16.2
	C595.8,523.1,597.2,518,594.7,512.1z M91.7,358.9c-0.6-0.1-1.1-0.2-1.7-0.3c-1,5-2.1,10-3.1,15c0.6,0.1,1.2,0.3,1.9,0.4
	C89.8,368.9,90.7,363.9,91.7,358.9z M44.3,253c0.1,0.7,0.2,1.3,0.3,2c5.4-1,10.7-1.9,16.1-2.9c-0.1-0.6-0.2-1.2-0.3-1.8
	C55.1,251.3,49.7,252.1,44.3,253z M200.8,230.4c-0.1-0.7-0.2-1.5-0.3-2.2c-5.1,1-10.2,2.1-15.3,3.1c0.1,0.6,0.2,1.1,0.3,1.7
	C190.6,232.2,195.7,231.3,200.8,230.4z M102,250.1c-0.4,0.1-0.8,0.2-1.2,0.3c0.6,5.7,1.2,11.4,1.8,17.2c0.7-0.1,1.4-0.2,2.1-0.3
	C103.8,261.5,102.9,255.8,102,250.1z M506.2,641.3c2-3,3.7-5.1,5-7.4c0.3-0.4-0.4-1.7-1-2.2c-0.3-0.3-1.6,0-2,0.4
	C506.2,634.3,504.6,636.7,506.2,641.3z M288.3,64.8c-0.4-0.2-0.8-0.3-1.2-0.5c-4.5,3.7-6.9,9.9-5.4,13.4
	C283.9,73.5,286.1,69.2,288.3,64.8z M155.9,244.3c0.7,0.1,1.4,0.2,2.1,0.2c0.5-4.9,1-9.7,1.5-14.6c-0.6-0.1-1.3-0.1-1.9-0.2
	C157.1,234.6,156.5,239.5,155.9,244.3z M666.9,425.9c-5,3.7-5.5,5.4-3.4,9.9C667.8,433.7,666.5,429.8,666.9,425.9z M569.3,575
	c-3.9,3.6-4.5,6.2-2.4,9.2C568.9,581.6,572,579.3,569.3,575z M329.1,66.4c-4.8,0.1-14.2,6.6-16.1,10.2
	C318,73.4,323.3,70.1,329.1,66.4z M199.1,219.5c0.1,0.3,0.2,0.7,0.3,1c5.2-0.3,10.3-0.8,13.9-5.7
	C208.6,216.4,203.9,217.9,199.1,219.5z M653.3,436.3c-3.2,2.9-3.4,5.3-1,8.2C655.7,442,656,440.1,653.3,436.3z M192,241.9
	c0-0.3-0.1-0.7-0.1-1c-5.4,0.3-10.7,0.6-16.1,0.9c0.1,0.6,0.1,1.2,0.2,1.8C181.3,243.1,186.6,242.5,192,241.9z M198.4,194.6
	c-0.6,0-1.3-0.1-1.9-0.1c0,4.3,0,8.7,0,13c0.4,0,0.9,0,1.3,0.1C198,203.3,198.2,199,198.4,194.6z M119.9,390.2
	c0.5,0.3,1,0.6,1.5,0.9c1.6-2.8,3.2-5.5,4.8-8.3c-0.5-0.3-1-0.5-1.4-0.8C121.1,383.5,121.6,387.5,119.9,390.2z M331.4,642.9
	c1.6-4,0-8.5-3.9-11.1C328.9,635.6,330,638.8,331.4,642.9z M437.3,639.7c0.2-0.4,0.4-0.7,0.6-1.1c-0.8-0.9-1.7-2.5-2.5-2.5
	c-1.8,0-3.5,0.8-5.3,1.3c0.1,0.5,0.2,0.9,0.3,1.4C432.7,639.1,435,639.4,437.3,639.7z M353.2,636.7c-0.5,0.1-0.9,0.3-1.4,0.4
	c1.1,3.6,2.2,7.1,3.3,10.7c0.6-0.2,1.2-0.4,1.7-0.5C355.6,643.7,354.4,640.2,353.2,636.7z M83.3,276.5c0.2,0.4,0.3,0.9,0.5,1.3
	c4-1.4,8-2.7,12-4.1c-0.2-0.5-0.4-1-0.6-1.5C91.3,273.6,87.3,275,83.3,276.5z M373,625c0.5-0.1,1-0.2,1.5-0.2
	c-0.5-3.3-1-6.6-1.5-9.8c-0.5,0.1-1,0.2-1.4,0.2C372,618.4,372.5,621.7,373,625z M391.7,607.8c0.6,0,1.1-0.1,1.7-0.1
	c-0.2-2.9-0.4-5.8-0.6-8.7c-0.4,0-0.8,0-1.1,0.1C391.7,602,391.7,604.9,391.7,607.8z M181.4,253.8c0-0.3,0-0.5,0-0.8
	c-4.6,0-9.2,0-13.8,0c0,0.3,0,0.5,0,0.8C172.2,253.8,176.8,253.8,181.4,253.8z M435.7,629.9c5.6,0.7,6.7-0.2,6.4-5.1
	C439.9,626.5,438.2,627.9,435.7,629.9z M235.8,105.1c-0.4-0.4-0.7-0.9-1.1-1.3c-2.1,1.8-4.1,3.5-6.2,5.3
	C232,109.3,234.5,108,235.8,105.1z M400.8,639.1c0.4-0.2,0.9-0.5,1.3-0.7c-1.7-2.8-3.5-5.6-5.2-8.5c-0.3,0.2-0.7,0.4-1,0.6
	C397.5,633.4,399.1,636.2,400.8,639.1z M206.9,205.3c0.2,0.6,0.4,1.2,0.6,1.7c3.1-1.1,6.2-2.2,9.3-3.4c-0.2-0.5-0.3-1-0.5-1.5
	C213.1,203.2,210,204.3,206.9,205.3z M382.6,682.7c3.8,3.4,5.1,3.2,7.9-0.7C387.7,682.3,385.5,682.4,382.6,682.7z M413.3,625.2
	c0.3-0.2,0.7-0.4,1-0.7c-0.4-3-3-4.7-5.6-6.3C410.3,620.5,411.8,622.9,413.3,625.2z M341.4,617.8c-3.2,3.8-1.2,6.2-0.5,8.7
	c0.5-0.1,1-0.1,1.4-0.2C342,623.8,341.8,621.3,341.4,617.8z M362.6,621c-2.1,5.1,1.1,7.8,2.4,10.9
	C364.3,628.6,363.5,625.3,362.6,621z M379.1,590.9c-0.6-0.1-1.2-0.2-1.8-0.2c-0.3,2.1-0.5,4.1-0.8,6.2c0.5,0.1,1.1,0.2,1.6,0.2
	C378.4,595,378.7,593,379.1,590.9z M348.8,610.7c-0.5,0.1-1,0.1-1.4,0.2c0.3,2.6,0.6,5.3,1,7.9c0.5-0.1,1.1-0.1,1.6-0.2
	C349.5,615.9,349.2,613.3,348.8,610.7z M399.6,593.6c-0.5-0.1-0.9-0.1-1.4-0.2c-0.3,3.1-0.6,6.1-1,9.2c0.5,0,1,0.1,1.4,0.1
	C399,599.6,399.3,596.6,399.6,593.6z M81.3,326.6c-0.5-0.1-0.9-0.2-1.4-0.2c-0.5,2.3-0.9,4.7-1.4,7c0.5,0.1,1,0.2,1.6,0.3
	C80.5,331.4,80.9,329,81.3,326.6z M322.4,681.7c0.3-0.3,0.7-0.6,1-0.9c-2.1-3-4.3-5.9-6.4-8.9c-0.4,0.3-0.7,0.5-1.1,0.8
	C318.1,675.7,320.3,678.7,322.4,681.7z M368.4,627.6c0.5-0.1,1-0.2,1.5-0.3c-0.6-2.6-1.2-5.2-1.7-7.9c-0.4,0.1-0.8,0.2-1.2,0.3
	C367.4,622.3,367.9,625,368.4,627.6z"/>
</svg>
