<?xml version="1.0" encoding="utf-8"?>
<!-- Generator: Adobe Illustrator 22.0.1, SVG Export Plug-In . SVG Version: 6.00 Build 0)  -->
<svg version="1.1" id="Layer_1" xmlns="http://www.w3.org/2000/svg" xmlns:xlink="http://www.w3.org/1999/xlink" x="0px" y="0px"
	 viewBox="0 0 575.6 607.5" style="enable-background:new 0 0 575.6 607.5;" xml:space="preserve">
<style type="text/css">
	.st0{fill:#39B54A;}
	.st1{fill:#009245;}
	.st2{fill:#FFFFFF;}
</style>
<g>
	<path class="st0" d="M299.5,539.7c-71,0-137.7-27.6-187.8-77.8C61.5,411.7,33.9,345,33.9,274.1c0-71,27.6-137.7,77.8-187.8
		C161.8,36.1,228.5,8.5,299.5,8.5c71,0,137.7,27.6,187.8,77.8c50.2,50.2,77.8,116.9,77.8,187.8c0,71-27.6,137.7-77.8,187.8
		S370.4,539.7,299.5,539.7z"/>
	<path class="st1" d="M299.5,17.5c34.7,0,68.3,6.8,99.9,20.2c30.6,12.9,58,31.4,81.6,55c23.6,23.6,42.1,51,55,81.6
		c13.4,31.6,20.2,65.2,20.2,99.9s-6.8,68.3-20.2,99.9c-12.9,30.6-31.4,58-55,81.6c-23.6,23.6-51,42.1-81.6,55
		c-31.6,13.4-65.2,20.2-99.9,20.2s-68.3-6.8-99.9-20.2c-30.6-12.9-58-31.4-81.6-55c-23.6-23.6-42.1-51-55-81.6
		c-13.4-31.6-20.2-65.2-20.2-99.9s6.8-68.3,20.2-99.9c12.9-30.6,31.4-58,55-81.6c23.6-23.6,51-42.1,81.6-55
		C231.2,24.2,264.8,17.5,299.5,17.5 M299.5-0.5c-151.7,0-274.6,123-274.6,274.6s123,274.6,274.6,274.6s274.6-123,274.6-274.6
		S451.2-0.5,299.5-0.5L299.5-0.5z"/>
</g>
<g>
	<path d="M91.4,513.7c41-31.5,82-62.9,122.2-93.8c-1.8-6.7-4.4-12.2-4.6-17.8c-0.3-5.6,1.1-11.5,2.9-16.9c1.5-4.4,1.9-8.4,0.7-12.7
		c-1.7-5.7-3.2-11.5-5.1-17.2c-1.1-3.4-0.7-6.4,1.6-9c2.4-2.7,2.3-5.3,1-8.4c-1.6-3.8-2.8-7.7-4.1-11.5c-1.1-3.3-1.8-6.6-5.8-8.1
		c-1.4-0.5-2.4-2.9-3-4.6c-2.5-6.8-3.6-13.7-2.3-21c0.7-4.2-0.7-8.7,3.4-12c0.5-0.4,0-2.2-0.2-3.3c-3.6-23.4-7.5-46.9-10.9-70.3
		c-1.4-9.5,0.3-18.9,6.1-26.6c7.1-9.4,14.8-18.4,22.4-27.3c4.1-4.9,4.3-5.2,0.3-10.2c-0.3-0.3-0.6-0.7-0.8-1
		c-3.4-4.5-6-10.5-10.6-13.1c-4.3-2.5-10.8-1-16.1-2.2c-5.2-1.2-10.5-2.9-15-5.6c-13.2-8.1-12-25.5,2.9-33.1
		c-0.6,3.6-0.9,6.7-1.7,9.6c-2.5,9.1-0.3,14,8.6,16.9c14.3,4.7,28.9,4,43.4,0c-2.9,0.2-5.9,0.3-8.8,0.6c-5,0.5-8.3-1.8-8.7-6.8
		c-0.1-0.9,1.6-2.4,2.8-2.8c4.8-1.8,9.8-3.2,14.7-4.8c-0.1-0.4-0.2-0.9-0.3-1.3c-3.5,0.3-7,1-10.4,0.8c-6.8-0.4-13.7-0.8-20.3-2.3
		c-8.2-1.9-11-6.1-10.6-14.6c0.2-5.8,0.6-11.7,1.7-17.4c2.2-12,10.7-19.3,20.9-24.2c6.6-3.2,14-5,21.2-6.5
		c13.9-2.9,24.7,2.6,31.7,14.6c3.1,5.2,6.4,7,12.4,6.8c5.4-0.2,11.1,0.9,16.3,2.5c9,2.8,12,10.2,8.8,19.1c-3.3,9-9.9,15.3-16.3,21.9
		c-1.7,1.8-3.6,3.4-5.4,5.2c1.5,3.4,4,5,7.6,4.7c10.6-1,21.3-1.2,31.7-3.2c22.8-4.4,44.4-1.1,65.9,6.9c13.8,5.1,28.4,8.3,42.7,12.2
		c5.4,1.5,6.2,2,10.5,11.9c2.9,0,5.9-0.1,9,0c4.7,0.2,8.3,2.1,9.7,6.8c1.9,6.2,3.5,12.6,4.8,19c0.6,3.1-0.4,5.9-3.4,7.9
		c-1.1,0.8-2,2.5-2.2,3.9c-1.2,9.4-2.3,18.8-3.1,28.2c-0.1,1.5,1.1,3.5,2.4,4.5c3.3,2.4,4,5.4,3.3,9.2c-1.9,9.4-3.5,18.8-1.8,28.6
		c0.9,5.4,0.2,11,0,16.6c-0.2,5.4-2.8,9.3-7.3,12.2c-2.4,1.5-4.2,4.6-6.7,5.3c-5.9,1.6-9,6.4-13.5,9.5c-4.9,3.4-10.7,0.4-14.1-6.9
		c-3.3,2.4-6.6,4.6-9.8,7.1c-30,22.9-59.9,45.8-89.9,68.7c-13.3,10.2-26.6,20.4-40,30.4c-3.3,2.5-5,4.9-4.3,9.5
		c1.3,7.9-2.1,13.9-8.8,18.6c-6.2,4.3-12,9.2-17.5,14.3c-7.8,7.2-12.5,7.1-19-1.9c-3.3,2.4-6.8,4.7-10,7.3
		c-26.5,20.8-53,41.5-79.4,62.4c-4.8,3.8-9.4,7.8-14,11.9c-5.3,4.6-8.7,10.4-11.2,17c-1,2.8-0.6,4.8,1.6,6.6c3.7,3,7.5,6,11.2,9.1
		c1.8,1.5,3.5,3,5.3,4.6c2.1,1.9,2.3,3.8-0.1,5.8c-7.7,6.2-15.3,12.5-23.1,18.6c-11.6,9.1-23,18.4-34.9,27
		c-12.7,9.1-27.1,12.1-42.3,8.2c-18.5-4.7-28.2-20-25.6-39c1.7-12.2,7-22.6,16.1-30.7c15.3-13.7,31-26.9,46.7-40.2
		c5.4-4.6,5.7-4.4,10.9,0.3C79.2,502.7,85.1,508,91.4,513.7z M256.8,384.3c0.6-0.3,1.1-0.5,1.4-0.7c26.5-19.8,53.1-39.4,79.4-59.4
		c22.3-16.9,44.3-34.1,66.3-51.4c1.1-0.9,2.2-3.3,1.8-4.4c-3.1-9.5-1.5-17.9,4.2-26c1.3-1.9,2.1-4.9,1.8-7.2
		c-0.8-7.1-2.4-14.1-3.2-21.1c-0.2-1.9,0.6-4.6,2-6c2-2.1,2.6-4,1.8-6.6c-2.2-7.2-2.6-14.8-8.8-20.7c-3-2.8-5.4-4.8-9.3-4.9
		c-1.3-0.1-2.6-0.3-3.9-0.4c-7.1-0.4-14.2-0.7-21.7-1.1c0.3,2.1,0.3,3.5,0.6,4.9c5.9,27.5,11.9,54.9,21.1,81.5
		c2.6,7.4,2.3,7.7-6.1,11.1c-4.6-14.1-9.7-28.1-13.8-42.3c-7.5-26-14.3-52.2-21.5-78.3c-0.2-0.7-0.6-1.5-0.4-2.1
		c0.6-1.6,1.1-3.4,2.3-4.4c0.5-0.4,3,0.6,3.8,1.6c3.2,4,5.9,8.2,9.1,12.2c1.3,1.6,3,3.8,4.6,4c10.6,1.2,21.2,1.9,31.8,2.6
		c1,0.1,2.8-1,3.2-2c3.6-8.7,9.9-14.9,17.7-19.9c1.3-0.8,2.6-1.7,3.9-2.6c-2.1-4.2-5.4-5.8-9.1-6.9c-12.7-3.8-25.4-7.4-38-11.7
		c-16.4-5.6-32.6-11.1-50.3-7.6c-7.5,1.5-15.1,2.5-23.3,3.8c7.2,16.2,8.6,32.6,9.9,49.9c-6.7-2.1-12.7-3.9-18.5-6
		c-3.3-1.2-5.2-0.6-6.5,2.7c-1.4,3.7-2.8,7.3-4.4,10.9c-2.6,5.6-6.9,7.2-12.5,4.7c-1.7-0.8-3.5-1.5-5.2-2.3
		c-8.7-4.1-8.7-4.1-13.4,4.4c-2.2,3.9-4.2,7.8-7.1,13.2c-7.5-13.1-14.2-24.9-21-36.8c-0.7-0.3-1.3-0.6-2-0.8
		c-4.3,4.9-8.4,10.1-13,14.7c-11,10.7-16.1,23.2-13.4,38.6c2.5,14.6,4.5,29.3,6.8,44c1.1,7.3,2.4,14.5,3.7,21.9
		c9.7-4.1,19-5.4,29.1-3.2c0-3.6-0.1-6.6,0-9.6c0.3-8.9-2-16.6-7.4-24c-5.2-7.1-8.9-15.3-13.1-23.2c-0.8-1.5-0.4-3.6-0.6-5.5
		c0.6-0.3,1.2-0.5,1.8-0.8c13.9,13.4,23.5,30.2,34.8,45.6c11.4,15.6,24.9,29.7,35.7,46.6c-7.8,0.7-9.9-7.3-16.1-8.5
		c0.2,1.2,0.3,2.1,0.4,2.9c1.2,17.7,2.4,35.4,3.7,53.1c0.4,5.3-2.8,7.6-7.2,10.1c-0.3-1.9-0.5-3.3-0.7-4.7
		c-1.7-19.9-3.4-39.8-5.2-59.6c-0.6-7.1-1.5-14.2-6.6-20c-3.1-3.5-6-7.3-9.2-11.1c-0.6,4.6-1.3,8.8-1.7,13.1c-0.1,1,0.4,2.3,1.1,3
		c9.6,11,10.9,22.5,3.7,35.2c-0.6,1-0.8,2.2-0.9,3.3c-0.5,6.5-1,13.1-1.2,19.6c0,1.3,0.9,3.2,2,3.7c4.9,2.4,6.3,6.1,5.2,11.2
		c-0.5,2-0.7,4-0.8,6.1C254.1,368.7,250.9,376.8,256.8,384.3z M114.7,550.6c-2.6-1.9-4.5-3-6-4.4c-4.8-4.5-9.9-5-15.5-1.9
		c-1.8,1-3.6,2-5.4,2.8c-6.1,3-12.2,6.2-18.5,8.8c-2.2,0.9-5.2,0-7.8-0.2c0.1-2.5-0.4-5.2,0.5-7.4c4.7-11.2,9.7-22.3,14.8-33.9
		c-3.1-2.6-6.6-5.7-10-8.6c-3.6,3.1-6.7,5.9-9.9,8.7c-11,9.5-22.3,18.8-33,28.6c-10.1,9.3-15.6,21-13.9,35.1c1.1,9.7,7.9,17,17.4,19
		c12.5,2.6,24.5,1.3,35-6.5C79.7,577.7,96.8,564.3,114.7,550.6z M262.5,114.9c-7.6,3-14.7,6.5-22.2,8.6c-7.6,2.1-15.6,2.9-24.3,4.4
		c5.4,7,10.2,13.5,15.3,19.8c2.3,2.9,5.6,4.2,9.3,3.6c6.6-1,11.5-4.7,15.2-10C261.5,133.6,262.7,124.6,262.5,114.9z M276.2,172.6
		c8.7-19,9.6-43.3-3.3-54.3c-1.6,14.9-2.9,29.6-18.3,38.1C259.9,164.4,268.4,167.6,276.2,172.6z M204.3,309.2
		c13-10.3,26.3-11.2,40.9-6.8c-2-5.6-4.4-10.7-7-15.6c-0.6-1.1-2.2-1.9-3.5-2.3c-9.7-3.1-19-1.9-27.6,3.3c-1.6,0.9-3.5,2.9-3.6,4.5
		C203.3,297.6,203.9,303,204.3,309.2z M210,88.9c-6-0.9-6.2-1.1-6.5-7.4c-0.1-2.8,0.1-5.5,0-8.3c-0.1-2.8,1.2-4.3,3.8-5
		c10.7-3.1,19-10,26.9-17.3c1.5-1.4,2.4-3.6,3.6-5.4c-0.3-0.5-0.6-0.9-0.9-1.4c-3.8,0.5-7.8,0.5-11.4,1.5
		c-21.9,5.9-31.6,15.8-30.1,37.1c0.3,3.7,1.6,5.9,5.2,6.2C203.7,89.1,206.9,88.9,210,88.9z M239,337.5c0-6,0-12.4,0-18.7
		c0-1.5,0.1-3-0.4-4.3c-0.5-1.3-1.6-3.1-2.8-3.4c-7.3-1.9-14.4-1.8-21,2.5c-1,0.7-1.9,2.7-1.6,3.8c1.4,6.2,3.3,12.3,4.9,18.5
		c0.7,2.8,2.4,3.1,4.9,2.8C228.2,338.1,233.4,337.9,239,337.5z M413.4,176.4c2.5-1.7,4.5-3.5,6.8-4.6c6.2-3,12.4-6.4,19-8.3
		c10.8-3.1,11-2.9,6.4-13.3c-0.2-0.4-0.3-0.9-0.6-1.2c-1-0.7-2.1-1.9-3-1.8c-9.9,1.2-19.2,4.1-25.4,12.6
		C413.2,164.6,411.3,170,413.4,176.4z M443.2,173.7c-9.2,0.9-16.1,5.3-23.2,9.3c-0.7,0.4-1.5,1.7-1.4,2.4c0.7,5.2,1.6,10.4,2.4,15.3
		c7,0,13.2,0,19.9,0C441.6,192,442.4,183.1,443.2,173.7z M102.5,512.9c-12.7,1.5-27.4,18.2-27.9,31.2
		C88.9,536.5,99,525.3,102.5,512.9z M233.7,348.6c0-0.4,0-0.8,0-1.2c-5.1-2-10.1-1.4-15,1.1c-2.9,1.5-3.9,3.6-2.3,6.8
		c1.3,2.6,2.1,5.4,3.2,8.1c3.7,8.5,5.7,16.8-0.5,25.1c-0.7,0.9-0.9,2.1-1.3,3.2c-2.2,6.1-0.9,12,1,18c1.1-2.3,1.4-4.7,1.9-7
		c1.2-5.3,1.6-11,4-15.7c2.6-5.2,2.6-9.9,1.2-15.1c-1.4-5.2-2.4-10.5-3.8-15.7c-0.9-3.3,0.2-5,3.4-5.8
		C228.2,350,230.9,349.3,233.7,348.6z M303.5,154.6c-0.2-12.2-4.3-22.8-10.1-32.8c-0.9-1.5-3.6-1.8-6.5-3.2c4.9,9.9,6.4,19,5,28.5
		c-0.4,3,0,5,3.6,5.4C298,152.7,300.3,153.7,303.5,154.6z M421.9,280.6c0.6-0.1,1.1-0.3,1.7-0.4c-0.6-3.5-0.9-7.2-2-10.5
		c-2.7-7.9-4.6-15.6,0.5-23.3c0.8-1.2,1.1-3.1,1.1-4.6c-0.1-7.6-0.3-15.1-0.8-22.7c-0.2-2.9,0.6-4.3,3.3-5.1
		c2.3-0.7,4.5-1.8,6.8-2.8c-0.1-0.6-0.3-1.2-0.4-1.8c-3.1,0.2-6.2,0.1-9.1,0.6c-3.6,0.7-5.6,2.6-4.5,6.8c1,4.2,1.3,8.6,2.3,12.9
		c1.5,6.5,1.7,12.5-3.7,17.6c-1.4,1.3-2.5,3.4-2.8,5.3c-0.4,2.6-0.3,5.4,0.4,7.9c1.3,4.5,3.3,8.8,5,13.2
		C420.3,276.1,421.1,278.4,421.9,280.6z M245.8,179c1.3-2.5,2-4.2,3-5.8c1-1.6,2.1-3.1,3.2-4.6c-5.5-7.7-7.6-8.6-14.7-5.9
		C240.1,168,242.8,173.2,245.8,179z M238.7,401c-3-0.6-4.5,0.5-4.7,3.2c-0.5,5.5-1,11-1.3,16.5c-0.1,1.9,0.4,3.8,0.7,5.7
		c0.5,0,1,0,1.4,0C236.1,418,237.4,409.7,238.7,401z"/>
	<path d="M324.2,509c1.1-12.3,1.8-24.2,3.4-36c2.9-21.5,6.3-42.9,9.7-64.3c1.6-10,3.8-20,13.5-26.3c-1.1,0.3-2.3,0.4-3.2,0.9
		c-5.8,3.1-11.7,6-17.2,9.5c-1.5,0.9-2.4,3.6-2.8,5.5c-5.5,35.8-11.9,71.6-14,107.9c-0.1,1-0.2,2-0.4,3c-1.8,0-3.4,0-5,0
		c-9.1,0.1-9.2,0.1-11.2-9.1c-3.9-18.5-7.4-37.1-11.7-55.6c-3.4-14.5-6.5-29-5.9-44c0.1-1.5,0.6-3.6,1.7-4.5
		c9.1-7.3,18.3-14.5,27.6-21.4c3.6-2.7,7.2-5.6,12.6-4.3c3.1,0.8,4.3-2.4,5-5c1.2-4.6,3.7-8.2,8.9-10.2c1.8,5,3.6,9.8,5.3,14.5
		c25.2-7.9,43.5-24,56.6-46.2c1.1-1.8,0.9-4.8,0.4-7c-1.9-8.3-2.1-8.2,5.5-14c2.3,7.9,4.8,15.6,6.8,23.4c0.3,1.4-1.2,3.2-1.9,4.9
		c-0.6,1.5-1.9,3-1.9,4.4c1,27.4-5,53.8-11.2,80.2c-6.6,28.5-12.6,57.2-18.8,85.8c-0.6,2.5-1.2,5.1-1.9,8
		C358,509,341.7,509,324.2,509z"/>
	<path class="st2" d="M114.7,550.6c-17.9,13.7-35.1,27.1-52.5,40.2c-10.4,7.8-22.5,9.1-35,6.5c-9.5-2-16.2-9.3-17.4-19
		c-1.7-14.2,3.8-25.8,13.9-35.1c10.7-9.9,22-19.1,33-28.6c3.2-2.8,6.3-5.5,9.9-8.7c3.4,2.9,6.9,5.9,10,8.6
		c-5.1,11.5-10.1,22.6-14.8,33.9c-0.9,2.2-0.3,4.9-0.5,7.4c2.6,0.1,5.6,1,7.8,0.2c6.3-2.5,12.4-5.8,18.5-8.8
		c1.8-0.9,3.6-1.8,5.4-2.8c5.6-3.2,10.8-2.7,15.5,1.9C110.2,547.6,112.1,548.7,114.7,550.6z"/>
	<path class="st2" d="M262.5,114.9c0.2,9.7-1,18.6-6.7,26.5c-3.8,5.3-8.6,9-15.2,10c-3.8,0.6-7-0.7-9.3-3.6
		c-5-6.3-9.9-12.8-15.3-19.8c8.7-1.5,16.7-2.3,24.3-4.4C247.8,121.4,254.9,117.9,262.5,114.9z"/>
	<path class="st2" d="M276.2,172.6c-7.7-5-16.3-8.2-21.7-16.2c15.4-8.4,16.7-23.2,18.3-38.1C285.8,129.3,284.9,153.6,276.2,172.6z"
		/>
	<path class="st2" d="M204.3,309.2c-0.4-6.2-1-11.6-0.8-17c0-1.6,2-3.6,3.6-4.5c8.7-5.2,18-6.4,27.6-3.3c1.3,0.4,2.9,1.2,3.5,2.3
		c2.7,4.9,5,10,7,15.6C230.6,298,217.3,298.9,204.3,309.2z"/>
	<path class="st2" d="M210,88.9c-3.1,0-6.3,0.2-9.4-0.1c-3.6-0.3-5-2.5-5.2-6.2c-1.6-21.3,8.2-31.2,30.1-37.1c3.7-1,7.6-1,11.4-1.5
		c0.3,0.5,0.6,0.9,0.9,1.4c-1.2,1.8-2,3.9-3.6,5.4c-7.9,7.4-16.2,14.2-26.9,17.3c-2.6,0.8-3.9,2.3-3.8,5c0.1,2.8-0.2,5.5,0,8.3
		C203.8,87.8,204,88,210,88.9z"/>
	<path class="st2" d="M239,337.5c-5.6,0.4-10.8,0.6-16,1.1c-2.5,0.3-4.2-0.1-4.9-2.8c-1.6-6.2-3.5-12.3-4.9-18.5
		c-0.3-1.1,0.7-3.1,1.6-3.8c6.5-4.3,13.7-4.4,21-2.5c1.2,0.3,2.2,2.1,2.8,3.4c0.5,1.3,0.4,2.9,0.4,4.3
		C239,325.1,239,331.5,239,337.5z"/>
	<path class="st2" d="M413.4,176.4c-2.1-6.5-0.2-11.8,3.3-16.6c6.2-8.5,15.5-11.4,25.4-12.6c0.9-0.1,2,1.1,3,1.8
		c0.3,0.2,0.4,0.8,0.6,1.2c4.6,10.4,4.4,10.2-6.4,13.3c-6.6,1.9-12.8,5.3-19,8.3C417.9,172.9,415.9,174.7,413.4,176.4z"/>
	<path class="st2" d="M443.2,173.7c-0.8,9.5-1.6,18.4-2.3,27c-6.7,0-12.8,0-19.9,0c-0.8-4.8-1.7-10.1-2.4-15.3
		c-0.1-0.8,0.7-2,1.4-2.4C427,179,433.9,174.6,443.2,173.7z"/>
	<path class="st2" d="M102.5,512.9c-3.5,12.3-13.6,23.6-27.9,31.2C75.1,531.1,89.8,514.5,102.5,512.9z"/>
	<path class="st2" d="M233.7,348.6c-2.7,0.7-5.5,1.4-8.2,2c-3.2,0.7-4.3,2.5-3.4,5.8c1.4,5.2,2.4,10.5,3.8,15.7
		c1.4,5.2,1.5,9.9-1.2,15.1c-2.4,4.7-2.8,10.4-4,15.7c-0.5,2.3-0.9,4.7-1.9,7c-1.9-6-3.2-11.9-1-18c0.4-1.1,0.7-2.3,1.3-3.2
		c6.1-8.3,4.2-16.7,0.5-25.1c-1.2-2.7-2-5.5-3.2-8.1c-1.5-3.2-0.6-5.3,2.3-6.8c4.9-2.6,9.8-3.2,15-1.1
		C233.7,347.8,233.7,348.2,233.7,348.6z"/>
	<path class="st2" d="M303.5,154.6c-3.2-0.9-5.5-1.9-8-2.1c-3.7-0.4-4.1-2.4-3.6-5.4c1.4-9.5-0.2-18.5-5-28.5
		c2.9,1.3,5.7,1.7,6.5,3.2C299.3,131.7,303.4,142.4,303.5,154.6z"/>
	<path class="st2" d="M421.9,280.6c-0.8-2.3-1.6-4.5-2.4-6.7c-1.7-4.4-3.7-8.7-5-13.2c-0.7-2.5-0.8-5.3-0.4-7.9
		c0.3-1.9,1.4-4,2.8-5.3c5.4-5.1,5.2-11.1,3.7-17.6c-1-4.2-1.3-8.6-2.3-12.9c-1-4.2,1-6.2,4.5-6.8c3-0.6,6.1-0.4,9.1-0.6
		c0.1,0.6,0.3,1.2,0.4,1.8c-2.3,0.9-4.5,2.1-6.8,2.8c-2.7,0.8-3.5,2.2-3.3,5.1c0.5,7.5,0.7,15.1,0.8,22.7c0,1.5-0.2,3.4-1.1,4.6
		c-5.1,7.7-3.2,15.4-0.5,23.3c1.2,3.3,1.4,7,2,10.5C423,280.4,422.5,280.5,421.9,280.6z"/>
	<path class="st2" d="M245.8,179c-3-5.8-5.8-11-8.6-16.3c7.1-2.7,9.2-1.8,14.7,5.9c-1.1,1.5-2.3,3-3.2,4.6
		C247.8,174.8,247.1,176.6,245.8,179z"/>
	<path class="st2" d="M238.7,401c-1.3,8.7-2.6,17.1-3.9,25.4c-0.5,0-1,0-1.4,0c-0.2-1.9-0.8-3.8-0.7-5.7c0.3-5.5,0.9-11,1.3-16.5
		C234.3,401.4,235.8,400.4,238.7,401z"/>
	<path d="M295,203.9c0.5,4.4-1.4,5.6-4,5.8c-2.8,0.2-6.4-3.8-6.1-6.8c0.4-3.2,2.7-4.3,5.6-4.2C294.9,198.9,294.7,202.3,295,203.9z"
		/>
	<path d="M320.3,271.1c-0.7,0.6-2,2.4-3.7,2.8c-2.8,0.7-5.5-2.9-5.7-6.8c-0.2-2.8,1.1-4.5,3.9-4.6
		C317.8,262.3,320.2,265.6,320.3,271.1z"/>
	<path d="M307.8,237.2c-1.1,0.8-2.6,2.6-4.3,2.9c-2.7,0.5-6.7-3.8-6.4-6.4c0.4-3.4,3.1-3.9,5.8-3.9
		C306.6,229.9,307.3,232.7,307.8,237.2z"/>
	<path d="M326.6,318.2c-0.8-4-1.7-7-1.9-10.1c-0.1-0.9,1.8-1.9,2.8-2.9c1.8,2.1,3.9,4,5.3,6.4c0.4,0.8-0.9,2.8-1.9,4
		C330.1,316.4,328.7,316.9,326.6,318.2z"/>
</g>
</svg>
