<?xml version="1.0" encoding="utf-8"?>
<!-- Generator: Adobe Illustrator 22.0.1, SVG Export Plug-In . SVG Version: 6.00 Build 0)  -->
<svg version="1.1" id="Layer_1" xmlns="http://www.w3.org/2000/svg" xmlns:xlink="http://www.w3.org/1999/xlink" x="0px" y="0px"
	 viewBox="0 0 1107.1 399.2" style="enable-background:new 0 0 1107.1 399.2;" xml:space="preserve">
<style type="text/css">
	.st0{fill:#154E3C;}
	.st1{fill:#4C9D4C;}
	.st2{fill:#1D713D;}
	.st3{fill:#FFFFFF;}
</style>
<polyline class="st0" points="500.1,32.9 490.1,38.5 485.1,45.9 487.1,53.9 498.1,59.9 518.1,60.9 534.1,55.9 535.1,44.9 
	521.1,39.9 "/>
<path class="st1" d="M0.1,309.7c311.8,0,311.8-210.4,554-210.4s242.2,210.4,554,210.4c0,9.9,0,19.9,0,29.8c-369.3,0-738.7,0-1108,0
	C0.1,329.6,0.1,319.7,0.1,309.7z"/>
<path class="st2" d="M1108.1,315.8c-311.8,0-311.8-201.1-554-201.1S311.9,315.8,0.1,315.8c0,7.9,0,15.8,0,23.8
	c369.3,0,738.7,0,1108,0C1108.1,331.6,1108.1,323.7,1108.1,315.8z"/>
<path class="st0" d="M554.1,157.7c-242.2,0-242.2,167.4-554,167.4c0,1.6,0,3.2,0,4.9v9.6v65.4h1108v-65.4v-9.6c0-1.6,0-3.2,0-4.9
	C796.3,325.1,796.3,157.7,554.1,157.7z"/>
<polygon class="st0" points="664.9,68.5 641.1,59.9 605.9,51.4 575.4,55.2 526.9,81.8 516.4,88.5 501.2,114.2 511.6,172.3 
	535.4,170.4 537.3,153.3 554.5,177.1 561.1,239 643.9,175.9 634.5,154.2 618.3,91.4 620.2,92.3 647.8,95.2 658.3,108.5 657.3,126.6 
	658.3,142.8 654.5,154.2 654.5,167.8 657.3,165.7 668.8,107.6 "/>
<g>
	<path class="st1" d="M433,333.3c28.5-21.9,57-43.7,84.9-65.2c-1.3-4.6-3-8.5-3.2-12.4c-0.2-3.9,0.7-8,2-11.8c1-3.1,1.3-5.8,0.5-8.8
		c-1.2-4-2.3-8-3.5-11.9c-0.8-2.4-0.5-4.5,1.1-6.2c1.7-1.9,1.6-3.7,0.7-5.9c-1.1-2.6-1.9-5.3-2.8-8c-0.8-2.3-1.3-4.6-4-5.6
		c-1-0.4-1.7-2-2.1-3.2c-1.7-4.7-2.5-9.5-1.6-14.6c0.5-2.9-0.5-6.1,2.4-8.3c0.3-0.3,0-1.5-0.1-2.3c-2.5-16.3-5.2-32.6-7.5-48.9
		c-0.9-6.6,0.2-13.1,4.3-18.5c4.9-6.6,10.3-12.8,15.6-19c2.9-3.4,3-3.6,0.2-7.1c-0.2-0.2-0.4-0.5-0.6-0.7c-2.4-3.1-4.2-7.3-7.4-9.1
		c-3-1.7-7.5-0.7-11.2-1.6c-3.6-0.8-7.3-2-10.4-3.9c-9.2-5.6-8.3-17.7,2-23c-0.4,2.5-0.6,4.6-1.2,6.7c-1.7,6.3-0.2,9.8,6,11.8
		c10,3.2,20.1,2.8,30.2,0c-2,0.1-4.1,0.2-6.1,0.4c-3.5,0.3-5.8-1.3-6.1-4.7c0-0.6,1.1-1.6,1.9-1.9c3.4-1.2,6.8-2.2,10.2-3.3
		c-0.1-0.3-0.1-0.6-0.2-0.9c-2.4,0.2-4.9,0.7-7.3,0.5c-4.7-0.3-9.5-0.5-14.1-1.6c-5.7-1.3-7.6-4.3-7.4-10.2c0.2-4,0.4-8.1,1.2-12.1
		c1.5-8.4,7.4-13.4,14.5-16.8c4.6-2.2,9.7-3.5,14.7-4.5c9.7-2,17.2,1.8,22.1,10.1c2.1,3.6,4.5,4.9,8.7,4.7c3.7-0.2,7.7,0.6,11.3,1.7
		c6.3,1.9,8.3,7.1,6.1,13.3c-2.3,6.2-6.9,10.6-11.3,15.2c-1.2,1.2-2.5,2.4-3.8,3.6c1,2.4,2.8,3.5,5.3,3.3c7.4-0.7,14.8-0.8,22-2.2
		c15.9-3.1,30.8-0.8,45.8,4.8c9.6,3.6,19.8,5.8,29.7,8.5c3.8,1,4.3,1.4,7.3,8.3c2,0,4.1-0.1,6.2,0c3.2,0.1,5.8,1.5,6.7,4.7
		c1.3,4.3,2.4,8.8,3.3,13.2c0.4,2.2-0.3,4.1-2.4,5.5c-0.8,0.5-1.4,1.7-1.5,2.7c-0.8,6.5-1.6,13.1-2.2,19.6c-0.1,1,0.8,2.5,1.7,3.1
		c2.3,1.7,2.8,3.7,2.3,6.4c-1.3,6.6-2.4,13.1-1.2,19.8c0.6,3.7,0.1,7.7,0,11.5c-0.1,3.7-1.9,6.5-5.1,8.5c-1.7,1.1-2.9,3.2-4.6,3.7
		c-4.1,1.1-6.3,4.5-9.4,6.6c-3.4,2.3-7.5,0.2-9.8-4.8c-2.3,1.7-4.6,3.2-6.8,4.9c-20.8,15.9-41.7,31.8-62.5,47.7
		c-9.3,7.1-18.5,14.2-27.8,21.2c-2.3,1.7-3.5,3.4-3,6.6c0.9,5.5-1.5,9.7-6.1,12.9c-4.3,3-8.3,6.4-12.2,9.9c-5.4,5-8.7,4.9-13.2-1.3
		c-2.3,1.7-4.7,3.3-7,5.1c-18.4,14.4-36.8,28.9-55.2,43.3c-3.3,2.6-6.5,5.4-9.7,8.2c-3.7,3.2-6.1,7.3-7.8,11.8
		c-0.7,1.9-0.4,3.3,1.1,4.6c2.6,2.1,5.2,4.2,7.8,6.3c1.2,1,2.5,2.1,3.7,3.2c1.5,1.4,1.6,2.7-0.1,4c-5.4,4.3-10.7,8.7-16.1,13
		c-8,6.3-16,12.8-24.3,18.8c-8.8,6.3-18.8,8.4-29.4,5.7c-12.9-3.3-19.6-13.9-17.8-27.1c1.2-8.5,4.9-15.7,11.2-21.3
		c10.7-9.5,21.6-18.7,32.5-27.9c3.8-3.2,4-3,7.6,0.2C424.5,325.6,428.5,329.3,433,333.3z M547.9,243.3c0.4-0.2,0.7-0.3,1-0.5
		c18.4-13.7,36.9-27.4,55.2-41.3c15.5-11.7,30.8-23.7,46.1-35.7c0.8-0.6,1.6-2.3,1.3-3.1c-2.2-6.6-1.1-12.5,2.9-18.1
		c0.9-1.3,1.4-3.4,1.2-5c-0.5-4.9-1.7-9.8-2.2-14.7c-0.2-1.4,0.4-3.2,1.4-4.2c1.4-1.5,1.8-2.8,1.2-4.6c-1.5-5-1.8-10.3-6.1-14.4
		c-2.1-2-3.8-3.3-6.5-3.4c-0.9,0-1.8-0.2-2.7-0.3c-4.9-0.3-9.8-0.5-15.1-0.7c0.2,1.5,0.2,2.5,0.4,3.4c4.1,19.1,8.3,38.2,14.6,56.7
		c1.8,5.2,1.6,5.4-4.2,7.7c-3.2-9.8-6.7-19.5-9.6-29.4c-5.2-18.1-10-36.3-14.9-54.5c-0.1-0.5-0.4-1.1-0.3-1.5c0.4-1.1,0.8-2.4,1.6-3
		c0.4-0.3,2.1,0.4,2.7,1.1c2.2,2.7,4.1,5.7,6.3,8.5c0.9,1.1,2.1,2.6,3.2,2.8c7.3,0.8,14.7,1.4,22.1,1.8c0.7,0,1.9-0.7,2.2-1.4
		c2.5-6.1,6.9-10.4,12.3-13.9c0.9-0.6,1.8-1.2,2.7-1.8c-1.5-2.9-3.7-4-6.3-4.8c-8.8-2.6-17.7-5.2-26.4-8.1
		c-11.4-3.9-22.7-7.7-35-5.3c-5.2,1-10.5,1.7-16.2,2.7c5,11.3,6,22.7,6.9,34.7c-4.6-1.5-8.8-2.7-12.9-4.2c-2.3-0.8-3.6-0.4-4.5,1.9
		c-1,2.6-2,5.1-3.1,7.6c-1.8,3.9-4.8,5-8.7,3.3c-1.2-0.5-2.4-1.1-3.6-1.6c-6-2.8-6.1-2.8-9.3,3c-1.5,2.7-2.9,5.4-4.9,9.2
		c-5.2-9.1-9.9-17.3-14.6-25.6c-0.5-0.2-0.9-0.4-1.4-0.6c-3,3.4-5.8,7.1-9.1,10.2c-7.6,7.4-11.2,16.1-9.3,26.9
		c1.7,10.2,3.1,20.4,4.7,30.6c0.8,5,1.7,10.1,2.6,15.2c6.8-2.9,13.2-3.7,20.2-2.2c0-2.5-0.1-4.6,0-6.7c0.2-6.2-1.4-11.6-5.2-16.7
		c-3.6-4.9-6.2-10.7-9.1-16.1c-0.6-1.1-0.3-2.5-0.4-3.8c0.4-0.2,0.8-0.4,1.3-0.5c9.7,9.3,16.3,21,24.2,31.7
		c7.9,10.9,17.3,20.6,24.8,32.4c-5.4,0.5-6.9-5.1-11.2-5.9c0.1,0.9,0.2,1.5,0.3,2c0.9,12.3,1.7,24.6,2.6,36.9c0.3,3.7-2,5.3-5,7
		c-0.2-1.3-0.4-2.3-0.5-3.3c-1.2-13.8-2.3-27.6-3.6-41.5c-0.4-5-1.1-9.9-4.6-13.9c-2.2-2.5-4.2-5-6.4-7.7c-0.4,3.2-0.9,6.1-1.2,9.1
		c-0.1,0.7,0.3,1.6,0.7,2.1c6.7,7.7,7.5,15.6,2.6,24.5c-0.4,0.7-0.6,1.5-0.6,2.3c-0.3,4.5-0.7,9.1-0.8,13.6c0,0.9,0.7,2.2,1.4,2.6
		c3.4,1.7,4.4,4.2,3.6,7.8c-0.3,1.4-0.5,2.8-0.5,4.2C546.1,232.5,543.8,238.1,547.9,243.3z M449.1,358.9c-1.8-1.3-3.1-2.1-4.2-3.1
		c-3.3-3.2-6.9-3.5-10.8-1.3c-1.2,0.7-2.5,1.4-3.8,2c-4.3,2.1-8.5,4.3-12.9,6.1c-1.6,0.6-3.6,0-5.5-0.1c0.1-1.7-0.3-3.6,0.3-5.1
		c3.2-7.8,6.7-15.5,10.3-23.5c-2.1-1.8-4.6-4-6.9-6c-2.5,2.2-4.7,4.1-6.9,6c-7.7,6.6-15.5,13-22.9,19.9c-7,6.5-10.8,14.6-9.7,24.4
		c0.8,6.8,5.5,11.8,12.1,13.2c8.7,1.8,17,0.9,24.3-4.5C424.8,377.8,436.7,368.5,449.1,358.9z M551.9,56.1c-5.3,2.1-10.2,4.5-15.4,6
		c-5.3,1.5-10.8,2-16.9,3.1c3.7,4.9,7.1,9.4,10.6,13.8c1.6,2,3.9,2.9,6.5,2.5c4.6-0.7,8-3.3,10.6-6.9C551.2,69,552,62.8,551.9,56.1z
		 M561.4,96.2c6.1-13.2,6.7-30.1-2.3-37.7c-1.1,10.3-2,20.6-12.7,26.5C550.1,90.5,556,92.7,561.4,96.2z M511.4,191.1
		c9.1-7.2,18.3-7.8,28.5-4.8c-1.4-3.9-3-7.4-4.9-10.9c-0.4-0.8-1.5-1.3-2.4-1.6c-6.7-2.2-13.2-1.3-19.2,2.3c-1.1,0.7-2.5,2-2.5,3.1
		C510.7,183.1,511.2,186.8,511.4,191.1z M515.4,38c-4.2-0.6-4.3-0.7-4.5-5.2c-0.1-1.9,0.1-3.8,0-5.8c0-1.9,0.8-3,2.7-3.5
		c7.4-2.1,13.2-6.9,18.7-12c1.1-1,1.7-2.5,2.5-3.7c-0.2-0.3-0.4-0.6-0.6-1c-2.7,0.3-5.4,0.3-8,1c-15.2,4.1-22,11-20.9,25.8
		c0.2,2.5,1.1,4.1,3.6,4.3C511,38.1,513.2,38,515.4,38z M535.6,210.8c0-4.2,0-8.6,0-13c0-1,0.1-2.1-0.3-3c-0.4-0.9-1.1-2.1-1.9-2.4
		c-5-1.3-10-1.3-14.6,1.7c-0.7,0.5-1.3,1.9-1.1,2.6c1,4.3,2.3,8.6,3.4,12.9c0.5,1.9,1.7,2.1,3.4,2
		C528,211.2,531.7,211.1,535.6,210.8z M656.8,98.8c1.8-1.2,3.1-2.5,4.7-3.2c4.3-2.1,8.6-4.4,13.2-5.8c7.5-2.2,7.6-2,4.4-9.2
		c-0.1-0.3-0.2-0.7-0.4-0.8c-0.7-0.5-1.4-1.3-2.1-1.2c-6.9,0.8-13.3,2.8-17.6,8.7C656.6,90.6,655.3,94.3,656.8,98.8z M677.5,96.9
		c-6.4,0.6-11.2,3.7-16.1,6.4c-0.5,0.3-1,1.2-1,1.7c0.5,3.6,1.1,7.3,1.7,10.6c4.9,0,9.2,0,13.8,0
		C676.4,109.7,676.9,103.5,677.5,96.9z M440.7,332.8c-8.8,1.1-19.1,12.7-19.4,21.7C431.2,349.1,438.2,341.3,440.7,332.8z
		 M531.8,218.5c0-0.3,0-0.5,0-0.8c-3.6-1.4-7-1-10.4,0.8c-2,1.1-2.7,2.5-1.6,4.7c0.9,1.8,1.4,3.8,2.2,5.6c2.6,5.9,3.9,11.7-0.3,17.5
		c-0.5,0.6-0.7,1.5-0.9,2.2c-1.5,4.2-0.6,8.4,0.7,12.5c0.7-1.6,1-3.3,1.4-4.9c0.8-3.7,1.1-7.6,2.8-10.9c1.8-3.6,1.8-6.9,0.8-10.5
		c-1-3.6-1.7-7.3-2.6-10.9c-0.6-2.3,0.1-3.5,2.3-4C528,219.5,529.9,219,531.8,218.5z M580.4,83.6c-0.1-8.5-3-15.9-7-22.8
		c-0.6-1-2.5-1.3-4.5-2.2c3.4,6.9,4.5,13.2,3.5,19.8c-0.3,2.1,0,3.5,2.5,3.8C576.6,82.3,578.2,83,580.4,83.6z M662.7,171.3
		c0.4-0.1,0.8-0.2,1.2-0.3c-0.4-2.4-0.6-5-1.4-7.3c-1.9-5.5-3.2-10.8,0.3-16.2c0.6-0.9,0.8-2.1,0.7-3.2c-0.1-5.3-0.2-10.5-0.6-15.8
		c-0.1-2,0.4-3,2.3-3.5c1.6-0.5,3.2-1.3,4.7-1.9c-0.1-0.4-0.2-0.8-0.3-1.2c-2.1,0.1-4.3,0-6.4,0.4c-2.5,0.5-3.9,1.8-3.2,4.8
		c0.7,2.9,0.9,6,1.6,8.9c1.1,4.5,1.2,8.7-2.6,12.2c-1,0.9-1.8,2.4-2,3.7c-0.3,1.8-0.2,3.8,0.3,5.5c0.9,3.1,2.3,6.1,3.5,9.2
		C661.6,168.2,662.1,169.7,662.7,171.3z M540.3,100.6c0.9-1.7,1.4-2.9,2.1-4c0.7-1.1,1.5-2.1,2.2-3.2c-3.8-5.4-5.3-6-10.2-4.1
		C536.3,93,538.2,96.6,540.3,100.6z M535.4,254.9c-2.1-0.4-3.1,0.3-3.3,2.2c-0.3,3.8-0.7,7.6-0.9,11.5c-0.1,1.3,0.3,2.6,0.5,3.9
		c0.3,0,0.7,0,1,0C533.5,266.8,534.4,261,535.4,254.9z"/>
	<path class="st1" d="M594.8,330c0.8-8.6,1.2-16.8,2.4-25c2-14.9,4.4-29.8,6.8-44.7c1.1-7,2.6-13.9,9.4-18.3
		c-0.8,0.2-1.6,0.3-2.3,0.7c-4,2.1-8.1,4.2-12,6.6c-1,0.7-1.7,2.5-1.9,3.8c-3.8,24.9-8.3,49.8-9.8,75c0,0.7-0.2,1.4-0.2,2.1
		c-1.3,0-2.4,0-3.5,0c-6.3,0.1-6.4,0.1-7.8-6.3c-2.7-12.9-5.2-25.8-8.2-38.6c-2.4-10.1-4.5-20.2-4.1-30.6c0-1.1,0.4-2.5,1.2-3.1
		c6.3-5.1,12.7-10.1,19.2-14.9c2.5-1.8,5-3.9,8.8-3c2.2,0.5,3-1.7,3.5-3.5c0.8-3.2,2.6-5.7,6.2-7.1c1.3,3.4,2.5,6.8,3.7,10.1
		c17.5-5.5,30.2-16.7,39.4-32.1c0.7-1.3,0.7-3.3,0.3-4.9c-1.3-5.7-1.4-5.7,3.9-9.7c1.6,5.5,3.3,10.9,4.7,16.3c0.2,1-0.8,2.3-1.3,3.4
		c-0.4,1-1.4,2.1-1.3,3.1c0.7,19.1-3.5,37.4-7.8,55.8c-4.6,19.8-8.7,39.7-13.1,59.6c-0.4,1.8-0.8,3.5-1.3,5.6
		C618.2,330,606.9,330,594.8,330z"/>
	<path class="st0" d="M449.1,358.9c-12.4,9.5-24.4,18.9-36.5,28c-7.3,5.4-15.6,6.3-24.3,4.5c-6.6-1.4-11.3-6.4-12.1-13.2
		c-1.2-9.8,2.6-17.9,9.7-24.4c7.4-6.9,15.3-13.3,22.9-19.9c2.2-1.9,4.4-3.9,6.9-6c2.3,2,4.8,4.1,6.9,6c-3.5,8-7,15.7-10.3,23.5
		c-0.6,1.5-0.2,3.4-0.3,5.1c1.8,0.1,3.9,0.7,5.5,0.1c4.4-1.7,8.6-4,12.9-6.1c1.3-0.6,2.5-1.3,3.8-2c3.9-2.2,7.5-1.9,10.8,1.3
		C446,356.9,447.3,357.6,449.1,358.9z"/>
	<path class="st3" d="M551.9,56.1c0.1,6.7-0.7,13-4.6,18.4c-2.6,3.7-6,6.2-10.6,6.9c-2.6,0.4-4.9-0.5-6.5-2.5
		c-3.5-4.4-6.9-8.9-10.6-13.8c6.1-1.1,11.6-1.6,16.9-3.1C541.7,60.6,546.6,58.2,551.9,56.1z"/>
	<path class="st3" d="M561.4,96.2c-5.4-3.5-11.3-5.7-15.1-11.3C557,79,558,68.8,559.1,58.4C568,66.1,567.4,83,561.4,96.2z"/>
	<path class="st0" d="M511.4,191.1c-0.3-4.3-0.7-8.1-0.6-11.8c0-1.1,1.4-2.5,2.5-3.1c6-3.6,12.5-4.4,19.2-2.3c0.9,0.3,2,0.9,2.4,1.6
		c1.9,3.4,3.5,6.9,4.9,10.9C529.7,183.3,520.5,184,511.4,191.1z"/>
	<path class="st0" d="M515.4,38c-2.2,0-4.4,0.1-6.5,0c-2.5-0.2-3.5-1.8-3.6-4.3c-1.1-14.8,5.7-21.7,20.9-25.8c2.6-0.7,5.3-0.7,8-1
		c0.2,0.3,0.4,0.6,0.6,1c-0.8,1.3-1.4,2.7-2.5,3.7c-5.5,5.1-11.3,9.9-18.7,12c-1.8,0.5-2.7,1.6-2.7,3.5c0,1.9-0.1,3.8,0,5.8
		C511.1,37.3,511.2,37.4,515.4,38z"/>
	<path class="st3" d="M535.6,210.8c-3.9,0.3-7.5,0.4-11.1,0.8c-1.7,0.2-2.9,0-3.4-2c-1.1-4.3-2.4-8.5-3.4-12.9
		c-0.2-0.8,0.5-2.2,1.1-2.6c4.5-3,9.5-3.1,14.6-1.7c0.8,0.2,1.5,1.4,1.9,2.4c0.4,0.9,0.3,2,0.3,3
		C535.6,202.2,535.6,206.6,535.6,210.8z"/>
	<path class="st0" d="M656.8,98.8c-1.5-4.5-0.1-8.2,2.3-11.5c4.3-5.9,10.7-7.9,17.6-8.7c0.6-0.1,1.4,0.8,2.1,1.2
		c0.2,0.2,0.3,0.5,0.4,0.8c3.2,7.2,3.1,7.1-4.4,9.2c-4.6,1.3-8.9,3.7-13.2,5.8C659.9,96.4,658.5,97.6,656.8,98.8z"/>
	<path class="st3" d="M677.5,96.9c-0.6,6.6-1.1,12.8-1.6,18.8c-4.6,0-8.9,0-13.8,0c-0.5-3.4-1.2-7-1.7-10.6c-0.1-0.5,0.5-1.4,1-1.7
		C666.2,100.6,671,97.6,677.5,96.9z"/>
	<path class="st0" d="M440.7,332.8c-2.4,8.6-9.5,16.4-19.4,21.7C421.6,345.4,431.8,333.8,440.7,332.8z"/>
	<path class="st0" d="M531.8,218.5c-1.9,0.5-3.8,1-5.7,1.4c-2.2,0.5-3,1.7-2.3,4c1,3.6,1.7,7.3,2.6,10.9c1,3.6,1,6.9-0.8,10.5
		c-1.6,3.3-1.9,7.2-2.8,10.9c-0.4,1.6-0.6,3.3-1.4,4.9c-1.3-4.2-2.2-8.3-0.7-12.5c0.3-0.8,0.5-1.6,0.9-2.2
		c4.3-5.8,2.9-11.6,0.3-17.5c-0.8-1.9-1.4-3.8-2.2-5.6c-1.1-2.2-0.4-3.7,1.6-4.7c3.4-1.8,6.8-2.2,10.4-0.8
		C531.8,218,531.8,218.3,531.8,218.5z"/>
	<path class="st0" d="M580.4,83.6c-2.2-0.6-3.9-1.3-5.5-1.5c-2.5-0.3-2.8-1.6-2.5-3.8c1-6.6-0.1-12.9-3.5-19.8
		c2,0.9,3.9,1.2,4.5,2.2C577.4,67.8,580.3,75.2,580.4,83.6z"/>
	<path class="st0" d="M662.7,171.3c-0.6-1.6-1.1-3.1-1.7-4.7c-1.2-3.1-2.5-6.1-3.5-9.2c-0.5-1.7-0.5-3.7-0.3-5.5
		c0.2-1.3,1-2.8,2-3.7c3.8-3.5,3.6-7.7,2.6-12.2c-0.7-2.9-0.9-6-1.6-8.9c-0.7-2.9,0.7-4.3,3.2-4.8c2.1-0.4,4.2-0.3,6.4-0.4
		c0.1,0.4,0.2,0.8,0.3,1.2c-1.6,0.7-3.1,1.4-4.7,1.9c-1.9,0.6-2.5,1.5-2.3,3.5c0.4,5.2,0.5,10.5,0.6,15.8c0,1.1-0.2,2.3-0.7,3.2
		c-3.6,5.4-2.2,10.7-0.3,16.2c0.8,2.3,1,4.9,1.4,7.3C663.5,171.1,663.1,171.2,662.7,171.3z"/>
	<path class="st0" d="M540.3,100.6c-2.1-4-4-7.7-5.9-11.3c4.9-1.9,6.4-1.2,10.2,4.1c-0.7,1-1.6,2.1-2.2,3.2
		C541.7,97.7,541.2,98.9,540.3,100.6z"/>
	<path class="st0" d="M535.4,254.9c-0.9,6.1-1.8,11.9-2.7,17.7c-0.3,0-0.7,0-1,0c-0.2-1.3-0.5-2.6-0.5-3.9c0.2-3.8,0.6-7.7,0.9-11.5
		C532.3,255.3,533.3,254.5,535.4,254.9z"/>
	<path class="st1" d="M574.5,117.9c0.3,3.1-1,3.9-2.8,4c-1.9,0.2-4.4-2.6-4.2-4.7c0.2-2.2,1.9-3,3.9-2.9
		C574.4,114.4,574.3,116.9,574.5,117.9z"/>
	<path class="st1" d="M592.1,164.7c-0.5,0.4-1.4,1.7-2.6,2c-2,0.5-3.8-2-4-4.7c-0.1-2,0.7-3.1,2.7-3.2
		C590.3,158.6,592,160.8,592.1,164.7z"/>
	<path class="st1" d="M583.4,141.1c-0.7,0.5-1.8,1.8-3,2c-1.9,0.3-4.7-2.6-4.5-4.5c0.3-2.4,2.2-2.7,4-2.7
		C582.5,136,583.1,138,583.4,141.1z"/>
	<path class="st1" d="M596.4,197.4c-0.6-2.8-1.2-4.9-1.3-7c0-0.6,1.3-1.3,1.9-2c1.3,1.5,2.7,2.8,3.7,4.4c0.3,0.5-0.7,2-1.3,2.8
		C598.8,196.1,597.9,196.5,596.4,197.4z"/>
</g>
</svg>
