<?xml version="1.0" encoding="utf-8"?>
<!-- Generator: Adobe Illustrator 22.0.1, SVG Export Plug-In . SVG Version: 6.00 Build 0)  -->
<svg version="1.1" id="Layer_1" xmlns="http://www.w3.org/2000/svg" xmlns:xlink="http://www.w3.org/1999/xlink" x="0px" y="0px"
	 viewBox="0 0 560.8 560.1" style="enable-background:new 0 0 560.8 560.1;" xml:space="preserve">
<style type="text/css">
	.st0{fill:#145609;}
	.st1{fill:#3BB729;}
	.st2{fill:#FFFFFF;}
	.st3{filter:url(#Adobe_OpacityMaskFilter);}
	.st4{opacity:0.75;mask:url(#SVGID_1_);}
	.st5{fill:#23B518;}
</style>
<path class="st0" d="M280.7,551.3c-72.5,0-140.6-28.2-191.8-79.4S9.4,352.5,9.4,280.1S37.6,139.5,88.9,88.3S208.2,8.8,280.7,8.8
	s140.6,28.2,191.8,79.4s79.4,119.3,79.4,191.8s-28.2,140.6-79.4,191.8S353.1,551.3,280.7,551.3z M280.7,28.8
	c-138.5,0-251.3,112.7-251.3,251.3c0,138.5,112.7,251.2,251.3,251.2c138.5,0,251.3-112.7,251.3-251.2
	C531.9,141.6,419.2,28.8,280.7,28.8z"/>
<path class="st1" d="M280.7,560.3c-74.9,0-145.2-29.2-198.2-82.1C29.6,425.3,0.4,354.9,0.4,280.1S29.6,134.9,82.5,81.9
	C135.4,29,205.8-0.2,280.7-0.2S425.9,29,478.8,81.9c52.9,52.9,82.1,123.3,82.1,198.2s-29.2,145.2-82.1,198.2
	C425.9,531.2,355.5,560.3,280.7,560.3z M280.7,9.8c-149,0-270.3,121.2-270.3,270.3c0,149,121.2,270.2,270.3,270.2
	c149,0,270.3-121.2,270.3-270.2C550.9,131.1,429.7,9.8,280.7,9.8z"/>
<circle class="st2" cx="280.7" cy="280.1" r="235.5"/>
<g>
	<g>
		<path class="st1" d="M280.7,27.8c-139.3,0-252.3,112.9-252.3,252.3s112.9,252.2,252.3,252.2s252.3-112.9,252.3-252.2
			S420,27.8,280.7,27.8z M237.8,416.8c0,0-0.6,2.7-3.7,2.7c-3.1,0-5.3-0.4-42.5-0.4c-37.3,0-39.4,0.4-41.7,0.4c-4,0-3.7-2.8-3.7-2.8
			s-0.1-3.2,3.2-3.2c4.4-0.1,9.6,0.1,18.6-3.5c8.9-3.6,7.7-16.8,7.7-16.8l33.5,0c0,0,2,12,8.7,16.8c3.6,2.6,11.1,3.6,15.6,3.6
			C238.1,413.6,237.8,416.8,237.8,416.8z M252.9,409.3h-23.5c-1.3,0-2.4-1-2.4-2.3c0-1.3,1.1-2.3,2.4-2.3h23.5c1.3,0,2.4,1,2.4,2.3
			C255.3,408.3,254.2,409.3,252.9,409.3z M252.9,398.9h-34.8c-1.3,0-2.4-1-2.4-2.3c0-1.3,1.1-2.3,2.4-2.3h34.8c1.3,0,2.4,1,2.4,2.3
			C255.3,397.9,254.2,398.9,252.9,398.9z M252.9,387.9h-83.5c-1.3,0-2.4-1-2.4-2.3c0-1.3,1.1-2.3,2.4-2.3h83.5c1.3,0,2.4,1,2.4,2.3
			C255.3,386.8,254.2,387.9,252.9,387.9z M252.9,377.5h-89.7c-1.3,0-2.4-1-2.4-2.3s1.1-2.3,2.4-2.3h89.7c1.3,0,2.4,1,2.4,2.3
			S254.2,377.5,252.9,377.5z M252.9,367.1h-83.5c-1.3,0-2.4-1-2.4-2.3s1.1-2.3,2.4-2.3h83.5c1.3,0,2.4,1,2.4,2.3
			S254.2,367.1,252.9,367.1z M233.5,299.1l14.8,16.5c-5.5,2.8-15.3,0.5-21.5-6.3c-6.7-7.5-8.7-25.1-6.2-27.3
			c2.6-2.1,20.9,1.1,27.6,8.5c6.2,6.9,7.3,17.3,2.7,22.8l-14.9-16.5c-0.7-0.7-1.8-0.8-2.6-0.2C232.8,297.2,232.8,298.3,233.5,299.1z
			 M220.9,319.7c4.4-2.6,9.8-1.9,12.1,0.7l-10.7,6.2c-0.5,0.3-0.7,0.9-0.4,1.4c0.3,0.5,0.9,0.7,1.3,0.4l10.7-6.2
			c1.3,3.9-1.3,9.4-5.7,12c-4.8,2.8-14.7,1-15.6-0.6C211.6,331.8,216,322.5,220.9,319.7z M253,343c-4.5,5.5-16.7,8.9-18.4,7.3
			c-1.7-1.6-1.4-14.8,3.1-20.3c4.2-5.1,11.4-7,15.6-4.4l-10,12.2c-0.5,0.6-0.4,1.4,0.1,1.8c0.5,0.5,1.3,0.4,1.8-0.2l10-12.2
			C257.7,330.9,257.1,338,253,343z M253,251.7c-4.5,5.5-16.7,8.9-18.4,7.3c-1.7-1.6-1.4-14.8,3.1-20.3c4.2-5.1,11.4-7,15.6-4.4
			l-10,12.2c-0.5,0.6-0.4,1.4,0.1,1.8c0.5,0.5,1.3,0.4,1.8-0.2l10-12.2C257.7,239.5,257.1,246.6,253,251.7z M234.5,179.5l9.4,8.1
			c-2.7,2.1-8.1,1.7-12-1.6c-4.3-3.7-6.9-13.7-5.8-15.1c1.2-1.5,11.2-1.3,15.5,2.4c3.9,3.4,5.5,9.3,3.5,12.9l-9.4-8.1
			c-0.4-0.4-1-0.3-1.4,0.1C234,178.5,234.1,179.1,234.5,179.5z M244.3,195.2c8.7,5.3,13.6,16.1,11.2,23.4l-20.8-12.7
			c-0.9-0.6-2.1-0.3-2.6,0.6c-0.5,0.9-0.1,2.1,0.8,2.7l20.7,12.7c-4.4,4.8-14.9,5.5-23.4,0.2c-9.4-5.8-18-23.9-16.3-27
			C215.6,191.9,234.9,189.4,244.3,195.2z M292.8,177.3c-0.4-0.4-1-0.3-1.4,0.2l-7.8,9.8c-2-2.8-1.6-8.4,1.6-12.5
			c3.5-4.4,13.1-7.2,14.5-6c1.4,1.2,1.3,11.7-2.3,16.1c-3.2,4.1-8.9,5.7-12.4,3.7l7.8-9.8C293.3,178.3,293.2,177.6,292.8,177.3z
			 M311.8,193.6c2,3-4,22.3-12.9,28.7c-8.2,5.9-19.6,6-24.9,0.6l19.7-14.3c0.9-0.6,1.2-1.9,0.6-2.7c-0.6-0.9-1.8-1-2.7-0.4
			L272,219.8c-2.3-6.2,1.5-16.4,9.6-22.3C290.6,191,309.8,190.6,311.8,193.6z M305,236.6l-10.7-6.2c2.3-2.6,7.7-3.2,12.1-0.7
			c4.8,2.8,9.2,12.1,8.3,13.8c-0.9,1.7-10.8,3.4-15.6,0.6c-4.5-2.6-7-8.1-5.7-12l10.7,6.2c0.5,0.3,1.1,0.1,1.3-0.4
			C305.7,237.5,305.5,236.9,305,236.6z M283.7,246.5l-10.1-12.1c3.7-2.1,10.4-0.4,14.6,4.6c4.6,5.5,5.9,18.5,4.2,20
			c-1.7,1.6-14.2-0.8-18.8-6.3c-4.2-5-4.9-12.7-1.8-16.8l10.1,12.1c0.5,0.5,1.2,0.6,1.8,0.2C284.1,247.9,284.1,247,283.7,246.5z
			 M265.3,202.2v-24.5c0-1.1-0.8-2-1.9-2c-1,0-1.9,0.9-1.9,2v24.4c-6.3-1.5-12.4-10.4-12.4-20.5c0-11.1,10.9-27.5,14.4-27.5
			s15.6,15.7,15.6,26.8C279.3,191.2,272.7,200.8,265.3,202.2z M221.1,228.5c4.4-2.6,9.8-1.9,12.1,0.7l-10.7,6.2
			c-0.5,0.3-0.7,0.9-0.4,1.4c0.3,0.5,0.9,0.7,1.3,0.4l10.7-6.2c1.3,3.9-1.3,9.4-5.7,12c-4.8,2.8-14.7,1-15.6-0.6
			C211.9,240.6,216.3,231.3,221.1,228.5z M266.3,416.5c0,1.6-1.3,3-2.9,3c-1.6,0-2.9-1.3-2.9-3V214c0-1.6,1.3-3,2.9-3
			c1.6,0,2.9,1.3,2.9,3V416.5z M271.2,324.3l7.9,9.3c0.4,0.4,1,0.5,1.5,0.2c0.5-0.3,0.6-0.9,0.2-1.3l-7.9-9.3
			c3.8-1.8,9.8-0.1,13.1,3.8c3.6,4.2,3.2,13.9,1.6,15c-1.6,1.1-11.8-1.8-15.3-6C269,332,268.9,326.8,271.2,324.3z M315,377.5h-41
			c-1.3,0-2.4-1-2.4-2.3s1.1-2.3,2.4-2.3h41c1.3,0,2.4,1,2.4,2.3S316.3,377.5,315,377.5z M321.9,383.2c1.3,0,2.4,1,2.4,2.3
			c0,1.3-1.1,2.3-2.4,2.3h-48c-1.3,0-2.4-1-2.4-2.3c0-1.3,1.1-2.3,2.4-2.3H321.9z M308,367.1h-34.1c-1.3,0-2.4-1-2.4-2.3
			s1.1-2.3,2.4-2.3H308c1.3,0,2.4,1,2.4,2.3S309.4,367.1,308,367.1z M291,419.7h-17.1c-1.3,0-2.4-1-2.4-2.3c0-1.3,1.1-2.3,2.4-2.3
			H291c1.3,0,2.4,1,2.4,2.3C293.4,418.7,292.3,419.7,291,419.7z M314,409.3h-40c-1.3,0-2.4-1-2.4-2.3c0-1.3,1.1-2.3,2.4-2.3h40
			c1.3,0,2.4,1,2.4,2.3C316.4,408.3,315.3,409.3,314,409.3z M329.3,398.9h-55.4c-1.3,0-2.4-1-2.4-2.3c0-1.3,1.1-2.3,2.4-2.3h55.4
			c1.3,0,2.4,1,2.4,2.3C331.7,397.9,330.6,398.9,329.3,398.9z M409.9,419.3c-3.4,0-28.4,0.2-28.4,0.2s-22.3,2.3-38.7-20.9
			c-15.2-21.5-70.9-94-70.9-94s-0.6-24.5-0.6-28.2c0-3.7,0.7-4,3.9-4.8c3.2-0.9,53.5-8.8,53.5-58.6s-38.5-65-65.3-65
			c-26.8,0-59.3,15.7-59.3,62.9s33,56.4,46.7,59.9c5.4,1.4,4.7,4.2,4.1,7.9c-0.6,4.1-1.8,5.5-1.8,5.5S240.6,273,226,273.2
			c-14.1,0.3-16.7,6.9-16.4,15.6c0.3,10.6-0.5,68-0.5,68l-33.1-0.2c0,0-0.3-169.3-0.6-183.7c-0.2-14.3-4.5-23-21.3-24.5
			c-2.2-0.2-7.5-0.2-7.6-3.4c-0.1-3.3,4.5-3,4.5-3s106.5-1.6,131.2-1.6c24.7,0,81.9,13.6,81.9,67.7s-41.2,72.8-65.1,78.3l74.5,95.6
			c0,0,20.3,26.5,32.8,30.3c4.4,1.3,9,1.6,8.7,4.7C415,418.7,413.3,419.3,409.9,419.3z"/>
	</g>
	<defs>
		<filter id="Adobe_OpacityMaskFilter" filterUnits="userSpaceOnUse" x="28.4" y="27.8" width="504.5" height="504.5">
			
				<feColorMatrix  type="matrix" values="-1 0 0 0 1  0 -1 0 0 1  0 0 -1 0 1  0 0 0 1 0" color-interpolation-filters="sRGB" result="source"/>
		</filter>
	</defs>
	<mask maskUnits="userSpaceOnUse" x="28.4" y="27.8" width="504.5" height="504.5" id="SVGID_1_">
		<g class="st3">
			
				<image style="overflow:visible;" width="509" height="509" xlink:href="1FC05D33.jpg"  transform="matrix(1 0 0 1 26.1836 25.8402)">
			</image>
		</g>
	</mask>
	<g class="st4">
		<path class="st5" d="M280.7,27.8c-139.3,0-252.3,112.9-252.3,252.3s112.9,252.2,252.3,252.2s252.3-112.9,252.3-252.2
			S420,27.8,280.7,27.8z M237.8,416.8c0,0-0.6,2.7-3.7,2.7c-3.1,0-5.3-0.4-42.5-0.4c-37.3,0-39.4,0.4-41.7,0.4c-4,0-3.7-2.8-3.7-2.8
			s-0.1-3.2,3.2-3.2c4.4-0.1,9.6,0.1,18.6-3.5c8.9-3.6,7.7-16.8,7.7-16.8l33.5,0c0,0,2,12,8.7,16.8c3.6,2.6,11.1,3.6,15.6,3.6
			C238.1,413.6,237.8,416.8,237.8,416.8z M252.9,409.3h-23.5c-1.3,0-2.4-1-2.4-2.3c0-1.3,1.1-2.3,2.4-2.3h23.5c1.3,0,2.4,1,2.4,2.3
			C255.3,408.3,254.2,409.3,252.9,409.3z M252.9,398.9h-34.8c-1.3,0-2.4-1-2.4-2.3c0-1.3,1.1-2.3,2.4-2.3h34.8c1.3,0,2.4,1,2.4,2.3
			C255.3,397.9,254.2,398.9,252.9,398.9z M252.9,387.9h-83.5c-1.3,0-2.4-1-2.4-2.3c0-1.3,1.1-2.3,2.4-2.3h83.5c1.3,0,2.4,1,2.4,2.3
			C255.3,386.8,254.2,387.9,252.9,387.9z M252.9,377.5h-89.7c-1.3,0-2.4-1-2.4-2.3s1.1-2.3,2.4-2.3h89.7c1.3,0,2.4,1,2.4,2.3
			S254.2,377.5,252.9,377.5z M252.9,367.1h-83.5c-1.3,0-2.4-1-2.4-2.3s1.1-2.3,2.4-2.3h83.5c1.3,0,2.4,1,2.4,2.3
			S254.2,367.1,252.9,367.1z M233.5,299.1l14.8,16.5c-5.5,2.8-15.3,0.5-21.5-6.3c-6.7-7.5-8.7-25.1-6.2-27.3
			c2.6-2.1,20.9,1.1,27.6,8.5c6.2,6.9,7.3,17.3,2.7,22.8l-14.9-16.5c-0.7-0.7-1.8-0.8-2.6-0.2C232.8,297.2,232.8,298.3,233.5,299.1z
			 M220.9,319.7c4.4-2.6,9.8-1.9,12.1,0.7l-10.7,6.2c-0.5,0.3-0.7,0.9-0.4,1.4c0.3,0.5,0.9,0.7,1.3,0.4l10.7-6.2
			c1.3,3.9-1.3,9.4-5.7,12c-4.8,2.8-14.7,1-15.6-0.6C211.6,331.8,216,322.5,220.9,319.7z M253,343c-4.5,5.5-16.7,8.9-18.4,7.3
			c-1.7-1.6-1.4-14.8,3.1-20.3c4.2-5.1,11.4-7,15.6-4.4l-10,12.2c-0.5,0.6-0.4,1.4,0.1,1.8c0.5,0.5,1.3,0.4,1.8-0.2l10-12.2
			C257.7,330.9,257.1,338,253,343z M253,251.7c-4.5,5.5-16.7,8.9-18.4,7.3c-1.7-1.6-1.4-14.8,3.1-20.3c4.2-5.1,11.4-7,15.6-4.4
			l-10,12.2c-0.5,0.6-0.4,1.4,0.1,1.8c0.5,0.5,1.3,0.4,1.8-0.2l10-12.2C257.7,239.5,257.1,246.6,253,251.7z M234.5,179.5l9.4,8.1
			c-2.7,2.1-8.1,1.7-12-1.6c-4.3-3.7-6.9-13.7-5.8-15.1c1.2-1.5,11.2-1.3,15.5,2.4c3.9,3.4,5.5,9.3,3.5,12.9l-9.4-8.1
			c-0.4-0.4-1-0.3-1.4,0.1C234,178.5,234.1,179.1,234.5,179.5z M244.3,195.2c8.7,5.3,13.6,16.1,11.2,23.4l-20.8-12.7
			c-0.9-0.6-2.1-0.3-2.6,0.6c-0.5,0.9-0.1,2.1,0.8,2.7l20.7,12.7c-4.4,4.8-14.9,5.5-23.4,0.2c-9.4-5.8-18-23.9-16.3-27
			C215.6,191.9,234.9,189.4,244.3,195.2z M292.8,177.3c-0.4-0.4-1-0.3-1.4,0.2l-7.8,9.8c-2-2.8-1.6-8.4,1.6-12.5
			c3.5-4.4,13.1-7.2,14.5-6c1.4,1.2,1.3,11.7-2.3,16.1c-3.2,4.1-8.9,5.7-12.4,3.7l7.8-9.8C293.3,178.3,293.2,177.6,292.8,177.3z
			 M311.8,193.6c2,3-4,22.3-12.9,28.7c-8.2,5.9-19.6,6-24.9,0.6l19.7-14.3c0.9-0.6,1.2-1.9,0.6-2.7c-0.6-0.9-1.8-1-2.7-0.4
			L272,219.8c-2.3-6.2,1.5-16.4,9.6-22.3C290.6,191,309.8,190.6,311.8,193.6z M305,236.6l-10.7-6.2c2.3-2.6,7.7-3.2,12.1-0.7
			c4.8,2.8,9.2,12.1,8.3,13.8c-0.9,1.7-10.8,3.4-15.6,0.6c-4.5-2.6-7-8.1-5.7-12l10.7,6.2c0.5,0.3,1.1,0.1,1.3-0.4
			C305.7,237.5,305.5,236.9,305,236.6z M283.7,246.5l-10.1-12.1c3.7-2.1,10.4-0.4,14.6,4.6c4.6,5.5,5.9,18.5,4.2,20
			c-1.7,1.6-14.2-0.8-18.8-6.3c-4.2-5-4.9-12.7-1.8-16.8l10.1,12.1c0.5,0.5,1.2,0.6,1.8,0.2C284.1,247.9,284.1,247,283.7,246.5z
			 M265.3,202.2v-24.5c0-1.1-0.8-2-1.9-2c-1,0-1.9,0.9-1.9,2v24.4c-6.3-1.5-12.4-10.4-12.4-20.5c0-11.1,10.9-27.5,14.4-27.5
			s15.6,15.7,15.6,26.8C279.3,191.2,272.7,200.8,265.3,202.2z M221.1,228.5c4.4-2.6,9.8-1.9,12.1,0.7l-10.7,6.2
			c-0.5,0.3-0.7,0.9-0.4,1.4c0.3,0.5,0.9,0.7,1.3,0.4l10.7-6.2c1.3,3.9-1.3,9.4-5.7,12c-4.8,2.8-14.7,1-15.6-0.6
			C211.9,240.6,216.3,231.3,221.1,228.5z M266.3,416.5c0,1.6-1.3,3-2.9,3c-1.6,0-2.9-1.3-2.9-3V214c0-1.6,1.3-3,2.9-3
			c1.6,0,2.9,1.3,2.9,3V416.5z M271.2,324.3l7.9,9.3c0.4,0.4,1,0.5,1.5,0.2c0.5-0.3,0.6-0.9,0.2-1.3l-7.9-9.3
			c3.8-1.8,9.8-0.1,13.1,3.8c3.6,4.2,3.2,13.9,1.6,15c-1.6,1.1-11.8-1.8-15.3-6C269,332,268.9,326.8,271.2,324.3z M315,377.5h-41
			c-1.3,0-2.4-1-2.4-2.3s1.1-2.3,2.4-2.3h41c1.3,0,2.4,1,2.4,2.3S316.3,377.5,315,377.5z M321.9,383.2c1.3,0,2.4,1,2.4,2.3
			c0,1.3-1.1,2.3-2.4,2.3h-48c-1.3,0-2.4-1-2.4-2.3c0-1.3,1.1-2.3,2.4-2.3H321.9z M308,367.1h-34.1c-1.3,0-2.4-1-2.4-2.3
			s1.1-2.3,2.4-2.3H308c1.3,0,2.4,1,2.4,2.3S309.4,367.1,308,367.1z M291,419.7h-17.1c-1.3,0-2.4-1-2.4-2.3c0-1.3,1.1-2.3,2.4-2.3
			H291c1.3,0,2.4,1,2.4,2.3C293.4,418.7,292.3,419.7,291,419.7z M314,409.3h-40c-1.3,0-2.4-1-2.4-2.3c0-1.3,1.1-2.3,2.4-2.3h40
			c1.3,0,2.4,1,2.4,2.3C316.4,408.3,315.3,409.3,314,409.3z M329.3,398.9h-55.4c-1.3,0-2.4-1-2.4-2.3c0-1.3,1.1-2.3,2.4-2.3h55.4
			c1.3,0,2.4,1,2.4,2.3C331.7,397.9,330.6,398.9,329.3,398.9z M409.9,419.3c-3.4,0-28.4,0.2-28.4,0.2s-22.3,2.3-38.7-20.9
			c-15.2-21.5-70.9-94-70.9-94s-0.6-24.5-0.6-28.2c0-3.7,0.7-4,3.9-4.8c3.2-0.9,53.5-8.8,53.5-58.6s-38.5-65-65.3-65
			c-26.8,0-59.3,15.7-59.3,62.9s33,56.4,46.7,59.9c5.4,1.4,4.7,4.2,4.1,7.9c-0.6,4.1-1.8,5.5-1.8,5.5S240.6,273,226,273.2
			c-14.1,0.3-16.7,6.9-16.4,15.6c0.3,10.6-0.5,68-0.5,68l-33.1-0.2c0,0-0.3-169.3-0.6-183.7c-0.2-14.3-4.5-23-21.3-24.5
			c-2.2-0.2-7.5-0.2-7.6-3.4c-0.1-3.3,4.5-3,4.5-3s106.5-1.6,131.2-1.6c24.7,0,81.9,13.6,81.9,67.7s-41.2,72.8-65.1,78.3l74.5,95.6
			c0,0,20.3,26.5,32.8,30.3c4.4,1.3,9,1.6,8.7,4.7C415,418.7,413.3,419.3,409.9,419.3z"/>
	</g>
</g>
</svg>
