<?xml version="1.0" encoding="utf-8"?>
<!-- Generator: Adobe Illustrator 22.0.1, SVG Export Plug-In . SVG Version: 6.00 Build 0)  -->
<svg version="1.1" id="Layer_1" xmlns="http://www.w3.org/2000/svg" xmlns:xlink="http://www.w3.org/1999/xlink" x="0px" y="0px"
	 viewBox="0 0 1024 1024" style="enable-background:new 0 0 1024 1024;" xml:space="preserve">
<style type="text/css">
	.st0{fill:#D25D29;}
	.st1{fill:#468958;}
	.st2{fill:#6ABD5B;}
</style>
<path class="st0" d="M225.5,144.7c4.7-15.3,1.2-32.7-10.5-45.2c-11.7-12.6-28.8-17.1-44.4-13.5c-4.6,15.3-1.2,32.7,10.5,45.2
	S209.8,148.3,225.5,144.7"/>
<path class="st0" d="M221.7,91.9c11.1,11.9,15.9,28.2,13.4,44c9.9-8.2,16.4-20.4,16.9-34.3c0.6-17.2-8.2-32.5-21.8-41
	c-9,4.8-16.2,12.4-20.4,21.8C214.2,84.9,218.2,88.1,221.7,91.9"/>
<path class="st0" d="M263.5,102.6c-0.6,16.2-8.7,31.2-21.6,40.6c12.8,1.2,26-2.8,36.2-12.3c12.5-11.7,17.1-28.8,13.5-44.4
	c-9.7-2.9-20.2-2.7-29.8,0.9C263,92.4,263.6,97.5,263.5,102.6"/>
<g>
	<polygon class="st1" points="97.3,569 79.8,569 79.8,598.3 65.2,598.3 65.2,530.4 79.8,530.4 79.8,555.9 97.3,555.9 97.3,530.4 
		111.9,530.4 111.9,598.3 97.3,598.3 	"/>
	<path class="st1" d="M201.5,589.5c-6.7,6.8-15.3,10.3-25.8,10.3s-19.1-3.4-25.8-10.3c-6.7-6.9-10.1-15.2-10.1-25.1
		c0-9.9,3.4-18.3,10.1-25.1c6.7-6.8,15.3-10.3,25.8-10.3s19.1,3.4,25.8,10.3c6.7,6.8,10.1,15.2,10.1,25.1
		C211.6,574.2,208.2,582.6,201.5,589.5 M160.5,580.4c4,4.2,9.1,6.3,15.2,6.3c6.2,0,11.3-2.1,15.2-6.3c4-4.2,6-9.5,6-16.1
		s-2-11.9-6-16.1c-4-4.2-9.1-6.2-15.2-6.2c-6.2,0-11.3,2.1-15.2,6.2c-4,4.2-6,9.5-6,16.1S156.5,576.3,160.5,580.4"/>
	<path class="st1" d="M254.2,568.3v30h-14.7v-68h18c8.1,0,14.6,2.1,19.7,6.4c5,4.3,7.6,10.2,7.6,17.6c0,8.3-3.8,14.5-11.5,18.6
		l15.6,25.3h-16.5L254.2,568.3z M254.2,543.4v22h3.3c3.8,0,6.9-1,9.2-2.9c2.3-2,3.4-4.6,3.4-8s-1.1-6.1-3.4-8
		c-2.3-2-5.3-2.9-9.2-2.9h-3.3V543.4z"/>
	<polygon class="st1" points="306.4,530.3 345.5,530.3 345.5,543.4 333.3,543.4 333.3,598.3 318.6,598.3 318.6,543.4 306.4,543.4 	
		"/>
	<rect x="369.6" y="530.3" class="st1" width="14.7" height="68"/>
	<polygon class="st1" points="429.3,567.9 429.3,598.3 414.6,598.3 414.6,530.3 429.3,530.3 429.3,565.7 451.2,530.3 466.6,530.3 
		444.8,565 471.1,598.3 453,598.3 	"/>
	<path class="st1" d="M497.2,592.9c-4.2-4.5-6.2-10.5-6.2-18v-44.6h14.7v44.6c0,7.8,3.1,11.7,9.4,11.7c6.2,0,9.4-3.9,9.4-11.7v-44.6
		h14.7v44.6c0,7.4-2.1,13.4-6.2,18c-4.2,4.5-10.1,6.8-17.8,6.8C507.3,599.7,501.4,597.5,497.2,592.9"/>
	<polygon class="st1" points="568.9,530.3 583.6,530.3 583.6,585.2 602.9,585.2 602.9,598.3 568.9,598.3 	"/>
	<polygon class="st1" points="616.1,530.3 655.2,530.3 655.2,543.4 643,543.4 643,598.3 628.3,598.3 628.3,543.4 616.1,543.4 	"/>
	<path class="st1" d="M685.1,592.9c-4.2-4.5-6.3-10.5-6.3-18v-44.6h14.7v44.6c0,7.8,3.1,11.7,9.4,11.7c6.2,0,9.4-3.9,9.4-11.7v-44.6
		H727v44.6c0,7.4-2.1,13.4-6.2,18c-4.2,4.5-10.1,6.8-17.8,6.8C695.2,599.7,689.3,597.5,685.1,592.9"/>
	<path class="st1" d="M771.4,568.3v30h-14.7v-68h18c8.1,0,14.6,2.1,19.7,6.4c5,4.3,7.6,10.2,7.6,17.6c0,8.3-3.8,14.5-11.5,18.6
		l15.6,25.3h-16.5L771.4,568.3z M771.4,543.4v22h3.3c3.8,0,6.9-1,9.2-2.9c2.3-2,3.4-4.6,3.4-8s-1.1-6.1-3.4-8
		c-2.3-2-5.3-2.9-9.2-2.9h-3.3V543.4z"/>
	<path class="st1" d="M855,527.5l28.7,70.8h-15.1l-3.4-8.7h-20.5l-3.3,8.7h-14.9L855,527.5z M854.9,563.2l-5.7,14.8h11.5
		L854.9,563.2z"/>
</g>
<g>
	<polygon class="st1" points="186.1,778.6 168.8,737.3 173.6,737.3 186.2,767.9 198.6,737.3 203.3,737.3 	"/>
	<path class="st1" d="M254.5,777.7v-7.1c-4.1,5.4-9.7,8-16.8,8c-6,0-11.1-2-15.1-6.1s-6-9.1-6-15s2-10.9,6-15s9.1-6.1,15.1-6.1
		c6.4,0,11.7,2.2,15.7,6.7l5.6-6.7v41.3L254.5,777.7L254.5,777.7z M225.9,769.6c3.2,3.3,7.2,4.9,11.9,4.9s8.7-1.6,11.9-4.9
		c3.2-3.3,4.8-7.3,4.8-12.1s-1.6-8.8-4.8-12.1s-7.2-4.9-11.9-4.9s-8.7,1.6-11.9,4.9c-3.2,3.3-4.8,7.3-4.8,12.1
		C221.1,762.3,222.7,766.3,225.9,769.6"/>
	<path class="st1" d="M289.4,769.8c0.4,0.4,0.9,0.8,1.5,1.3c0.7,0.5,2,1.2,4.1,2.1c2.1,0.9,4.3,1.3,6.5,1.3c2.9,0,5.1-0.6,6.7-1.9
		c1.6-1.3,2.4-3.1,2.4-5.5c0-2.1-0.7-3.8-2.2-5s-3.3-2.2-5.5-2.8s-4.3-1.2-6.4-1.9s-3.9-1.9-5.4-3.5s-2.2-3.8-2.2-6.6
		c0-3.2,1.2-5.8,3.6-7.9c2.4-2.1,5.5-3.1,9.2-3.1c2.2,0,4.4,0.3,6.5,0.9c2.1,0.6,3.6,1.2,4.6,1.9l1.4,0.9l-2.3,3.6
		c-3.2-2.1-6.6-3.2-10.2-3.2c-2.5,0-4.5,0.6-6,1.8s-2.3,2.8-2.3,4.9c0,1.9,0.8,3.5,2.2,4.6c1.5,1.1,3.3,2,5.4,2.6s4.3,1.3,6.4,2
		c2.2,0.7,4,2,5.5,3.8s2.2,4.1,2.2,7.1c0,3.3-1.2,6-3.6,8.2s-5.7,3.3-9.9,3.3c-2.7,0-5.3-0.4-7.8-1.3c-2.5-0.9-4.3-1.7-5.5-2.6
		l-1.7-1.4L289.4,769.8z M310.9,716l-6.9,12.3h-5.6l-6.9-12.3h3.6l6.1,8.6l6.1-8.6H310.9z"/>
	<path class="st1" d="M397.5,743c4.2-4.4,9.5-6.6,15.7-6.6c6,0,11.1,2,15.1,6.1s6,9.1,6,15s-2,10.9-6,15s-9.1,6.1-15.1,6.1
		c-7.2,0-12.8-2.7-16.8-8v24.9h-4.5v-59.1L397.5,743z M425,745.4c-3.2-3.3-7.2-4.9-11.9-4.9c-4.7,0-8.7,1.6-11.9,4.9
		c-3.2,3.3-4.8,7.3-4.8,12.1s1.6,8.8,4.8,12.1c3.2,3.3,7.2,4.9,11.9,4.9c4.7,0,8.7-1.6,11.9-4.9c3.2-3.3,4.8-7.3,4.8-12.1
		S428.2,748.6,425,745.4"/>
	<path class="st1" d="M499.4,777.7v-7.1c-4.1,5.4-9.7,8-16.8,8c-6,0-11.1-2-15.1-6.1s-6-9.1-6-15s2-10.9,6-15s9.1-6.1,15.1-6.1
		c6.4,0,11.7,2.2,15.7,6.7l5.6-6.7v41.3L499.4,777.7L499.4,777.7z M470.8,769.6c3.2,3.3,7.2,4.9,11.9,4.9c4.7,0,8.7-1.6,11.9-4.9
		c3.2-3.3,4.8-7.3,4.8-12.1s-1.6-8.8-4.8-12.1c-3.2-3.3-7.2-4.9-11.9-4.9c-4.7,0-8.7,1.6-11.9,4.9c-3.2,3.3-4.8,7.3-4.8,12.1
		S467.6,766.3,470.8,769.6"/>
	<path class="st1" d="M556.8,740.7h-1.1c-2.6,0-4.8,0.4-6.8,1.2s-3.4,1.8-4.4,2.9c-0.9,1.2-1.7,2.3-2.2,3.5c-0.6,1.2-0.9,2.1-1,2.9
		l-0.1,1.2v25.2h-4.5v-41.3l4.8,5.7c0.3-0.4,0.8-1,1.4-1.6c0.6-0.6,2.1-1.5,4.3-2.5c2.2-1.1,4.7-1.6,7.4-1.6h2.2L556.8,740.7
		L556.8,740.7z"/>
	<polygon class="st1" points="588.9,742.9 588.9,777.7 584.4,777.7 584.4,742.9 581.6,742.9 584.4,738.8 584.4,721 588.9,721 
		588.9,738.8 602,738.8 602,742.9 	"/>
	<path class="st1" d="M628.2,736.3l4.5,5.3c0.4-0.4,0.9-0.9,1.6-1.4c0.7-0.6,2.2-1.4,4.4-2.4s4.5-1.5,6.7-1.5
		c4.8,0,8.7,1.5,11.7,4.6s4.5,7.4,4.5,12.9v23.8h-4.5v-23.8c0-4.2-1.1-7.5-3.3-9.9s-5.1-3.6-8.6-3.6c-1.7,0-3.3,0.3-4.8,0.8
		s-2.7,1.1-3.6,1.8c-0.9,0.7-1.7,1.4-2.4,2.2c-0.7,0.7-1.1,1.3-1.4,1.8l-0.5,0.7v29.9H628v-41.2H628.2z"/>
	<path class="st1" d="M731.3,769.1c-0.2,0.3-0.4,0.6-0.7,1s-1,1.2-2.2,2.3c-1.1,1.1-2.4,2.1-3.7,2.9c-1.3,0.8-3.1,1.6-5.3,2.3
		s-4.5,1-6.8,1c-6.2,0-11.4-2.1-15.4-6.2c-4-4.1-6-9.1-6-15s2-10.9,6-15s9.1-6.1,15.2-6.1c5.5,0,10.3,1.7,14.2,5.1
		c3.9,3.4,6.2,7.8,6.9,13l-37.3,7.1c0.9,3.9,2.8,7,5.7,9.4s6.5,3.6,10.8,3.6c1.9,0,3.8-0.3,5.5-0.8s3.2-1.2,4.3-1.9s2-1.5,2.9-2.2
		c0.8-0.8,1.4-1.4,1.8-2l0.5-0.8L731.3,769.1z M695.6,757.7l32.5-6.1c-1.1-3.4-3.1-6.1-6-8.1s-6.1-3-9.8-3c-4.7,0-8.7,1.6-11.9,4.9
		c-3.2,3.3-4.8,7.3-4.8,12.1V757.7z"/>
	<path class="st1" d="M782.1,740.7H781c-2.6,0-4.8,0.4-6.8,1.2s-3.4,1.8-4.4,2.9c-0.9,1.2-1.7,2.3-2.2,3.5c-0.6,1.2-0.9,2.1-1,2.9
		l-0.1,1.2v25.2H762v-41.3l4.8,5.7c0.3-0.4,0.8-1,1.4-1.6c0.6-0.6,2.1-1.5,4.3-2.5c2.2-1.1,4.7-1.6,7.4-1.6h2.3v4.4H782.1z"/>
	<path class="st1" d="M230,867.9l-4.5-5.3c-0.4,0.4-0.9,0.9-1.7,1.4c-0.7,0.6-2.2,1.4-4.5,2.4s-4.5,1.5-6.8,1.5
		c-4.8,0-8.8-1.5-11.8-4.6s-4.5-7.4-4.5-12.9v-23.8h4.5v23.8c0,4.2,1.1,7.5,3.3,9.9s5.1,3.6,8.7,3.6c1.7,0,3.3-0.2,4.8-0.8
		c1.5-0.5,2.7-1.1,3.6-1.8c0.9-0.7,1.7-1.4,2.4-2.1c0.7-0.7,1.2-1.3,1.5-1.8l0.4-0.7v-29.9h4.5v41.1H230z"/>
	<path class="st1" d="M341.1,867.9l-4.5-5.3c-0.4,0.4-0.9,0.9-1.6,1.4c-0.7,0.6-2.2,1.4-4.4,2.4c-2.2,1-4.5,1.5-6.7,1.5
		c-4.8,0-8.7-1.5-11.7-4.6s-4.5-7.4-4.5-12.9v-23.8h4.5v23.8c0,4.2,1.1,7.5,3.3,9.9c2.2,2.4,5.1,3.6,8.6,3.6c1.7,0,3.3-0.2,4.8-0.8
		c1.5-0.5,2.7-1.1,3.6-1.8s1.7-1.4,2.4-2.1c0.7-0.7,1.2-1.3,1.5-1.8l0.4-0.7v-29.9h4.5v41.1H341.1z"/>
	<path class="st1" d="M394,830h-1.1c-2.6,0-4.8,0.4-6.8,1.2s-3.4,1.8-4.4,2.9c-0.9,1.2-1.7,2.3-2.2,3.5c-0.6,1.2-0.9,2.1-1,2.9
		l-0.1,1.2V867h-4.5v-41.3l4.8,5.7c0.3-0.4,0.8-1,1.4-1.6s2.1-1.5,4.3-2.5c2.2-1.1,4.7-1.6,7.4-1.6h2.2L394,830L394,830z"/>
	<path class="st1" d="M455.6,858.4c-0.2,0.2-0.4,0.6-0.7,1c-0.3,0.4-1,1.2-2.2,2.3c-1.1,1.1-2.4,2.1-3.7,2.9
		c-1.3,0.8-3.1,1.6-5.3,2.3c-2.2,0.7-4.5,1-6.8,1c-6.2,0-11.4-2.1-15.4-6.2c-4-4.1-6-9.1-6-15s2-10.9,6-15s9.1-6.1,15.2-6.1
		c5.5,0,10.3,1.7,14.2,5.1c3.9,3.4,6.2,7.8,6.9,13l-37.3,7.1c0.9,3.9,2.8,7,5.7,9.4c2.9,2.4,6.5,3.6,10.8,3.6c1.9,0,3.8-0.3,5.5-0.8
		s3.2-1.2,4.3-1.9c1.1-0.7,2-1.5,2.9-2.2c0.8-0.7,1.4-1.4,1.8-2l0.5-0.7L455.6,858.4z M420,847l32.5-6.1c-1.1-3.4-3.1-6.1-6-8.1
		s-6.1-3-9.8-3c-4.7,0-8.7,1.6-11.9,4.9c-3.2,3.3-4.8,7.3-4.8,12.1L420,847L420,847z"/>
	<path class="st1" d="M520.4,861.3c-4.1,4.4-9.3,6.6-15.7,6.6c-6,0-11.1-2-15.1-6.1s-6-9.1-6-15s2-10.9,6-15s9.1-6.1,15.1-6.1
		c7.1,0,12.7,2.7,16.8,8v-17.9h-14.9v-3.7h14.9v-12.2h4.5v12.2h5.9v3.7H526v52.1L520.4,861.3z M492.8,858.9
		c3.2,3.3,7.2,4.9,11.9,4.9c4.7,0,8.7-1.6,11.9-4.9c3.2-3.3,4.8-7.3,4.8-12.1s-1.6-8.8-4.8-12.1s-7.2-4.9-11.9-4.9
		c-4.7,0-8.7,1.6-11.9,4.9c-3.2,3.3-4.8,7.3-4.8,12.1C488,851.6,489.6,855.6,492.8,858.9"/>
	<path class="st1" d="M596.1,858.4c-0.2,0.2-0.4,0.6-0.7,1s-1,1.2-2.2,2.3c-1.1,1.1-2.4,2.1-3.7,2.9c-1.3,0.8-3.1,1.6-5.3,2.3
		s-4.5,1-6.8,1c-6.2,0-11.4-2.1-15.4-6.2c-4-4.1-6-9.1-6-15s2-10.9,6-15s9.1-6.1,15.2-6.1c5.5,0,10.3,1.7,14.2,5.1
		c3.9,3.4,6.2,7.8,6.9,13l-37.3,7.1c0.9,3.9,2.8,7,5.7,9.4s6.5,3.6,10.8,3.6c1.9,0,3.8-0.3,5.5-0.8c1.8-0.5,3.2-1.2,4.3-1.9
		s2-1.5,2.9-2.2c0.8-0.7,1.4-1.4,1.8-2l0.5-0.7L596.1,858.4z M560.4,847l32.5-6.1c-1.1-3.4-3.1-6.1-6-8.1s-6.1-3-9.8-3
		c-4.7,0-8.7,1.6-11.9,4.9c-3.2,3.3-4.8,7.3-4.8,12.1V847z"/>
	<path class="st1" d="M626.7,825.6l4.5,5.3c0.4-0.4,0.9-0.9,1.6-1.4c0.7-0.6,2.2-1.4,4.4-2.4s4.5-1.5,6.7-1.5
		c4.8,0,8.7,1.5,11.7,4.6s4.5,7.4,4.5,12.9V867h-4.5v-23.8c0-4.2-1.1-7.5-3.3-9.9s-5.1-3.6-8.6-3.6c-1.7,0-3.3,0.3-4.8,0.7
		c-1.5,0.5-2.7,1.1-3.6,1.8c-0.9,0.7-1.7,1.4-2.4,2.2c-0.7,0.7-1.1,1.3-1.4,1.8l-0.5,0.7V867h-4.5v-41.4H626.7z"/>
	<path class="st1" d="M697,866.2c0,6.2-1.6,10.8-4.7,13.9c-3.1,3.1-7.1,4.6-11.9,4.6v-4.1c8-0.2,12.1-5,12.1-14.4v-39.6h4.5
		L697,866.2L697,866.2z M692.5,807.2h4.5v9.4h-4.5V807.2z"/>
	<path class="st1" d="M762.8,867.9l-4.5-5.3c-0.4,0.4-0.9,0.9-1.6,1.4c-0.7,0.6-2.2,1.4-4.4,2.4s-4.5,1.5-6.7,1.5
		c-4.8,0-8.7-1.5-11.7-4.6s-4.5-7.4-4.5-12.9v-23.8h4.5v23.8c0,4.2,1.1,7.5,3.3,9.9s5,3.6,8.6,3.6c1.7,0,3.3-0.2,4.8-0.8
		c1.5-0.5,2.7-1.1,3.6-1.8c0.9-0.7,1.7-1.4,2.4-2.1c0.7-0.7,1.2-1.3,1.5-1.8l0.4-0.7v-29.9h4.5v41.1H762.8z"/>
	<path class="st1" d="M281.3,954.6c-4,4.1-9.1,6.1-15.2,6.1s-11.2-2-15.2-6.1s-6-9.1-6-15s2-10.9,6-15s9.1-6.1,15.2-6.1
		s11.2,2,15.2,6.1s6,9.1,6,15S285.3,950.5,281.3,954.6 M254.1,951.7c3.2,3.3,7.2,4.9,11.9,4.9c4.7,0,8.7-1.6,11.9-4.9
		c3.2-3.3,4.8-7.3,4.8-12.1s-1.6-8.8-4.8-12.1c-3.2-3.3-7.2-4.9-11.9-4.9c-4.7,0-8.7,1.6-11.9,4.9c-3.2,3.3-4.8,7.3-4.8,12.1
		S250.9,948.4,254.1,951.7"/>
	<polygon class="st1" points="321.7,939.4 321.7,959.8 317.2,959.8 317.2,892.6 321.7,892.6 321.7,938 339,919.4 344.8,919.4 
		326.9,938.4 346.7,959.8 340.4,959.8 	"/>
	<path class="st1" d="M404.1,960.7l-4.5-5.3c-0.4,0.4-0.9,0.9-1.6,1.4c-0.7,0.6-2.2,1.4-4.4,2.4c-2.2,1-4.5,1.5-6.7,1.5
		c-4.8,0-8.7-1.5-11.7-4.6s-4.5-7.4-4.5-12.9v-23.8h4.5v23.8c0,4.2,1.1,7.5,3.3,9.9c2.2,2.4,5,3.5,8.6,3.5c1.7,0,3.3-0.2,4.8-0.7
		s2.7-1.1,3.6-1.8s1.7-1.4,2.4-2.2c0.7-0.7,1.2-1.3,1.5-1.8l0.4-0.7v-29.9h4.5v41.2H404.1z"/>
	<path class="st1" d="M439.9,924.5c3.9-4,9-6.1,15.2-6.1c2.7,0,5.2,0.4,7.6,1.3c2.4,0.8,4.1,1.7,5.1,2.5l1.5,1.3l-2.9,3.2
		c-0.3-0.3-0.8-0.7-1.4-1.2s-1.9-1.1-3.8-1.8c-1.9-0.8-3.9-1.1-6-1.1c-4.8,0-8.8,1.6-11.9,4.8s-4.7,7.3-4.7,12.2s1.6,9,4.7,12.2
		s7.1,4.8,11.9,4.8c2.1,0,4-0.3,5.9-1s3.2-1.4,4.1-2.1l1.2-1l2.9,3.2c-0.4,0.4-0.9,0.8-1.7,1.4c-0.7,0.6-2.4,1.3-4.8,2.2
		c-2.5,0.9-5,1.4-7.7,1.4c-6.2,0-11.2-2-15.2-6.1c-3.9-4-5.9-9.1-5.9-15.1C434,933.6,436,928.6,439.9,924.5 M453.2,910.4l5.3-12.3
		h5.6l-7.3,12.3H453.2z"/>
	<path class="st1" d="M496.9,918.4l4.5,5.3c0.4-0.4,0.9-0.9,1.6-1.4c0.7-0.6,2.2-1.4,4.4-2.4c2.2-1,4.5-1.5,6.7-1.5
		c4.8,0,8.7,1.5,11.7,4.6s4.5,7.4,4.5,12.9v23.8h-4.5V936c0-4.2-1.1-7.5-3.3-9.9s-5.1-3.6-8.6-3.6c-1.7,0-3.3,0.3-4.8,0.7
		c-1.5,0.5-2.7,1.1-3.6,1.8s-1.7,1.4-2.4,2.1c-0.7,0.7-1.1,1.3-1.4,1.8l-0.5,0.7v29.9h-4.5v-41.1H496.9z"/>
	<path class="st1" d="M562.6,900h4.5v9.4h-4.5V900z M562.6,919.4h4.5v40.4h-4.5V919.4z"/>
	<path class="st1" d="M602.9,924.5c3.9-4,9-6.1,15.1-6.1c2.7,0,5.2,0.4,7.6,1.3c2.4,0.8,4.1,1.7,5.1,2.5l1.5,1.3l-2.9,3.2
		c-0.3-0.3-0.8-0.7-1.4-1.2c-0.6-0.5-1.9-1.1-3.8-1.8c-1.9-0.8-3.9-1.1-6-1.1c-4.8,0-8.8,1.6-11.9,4.8c-3.1,3.2-4.7,7.3-4.7,12.2
		s1.6,9,4.7,12.2c3.1,3.2,7.1,4.8,11.9,4.8c2.1,0,4-0.3,5.9-1s3.2-1.4,4.1-2.1l1.2-1l2.9,3.2c-0.4,0.4-0.9,0.8-1.7,1.4
		c-0.7,0.6-2.4,1.3-4.8,2.2c-2.5,0.9-5,1.4-7.7,1.4c-6.2,0-11.2-2-15.1-6.1c-3.9-4-5.9-9.1-5.9-15.1
		C597,933.6,599,928.6,602.9,924.5"/>
	<path class="st1" d="M694.9,951.2c-0.2,0.2-0.4,0.6-0.7,1s-1,1.2-2.2,2.3c-1.1,1.1-2.4,2.1-3.7,2.9c-1.3,0.8-3.1,1.6-5.3,2.3
		s-4.5,1-6.8,1c-6.2,0-11.4-2.1-15.4-6.2c-4-4.1-6-9.1-6-15s2-10.9,6-15s9.1-6.1,15.2-6.1c5.6,0,10.3,1.7,14.2,5.1
		c3.9,3.4,6.2,7.8,6.9,13l-37.3,7.1c0.9,3.9,2.8,7,5.7,9.4s6.5,3.6,10.8,3.6c1.9,0,3.8-0.3,5.5-0.8s3.2-1.2,4.3-1.9
		c1.1-0.8,2-1.5,2.9-2.2c0.8-0.7,1.4-1.4,1.8-2l0.5-0.7L694.9,951.2z M659.3,939.8l32.5-6.1c-1.1-3.4-3.1-6.1-6-8.1s-6.1-3-9.8-3
		c-4.7,0-8.7,1.6-11.9,4.9c-3.2,3.3-4.8,7.3-4.8,12.1V939.8z"/>
</g>
<rect x="65.2" y="653.6" class="st2" width="818.5" height="6.6"/>
<path class="st2" d="M685.9,267.4l-15.4-1.2c-18-0.1-32.7-15.2-32.7-33.6c0-18.5,14.7-33.6,32.8-33.6c17.8,0,32.3,14.6,32.8,32.8
	l36.9-20.7l0.5-0.5c-9.2-30.7-37.2-53.1-70.2-53.1c-40.5,0-73.4,33.7-73.4,75.2c0,35.9,24.8,66.1,57.7,73.5l15.8,1.7
	c31.4,0.1,56.9,26.2,56.9,58.4s-25.6,58.3-57,58.3c-30.9,0-56.2-25.4-56.9-56.9l-37.4,21l-0.7,0.7c10.2,44,48.9,76.9,95,76.9
	c53.8,0,97.6-44.9,97.6-100C768.2,316.3,732.5,274.9,685.9,267.4"/>
<path class="st2" d="M472.6,181.3v40.8c-25.5-30.4-62.8-49.7-104.2-49.7c-76.7,0-139.2,65.9-139.2,146.9s62.4,146.9,139.2,146.9
	c41.5,0,78.7-19.2,104.2-49.7v45v1.4h40.6V157.3L472.6,181.3z M369.2,430.2c-57.4,0-100.4-49.9-100.4-111.2s43-111.2,100.4-111.2
	S473.3,257.7,473.3,319C473.3,380.3,426.6,430.2,369.2,430.2"/>
<polygon class="st2" points="962,91.7 882.9,135 882.9,89.4 842.2,111.2 842.3,157.3 802.2,179.2 802.2,214.5 842.1,192.6 
	842.1,460.8 885.7,460.8 885.7,168.7 962,126.9 "/>
<polygon class="st2" points="230.7,157.3 107,225 107,157.3 63.6,180 63.6,458.2 107,458.2 107,260.2 230.7,192.6 "/>
</svg>
