<?xml version="1.0" encoding="utf-8"?>
<!-- Generator: Adobe Illustrator 22.0.1, SVG Export Plug-In . SVG Version: 6.00 Build 0)  -->
<svg version="1.1" id="Layer_1" xmlns="http://www.w3.org/2000/svg" xmlns:xlink="http://www.w3.org/1999/xlink" x="0px" y="0px"
	 viewBox="0 0 1024 1024" style="enable-background:new 0 0 1024 1024;" xml:space="preserve">
<style type="text/css">
	.st0{fill:#394441;}
	.st1{fill:#D25D29;}
	.st2{fill:#8DCA7F;}
</style>
<g>
	
		<image style="overflow:visible;opacity:0.75;" width="989" height="989" xlink:href="194C56B2.png"  transform="matrix(1 0 0 1 18 -22)">
	</image>
	<g>
		<g>
			<path class="st0" d="M962,452.7C962,700.8,760.8,902,512.7,902C264.5,902,63.4,700.8,63.4,452.7C63.4,204.5,264.5,3.4,512.7,3.4
				C760.8,3.4,962,204.5,962,452.7"/>
			<path class="st1" d="M626.4,269.4c7.1-23.3,1.9-49.6-15.9-68.6c-17.8-19.1-43.7-26-67.4-20.6c-7.1,23.3-1.9,49.6,15.9,68.6
				C576.8,267.9,602.7,274.9,626.4,269.4"/>
			<path class="st1" d="M622.4,189.3c16.8,18,24.2,42.8,20.4,66.8c15.1-12.4,25-31,25.7-52c0.9-26-12.5-49.3-33.1-62.2
				c-13.6,7.3-24.6,18.9-31,33C610.9,178.7,617,183.5,622.4,189.3"/>
			<path class="st1" d="M685.7,205.6c-0.9,24.6-13.2,47.3-32.8,61.6c19.4,1.9,39.5-4.3,54.9-18.6c19-17.8,26-43.7,20.5-67.4
				c-14.7-4.5-30.7-4-45.3,1.4C685.1,190,686,197.7,685.7,205.6"/>
			<polygon class="st2" points="636,288.6 448.3,391.3 448.3,288.6 382.4,323 382.4,745.4 448.3,745.4 448.3,444.8 636,342.1 			"/>
		</g>
	</g>
</g>
</svg>
