<?xml version="1.0" encoding="utf-8"?>
<!-- Generator: Adobe Illustrator 22.0.1, SVG Export Plug-In . SVG Version: 6.00 Build 0)  -->
<svg version="1.1" id="Layer_1" xmlns="http://www.w3.org/2000/svg" xmlns:xlink="http://www.w3.org/1999/xlink" x="0px" y="0px"
	 viewBox="0 0 900 901.7" style="enable-background:new 0 0 900 901.7;" xml:space="preserve">
<style type="text/css">
	.st0{fill:#D25D29;}
	.st1{fill:#6ABD5B;}
	.st2{fill:#468958;}
</style>
<path class="st0" d="M163.5,85.7c4.7-15.3,1.2-32.7-10.5-45.2c-11.7-12.6-28.8-17.1-44.4-13.5c-4.6,15.3-1.2,32.7,10.5,45.2
	S147.8,89.3,163.5,85.7"/>
<path class="st0" d="M159.7,32.9c11.1,11.9,15.9,28.2,13.4,44c9.9-8.2,16.4-20.4,16.9-34.3c0.6-17.2-8.2-32.5-21.8-41
	c-9,4.8-16.2,12.4-20.4,21.8C152.2,25.9,156.2,29.1,159.7,32.9"/>
<path class="st0" d="M201.5,43.6c-0.6,16.2-8.7,31.2-21.6,40.6c12.8,1.2,26-2.8,36.2-12.3c12.5-11.7,17.1-28.8,13.5-44.4
	c-9.7-2.9-20.2-2.7-29.8,0.9C201,33.4,201.6,38.5,201.5,43.6"/>
<g>
	<polygon class="st1" points="35.3,510 17.8,510 17.8,539.3 3.2,539.3 3.2,471.4 17.8,471.4 17.8,496.9 35.3,496.9 35.3,471.4 
		49.9,471.4 49.9,539.3 35.3,539.3 	"/>
	<path class="st1" d="M139.5,530.5c-6.7,6.8-15.3,10.3-25.8,10.3s-19.1-3.4-25.8-10.3c-6.7-6.9-10.1-15.2-10.1-25.1
		c0-9.9,3.4-18.3,10.1-25.1c6.7-6.8,15.3-10.3,25.8-10.3s19.1,3.4,25.8,10.3c6.7,6.8,10.1,15.2,10.1,25.1
		C149.6,515.2,146.2,523.6,139.5,530.5 M98.5,521.4c4,4.2,9.1,6.3,15.2,6.3c6.2,0,11.3-2.1,15.2-6.3c4-4.2,6-9.5,6-16.1
		s-2-11.9-6-16.1c-4-4.2-9.1-6.2-15.2-6.2c-6.2,0-11.3,2.1-15.2,6.2c-4,4.2-6,9.5-6,16.1S94.5,517.3,98.5,521.4"/>
	<path class="st1" d="M192.2,509.3v30h-14.7v-68h18c8.1,0,14.6,2.1,19.7,6.4c5,4.3,7.6,10.2,7.6,17.6c0,8.3-3.8,14.5-11.5,18.6
		l15.6,25.3h-16.5L192.2,509.3z M192.2,484.4v22h3.3c3.8,0,6.9-1,9.2-2.9c2.3-2,3.4-4.6,3.4-8s-1.1-6.1-3.4-8
		c-2.3-2-5.3-2.9-9.2-2.9h-3.3V484.4z"/>
	<polygon class="st1" points="244.4,471.3 283.5,471.3 283.5,484.4 271.3,484.4 271.3,539.3 256.6,539.3 256.6,484.4 244.4,484.4 	
		"/>
	<rect x="307.6" y="471.3" class="st1" width="14.7" height="68"/>
	<polygon class="st1" points="367.3,508.9 367.3,539.3 352.6,539.3 352.6,471.3 367.3,471.3 367.3,506.7 389.2,471.3 404.6,471.3 
		382.8,506 409.1,539.3 391,539.3 	"/>
	<path class="st1" d="M435.2,533.9c-4.2-4.5-6.2-10.5-6.2-18v-44.6h14.7v44.6c0,7.8,3.1,11.7,9.4,11.7c6.2,0,9.4-3.9,9.4-11.7v-44.6
		h14.7v44.6c0,7.4-2.1,13.4-6.2,18c-4.2,4.5-10.1,6.8-17.8,6.8C445.3,540.7,439.4,538.5,435.2,533.9"/>
	<polygon class="st1" points="506.9,471.3 521.6,471.3 521.6,526.2 540.9,526.2 540.9,539.3 506.9,539.3 	"/>
	<polygon class="st1" points="554.1,471.3 593.2,471.3 593.2,484.4 581,484.4 581,539.3 566.3,539.3 566.3,484.4 554.1,484.4 	"/>
	<path class="st1" d="M623.1,533.9c-4.2-4.5-6.3-10.5-6.3-18v-44.6h14.7v44.6c0,7.8,3.1,11.7,9.4,11.7c6.2,0,9.4-3.9,9.4-11.7v-44.6
		H665v44.6c0,7.4-2.1,13.4-6.2,18c-4.2,4.5-10.1,6.8-17.8,6.8C633.2,540.7,627.3,538.5,623.1,533.9"/>
	<path class="st1" d="M709.4,509.3v30h-14.7v-68h18c8.1,0,14.6,2.1,19.7,6.4c5,4.3,7.6,10.2,7.6,17.6c0,8.3-3.8,14.5-11.5,18.6
		l15.6,25.3h-16.5L709.4,509.3z M709.4,484.4v22h3.3c3.8,0,6.9-1,9.2-2.9c2.3-2,3.4-4.6,3.4-8s-1.1-6.1-3.4-8
		c-2.3-2-5.3-2.9-9.2-2.9h-3.3V484.4z"/>
	<path class="st1" d="M793,468.5l28.7,70.8h-15.1l-3.4-8.7h-20.5l-3.3,8.7h-14.9L793,468.5z M792.9,504.2l-5.7,14.8h11.5
		L792.9,504.2z"/>
</g>
<g>
	<polygon class="st2" points="19.8,719.6 2.5,678.3 7.3,678.3 19.9,708.9 32.3,678.3 37,678.3 	"/>
	<path class="st2" d="M88.2,718.7v-7.1c-4.1,5.4-9.7,8-16.8,8c-6,0-11.1-2-15.1-6.1s-6-9.1-6-15s2-10.9,6-15s9.1-6.1,15.1-6.1
		c6.4,0,11.7,2.2,15.7,6.7l5.6-6.7v41.3L88.2,718.7L88.2,718.7z M59.6,710.6c3.2,3.3,7.2,4.9,11.9,4.9s8.7-1.6,11.9-4.9
		c3.2-3.3,4.8-7.3,4.8-12.1s-1.6-8.8-4.8-12.1s-7.2-4.9-11.9-4.9s-8.7,1.6-11.9,4.9c-3.2,3.3-4.8,7.3-4.8,12.1
		C54.8,703.3,56.4,707.3,59.6,710.6"/>
	<path class="st2" d="M123.1,710.8c0.4,0.4,0.9,0.8,1.5,1.3c0.7,0.5,2,1.2,4.1,2.1c2.1,0.9,4.3,1.3,6.5,1.3c2.9,0,5.1-0.6,6.7-1.9
		c1.6-1.3,2.4-3.1,2.4-5.5c0-2.1-0.7-3.8-2.2-5s-3.3-2.2-5.5-2.8s-4.3-1.2-6.4-1.9s-3.9-1.9-5.4-3.5s-2.2-3.8-2.2-6.6
		c0-3.2,1.2-5.8,3.6-7.9c2.4-2.1,5.5-3.1,9.2-3.1c2.2,0,4.4,0.3,6.5,0.9c2.1,0.6,3.6,1.2,4.6,1.9l1.4,0.9l-2.3,3.6
		c-3.2-2.1-6.6-3.2-10.2-3.2c-2.5,0-4.5,0.6-6,1.8s-2.3,2.8-2.3,4.9c0,1.9,0.8,3.5,2.2,4.6c1.5,1.1,3.3,2,5.4,2.6s4.3,1.3,6.4,2
		c2.2,0.7,4,2,5.5,3.8s2.2,4.1,2.2,7.1c0,3.3-1.2,6-3.6,8.2s-5.7,3.3-9.9,3.3c-2.7,0-5.3-0.4-7.8-1.3c-2.5-0.9-4.3-1.7-5.5-2.6
		l-1.7-1.4L123.1,710.8z M144.6,657l-6.9,12.3h-5.6l-6.9-12.3h3.6l6.1,8.6l6.1-8.6H144.6z"/>
	<path class="st2" d="M231.2,684c4.2-4.4,9.5-6.6,15.7-6.6c6,0,11.1,2,15.1,6.1s6,9.1,6,15s-2,10.9-6,15s-9.1,6.1-15.1,6.1
		c-7.2,0-12.8-2.7-16.8-8v24.9h-4.5v-59.1L231.2,684z M258.7,686.4c-3.2-3.3-7.2-4.9-11.9-4.9c-4.7,0-8.7,1.6-11.9,4.9
		c-3.2,3.3-4.8,7.3-4.8,12.1s1.6,8.8,4.8,12.1c3.2,3.3,7.2,4.9,11.9,4.9c4.7,0,8.7-1.6,11.9-4.9c3.2-3.3,4.8-7.3,4.8-12.1
		S261.9,689.6,258.7,686.4"/>
	<path class="st2" d="M333.1,718.7v-7.1c-4.1,5.4-9.7,8-16.8,8c-6,0-11.1-2-15.1-6.1s-6-9.1-6-15s2-10.9,6-15s9.1-6.1,15.1-6.1
		c6.4,0,11.7,2.2,15.7,6.7l5.6-6.7v41.3L333.1,718.7L333.1,718.7z M304.5,710.6c3.2,3.3,7.2,4.9,11.9,4.9c4.7,0,8.7-1.6,11.9-4.9
		c3.2-3.3,4.8-7.3,4.8-12.1s-1.6-8.8-4.8-12.1c-3.2-3.3-7.2-4.9-11.9-4.9c-4.7,0-8.7,1.6-11.9,4.9c-3.2,3.3-4.8,7.3-4.8,12.1
		S301.3,707.3,304.5,710.6"/>
	<path class="st2" d="M390.5,681.7h-1.1c-2.6,0-4.8,0.4-6.8,1.2s-3.4,1.8-4.4,2.9c-0.9,1.2-1.7,2.3-2.2,3.5c-0.6,1.2-0.9,2.1-1,2.9
		l-0.1,1.2v25.2h-4.5v-41.3l4.8,5.7c0.3-0.4,0.8-1,1.4-1.6c0.6-0.6,2.1-1.5,4.3-2.5c2.2-1.1,4.7-1.6,7.4-1.6h2.2L390.5,681.7
		L390.5,681.7z"/>
	<polygon class="st2" points="422.6,683.9 422.6,718.7 418.1,718.7 418.1,683.9 415.3,683.9 418.1,679.8 418.1,662 422.6,662 
		422.6,679.8 435.7,679.8 435.7,683.9 	"/>
	<path class="st2" d="M461.9,677.3l4.5,5.3c0.4-0.4,0.9-0.9,1.6-1.4c0.7-0.6,2.2-1.4,4.4-2.4s4.5-1.5,6.7-1.5
		c4.8,0,8.7,1.5,11.7,4.6s4.5,7.4,4.5,12.9v23.8h-4.5v-23.8c0-4.2-1.1-7.5-3.3-9.9s-5.1-3.6-8.6-3.6c-1.7,0-3.3,0.3-4.8,0.8
		s-2.7,1.1-3.6,1.8c-0.9,0.7-1.7,1.4-2.4,2.2c-0.7,0.7-1.1,1.3-1.4,1.8l-0.5,0.7v29.9h-4.5v-41.2H461.9z"/>
	<path class="st2" d="M565,710.1c-0.2,0.3-0.4,0.6-0.7,1s-1,1.2-2.2,2.3c-1.1,1.1-2.4,2.1-3.7,2.9c-1.3,0.8-3.1,1.6-5.3,2.3
		s-4.5,1-6.8,1c-6.2,0-11.4-2.1-15.4-6.2c-4-4.1-6-9.1-6-15s2-10.9,6-15s9.1-6.1,15.2-6.1c5.5,0,10.3,1.7,14.2,5.1
		c3.9,3.4,6.2,7.8,6.9,13l-37.3,7.1c0.9,3.9,2.8,7,5.7,9.4s6.5,3.6,10.8,3.6c1.9,0,3.8-0.3,5.5-0.8s3.2-1.2,4.3-1.9s2-1.5,2.9-2.2
		c0.8-0.8,1.4-1.4,1.8-2l0.5-0.8L565,710.1z M529.3,698.7l32.5-6.1c-1.1-3.4-3.1-6.1-6-8.1s-6.1-3-9.8-3c-4.7,0-8.7,1.6-11.9,4.9
		c-3.2,3.3-4.8,7.3-4.8,12.1V698.7z"/>
	<path class="st2" d="M615.8,681.7h-1.1c-2.6,0-4.8,0.4-6.8,1.2s-3.4,1.8-4.4,2.9c-0.9,1.2-1.7,2.3-2.2,3.5c-0.6,1.2-0.9,2.1-1,2.9
		l-0.1,1.2v25.2h-4.5v-41.3l4.8,5.7c0.3-0.4,0.8-1,1.4-1.6c0.6-0.6,2.1-1.5,4.3-2.5c2.2-1.1,4.7-1.6,7.4-1.6h2.3v4.4H615.8z"/>
	<path class="st2" d="M36.6,808.9l-4.5-5.3c-0.4,0.4-0.9,0.9-1.7,1.4c-0.7,0.6-2.2,1.4-4.5,2.4s-4.5,1.5-6.8,1.5
		c-4.8,0-8.8-1.5-11.8-4.6s-4.5-7.4-4.5-12.9v-23.8h4.5v23.8c0,4.2,1.1,7.5,3.3,9.9s5.1,3.6,8.7,3.6c1.7,0,3.3-0.2,4.8-0.8
		c1.5-0.5,2.7-1.1,3.6-1.8c0.9-0.7,1.7-1.4,2.4-2.1c0.7-0.7,1.2-1.3,1.5-1.8l0.4-0.7v-29.9h4.5v41.1H36.6z"/>
	<path class="st2" d="M147.7,808.9l-4.5-5.3c-0.4,0.4-0.9,0.9-1.6,1.4c-0.7,0.6-2.2,1.4-4.4,2.4c-2.2,1-4.5,1.5-6.7,1.5
		c-4.8,0-8.7-1.5-11.7-4.6s-4.5-7.4-4.5-12.9v-23.8h4.5v23.8c0,4.2,1.1,7.5,3.3,9.9c2.2,2.4,5.1,3.6,8.6,3.6c1.7,0,3.3-0.2,4.8-0.8
		c1.5-0.5,2.7-1.1,3.6-1.8s1.7-1.4,2.4-2.1c0.7-0.7,1.2-1.3,1.5-1.8l0.4-0.7v-29.9h4.5v41.1H147.7z"/>
	<path class="st2" d="M200.6,771h-1.1c-2.6,0-4.8,0.4-6.8,1.2s-3.4,1.8-4.4,2.9c-0.9,1.2-1.7,2.3-2.2,3.5c-0.6,1.2-0.9,2.1-1,2.9
		l-0.1,1.2V808h-4.5v-41.3l4.8,5.7c0.3-0.4,0.8-1,1.4-1.6s2.1-1.5,4.3-2.5c2.2-1.1,4.7-1.6,7.4-1.6h2.2L200.6,771L200.6,771z"/>
	<path class="st2" d="M262.2,799.4c-0.2,0.2-0.4,0.6-0.7,1c-0.3,0.4-1,1.2-2.2,2.3c-1.1,1.1-2.4,2.1-3.7,2.9
		c-1.3,0.8-3.1,1.6-5.3,2.3c-2.2,0.7-4.5,1-6.8,1c-6.2,0-11.4-2.1-15.4-6.2c-4-4.1-6-9.1-6-15s2-10.9,6-15s9.1-6.1,15.2-6.1
		c5.5,0,10.3,1.7,14.2,5.1c3.9,3.4,6.2,7.8,6.9,13l-37.3,7.1c0.9,3.9,2.8,7,5.7,9.4c2.9,2.4,6.5,3.6,10.8,3.6c1.9,0,3.8-0.3,5.5-0.8
		s3.2-1.2,4.3-1.9c1.1-0.7,2-1.5,2.9-2.2c0.8-0.7,1.4-1.4,1.8-2l0.5-0.7L262.2,799.4z M226.6,788l32.5-6.1c-1.1-3.4-3.1-6.1-6-8.1
		s-6.1-3-9.8-3c-4.7,0-8.7,1.6-11.9,4.9c-3.2,3.3-4.8,7.3-4.8,12.1L226.6,788L226.6,788z"/>
	<path class="st2" d="M327,802.3c-4.1,4.4-9.3,6.6-15.7,6.6c-6,0-11.1-2-15.1-6.1s-6-9.1-6-15s2-10.9,6-15s9.1-6.1,15.1-6.1
		c7.1,0,12.7,2.7,16.8,8v-17.9h-14.9v-3.7h14.9v-12.2h4.5v12.2h5.9v3.7h-5.9v52.1L327,802.3z M299.4,799.9c3.2,3.3,7.2,4.9,11.9,4.9
		c4.7,0,8.7-1.6,11.9-4.9c3.2-3.3,4.8-7.3,4.8-12.1s-1.6-8.8-4.8-12.1s-7.2-4.9-11.9-4.9c-4.7,0-8.7,1.6-11.9,4.9
		c-3.2,3.3-4.8,7.3-4.8,12.1C294.6,792.6,296.2,796.6,299.4,799.9"/>
	<path class="st2" d="M402.7,799.4c-0.2,0.2-0.4,0.6-0.7,1s-1,1.2-2.2,2.3c-1.1,1.1-2.4,2.1-3.7,2.9c-1.3,0.8-3.1,1.6-5.3,2.3
		s-4.5,1-6.8,1c-6.2,0-11.4-2.1-15.4-6.2c-4-4.1-6-9.1-6-15s2-10.9,6-15s9.1-6.1,15.2-6.1c5.5,0,10.3,1.7,14.2,5.1
		c3.9,3.4,6.2,7.8,6.9,13l-37.3,7.1c0.9,3.9,2.8,7,5.7,9.4s6.5,3.6,10.8,3.6c1.9,0,3.8-0.3,5.5-0.8c1.8-0.5,3.2-1.2,4.3-1.9
		s2-1.5,2.9-2.2c0.8-0.7,1.4-1.4,1.8-2l0.5-0.7L402.7,799.4z M367,788l32.5-6.1c-1.1-3.4-3.1-6.1-6-8.1s-6.1-3-9.8-3
		c-4.7,0-8.7,1.6-11.9,4.9c-3.2,3.3-4.8,7.3-4.8,12.1V788z"/>
	<path class="st2" d="M433.3,766.6l4.5,5.3c0.4-0.4,0.9-0.9,1.6-1.4c0.7-0.6,2.2-1.4,4.4-2.4s4.5-1.5,6.7-1.5
		c4.8,0,8.7,1.5,11.7,4.6s4.5,7.4,4.5,12.9V808h-4.5v-23.8c0-4.2-1.1-7.5-3.3-9.9s-5.1-3.6-8.6-3.6c-1.7,0-3.3,0.3-4.8,0.7
		c-1.5,0.5-2.7,1.1-3.6,1.8c-0.9,0.7-1.7,1.4-2.4,2.2c-0.7,0.7-1.1,1.3-1.4,1.8l-0.5,0.7V808h-4.5v-41.4H433.3z"/>
	<path class="st2" d="M503.6,807.2c0,6.2-1.6,10.8-4.7,13.9c-3.1,3.1-7.1,4.6-11.9,4.6v-4.1c8-0.2,12.1-5,12.1-14.4v-39.6h4.5
		L503.6,807.2L503.6,807.2z M499.1,748.2h4.5v9.4h-4.5V748.2z"/>
	<path class="st2" d="M569.4,808.9l-4.5-5.3c-0.4,0.4-0.9,0.9-1.6,1.4c-0.7,0.6-2.2,1.4-4.4,2.4s-4.5,1.5-6.7,1.5
		c-4.8,0-8.7-1.5-11.7-4.6s-4.5-7.4-4.5-12.9v-23.8h4.5v23.8c0,4.2,1.1,7.5,3.3,9.9s5,3.6,8.6,3.6c1.7,0,3.3-0.2,4.8-0.8
		c1.5-0.5,2.7-1.1,3.6-1.8c0.9-0.7,1.7-1.4,2.4-2.1c0.7-0.7,1.2-1.3,1.5-1.8l0.4-0.7v-29.9h4.5v41.1H569.4z"/>
	<path class="st2" d="M38.4,895.6c-4,4.1-9.1,6.1-15.2,6.1s-11.2-2-15.2-6.1s-6-9.1-6-15s2-10.9,6-15s9.1-6.1,15.2-6.1
		s11.2,2,15.2,6.1s6,9.1,6,15S42.4,891.5,38.4,895.6 M11.2,892.7c3.2,3.3,7.2,4.9,11.9,4.9c4.7,0,8.7-1.6,11.9-4.9
		c3.2-3.3,4.8-7.3,4.8-12.1s-1.6-8.8-4.8-12.1c-3.2-3.3-7.2-4.9-11.9-4.9c-4.7,0-8.7,1.6-11.9,4.9c-3.2,3.3-4.8,7.3-4.8,12.1
		S8,889.4,11.2,892.7"/>
	<polygon class="st2" points="78.8,880.4 78.8,900.8 74.3,900.8 74.3,833.6 78.8,833.6 78.8,879 96.1,860.4 101.9,860.4 84,879.4 
		103.8,900.8 97.5,900.8 	"/>
	<path class="st2" d="M161.2,901.7l-4.5-5.3c-0.4,0.4-0.9,0.9-1.6,1.4c-0.7,0.6-2.2,1.4-4.4,2.4c-2.2,1-4.5,1.5-6.7,1.5
		c-4.8,0-8.7-1.5-11.7-4.6s-4.5-7.4-4.5-12.9v-23.8h4.5v23.8c0,4.2,1.1,7.5,3.3,9.9c2.2,2.4,5,3.5,8.6,3.5c1.7,0,3.3-0.2,4.8-0.7
		s2.7-1.1,3.6-1.8s1.7-1.4,2.4-2.2c0.7-0.7,1.2-1.3,1.5-1.8l0.4-0.7v-29.9h4.5v41.2H161.2z"/>
	<path class="st2" d="M197,865.5c3.9-4,9-6.1,15.2-6.1c2.7,0,5.2,0.4,7.6,1.3c2.4,0.8,4.1,1.7,5.1,2.5l1.5,1.3l-2.9,3.2
		c-0.3-0.3-0.8-0.7-1.4-1.2s-1.9-1.1-3.8-1.8c-1.9-0.8-3.9-1.1-6-1.1c-4.8,0-8.8,1.6-11.9,4.8s-4.7,7.3-4.7,12.2s1.6,9,4.7,12.2
		s7.1,4.8,11.9,4.8c2.1,0,4-0.3,5.9-1s3.2-1.4,4.1-2.1l1.2-1l2.9,3.2c-0.4,0.4-0.9,0.8-1.7,1.4c-0.7,0.6-2.4,1.3-4.8,2.2
		c-2.5,0.9-5,1.4-7.7,1.4c-6.2,0-11.2-2-15.2-6.1c-3.9-4-5.9-9.1-5.9-15.1C191.1,874.6,193.1,869.6,197,865.5 M210.3,851.4l5.3-12.3
		h5.6l-7.3,12.3H210.3z"/>
	<path class="st2" d="M254,859.4l4.5,5.3c0.4-0.4,0.9-0.9,1.6-1.4c0.7-0.6,2.2-1.4,4.4-2.4c2.2-1,4.5-1.5,6.7-1.5
		c4.8,0,8.7,1.5,11.7,4.6s4.5,7.4,4.5,12.9v23.8h-4.5V877c0-4.2-1.1-7.5-3.3-9.9s-5.1-3.6-8.6-3.6c-1.7,0-3.3,0.3-4.8,0.7
		c-1.5,0.5-2.7,1.1-3.6,1.8s-1.7,1.4-2.4,2.1c-0.7,0.7-1.1,1.3-1.4,1.8l-0.5,0.7v29.9h-4.5v-41.1H254z"/>
	<path class="st2" d="M319.7,841h4.5v9.4h-4.5V841z M319.7,860.4h4.5v40.4h-4.5V860.4z"/>
	<path class="st2" d="M360,865.5c3.9-4,9-6.1,15.1-6.1c2.7,0,5.2,0.4,7.6,1.3c2.4,0.8,4.1,1.7,5.1,2.5l1.5,1.3l-2.9,3.2
		c-0.3-0.3-0.8-0.7-1.4-1.2c-0.6-0.5-1.9-1.1-3.8-1.8c-1.9-0.8-3.9-1.1-6-1.1c-4.8,0-8.8,1.6-11.9,4.8c-3.1,3.2-4.7,7.3-4.7,12.2
		s1.6,9,4.7,12.2c3.1,3.2,7.1,4.8,11.9,4.8c2.1,0,4-0.3,5.9-1s3.2-1.4,4.1-2.1l1.2-1l2.9,3.2c-0.4,0.4-0.9,0.8-1.7,1.4
		c-0.7,0.6-2.4,1.3-4.8,2.2c-2.5,0.9-5,1.4-7.7,1.4c-6.2,0-11.2-2-15.1-6.1c-3.9-4-5.9-9.1-5.9-15.1
		C354.1,874.6,356.1,869.6,360,865.5"/>
	<path class="st2" d="M452,892.2c-0.2,0.2-0.4,0.6-0.7,1s-1,1.2-2.2,2.3c-1.1,1.1-2.4,2.1-3.7,2.9c-1.3,0.8-3.1,1.6-5.3,2.3
		s-4.5,1-6.8,1c-6.2,0-11.4-2.1-15.4-6.2c-4-4.1-6-9.1-6-15s2-10.9,6-15s9.1-6.1,15.2-6.1c5.6,0,10.3,1.7,14.2,5.1
		c3.9,3.4,6.2,7.8,6.9,13l-37.3,7.1c0.9,3.9,2.8,7,5.7,9.4s6.5,3.6,10.8,3.6c1.9,0,3.8-0.3,5.5-0.8s3.2-1.2,4.3-1.9
		c1.1-0.8,2-1.5,2.9-2.2c0.8-0.7,1.4-1.4,1.8-2l0.5-0.7L452,892.2z M416.4,880.8l32.5-6.1c-1.1-3.4-3.1-6.1-6-8.1s-6.1-3-9.8-3
		c-4.7,0-8.7,1.6-11.9,4.9c-3.2,3.3-4.8,7.3-4.8,12.1V880.8z"/>
</g>
<rect x="3.2" y="594.6" class="st1" width="818.5" height="6.6"/>
<path class="st1" d="M623.9,208.4l-15.4-1.2c-18-0.1-32.7-15.2-32.7-33.6c0-18.5,14.7-33.6,32.8-33.6c17.8,0,32.3,14.6,32.8,32.8
	l36.9-20.7l0.5-0.5c-9.2-30.7-37.2-53.1-70.2-53.1c-40.5,0-73.4,33.7-73.4,75.2c0,35.9,24.8,66.1,57.7,73.5l15.8,1.7
	c31.4,0.1,56.9,26.2,56.9,58.4s-25.6,58.3-57,58.3c-30.9,0-56.2-25.4-56.9-56.9l-37.4,21l-0.7,0.7c10.2,44,48.9,76.9,95,76.9
	c53.8,0,97.6-44.9,97.6-100C706.2,257.3,670.5,215.9,623.9,208.4"/>
<path class="st1" d="M410.6,122.3v40.8c-25.5-30.4-62.8-49.7-104.2-49.7c-76.7,0-139.2,65.9-139.2,146.9s62.4,146.9,139.2,146.9
	c41.5,0,78.7-19.2,104.2-49.7v45v1.4h40.6V98.3L410.6,122.3z M307.2,371.2c-57.4,0-100.4-49.9-100.4-111.2s43-111.2,100.4-111.2
	S411.3,198.7,411.3,260C411.3,321.3,364.6,371.2,307.2,371.2"/>
<polygon class="st1" points="900,32.7 820.9,76 820.9,30.4 780.2,52.2 780.3,98.3 740.2,120.2 740.2,155.5 780.1,133.6 780.1,401.8 
	823.7,401.8 823.7,109.7 900,67.9 "/>
<polygon class="st1" points="168.7,98.3 45,166 45,98.3 1.6,121 1.6,399.2 45,399.2 45,201.2 168.7,133.6 "/>
</svg>
