<?xml version="1.0" encoding="utf-8"?>
<!-- Generator: Adobe Illustrator 22.0.1, SVG Export Plug-In . SVG Version: 6.00 Build 0)  -->
<svg version="1.1" id="Layer_1" xmlns="http://www.w3.org/2000/svg" xmlns:xlink="http://www.w3.org/1999/xlink" x="0px" y="0px"
	 viewBox="0 0 1109.1 560.1" style="enable-background:new 0 0 1109.1 560.1;" xml:space="preserve">
<style type="text/css">
	.st0{fill:#4C9D4C;}
	.st1{fill:#154E3C;}
</style>
<g>
	<path class="st0" d="M227.9,167.7c21.6-14.4,36.4-46.2,37.6-81.5c1.2-35.3-11.1-69-31.7-86.2c-21.6,14.4-36.4,46.2-37.6,81.5
		C195,116.8,207.4,150.5,227.9,167.7z"/>
</g>
<g>
	<path class="st1" d="M227.6,167.5c21.6-2.2,44.9-20,59.6-45.7c14.7-25.7,18.6-55.4,10.1-76.1c-21.6,2.2-44.9,20-59.6,45.7
		C223.1,117,219.2,146.7,227.6,167.5z"/>
</g>
<g>
	<path d="M228.1,167c16.9,6.2,40.7,1.5,60.9-12.3c20.3-13.7,34-34.4,35.3-52.9c-16.9-6.2-40.7-1.5-60.9,12.3
		C243.1,127.8,229.4,148.5,228.1,167z"/>
</g>
<g>
	<path d="M233.8,168.6c-31.3,0-70.7,27.9-104.2,76.3C98.4,289.9,98,338.2,98,371.4v188.7H2V164.6l66.2,76.6
		c34.5-48.5,104.3-74.1,165.7-76.6V168.6z"/>
</g>
<g>
	<path d="M255.9,516.7c-28.7-28.7-43-65.8-43-111.3c0-45.5,14.3-82.6,43-111.3c28.7-28.7,64.2-43,106.5-43
		c44.1,0,80.6,15.5,109.2,46.4l56.7-46.4v308.8h-78.5v-26.8c-25.5,17.8-54.6,26.6-87.4,26.6C320.1,559.7,284.6,545.4,255.9,516.7z
		 M417,453.6c12.7-13,19.1-29,19.1-48.1c0-19.1-6.4-35.2-19.1-48.1c-12.7-13-28.2-19.5-46.4-19.5c-18.2,0-33.7,6.5-46.4,19.5
		c-12.7,13-19.1,29-19.1,48.1c0,19.1,6.4,35.2,19.1,48.1c12.7,13,28.2,19.5,46.4,19.5C388.8,473,404.3,466.5,417,453.6z"/>
	<path d="M685.9,447.1c3.2,2.7,7.4,6.3,12.6,10.6c5.2,4.3,14.7,10,28.3,17.1c13.7,7.1,25.9,10.6,36.9,10.6c6.4,0,11.5-1.6,15.4-4.8
		c3.9-3.2,5.8-7.3,5.8-12.3c0-6.4-2.8-11.6-8.5-15.7c-5.7-4.1-17-9.3-33.8-15.7c-28.2-10.5-50-22.5-65.2-36.2
		c-15.2-13.7-22.9-33.2-22.9-58.7c0-26.9,10.1-48.7,30.4-65.5c20.3-16.8,44.9-25.3,74.1-25.3c20.9,0,41,3.1,60.1,9.2
		c19.1,6.1,32.8,12.2,41,18.1l13,9.6l-40.3,60.8c-22.8-16.8-45.3-25.3-67.6-25.3c-11.8,0-17.8,4.6-17.8,13.7
		c0,8.2,13.9,16.6,41.6,25.3c30,9.6,53,21.8,69,36.9c15.9,15,23.9,36.6,23.9,64.9c0,27.8-10,50.6-30,68.6c-20,18-47.1,27-81.2,27
		c-25.5,0-49.4-4.1-71.7-12.3c-22.3-8.2-38.2-16.4-47.8-24.6l-14.3-12.3L685.9,447.1z"/>
</g>
<polyline points="932.2,336.5 1109.1,143 1109.1,143 1109.1,560.1 1018.1,560.1 1018.1,336.5 "/>
</svg>
