<?xml version="1.0" encoding="utf-8"?>
<!-- Generator: Adobe Illustrator 22.0.1, SVG Export Plug-In . SVG Version: 6.00 Build 0)  -->
<svg version="1.1" id="Layer_1" xmlns="http://www.w3.org/2000/svg" xmlns:xlink="http://www.w3.org/1999/xlink" x="0px" y="0px"
	 viewBox="0 0 1024 678.6" style="enable-background:new 0 0 1024 678.6;" xml:space="preserve">
<style type="text/css">
	.st0{fill:#063633;}
	.st1{fill:#3D9C50;}
	.st2{fill:#F2F5F5;}
	.st3{fill:#D5DAD6;}
	.st4{fill:#CDD1CC;}
	.st5{fill:#E3E6E2;}
</style>
<g>
	<path class="st0" d="M726.7,631.3c-28.8,1-57.6,0.6-86.5,0.5c-8.8,0-17.7-0.3-26.5-0.3c-4.2,0-7.8-1.1-9.9-5.1
		c2.2-2.5,5.1-2.3,8-2.3c7.8-0.1,15.5,0.2,23.3-0.2c4.6-0.2,9.6,0,13.3-3.6c4.1-4.1,7.9-8.5,11.9-12.7c2.1-2.3,2.2-4.6,1.2-7.5
		c-2-6.1-5.6-11.2-9.4-16.2c12.5-0.3,23.9,4,35.1,9c1.5,0.6,2.9,1.2,4.4,1.8c1.9,1.7,4.2,2.6,6.6,3.3l-0.1-0.1
		c0.8,0.6,1.5,1.1,2.3,1.7c9.2,6.2,17.6,13.2,25.3,21.2c0.9,0.9,1.7,2,3.1,1.9c13-0.9,26.1,2.6,39.1-4.1
		c14.9-7.7,27.3-18.1,38.9-29.8c7.5-7.5,7.6-13.1,2.9-22.7c-2.6-5.4-5.4-10.4-9.6-14.7c35.5,5.5,66,20.7,89.7,48.6
		c1.4,1.5,2.8,3,4.2,4.5c0.3,0.6,0.3,1.5,1.3,0.8c-0.5,0.7-0.1,1.2,0.3,1.7c0,0,0.4-0.1,0.4-0.2c0.2-0.7-0.1-1.3-0.8-1.4
		c-0.1-0.5-0.2-1.1-0.4-1.6c-0.7-1.7-1.4-3.3-2.1-5c-8.1-17.3-12-36.1-18.5-54c-0.6-1.5-1.8-3.5-0.5-4.6c1.7-1.5,3.4,0.5,4.6,1.6
		c8.6,7.7,14.1,17.7,18.8,28.1c1.3,3,2.3,6.1,3.4,9.2c2.3,6.2,3.4,12.7,5.3,19.1c0.5-7.2-0.2-14.3-2-21.3c0.9-3.2-3.5-5.6-1.5-9
		c1-1.7,0-2-1.4-2.1c0.2-1,0.3-2,0.5-3c2.8-3.3,3-8.2,6.5-11.1c0.3,0.8,0.2,1.9,1.3,2.2c0.9,0.2,1-0.6,1.2-1.3
		c1.1-3.5,1.3-7.2,0.8-10.8c1.7-0.1,3.5-0.3,3.8-2.2c1.2-7.9,5.6-15.2,3.1-23.7c-1.3-4.4-3.3-8.9-2.3-13.8
		c4.6,11.6,5.7,23.3,2.3,35.6c-3.8,13.8-2.7,28.2-4.4,43.1c3.3-1.7,3.4-4.4,4.1-6.5c3.5-10.6,9-19.8,17.3-27.3
		c2.4-2.2,5-4.1,9.2-4.5c-8.6,21-17.6,41.3-28.9,60.9c11.5-15.6,21.5-33.1,44-35.3c-15.6,16.1-26.9,35-42.6,51.9c15.5,0,30,0,44.5,0
		c2.8,1,5.8,0.7,8.7,0.6c1.5,0,2.9,0,4.4,0.1c6.5,0.2,12.9,0.5,19.4,0.7c9,0.8,18.1,1.6,27.2,1.5c1.7,0.5,0.9,1.9,1,3
		c-2.8,0.2-5.7,0.4-8.5,0.5c-16.6-0.6-33.2-0.7-49.8,0c-1.4,0-2.9,0-4.3,0c-6.9-0.1-13.8-0.3-20.6-0.4c-1.8-0.1-3.6-0.3-5.3-0.4
		c-4.3-0.1-8.7-0.1-13-0.2c-52.3-1.1-104.7-0.4-157,0c-6.6-0.6-13.1,0.7-19.6,1.2c-3.2,0-6.4,0-9.5,0c3.2,1.6,6.4,2.1,9.5,0.5
		c1.9,0.2,3.9,0.4,5.8,0.6c0.4,1.9,3.6,1.4,3.2,3.9c-4.1-0.2-8.2-0.3-12.3-0.5C735.7,630.3,731.2,630.2,726.7,631.3z"/>
	<path class="st0" d="M61.8,590.9c2,0.2,2.3,2.5,3.8,3.4c2.6,3.7,5.2,7.5,7.9,11.2c-0.7-5.7-2.8-10.5-6.3-14.7
		c-4.1-7.2-8.2-14.4-12.3-21.6c1.5,0.2,3.4,2.6,4-1.1c0.2-1.3,1.7-1.8,2.9-1.9c3.5-0.3,4.2-2.7,4.4-5.6c8.1,12.2,12,26.4,18.4,39.4
		c1.3,3.7,1.1,6.7-2.2,9.7c-3,2.7-5.8,6.3-7.3,10.1c-2.2,5.3-5.8,6-10.8,5.9c-20.4-0.2-40.7-0.1-61.1-0.1c-0.7-0.1-1.4-0.3-2.2-0.4
		c0.1-0.3,0.1-0.7,0-1c7.5-0.9,15-1.8,22.4-2.7c6.6,0.5,13.2-0.5,19.7-0.8c9.3,0.2,18.5,0.4,29.1-0.7c-4.8-3.9-7.7-7.8-12.3-9.7
		c-1.9-0.8-3.4-2.6-3.9-4.9c1.2-0.2,2.5,0,3.1-1.5C60.8,599.8,63.6,595.9,61.8,590.9z"/>
	<path class="st1" d="M229.1,29c0-1.5,0-2.9,0-4.4c0.6-3.4,1.1-6.8,1.7-10.2c0.3-0.6,0.6-1.2,0.8-1.9c1.1-2.5,2.2-4.9,3.3-7.4
		c0.9-0.5,1.1-1.4,1.2-2.4c0,0-0.1,0.1-0.1,0.1c0.3-0.4,0.7-0.9,1-1.3c1.1,0,2.3-2.1,3.4,0c0.3,0.4,0.6,0.8,0.8,1.2
		c0.6,1.1,1.2,2.1,1.8,3.2c5.6,13.3,6.1,26.5-1.2,39.4c-0.8,0.6-1.7,1.1-1.6,2.3c0,0,0.1-0.1,0.1-0.1c-1.7,0-3.5,0-5.2,0.1
		c-2.6-5.7-5.1-11.4-5.9-17.7C229.2,29.8,229.1,29.4,229.1,29z"/>
	<path class="st1" d="M61.8,590.9c1.8,4.9-0.9,8.8-2.8,13c-0.7,1.5-1.9,1.3-3.1,1.5c-2.7-1.1-3.2-4.8-6.2-5.5
		c-8-12.6-19.2-21.7-31-30.4c16.6-0.9,29.4,6.7,40.7,17.9c0.4,0.5,0.8,1,1.2,1.5c0,0-0.1-0.1-0.1-0.1c0,1,0.1,2,1.3,2.2L61.8,590.9z
		"/>
	<path class="st2" d="M974.4,620.7c1.6-1.4,3.5-0.7,5.3-0.9c0.7,0,1.4,0,2.2,0"/>
	<path class="st2" d="M933.2,625.6c1.8,0.1,3.6,0.3,5.3,0.4C936.6,628.3,934.8,628.4,933.2,625.6z"/>
	<path class="st2" d="M1013.3,626.4c2.8-0.2,5.7-0.4,8.5-0.5C1019.2,628.5,1016.3,627.8,1013.3,626.4z"/>
	<path class="st2" d="M959.2,626.4c1.4,0,2.9,0,4.3,0C962.1,627.8,960.6,627.8,959.2,626.4z"/>
	<path class="st3" d="M236.1,2.8c-0.1,0.9-0.3,1.8-1.2,2.4C234.8,4.1,235.1,3.3,236.1,2.8z"/>
	<path class="st3" d="M231.6,12.5c-0.3,0.6-0.6,1.2-0.8,1.9C231,13.8,231.3,13.2,231.6,12.5z"/>
	<path class="st2" d="M241.2,2.9c-0.3-0.4-0.6-0.8-0.8-1.2C240.6,2,240.9,2.4,241.2,2.9z"/>
	<path class="st3" d="M237,1.6c-0.3,0.4-0.7,0.9-1,1.3C236.3,2.5,236.7,2,237,1.6z"/>
	<path class="st0" d="M547.4,134.4c0,1.9,0,3.8,0,5.7c-1.1,4.3-0.6,8.7-1,13c-1,2.5-0.7,5.1-0.7,7.6c0,0.4,0,0.7,0,1.1
		c-1.2,23-8.9,43.2-26.5,58.3c-13.6,11.7-29.7,17.6-47.7,17.4c-2.1,0-4.4-0.3-6.3-1.1c-5.3-2.2-8.3-0.7-11.1,4.6
		c-7.3,13.8-15.9,26.8-23.3,40.6c-2.4,4.5-3.4,8.7-3.3,13.8c0.3,27.8,0.1,55.6,0.1,83.4c0,10.4,0,20.8-0.1,31.3c0,2.3,0.5,5-3.2,5.1
		c-3.8,0.1-3.2-2.7-3.2-4.9c0.1-40.4-0.9-80.8,0.4-121.2c0.1-2.6-0.9-4.6-2.1-6.6c-8.8-16.1-17.6-32.2-26.5-48.3
		c1.5-2.2,1.1-4-0.8-5.7c-8.3-7.4-13.5-17.4-21.4-25.1c-3.7-3.6-3-6,1.6-8.4c4.9-2.6,9.7-5.3,13.2-9.9c4.1-5.4,10.1-8.4,14.7-13.1
		c1.5,5.4,4.6,10.1,5.7,15.7c2.7,14,0.5,27.2-5.7,39.9c-1.3,2.5-1.1,4.2,0.5,6.7c6.8,10.8,13.1,22,20.4,34.6c0-42.8,0-84,0-125.3
		c1.5-0.8,1.9-2,2-3.6c0.3-7.1,0.9-14.2,1-21.3c0.2-24.7,0.1-49.4,0.4-74.1c0.2-12.7-0.2-14.4,14.5-10.8c4,1,8.2,2.2,11.3-2
		c13.8,17.1,22,36.4,19.3,58.8c-3,24.9-15.1,43.7-39.4,52.4c-3,1.1-2.7,2.7-2.7,4.8c0,24.7,0.1,49.4,0.1,74.1c0,16,0,32,0,49.4
		c5.4-9,10-16.9,14.7-24.8c2.3-3.9,4.8-7.7,7.2-11.5c1-1.5,2.5-2.8,1.2-4.9c2.7,0.3,4.2-1.2,5.8-3.2c11.8-14.5,24.6-28.1,37.7-41.4
		c9.2-9.3,18.6-18.3,27.3-28.1C529.3,148.7,537.5,140.5,547.4,134.4z"/>
	<path class="st0" d="M768,63.7c2.5,17,0.5,33.1-9.3,47.5c-5.8,8.5-13.1,14.8-23,18.1c-2,0.7-5.1,0.8-5.1,5
		c0.2,37.3,0.2,74.6,0.3,111.9c0,0.3,0.2,0.6,0.4,1c0.3,0,0.9,0.1,0.9,0c5.8-11.3,12.1-22.3,19.5-32.6c0.4-0.6,0.5-1.3,0.7-2
		c1.1-1,2.2-1.8,3.2-2.9c17.4-19,35-37.8,53.2-56c9.9-9.9,18.8-20.7,30-29.1c-1.7,16.7,0,33.6-6,49.9c-9,24.1-26.6,37-50.5,42.4
		c-6.5,1.5-13.1,1.9-19.7,0c-2.7-0.8-4.3-0.2-5.9,2.6c-7.8,13.5-15.9,26.8-24,40.1c-1.5,2.5-2,4.9-2,7.7c0,25.9-0.2,51.9-0.3,77.8
		c-2.5,1-4.5-0.2-7-2.3c0.3,2.7,0.5,4.4,0.7,6.1c-3.4-3.2-6.7-6.3-10.1-9.5c4.2-0.7,7.2,0.4,10.4,3.3c0-27.5,0-53.9,0-80.3
		c0-2.1-1.1-3.8-2.1-5.6c-7.5-13-15.1-26.1-22.6-39.1c-0.6-1-1-2-2.3-1.8c1.3-3.6-0.1-6.1-2.6-8.8c-11.6-12-21.6-25.6-33.4-37.5
		c0.2-0.1,0.3-0.3,0.5-0.4c3.7-0.7,7.4-0.7,11-1.9c8.7-2.7,12.5-10.5,17.8-16.7c1.6-1.9,3.5-3.7,3.3-6.6
		c18.2,19,20.7,41.1,12.2,65.3c-0.8,2.4-0.9,4.1,0.5,6.4c5.6,9.5,10.8,19.4,18.2,29.8c0-39.2,0-76.9,0-114.6
		c1.5-1.8,1.5-4.1,1.5-6.3c0.3-13.7,0.9-27.4,1-41.1c0.2-23.8,0.2-47.6,0.3-71.4c0-1.8-0.6-3.7,0.9-5.2
		c9.5,10.8,20.8,20.1,28.8,32.3c4.4,6.7,8,13.8,10.2,21.5C767.7,61.8,767.8,62.8,768,63.7z"/>
	<path class="st1" d="M400.2,171.9c-4.6,4.7-10.7,7.8-14.7,13.1c-3.5,4.6-8.3,7.3-13.2,9.9c-4.6,2.4-5.2,4.8-1.6,8.4
		c7.9,7.7,13.1,17.8,21.4,25.1c1.9,1.7,2.3,3.6,0.8,5.7c-16.7,6.5-32.5,3.6-48-4.1c-1.1-0.5-2.4-0.7-3.6-1.1c-6-3.7-9-3.5-14.3,1.7
		c-5.3,5.2-10.1,10.8-15.3,16.2c-14.2,14.5-28.3,29.1-42.7,43.4c-3,3-4.4,7.7-9,9c-5.3-6.3-6.3-14.2-6.7-21.9
		c-1.2-28.2,13.8-48.6,40.8-56.2c9.1-2.5,18.3-3.8,27.9-3.6c0.3-2.7-1.4-4.2-2.6-5.9c-14.6-20.2-17.2-43.2-15.7-67.2
		c0.4-7,0.8-7.2-1.5-13.3c6.3,0.1,12.4-0.7,18.6,0.5c3.5,0.7,7.2,0.5,10.7,0.4c17.6-0.4,33.8,3.3,48,14.9
		c5.7,4.6,10.9,9.4,15.3,15.1c1.1,1.4,2.6,2.6,2.3,4.7c0.4,0.6,0.8,1.1,1.2,1.7c0.6,0.2,0.9,0.6,0.8,1.3c0.1,0.3,0.2,0.6,0.3,0.9
		C400,170.8,400.3,171.2,400.2,171.9z"/>
	<path class="st0" d="M666.9,429.9c-2.3,5.2-1.4,11.1-2.7,16.5c-4.9,20.4-14.8,38.1-27.8,54.3c-7.3,9.1-16.2,16.5-24.7,24.4
		c-4.1,3.2-8.1,6.6-11.1,11.1c0,0,0.1,0,0.1,0c-0.4,0.4-0.7,0.8-1.1,1.2l0-0.1c-0.3,0.4-0.7,0.8-1,1.2c-4,4.1-7.9,8.2-10.8,13.2
		l0.1,0c-0.4,0.4-0.8,0.7-1.2,1.1l0.1,0c-0.3,0.2-0.6,0.4-0.8,0.7c-8.2,8.4-13.6,18.7-19.2,28.9c-0.8,1.4-2.1,3-0.9,4.5
		c1.4,1.7,3.3,0.9,5,0.1c6.3-2.9,12.1-6.3,17.3-11c15.1-13.6,31.2-25.8,50-33.9c11.8-5.1,24-8.7,36.4-11.4c6.8-1.5,12.9-3.8,14-12.2
		c2.4,0.2,2.4,1.4,1.7,3.3c-6.9,19.4-18.7,34.7-36.2,45.4c-8.2,5-16.7,8.8-26.1,11.2c-16.7,4.3-31.3,12.7-43.1,25.5
		c-2.3,2.5-4,2.3-6.2,0.5c-11-8.5-23.5-13.8-36.2-18.9c3.5-3.8,2.9-8.9,4.2-13.3c8-26.6,19.4-51.4,35-74.4
		c20.9-30.8,48.5-53.5,80.7-71C665.9,424.8,667.5,425.4,666.9,429.9z"/>
	<path class="st0" d="M951.6,214.6c0.4,3.6-2.1,5.7-4.1,7.9c-14.7,15.8-28.5,32.5-44.4,47.2c-1.2,1.1-2.1,2.4-3.4,4
		c11.1-2.7,21.6-5.4,32.2-7.8c3.5-0.8,7.1-1.2,10.7-1.5c1.4-0.1,3.7-1.2,4,1.2c0.3,2.3-1.8,2.7-3.6,2.8c-7.7,0.7-15.2,2.3-22.7,4.4
		c-5.7,1.6-11.4,3.1-17,5c-9.9,3.2-16.4,11-23.3,18c-13.6,13.9-26.4,28.6-34.6,46.6c-6.5,14.2-9.6,29.7-12.7,45
		c-0.1,0.4,0.1,0.9,0.3,2.1c4.4-7.1,7.6-14.2,13-19.9c7-7.4,14.9-13.7,23.2-19.5c1.9-1.3,5.5-1.8,4.6-5.7c3.3,0.4,5.8-1.6,8.5-3
		c15.3-8.6,30.1-18,46.5-24.5c6.2-2.4,11.9-6,18.7-6.6c0.2,1.6-1.8,2.6-1.2,4.3c-2.2,7.2-2.5,14.8-5,22c-8.2,23.6-36.7,36-59,17.8
		c-3.5-2.8-5.5-2.7-9.1-0.3c-17.8,11.8-31,27.4-39.8,47c-3.1,6.9-4.4,14.1-4.5,21.7c-1.4,8.6-1,17.3-0.9,25.9c0,2.5,0,5.1,0,7.6
		c-0.5,1.5-0.5,3,0,4.4c0,2.2,0,4.4,0,6.6c0,0.3,0,0.7,0,1c-0.7,12.1-1.2,24.2,0.1,36.3c0,5.6,0,11.1,0,16.7c0.3,0,0.5,0,0.8,0
		c0.7-4.1,1.4-8.2,2.1-12.3c4.5-26.2,14-50.4,28.4-72.7c1.5,7.7,9.5,8,14,12.3c-6.4,13.1-11.4,26.8-15.9,40.7
		c-5.5,16.9-9,34.2-12.8,51.5c-0.2,1,0,2.2,0,3.3c-1.2,3.6-2,7.2-2.1,11c-0.1,2.5-1.2,2.7-3,1.4c-4.8-3.2-10.1-5.5-15.6-6.7
		c-3-0.6-3.1-2.2-3-4.6c0.8-40.2,1-80.3,2.3-120.5c1.1-33,7.9-64.9,21.3-95.2c0.2-0.5,0.2-1.1,0.3-1.6c0,0-0.1,0-0.1,0
		c0.4-0.5,0.8-0.9,1.2-1.4c2.7-1.9,1.7-4.7,1.7-7.2c0.7-2.1-0.6-3.9-0.8-5.9c1.9-8.8,4.9-17.3,5.8-26.3c1.5-1.2,2.2-2.9,2.6-4.7
		c4.5-17.1,7.3-34.5,8.8-52c0.5-5.6,3-11.5,0.1-17.2c0.6-0.8,1.6-1.3,2.2-0.3c3,5.5,8,8.9,12.5,12.6c17,14,19.8,48.2-11.8,61.9
		c-0.8,0.4-1.8,0.8-2.6,0.7c-7.2-1.3-7.9,3.7-9,9c-1.6,8.2-3.7,16.3-5.6,24.8c2.9-1,3.7-3.3,4.9-5.1c10.2-14.8,22.6-27.5,35.8-39.3
		c11.4-10.2,15.8-23.1,16.8-37.7c0.3-3.6,0.8-7.3,1-10.9c0.2-3.6,0.2-6.8-2.5-10c-3.6-4.2-3-9.6-0.4-14.4c1.6-3,3.9-6,8.1-5
		c4.1,1,6.4,3.9,7,8.1c0.9,5.6-1.3,10-5.2,13.7c-1,0.9-2.4,1.2-2.4,3.2c-0.1,10.9-1.7,21.6-3.6,33.2c9.3-11.4,18.9-21.3,27.3-32.2
		c3.9-5,8-10.5,15.3-10.7L951.6,214.6z"/>
	<path class="st0" d="M260,299.3c4.6-1.3,6-6,9-9c14.4-14.3,28.5-28.9,42.7-43.4c5.2-5.3,10-11,15.3-16.2c5.3-5.2,8.4-5.4,14.3-1.7
		c-0.5,13-0.9,25.9-5.8,38.2c-9.9,25.4-35.1,42.1-60.4,38.3c-7.4-1.1-10.1,0.9-13.2,6.9c-5.4,10.4-11.8,20.4-17.9,30.4
		c-2.7,4.4-3.6,8.6-3.4,13.9c0.6,14.4,0.4,28.9,0.4,43.3c0.1,24.3,0.3,48.6,0.4,73c0,1.2,0,2.5,0,4.2c-4.7-1.8-6.7-4.4-6.7-9.4
		c0.2-38.2,0.3-76.5,0-114.7c-0.1-8.2-4.9-15.2-8.6-22.1c-4.9-9.3-10.8-18-16.3-27c0.3-2.4-1-4.1-2.5-5.7
		c-9.2-10.4-18.4-20.9-27.5-31.4c-0.8-0.9-2.3-1.6-1.7-3.1c0.6-1.5,2.2-0.7,3.3-1.1c3.2-1,6.6-1.8,9.6-3.3
		c8.3-4.1,16.2-8.9,16.8-19.9c10.6,10.7,14.7,23.9,13.7,38.8c-0.5,7.1-1.9,14.1-5.3,20.4c-1.2,2.2-0.3,3.3,0.9,4.8
		c6.3,8.4,10.7,18,17.4,26.9c0-5.9,0-11.7,0-17.6c0.1-27.1,0.2-54.1,0.3-81.2c0-10.4-1.8-12.8-11.4-17.1c-7.2-3.2-15.2-4.5-21.9-8.9
		c-0.9-0.6-1.7-1.3-2.5-2c1.6-0.2,3.5,0.2,4.7-0.6c5.2-3.5,10.2-5.1,15.7-0.4c1.7,1.5,2.7,0.3,2.3-1.7c-0.6-2.9-1.3-5.7-2-8.5
		c3.6,4.7,6,10.1,8.8,15.3c1.4,2.6,2.7,5.4,6.3,7c0-3.7,0-7.1,0-10.4c0-14.6,0.1-29.1,0-43.7c0-1.8,1.1-4-1-5.5
		c-0.3-1.5-0.7-3,0.1-4.5c1.8-8.7,0.7-17.4,0.8-26.1c0.1-8.8,0.2-17.7,0.2-26.5c0-1.5,0.9-3.3-1-4.4c0.2-1.7-0.7-2.7-2.2-3.3
		c0.4-1.5,0.7-3,1.1-4.5c0.9,0.4,1.9,1.3,1.9-0.8c0.1-12.5,0.3-24.9,0.5-37.4c1.7,0,3.5,0,5.2-0.1c0.1,13.3,0.1,26.6,0.2,39.8
		c-0.6,2.7,2.9,0.9,3,2.8c-2.5,0-2.8,1.7-2.8,3.7c-0.1,18.5-0.1,36.9-0.2,55.4c0,0.3,0.4,0.5,0.6,0.9c2,0,2.7-2.2,4.4-2.7
		c2,1.9,2.9-0.2,3.9-1.2c11.5-10,23.1-19.7,35-29c3.5-2.8,7-5.9,7.9-10.7c4.1-1.4,3,1.4,2.6,3.4c-3.6,21.3-15.7,34.5-36.4,39.6
		c-4.9,1.2-9.7,2.3-14.4,4.3c-2.1,0.9-3.7,1.8-3.7,4.6c0.1,18.6,0,37.2,0,56c4-0.5,4.9-3.6,6.3-6.3c2.3,3.3,3.5,0.4,4.9-0.9
		c9.2-8.7,19.4-16.3,29-24.5c5-4.3,11-7.7,13.7-14.4c2.2-1.3,3.8-1.4,3,2c-5.2,21.2-13.9,35.2-36.8,40.9c-2.8,0.7-5.6,1.3-8.3,2.3
		c-10.3,3.9-11.8,6.2-11.8,17.3c0,34.3,0,68.7,0,104.4C246.6,322.2,255.9,312.3,260,299.3z"/>
	<path class="st1" d="M189,454.8c-3.1,3.4-2.8,9-7.1,11.7c-0.9,0.7-1.3,1.7-1.2,2.8c0,0,0.1,0,0.1,0c-4.4,1.9-7.3-1-10.4-3.3
		c-3.1-2.3-2.1-4.8-0.8-7.5c0.4-0.9,0.1-1.7-0.8-2.3c12.8-25.6,28.3-48.9,53.1-64.5c2.6-1.6,5.4-2.8,8.1-4.2
		c0.2,0.3,0.5,0.6,0.7,0.8c-4,7.5-8.6,14.6-13.5,21.6c-5.5,7.9-10.7,16-16.3,23.9c-1.6,2.2-1.7,3.4,0.7,5.2
		c13,9.6,23.7,21.3,31.4,35.7c0.7,1.3,1.5,2.5,2.6,3.5c6.6,6.2,14.7,10.3,21.5,16.9c-7-32.9,9.4-56.8,28.5-79.6
		c-2.3,37,0.5,74.2-4.5,111.7c-4.2-3-4.8-8.1-8.8-10.2c-0.9,1.1-0.6,2-0.3,2.8c2.2,6.3,1,10.6-3.9,15c-2.6,2.4-4.6,2.9-6.7-0.8
		c-8.7-15.9-21.2-28.5-34.3-40.6c-1.6-1.4-2.9-3.4-5.4-3.3c-0.4-0.3-0.8-0.7-1.2-1c-0.3-2.7-2.2-3.7-4.3-4.4
		c-0.4-0.4-0.7-0.7-1.1-1.1c-0.4-0.4-0.7-0.7-1.1-1.1l-0.3-0.2c0,0,0.3,0.2,0.3,0.2c0.4,0.4,0.7,0.7,1.1,1.1
		c0.4,0.4,0.7,0.7,1.1,1.1c0.5,2.4,2.1,3.7,4.3,4.4c0.3,0.4,0.7,0.8,1,1.1c0.7,1.6,1.9,2.6,3.1,3.7c22.8,21.8,41.1,46.4,47.3,78.4
		c0.8,4.1,4.2,8,1.4,12.6c-0.3,0.5-0.8,0.7-1.3,0.2c-2.3-3.1-5.2-5.5-7.5-8.6c-8.4-10.6-15.6-22.3-26.7-30.4
		c-0.4-0.4-0.8-0.7-1.2-1.1c0,0,0.1,0.2,0.1,0.2c-1.4-1.6-2.6-3.5-4.2-4.9c-12.5-11.3-23.3-23.9-30.2-39.5c-0.3-0.8-0.7-1.7-1.8-1.8
		c-2.6,7.1-5.2,14.1-7.7,21.2c-5.4-2.9-11-5.6-12.5-12.5c0,0-0.1,0.1-0.1,0.1c0.7-0.2,1.3-0.4,0.4-1.1c3.3-6.6,6.6-13.4,11.3-19.1
		c4.3-5.1,4.8-10.2,2.6-16.1c0-0.4-0.1-0.7-0.1-1.1c-0.2-1.1-0.5-2.2-0.7-3.4c0.1-0.1,0.2-0.3,0.2-0.4c-0.1-0.3-0.3-0.5-0.4-0.7
		c0.1-0.4,0-0.7-0.1-1c0-0.4-0.1-0.7-0.1-1.1c-0.2-1.5-0.3-2.9-0.5-4.4c0.9-3.6,0.7-7.1-0.3-10.6c-1.8,0.5-2,1.7-2.3,3
		c-0.2,0.3-0.4,0.7-0.6,1C189.6,453.5,189.3,454.2,189,454.8z M270.7,515c0.1-0.3,0.4-0.6,0.3-0.8c-0.1-0.2-0.5-0.3-0.8-0.4
		c-0.1,0.3-0.4,0.6-0.3,0.8C270,514.8,270.5,514.9,270.7,515z"/>
	<path class="st0" d="M64.9,301.2c-1.1,9.7-0.2,19.3,0.2,29c0.2,4.5,2.4,8.4,5.1,11.8c12.5,15.8,27.1,29.7,39.6,45.6
		c-1.4-9.5-3-18.9-5.9-27.9c-0.7-2.3-2.7-2-4.4-2.5c1-1.9,5.1,0,4.5-4.1c-0.9-6.3-0.4-12.7-1-19.1c-0.7-7.5-0.2-15.1-0.2-22.7
		c0.4,5.4,1.6,10.8,2.2,16.1c0.2,2.2,0.4,4.7,4.2,4.2c7.5-1,14.9-2.4,21.9-5.2c1.8,11.7-4.6,24.4-16.2,29.4c-5.6,2.4-5.9,5-4.8,10.4
		c4.1,20.2,9.4,39.9,19.2,57.8c3.2-7,8.7-13.5,11.2-21.6c0.5-0.2,1.1-0.4,1.4-0.7c14.4-15.6,30.6-29.1,47-42.4
		c2.3-1.9,4.4-4.5,7.9-4.1c-1,7.4,0,14.9-0.8,22.4c-2.1,22.4-25.8,40.8-48.4,30.7c-2.5-1.1-4.1-0.8-5,1.9c-0.2,0.5-0.5,1-0.9,1.4
		c-9.6,10.5-10.7,21.8-7.1,35.8c5.4,21.2,6.8,43.2,5.8,65.2c-0.1,1.6,0.2,3.3,0.3,4.9c1.1,15.5,3.1,30.9,2.8,46.4
		c-0.5,0.5-0.5,1.1,0,1.6c0.1,0.8,0.2,1.7,0.3,2.5c-0.3,2-0.5,4.3-2.8,4.9c-7.9,1.8-15.1,5.5-22.4,8.4c-7.2-24.3-16.8-47-31.4-67.2
		c7.9-0.1,11.1-4.1,9.9-12.2c0.4,0.4,0.8,0.8,1.2,1.3c0.3,0.4,0.6,0.7,1,1.1c10.1,12,17.9,25.4,23.2,41.5c1.5-7.1-0.5-12.4-2.1-17.6
		c-3.5-11.1-8.4-21.7-13-32.4c1.3-1.8,3.1-2.1,5.1-2.6c3.4-0.9,7-2,7.4-6.6c6.1,6.2,8.6,14.5,12.9,21.9c0.6,1,1,2.1,2.2,4.5
		c-0.2-14,1.2-26.6-1.4-38.9c-3.3-16.2-13.5-28.4-25-39.4c-5.9-5.6-12.7-10.1-19.6-14.4c-2-1.3-3.1-1.1-5,0.5
		c-7.9,7.1-17.4,9.9-27.9,8.8c6.4-0.8,7.3-5.4,7.4-10.7c0.1-2,0.7-3.9,1.3-5.8c2.1-6.8,1.8-7.5-4.5-10.6c-1-0.5-2-0.8-3-1.3
		c-7.4-3.6-14.9-7.3-22.3-10.9c0.2-0.4,0.4-0.9,0.6-1.3c9.9,3.5,20.1,6.1,29.6,10.9c8,4,16.3,7.4,24.8,10.2
		c-1.7,3.6,1.2,4.9,3.3,6.3c10.3,7,20.4,14.1,28.5,23.6c1.1,1.3,2.2,2.8,3.3,4.2c1.3,2.4,2.5,4.8,4.2,7.9c0.7-4.4,0.4-7.7-1.5-10.6
		c-3.1-6.3-3.5-13.4-5.9-20c-4.6-12.5-11.3-23.7-19.6-33.8c-7.2-8.7-15.1-16.8-22.1-25.6c-7.4-9.2-17.6-12.7-28.1-15.6
		c-7.9-2.3-16.2-3.3-24.3-5.1c-2.5-0.6-3.6-0.5-4.8,2.2c-1.8,4-5.2,5.9-9.8,5.1c-3.9-0.7-5.8-3.6-6.7-7c-1.1-4.4,0.7-7.9,4.3-10.4
		c3.6-2.5,9.1-1.3,12.3,3.3c1.4,2.1,2.7,2.8,5,3c12.6,1.2,24.9,4.3,37.5,8.4c-1.5-3.5-3.3-6.4-5.7-9c-9.5-10.5-19.2-20.9-27.8-32.1
		c-1.3-1.7-2.7-3.4-3.8-5.4c-2.1-3.8-2.7-8.5-9.4-6.1c-4,1.4-8.6-4.9-8.3-10c0.3-3.9,5.1-8.3,8.8-8.1c4.8,0.3,9.8,6.6,8.1,11.6
		c-1.6,4.6,0.7,6,3.4,8.2c7.2,5.9,11.9,14.2,17.8,21.3c3.7,4.4,6.9,9.2,11.9,14.3c0.2-10.7,0.4-20.5-1-30.3
		C61.5,299.7,63.3,300.2,64.9,301.2z"/>
	<path class="st1" d="M522.6,580.3c-6.8-0.8-13.5-1.6-20.3-2.4c-6.7-18.7-21-31.1-34.9-43.9c-0.1-1.3,0.2-3-2.1-2l0.1,0.1
		c0.7-2.3-1.1-3.7-2.3-4.8c-12.4-10.7-24.9-21.1-35.6-33.6c-2.1-3.7-2.3-8.6-6.3-11.2c-0.4-1.4-0.3-2.9-1.4-4.1
		c-9.5-10.2-11.1-23.4-12.7-36.4c-0.7-5.4-0.9-10.9-2-16.3c-0.5-2.5-0.5-4.4,2.8-4.5c13.7-0.3,27.5-1.6,40.5,4.1
		c10.9,4.8,21.4,10.3,30.4,18.3c5.4,4.8,11.7,8.5,16,14.6c-0.4,0.6-0.6,1.5-1.1,1.8c-5.6,3.4-9,8.3-11.5,14.5
		c-2.7,6.8-3.4,6.5-9.8,2c-0.4-0.4-0.7-0.7-1.1-1.1c-0.4-0.4-0.7-0.7-1.1-1.1c-0.4-0.4-0.7-0.7-1.1-1.1c-0.4-0.4-0.8-0.7-1.1-1.1
		c-0.4-0.4-0.7-0.7-1.1-1.1c-2.9-4.2-6.9-7-11-9.7c-1.7-1.7-3-4.1-6.2-3.3c1.9,1.3,3.8,2.6,5.6,3.9c3.1,3.9,7,6.8,11,9.6
		c0.4,0.4,0.7,0.7,1.1,1.1c0.4,0.4,0.7,0.7,1.1,1.1c0.3,0.4,0.7,0.8,1,1.1c0.4,0.4,0.7,0.7,1.1,1.1c0.4,0.4,0.7,0.7,1.1,1.1
		c0.7,1,1.3,2.2,2.2,3.1C500.8,508.3,511.8,544.2,522.6,580.3z"/>
	<path class="st0" d="M522.6,580.3c-10.8-36.1-21.9-72-48.8-100c-0.9-0.9-1.5-2.1-2.2-3.1c0.2-0.2,0.4-0.4,0.6-0.6
		c6.4,4.5,7.1,4.8,9.8-2c2.5-6.2,5.9-11.1,11.5-14.5c0.5-0.3,0.8-1.2,1.1-1.8c1.7,1.2,3.5,2.4,5.2,3.6c1.3,2.7,3.6,4.4,5.6,6.4
		c6.6,8.8,11.7,18.5,17,28.1c-0.1,0.3,0,0.6,0.4,0.7c1,1.7,2,3.4,3,5.1c1.2,3.8,3,7.2,6.3,10.2c1.7-20.4,1.6-40.3,1.6-60.1
		c0-35.7,3.2-71.4-1.3-107.1c0.7-1.8,1.5-2.5,2.9-0.6c17.5,22.2,33.8,45.1,37.8,74.3c1.5,10.7,0.6,21.5-0.4,32.3
		c-0.4,3.7-2.8,6.3-4.9,8.9c-17,21-26.8,45.1-30.9,71.8c-0.4,2.5-0.1,5.1-0.1,7.7c-0.3,0.8-0.5,1.5-0.8,2.3
		c-0.1,0.7-0.1,1.5-0.2,2.2c0,1,0,2.1-0.1,3.1c-1.4,9.6-1.3,19.3-1.4,29c0,3.2,0.7,5.7,3.5,7.4C532.7,583.2,527.6,582.2,522.6,580.3
		z"/>
	<path class="st0" d="M407.8,363c0.7,0.8,0.7,1.6,0.2,2.5c-2.2,4.4-4.4,8.7-6.6,13.1c-7.5,15.2-20.1,24-35.5,29.3
		c-10.9,3.7-11,3.6-11.1,15.3c-0.1,10.6,0,21.2,0,31.8c3.1-1.9,5-5.7,6.5-9.3c6.8-16.3,20.2-22.8,36.1-26c4.3-0.9,4.6,0.9,3.4,4.5
		c-5.2,15.1-14.3,26.4-29.8,31.5c-2.4,0.8-4.8,1.5-7.2,2.3c-9.3,3-9.3,3-9.1,12.8c0.1,2.2,0,3.3-2.6,3.1c-2.1-0.1-3.5,0.2-3.7-2.9
		c-0.5-11-0.5-11.7-11.2-13.8c-14.1-2.8-23.1-10.9-28.4-24c-1.7-4.2-3.9-8.1-6.1-12.8c23.8,0.3,35.5,15.8,44.4,35
		c0.4-0.2,0.9-0.4,1.3-0.5c0-2.4,0-4.8,0-7.2c0-10.1-0.1-20.1,0.2-30.2c0.1-4.2-1.6-6.2-5.2-7.6c-3.4-1.3-7.1-1.3-10.4-2.7
		c-11-4.5-19.8-11.7-25.7-22.2c-3.1-5.5-5.6-11.3-7.4-17.7c21.7,5.1,39.6,14.8,46.7,38c2.7-1.2,1.9-2.6,1.9-3.7
		c0.1-11.3-0.1-22.7,0.3-34c0.2-5.1-2-7.4-6.4-8.4c-3.5-0.8-7.1-1.3-10.5-2.6c-11.1-4.2-19.1-12.1-24.3-22.9
		c-2.2-4.6-4-9.4-6.1-14.3c23.8,0.7,37.1,15.4,46.6,35.5c-0.6-13.8,2.5-27.3-3.8-40.5c-4.8-10.2-2.9-21.5,0.4-32.1
		c1.7-5.3,4-10.5,6.1-15.9c3.6,2.6,3.3,6.6,4.6,9.9c6,15.4,6.2,30.5,0.1,46.2c-4,10.5-1,22.3-1.1,33.8c5.9-9.3,9.3-20,18.1-27.2
		c8.8-7.2,19.6-9.7,30.2-14.2c-6,18-13.4,34.3-32.4,41.6c-1,0.4-1.8,1.2-2.8,1.3c-12.6,1.2-13.8,9.6-13.2,20
		c0.6,9.4,0.1,18.9,0.1,28.7c3.5-2.2,4.8-6.1,6.4-9.4c8.2-17.7,22.8-26.6,40.6-31.3C403.7,365.2,406.4,365.5,407.8,363L407.8,363z"
		/>
	<path class="st1" d="M537.9,583.6c-2.8-1.7-3.5-4.2-3.5-7.4c0.1-9.7,0-19.4,1.4-29c4.8-1.5,3.4-6.2,4.7-9.5
		c0.3-0.2,0.4-0.5,0.3-0.8c0.1-0.5,0.2-1.1,0.3-1.6c0.2-0.6,0.4-1.1,0.6-1.7c0.1-0.5,0.3-1,0.4-1.6c3.5-13.4,7.7-26.6,13.6-39.1
		c18.9-39.7,49.1-64.8,92.4-72.7c4.4-0.8,8.9-1,13.1-1.5c-13.6-18.1-24.1-38.9-42-53.7c-0.6-1.5-0.7-2.7,1.5-2.2
		c3.7-0.6,7,0.6,10.2,2.3c9.9,5,17.6,12.9,26.1,19.7c0.7,1.3,1.8,2.1,3.3,2.2l-0.1-0.1c0.4,0.4,0.8,0.8,1.2,1.2l-0.1-0.1
		c0.3,0.3,0.7,0.6,1,0.9c0.3,0,0.5,0.2,0.4,0.6c0.6,0.6,1.3,1.2,1.9,1.9l0-0.1c0.4,0.4,0.7,0.8,1.1,1.2l-0.1-0.1
		c0.4,0.8,0.8,1.6,1.2,2.3c0,0-0.1-0.1-0.1-0.1c1.2,1.3,2.3,2.7,3.5,4c3.1,5.8,6.8,11.1,11.5,15.7c0.2,2.8,1.9,4.2,4.4,4.6
		c0.3,2.3,1.8,3.9,2.9,5.8c7.3,12.6,14.8,25,18.6,39.2c-5.5,7.4-14.2,6.9-21.9,8.8c-4.2-10.1-8.6-20.2-12.6-30.4
		c-1.7-4.4-3.4-8.7-6.3-12.4c0.6-4.5-1-5.1-4.8-3.1c-32.2,17.4-59.9,40.2-80.7,71c-15.5,22.9-27,47.8-35,74.4
		c-1.3,4.5-0.7,9.6-4.2,13.3C540.8,584.8,539,585.1,537.9,583.6z"/>
	<path class="st1" d="M394.3,651c6.9-12.6,16.3-23.1,26.9-32.4c18.5-16.2,39.6-26.8,64-30.1c9.2-1.2,18.6-1.6,27.9,0.3
		c1.1,2,3.9,0.9,4.9,3c4.8,9.9,13.6,17.3,17.2,28.2c3.3,10.2,1.3,17.3-7.2,23.7c-8,6.1-17.2,6.2-26.2,6.5
		c-26.1,0.9-52.2-0.3-78.4,1.1C413.8,651.8,404,651.2,394.3,651z"/>
	<path class="st1" d="M800.1,551.4c4.2,4.2,7,9.3,9.6,14.7c4.6,9.6,4.5,15.2-2.9,22.7c-11.6,11.7-24.1,22.1-38.9,29.8
		c-12.9,6.7-26,3.2-39.1,4.1c-1.4,0.1-2.3-1-3.1-1.9c-7.7-8-16.1-15-25.3-21.2c-0.4-1.1-0.8-2.2-2.3-1.7l0.1,0.1
		c-0.8-2.8-3.2-4-5.4-5.4c0,0-0.1-0.1-0.1-0.1c-0.5-0.5-1-1.1-1.6-1.6c-1.3-0.9-2.1-1.5-0.4-3.2c19.3-18.9,41.7-31.4,68.4-36.1
		c12.7-2.2,25.3-2.3,38-0.9C798.1,550.7,799.1,551.1,800.1,551.4z"/>
	<path class="st1" d="M693.9,144.1c0.2,2.9-1.7,4.8-3.3,6.6c-5.3,6.2-9.1,14-17.8,16.7c-3.7,1.1-7.4,1.2-11,1.9
		c-0.2-0.5-0.4-1.6-1.1-1.1c-0.7,0.5,0.1,1.1,0.6,1.4c11.8,11.9,21.8,25.5,33.4,37.5c2.5,2.6,4,5.1,2.6,8.8
		c-9.8,3.3-19.6,2-29.5,0.2c-8-1.5-14.5-6.4-21.9-9.1c-4.3-0.1-4.1,4.6-6.7,6.5c-10.2,7.6-20.1,15.7-29.4,24.4
		c-1,0.9-2.1,1.4-3.4,0.9c2-6.6,5.4-12.7,8.8-18.6c4.7-8.3,12-13.4,20.7-16.6c3.5-1.3,4.8-2.6,1.4-5.8c-14.2-13-19.3-30.2-21.3-48.8
		c-0.9-8.1,1.2-16.4-1.1-24.5c-0.5-1.6,1-1.6,2-1.6c17-0.1,34.3-1.9,50.8,3.7c9,3.1,17.6,7.3,24,14.9c0.4,0.5,0.8,1.1,1.1,1.6
		c0,0-0.1-0.1-0.1-0.1c0.4,0.4,0.8,0.8,1.2,1.2L693.9,144.1z"/>
	<path class="st0" d="M394.3,651c9.7,0.1,19.5,0.8,29.2,0.2c26.1-1.4,52.3-0.2,78.4-1.1c9-0.3,18.2-0.4,26.2-6.5
		c8.4-6.4,10.5-13.5,7.2-23.7c-3.6-10.9-12.4-18.2-17.2-28.2c-1-2.1-3.9-1-4.9-3c27.2,1.4,51.1,11.5,72.9,27.5
		c11.3,8.3,21,18.4,29.6,29.5c1.6,2,3,2.1,5,2.1c18.9,0.2,37.8,0.4,56.8,0.6c1.4,0,2.9,0.1,4.3,0.1c2.3,0.1,4.6,0.6,4.6,3.5
		c0,3.2-2.9,2.3-4.4,2.3c-18.4,0.3-36.8,0.3-55.1,0.4c-9.7,0.1-19.5,0.1-29.2,0.2c-0.4,0-0.7,0-1.1,0c-1.1,0-2.1,0-3.2,0
		c-3.3,0-6.5,0-9.8,0c-1.1,0-2.1,0-3.2,0c-1.5,0-2.9,0-4.4,0c-19,0.2-37.9,0.3-56.9,0.5c-11-1.2-22-0.9-33-0.7
		c-47.2,0-94.3,0-141.5,0c-1.8,0-3.6-0.1-5.4,0c-2.2,0.1-3.3-0.9-3.5-3.1c-0.2-2.7,1.7-3,3.5-3c13.5,0.2,27-0.7,40.5,0.5
		c0.8,0.1,2,0.2,2.4,0.8C385.8,655.5,390.1,653,394.3,651z"/>
	<path class="st1" d="M846.5,313.4c0.2,2,1.5,3.8,0.8,5.9c-2.4,2.8-4.8,5.6-7.1,8.4c0,0-0.1,0.1-0.1,0.1c-0.7,0-1,0.4-0.9,1
		c-0.2,0.2-0.3,0.5-0.4,0.8c-0.3,0.4-0.7,0.8-1,1.2c0,0,0,0,0,0c-0.3,0.4-0.7,0.7-1,1.1c-5.2,5.8-8.8,13-14.8,18
		c-1.1,0.6-2.2,1.3-3.3,1.9c-8.4,8-13.7,18.2-19.3,28.1c-4.2,7.4-7.7,15.2-11.8,22.7c-1.3,2.4-0.8,3.7,0.7,5.7
		c2.6,3.4,4.9,7.2,5.7,11.6c0.3,1.1-0.3,2.5,1,3.3c0,0-0.1-0.1-0.1-0.1c0.4,0.8,0.8,1.6,1.2,2.4c0,0,0.1,0.3,0.1,0.3
		s-0.2,0.1-0.2,0.1c0.3,0.5,0.7,1.1,1,1.6l0.3,0.3c0,0-0.3,0.3-0.3,0.3c0.3,0.5,0.6,1,0.9,1.5c0.1,0.4,0.2,0.7,0.3,1.1
		c0.3,1.2-0.2,2.8,1.4,3.4c0.8,0.6,0.9,1.4,0.8,2.3c-2.1,1.8-0.3,2.4,0.9,3.2c0.3,0.2,0.3,0.5,0.1,0.8c0.3,0.4,0.6,0.9,0.9,1.3
		c0.1,0.6,0.1,1.2,0.2,1.8c-0.5,2.4,0.3,4.7,1,6.9c0.5,1.7,1.9,3.6,0,5c-1.6,1.2-3.5,0-5.1-0.8c-1.6-0.8-2.9-2.1-4.2-3.3
		c-1.6-1.5-3.4-3.2-5.6-2.9c-3.5,0.4-5.6-1.6-8-3.4c0,0,0.2,0.1,0.2,0.1c-0.3-0.7-0.7-1.5-1-2.2l-0.3-0.2c0,0,0.2-0.3,0.2-0.3
		c-0.4-1-0.8-1.9-1.2-2.9c0,0,0.1,0.1,0.1,0.1c-0.3-0.7-0.7-1.5-1-2.2c-1-0.6-1.5-4.1-3.1-0.3c-1.9,4.6-4.1,9-6.2,13.6
		c-2.1,0.9-2.6,3-3.2,4.8c-1.3,3.8-2.4,7.6-3.5,11.5c-0.6,2.3-1.9,3.8-4.2,3.2c-5.9-1.6-11.8-0.4-17.7-0.9l0,0
		c0.3-6,3.8-11.4,2.9-17.6c0.5-1.9,0.9-3.9,1.5-5.8c4.4-13,10.7-25,17.4-36.9c1.6-2.9,1.9-5.3,0.2-8c-9.3-15.1-19-30-30.6-43.5
		c-2.1-2-2.1-5.7-5.4-6.7c-0.4-0.7-0.9-1.4-1.3-2.1c-0.2-1.7-0.4-3.4-0.7-6.1c2.5,2.1,4.5,3.4,7,2.3c14.8,9.4,27.4,21.3,38,35.3
		c3.3,4.4,5.2,4.2,8.4-0.1c9-11.6,18.3-23.1,29.4-32.7c1.1-1,1.1-2.2,1.3-3.5c0.5-1.2,1.3-2,2.6-2.5c6.4-2.1,10-7.1,12.6-12.9
		c0.4-0.4,0.8-0.8,1.1-1.3c0,0-0.1,0.1-0.1,0.1c4.3-3.5,8.6-7.2,13-10.6C839.5,314.8,842.5,312.8,846.5,313.4z"/>
	<path class="st0" d="M389.8,548.4c0,10.3-6.6,17.4-12.4,24.8c-2.2,2.8-5,5.2-7.5,7.7c-3.8,4-8.1,7.3-12.7,10.3
		c-6.6,1.2-12.4,4.5-18.4,7.2c-1.9,0.9-3.4,1.2-5.4,0c-13.3-8.5-27.8-13.2-43.5-14.1c5.3-5.5,6-13.1,8.7-19.7
		c16.8-39.9,41.3-71.7,84.4-84.4c-5.2,18.2-13.4,34.4-26.2,48.9c-6.5,7.4-15,11.6-21.4,18.6c-1.2,1.3-2.5,2.6-3.7,3.9
		c-1.7,1.2-3.2,2.4-4,4.4l0.1,0c-0.6,0.4-1.1,0.8-1.7,1.2c-4.4,3.7-7,8.7-9.5,13.8c-0.5,1-1.6,2.1-0.1,3.3c4,3.3,10.9,3.8,15.7,0.7
		c3.9-2.6,7.6-5.6,11.4-8.3C357.6,556.8,372.9,550.6,389.8,548.4z"/>
	<path class="st1" d="M450.3,31.7c-3.2,4.2-7.4,3-11.3,2c-14.8-3.5-14.4-1.9-14.5,10.8c-0.3,24.7-0.2,49.4-0.4,74.1
		c-0.1,7.1-0.7,14.2-1,21.3c-0.1,1.6-0.5,2.8-2,3.6c-18.5-4.3-28.9-17.3-35.7-34.1c-3.9-9.6-4.2-19.7-4.6-30
		c-0.7-22.8,9.5-40.5,24-56.3c6-6.5,12.3-12.8,18.5-19.1c0.3,0,0.6-0.1,0.9-0.3c0.7,0.5,1.3,0.9,2,1.4c0.4,0.6,0.8,1.2,1.2,1.9
		c0,0,0.2,0.3,0.2,0.3c0.3,0.3,0.6,0.6,0.9,1c0,0,0.1,0.1,0.1,0.1c0.3,0.3,0.6,0.6,1,1c0,0,0.2,0.1,0.2,0.1c0.3,0.3,0.6,0.7,0.9,1
		c0.4,0.4,0.8,0.8,1.2,1.2c0.3,0.3,0.7,0.7,1,1c0,0,0.1,0.1,0.1,0.1c0.3,0.3,0.7,0.7,1,1c0,0,0.1,0.1,0.1,0.1c0.3,0.3,0.7,0.7,1,1
		c0,0,0.1,0.1,0.1,0.1c0.3,0.3,0.7,0.6,1,1c0,0,0.1,0.1,0.1,0.1c0.3,0.3,0.6,0.6,1,1c0,0,0.1,0.1,0.1,0.1c0.3,0.3,0.6,0.6,0.9,0.9
		c1.1,1.1,2.3,2.3,3.4,3.4c0.3,0.4,0.6,0.7,0.9,1.1C445.2,25.6,447.7,28.6,450.3,31.7z"/>
	<path class="st1" d="M207.7,239.5c-0.6,10.9-8.4,15.7-16.8,19.9c-3,1.5-6.4,2.3-9.6,3.3c-1.1,0.4-2.8-0.4-3.3,1.1
		c-0.6,1.5,0.9,2.2,1.7,3.1c9.2,10.5,18.3,21,27.5,31.4c1.5,1.7,2.8,3.3,2.5,5.7c-38.8,10.2-72.4-16.1-74.3-58.3
		c-0.4-8-0.1-16.1-0.5-24.1c-0.2-3.2,1.6-2.6,3.3-2.6c15.8,0,32-2.1,47,3.7C193.9,225.9,202.7,230.5,207.7,239.5z"/>
	<path class="st1" d="M547.4,134.4c-9.9,6.1-18.1,14.3-25.8,22.9c-8.7,9.8-18.1,18.8-27.3,28.1c-13.1,13.3-25.9,26.9-37.7,41.4
		c-1.6,2-3.2,3.5-5.8,3.2c-11.4-22.3-10.5-44.1,1.9-65.7c0.2-0.4,0.5-0.7,0.7-1.1c0.5-0.8,1-1.5,1.5-2.3c0.3-0.4,0.5-0.7,0.8-1.1
		c0,0,0.2-0.2,0.2-0.2c0.2-0.3,0.5-0.6,0.7-0.8c0.2-0.1,0.3-0.2,0.3-0.5c0.4-0.5,0.8-1,1.2-1.5c0,0,0.2-0.2,0.2-0.2
		c1.2-0.4,1.9-1.2,2.4-2.3c0.3-0.1,0.5-0.3,0.5-0.6c0.6-0.5,1.1-1.1,1.7-1.6c0.3-0.1,0.5-0.2,0.6-0.5c0,0,0.4-0.1,0.4-0.1l0.1-0.4
		c0.3,0,0.4-0.2,0.5-0.4c0.2-0.2,0.5-0.5,0.7-0.7c0.2,0,0.3-0.1,0.4-0.3c0.3-0.3,0.6-0.5,0.8-0.8c0,0,0.2-0.2,0.2-0.2
		c1.3-0.2,2.2-0.9,2.9-2.1c0,0,0.4-0.3,0.4-0.3c0.3-0.3,0.6-0.5,1-0.8c0,0,0.1-0.1,0.1-0.1c0.6-0.4,1.2-0.7,1.8-1.1
		c0,0,0.4-0.2,0.4-0.2c0.3-0.2,0.7-0.5,1-0.7c0,0,0.1-0.1,0.1-0.1c0.8,0,1.5-0.2,1.9-1.1c0.4-0.2,0.8-0.3,1.2-0.5
		c0.3-0.2,0.6-0.4,1-0.6c0,0,0.2-0.1,0.2-0.1c1.6-0.2,3-0.8,4.1-2.1c0,0,0.2-0.1,0.2-0.1c1.6-0.1,3-0.8,4.2-1.8c0,0,0.3-0.1,0.3-0.1
		c7.4-2.2,14.7-4.4,22.5-5.1c12.2-1.1,24.4-0.2,36.6-0.6C548,132,547.9,133.1,547.4,134.4z"/>
	<path class="st0" d="M238,546.1c11.2,8.1,18.4,19.8,26.7,30.4c2.4,3,5.3,5.5,7.5,8.6c-17.9,3.9-33.7,11.8-47.5,23.9
		c-3.2,2.8-6.5,5.7-8.3,9.8c-2.2,1.9-1.6,5.4-4.1,7.2c-43.1-2-86.2-0.4-129.2-0.9c-1.4,0-3.7,0.9-4.1-1.3c-0.4-2.3,2.1-1.3,3.1-2
		c0.7-0.5,1.4-1.1,2.1-1.7c-0.7,3.8,1.6,4.2,4.5,4.1c14.4-0.5,28.8-1,43.1-1.4c11.6-0.3,22.4-2.7,31.1-11.4c2.4-2.4,5.3-4.4,7.8-6.7
		c9.1-8.2,12.2-18.4,9.5-30.4c9.5-0.1,18.6,2.7,27.8,4.2c1.2,0.2,2.5,0.3,3.7,0.5c3.9,4.7,7.8,2.9,11.6-0.1c3.1-2.4,6-4.9,9.2-7.4
		c-2.3-2.8-4.9-5.4-8.1-7.5c-5.4-3.6-10.6-7.3-15.9-10.9l0.3-0.4c3.6,1.5,7.3,2.8,10.8,4.5c2,0.9,2.9,0.2,4.4-1.3
		c4-3.9,2.7-8.7,3.1-13.2c3.3,0.9,6.5,1.7,9.8,2.6c0,0-0.1-0.2-0.1-0.2C236.6,546,237.5,545.9,238,546.1z"/>
	<path class="st0" d="M739.4,469.3c5.9,0.6,11.8-0.7,17.7,0.9c2.3,0.6,3.6-0.9,4.2-3.2c1.1-3.9,2.2-7.7,3.5-11.5
		c0.6-1.8,1.2-3.9,3.2-4.8c-2.1,7.2-4.2,14.3-6.2,21.5c-0.5,1.7-1,3.3,0.8,4.9c11.5,9.8,18.4,22.7,23.6,36.7
		c2.8,7.7,5.2,15.5,7,23.5c0.9,4.2-0.6,5-3.9,4.2c-4.1-0.9-8.2-1.3-12.3-0.9c-3.6,0.3-5-1.1-6-4.4c-3.6-12.2-7.5-24.4-11.3-36.5
		c-0.4-1.3-1.1-2.5-2.1-4.7c-3.3,11.7-4.8,22.8-6.2,33.9c-0.5,4-0.9,8-1.3,12c-0.2,1.9-0.7,3-2.7,3.6c-7.1,2-14.1,4.1-21.1,6.2
		c0.8-10.1-0.9-19.9-2.5-29.8c0.1-4.4,0.1-8.7,0.2-13.1c0-0.4,0-0.7,0-1.1c0-1.8,0.1-3.7,0.1-5.5c0.5-50.1-0.7-100.2,1.2-150.3
		c3.3,1,3.3,4.7,5.4,6.7c0.1,28.4,0.1,56.9,0.2,85.3c0.1,11,0.1,22,0.2,32.9c0.2,5.1,0.3,10.2,0.5,15.3c-1.4,4.6-0.6,9.4-0.3,14.1
		c-0.7-4.8,1.9-9.2,1.4-14c0.4-3.9,1.9-7.5,2.5-11.5c1.5-9.5,3.1-19.1,7-28C743.2,457.9,739.7,463.4,739.4,469.3
		c-0.1,0.2-0.1,0.3-0.2,0.5C739.2,469.6,739.3,469.5,739.4,469.3z"/>
	<path class="st1" d="M532.5,345.2c4.5,35.6,1.4,71.4,1.3,107.1c0,19.8,0.1,39.7-1.6,60.1c-3.3-3-5.1-6.4-6.3-10.2
		c-0.4-2.1-0.4-4.4-3-5.1c-0.3-0.1-0.4-0.3-0.4-0.7c-2.2-11.5-8.8-20.5-15.8-29.4c-1.9-3.1-2.3-7.5-6.5-9
		c-6-40.7,3.8-77.1,28.9-109.4C530.1,347.4,531.3,346.3,532.5,345.2z"/>
	<path class="st0" d="M273.6,584.9c2.8-4.5-0.6-8.5-1.4-12.6c-6.3-32-24.5-56.6-47.3-78.4c-1.2-1.1-2.4-2.1-3.1-3.7
		c0,0,0.1-0.1,0.1-0.1c2.5-0.1,3.8,1.8,5.4,3.3c13.1,12.1,25.5,24.7,34.3,40.6c2.1,3.8,4,3.2,6.7,0.8c4.9-4.4,6.1-8.7,3.9-15
		c-0.3-0.9-0.6-1.7,0.3-2.8c4,2,4.6,7.1,8.8,10.2c5-37.4,2.2-74.7,4.5-111.7c0.9-1.4,1.6-0.9,2.4,0.1c19,21.6,29.4,46.1,25.6,75.6
		c-0.4,3.2-1.8,5.8-3.6,8.4c-8.1,11.4-14.5,23.7-18.4,37.3c-0.5,1.7-0.1,2.7,0.4,4c0,0,0.1-0.1,0.1-0.1c-3.8,6.1-3.4,13.2-4.9,19.9
		c-1.9,7.8-1.9,15.8-1.3,23.8C281.9,584.5,277.7,584.7,273.6,584.9z"/>
	<path class="st1" d="M728.5,7.1c-1.4,1.6-0.8,3.5-0.9,5.2c-0.1,23.8-0.1,47.6-0.3,71.4c-0.1,13.7-0.7,27.4-1,41.1
		c-0.1,2.2-0.1,4.4-1.5,6.3c-10.9-0.1-17.7-7.2-23.9-14.8c-6.2-7.5-10.2-16.2-12.5-25.7c-0.4-3.3-0.8-6.6-1.2-9.9c0-2.9,0-5.9,0-8.8
		c0.1-1.8,0.3-3.6,0.4-5.4c1.4-11.8,5.8-22.3,12.7-31.8c7.5-10.3,17.1-18.5,25.7-27.7C727,5.9,727.7,5.8,728.5,7.1z"/>
	<path class="st1" d="M838.9,124.6c-11.2,8.4-20.2,19.2-30,29.1c-18.2,18.2-35.8,37-53.2,56c-1,1.1-2.1,1.9-3.2,2.9
		c-4.4-3.9-5.4-9.5-6.4-14.7c-7.9-42.1,23.2-71.1,53.1-73.7c12.4-1.1,24.8-0.6,37.2-0.8C837.2,123.4,838.6,123,838.9,124.6z"/>
	<path class="st0" d="M467.4,534c13.9,12.8,28.2,25.2,34.9,43.9c-15.7,0.2-31.1,2.7-46,7.5c-4.6,1.5-8.4,0.9-12.7-1.8
		c-9.9-6.2-20.2-11.8-30.2-17.8c-2.9-1.7-5.7-3.8-8-6.4c4.1-1.7,7-4.9,10.1-7.9c3.5-3.4,5.7-8.3,11.7-9.3
		c-11.2-6.2-22.8-8.3-34.4-10.7c4.8-1.2,9.3,0.2,13.8,1c9.3,1.7,17.7,6.2,26.5,9.2c2.4,0.8,4.8,1.8,5.2-2c0.8-6.5,3-12.8,2.1-19.5
		c9.1,2.1,16.8,7.4,24.9,11.8c0,0-0.1-0.1-0.1-0.1C466,532.7,466.7,533.3,467.4,534z"/>
	<path class="st1" d="M783.9,343.1c-14.7-4.8-27.2-22.2-28.2-39.5c-0.5-7.5-0.2-15,0.3-22.5c0.3-4,0.3-8-2.4-11.7
		c10.8,0.3,21.1-2.4,31.5-1.2c10.8,1.2,21.3,3.4,29,12.2c-0.3,13.7-5.3,26.3-9.9,38.9c-1.2,3.3-3,3.2-4.9,0.4
		c-2.2-3.3-5-6.1-8.3-8.2c2.5,5,5.6,9.4,8.4,14c1.2,2,2.4,4.3,0.8,6.6C796.2,338,792.4,344.3,783.9,343.1z M779.5,296.9
		c0.1,0.2,0.2,0.4,0.3,0.5c0-0.1,0-0.2,0-0.3C779.7,297.1,779.5,297,779.5,296.9c-0.8-0.9-1-2.5-2.8-2
		C777.2,296.2,778.1,297,779.5,296.9z M787.9,308.1c0.3,0.6,0.7,1.1,1,1.7c0.2-0.2,0.4-0.3,0.7-0.5c-0.5-0.5-1-1-1.4-1.4
		c-0.3-2.1-1.8-3.2-3.2-4.4c-0.5-2-1.6-3.4-4.6-4.4c1.3,2.6,2.1,4.2,4.3,4.7C784.9,305.9,785.6,307.6,787.9,308.1z"/>
	<path class="st1" d="M180.3,574.3c2.7,12-0.4,22.2-9.5,30.4c-2.6,2.3-5.4,4.3-7.8,6.7c-8.7,8.6-19.5,11-31.1,11.4
		c-14.4,0.4-28.8,0.9-43.1,1.4c-2.9,0.1-5.2-0.3-4.5-4.1c21.1-24.8,47.2-40.7,79.5-45C169.2,574.4,174.7,573.3,180.3,574.3z"/>
	<path class="st0" d="M606.5,238.8c1.3,0.5,2.5,0,3.4-0.9c9.3-8.8,19.2-16.8,29.4-24.4c2.6-1.9,2.4-6.6,6.7-6.5c0,16-9,28.3-25,33.9
		c-5.3,1.8-10.7,3.1-15.4,6.3c-2.7,1.8-3.8,3.8-3.8,7.1c0.1,16.1,0,32.2,0,48.3c0,1.3-0.6,2.9,0.8,4c2.1-1.3,3.2-3.4,4.3-5.4
		c1.3,0.3,2.4,0.3,3.4-0.8c5.5-6.3,12.5-10.8,18.9-16.1c5.5-4.5,10.6-9.6,17.2-12.4c-0.3,2.1-0.2,4.3-0.9,6.4
		c-4.3,12.9-13.1,20.9-25.6,25.3c-4.2,1.5-8.4,3.2-12.4,5.1c-4,1.9-5.9,4.9-5.8,9.9c0.3,15.3,0.1,30.6,0.1,45.9
		c0,1.3-0.7,2.9,1.2,4.1c1.7-2.3,3.4-4.6,5.1-6.9c1.7,1.6,3.4,1.8,5.6,0.6c4.8-2.6,10.1-3.6,15.4-4.8c-1.6,3.8-5.9,3.2-8.4,5.5
		c-2.2-0.5-2.1,0.7-1.5,2.2c-1.3-1.1-2.4-0.7-3.8,0c-8.9,4.5-15,10.1-13.9,21.9c1.1,12.5,0.2,25.2,0.2,37.8c0,1.1,0,2.2,0,3.3
		c-0.2,3.1-2.4,4.2-4.8,4c-2.5-0.2-1.2-2.6-1.2-3.9c-0.1-14.8,0-29.6,0.1-44.4c0-9.1-2.1-12.2-10.8-15.6c-5.6-2.2-11.8-3.2-16.5-7.6
		c1.6-1.8,0.9-4.2,1.7-6.3c1.4,0.4,2.7,0.7,4,1.1c1.4,0.4,2.8,0.7,4.1,1.2c6.4,2.6,6.8,2.4,6.7-4.8c4.3,4.9,5.3,11.9,9.9,17
		c1.4-1.7,1.1-3.2,1.1-4.5c0.1-15.5,0-30.9,0.2-46.4c0.1-6.3-5.6-7.4-8.3-11.1c4.2,0.1,2.9-3.4,3.5-5.7c1.4,1.7,1.7,4.2,4.5,5.7
		c0.2-2.3,0.4-4.3,0.4-6.4c0.1-15.1-1-30.2,0-45.3c0.2-3.6-1.4-5.8-4.1-7.5c0.1-2,0.2-4,0.3-6.1c1.4,0.6,3.5,4.9,3.6-0.7
		c0.1-0.1,0.4-0.1,0.4-0.2c-0.1-0.2-0.2-0.5-0.2-0.7c0-0.9,0.1-1.7,0.1-2.6c0.7-1.8,0.6-3.5,0-5.3c0-1,0-2.1,0-3.1
		c0-0.4,0-0.9,0-1.4c0-7.2-0.1-14.5-0.1-21.7c2.7,0.5,1.9,2.7,2,4.3c0.1,3.9,0,7.7,0,11.6c0.5,0,1,0,1.5,0
		c-1.5-8.2-1.5-16.5-0.9-24.7c0.3-3.8-1.3-8.3,2.8-11.1c-0.1,0.9-0.3,1.7-0.4,2.5c-0.7,5.4-0.7,10.8,0.1,16.2c0,1.1,0,2.2,0.1,3.3
		c-0.6,4.4-1,8.8,0.2,13.2c0.1,7.5,0.2,15.1,0.3,22.6c0.5,0.9,1,0.7,1.3-0.2C604.4,242.2,605.8,240.8,606.5,238.8z"/>
	<path class="st0" d="M493.4,325.7c1.6,19.9,2.5,39.7,2.4,59.7c0,9.7-3.1,19.1-3.2,28.7c-0.1,11.1,0,22.3,0,33.7
		c-2.9,0.2-4-2-5.4-3.4c-8.1-8.4-17.3-15.2-28.2-19.6c-3.6-1.4-5.4-4.1-6.7-7.8c-3.9-11.6-6.8-23.4-8.4-35.5c4.7-0.3,8-3.1,10.8-6.6
		c4.5,13.5,8.9,27,13.6,40.5c1.8,5.1,4.1,9.9,6,15.1c-1.1-17.8-1.6-35.6-1-53.3c6.6-1.4,8.2-6.3,8.6-12.3c0.5-8,1.5-16,2.2-24
		c0.3-3.6,1-6.6,5.4-6.7c2.3-0.1,3-1.6,3.1-3.7C492.5,328.9,492.3,327.1,493.4,325.7z"/>
	<path class="st1" d="M90.1,410.1c-8.5-2.7-16.8-6.2-24.8-10.2c-9.5-4.8-19.7-7.4-29.6-10.9c-0.2,0.4-0.4,0.9-0.6,1.3
		c7.4,3.7,14.9,7.3,22.3,10.9c1,0.5,2,0.8,3,1.3c6.3,3.1,6.6,3.8,4.5,10.6c-0.6,1.9-1.2,3.9-1.3,5.8c-0.1,5.3-1,9.9-7.4,10.7
		C42.9,427.8,31,417.8,27.9,401c-1.1-5.9-0.9-12.1-4.4-17.3c-0.8-1.2-0.7-2.6,1-3c9.8-2.3,17.9-8.9,28.2-10.6
		c22.5-3.7,38.2,9.2,38.3,32.5C91,405.1,91.4,407.7,90.1,410.1z"/>
	<path class="st1" d="M688.5,518.4c-1,8.3-7.2,10.7-14,12.2c-12.5,2.8-24.7,6.4-36.4,11.4c-18.8,8.1-34.9,20.3-50,33.9
		c-5.2,4.7-11,8.1-17.3,11c-1.6,0.7-3.6,1.6-5-0.1c-1.2-1.5,0.1-3,0.9-4.5c5.6-10.2,11-20.5,19.2-28.9c0-0.5,0.3-0.8,0.8-0.7
		c0,0-0.1,0-0.1,0c0.4-0.4,0.8-0.7,1.2-1.1c0,0-0.1,0-0.1,0c9.2-5.4,17.1-12.2,23.5-20.9c1.9-1.5,4.5-2.1,5.9-4.3
		c0.7-0.4,1.5-0.8,2.2-1.1c0.5-0.3,1-0.5,1.5-0.8C642.7,514.9,665.3,513.9,688.5,518.4z"/>
	<path class="st0" d="M685.9,472.7c7.7-1.9,16.4-1.3,21.9-8.8c0.8,2.2,1.7,4.4,2.5,6.6c6,16.2,8,33.4,11.4,50.3
		c1.6,10.2,3.4,20.4,2.8,30.9c-6.8,3.9-13.7,7.8-21.1,12C696.5,533.4,694.1,502.5,685.9,472.7z"/>
	<path class="st0" d="M780.4,445.2c2.4,1.8,4.5,3.8,8,3.4c2.1-0.3,4,1.4,5.6,2.9c1.3,1.2,2.6,2.5,4.2,3.3c1.5,0.7,3.4,2,5.1,0.8
		c1.9-1.4,0.5-3.3,0-5c-0.6-2.3-1.5-4.5-1-6.9c5.7,11.9,8.3,24.7,10.7,37.6c4,21.6,4.2,43.5,4.1,65.8c-6.1-1.5-12.2-3.5-18.5-4.2
		c-2.1-0.2-1.8-1.8-2-3.3c-2.1-17.5-4-35.1-6.4-52.6C788.4,472.7,784.3,459,780.4,445.2z"/>
	<path class="st1" d="M652.1,583.9c3.8,5,7.4,10.1,9.4,16.2c1,2.9,0.9,5.3-1.2,7.5c-4,4.2-7.8,8.7-11.9,12.7
		c-3.7,3.6-8.7,3.4-13.3,3.6c-7.7,0.4-15.5,0.1-23.3,0.2c-2.8,0-5.8-0.2-8,2.3c-4.5-4.7-8.9-9.4-13.5-14c-1.5-1.5-2.2-2.5-0.2-4.3
		C607.8,592.2,628,582.9,652.1,583.9z"/>
	<path class="st1" d="M286,584.3c-0.7-8-0.6-15.9,1.3-23.8c1.8-6.6,5-12.8,4.9-19.9c0,0-0.1,0.1-0.1,0.1
		c5.7-10.1,11.1-20.5,17.3-30.4c8.2-12.9,18.8-23.5,33.5-28.7c5.9-2.1,12-3.6,18.4-3.7c7.5-0.2,15.1,0.1,22.6-0.9
		c0.7-0.1,2-0.7,1.9,0.8c0,0.4-1.1,0.8-1.7,1.2c-1.1-1-0.7,0.4-1,0.7c0.2,0.2,0.2,0.4,0,0.6c-43.2,12.7-67.7,44.5-84.4,84.4
		c-2.8,6.6-3.4,14.3-8.7,19.7C288.6,584.3,287.3,584.3,286,584.3z"/>
	<path class="st1" d="M947.5,310.2c-6.8,0.5-12.6,4.1-18.7,6.6c-16.4,6.4-31.2,15.9-46.5,24.5c-2.7,1.5-5.2,3.5-8.5,3
		c-6.9-21.3,2.4-49,31-51c10.5-0.7,20.3,1.3,29.3,7c4.7,2.9,9.2,6.5,15.1,6.7c0.1,0.9,0.2,1.7-0.8,2.2c-0.4,0.4-0.8,0.7-1.1,1.1
		L947.5,310.2z"/>
	<path class="st0" d="M168.8,456.2c0.8,0.6,1.2,1.4,0.8,2.3c-1.2,2.7-2.3,5.2,0.8,7.5c3.1,2.3,6,5.2,10.4,3.3
		c-2.9,10.5-7.5,20.5-8.9,31.3c-2,15.1-4.4,30.2-4.3,45.5c0,6.5-1.9,13-1.2,19.6c0.2,1.6-0.3,2.1-2,2.4c-5.2,0.7-10.4,1.2-15.4,2.5
		c-3.3,0.9-1.9-1.4-2.3-2.5c0.4-12.8,0.9-25.7,1.3-38.5C150.7,504,156.9,479.3,168.8,456.2z"/>
	<path class="st1" d="M196.9,355.3c-3.5-0.4-5.6,2.2-7.9,4.1c-16.4,13.3-32.6,26.8-47,42.4c-0.3,0.4-0.9,0.5-1.4,0.7
		c-10.3-10.7-14.3-39.8,6.9-51.7c11-6.2,22.5-5.3,34.1-3.2c4.6,0.8,9,2.3,13.6,3.2C198.6,351.4,198.5,353,196.9,355.3z"/>
	<path class="st0" d="M885.5,490.4c6.6-4.4,12.3-10.1,19.5-13.6c-0.7,3.7-5.1,4.3-6.4,7.8c2.9,0,5.3,0.6,7.5,2.7
		c1.8,1.7,4,3.1,6.7,3.4c-12.2,9.1-23,19.9-32,32.2c-6.8,9.2-11.8,19.9-15.7,30.8c-1.9,5.3-3.5,10.6-6.4,15.5
		c-4.4-3.2-8.4-6.6-12.8-9.2c-2.4-1.4-2.1-2.9-1.7-4.9c0.9-3.7,1.8-7.3,2.6-11c5.5-14.1,13.5-26.6,22.7-38.4
		C874.8,500.6,880.1,495.5,885.5,490.4z"/>
	<path class="st1" d="M131.1,326.5c-7.1,2.8-14.4,4.2-21.9,5.2c-3.7,0.5-3.9-2-4.2-4.2c-0.6-5.4-1.8-10.7-2.2-16.1
		c0,7.6-0.6,15.2,0.2,22.7c0.6,6.4,0.1,12.8,1,19.1c0.6,4.1-3.5,2.2-4.5,4.1c-12.6-1.8-22.7-17.1-21.2-31.5
		c1.2-11.7,7.9-19.4,16.6-26.3c4.8-3.8,8.6-5.1,14.1-1.5c9.7,6.4,19.7,12.3,21.8,25.3C131.1,324.3,131.1,325.4,131.1,326.5z"/>
	<path class="st1" d="M493.4,325.7c-1.1,1.4-0.8,3.1-0.9,4.7c-0.1,2.1-0.9,3.6-3.1,3.7c-4.4,0.2-5.1,3.2-5.4,6.7
		c-0.7,8-1.7,16-2.2,24c-0.4,6.1-2,10.9-8.6,12.3c-0.4-23.2,0.5-46.4,1.5-69.6c0.8-18.4,1.4-36.9,4.8-55.1c0.8-4.6,0.7-9.4,2.9-14.3
		c3.9,4.5,4.6,9.8,5.3,14.9C490.9,277.2,492.5,301.5,493.4,325.7z"/>
	<path class="st1" d="M863.8,213.2c2.9,5.7,0.4,11.6-0.1,17.2c-1.5,17.5-4.3,35-8.8,52c-0.5,1.7-1.1,3.5-2.6,4.7
		c-14.1-5.3-21.6-16.3-22.6-30.9c-1-15.2,5.9-27.1,18.9-34.9C853.5,218.2,858.7,215.9,863.8,213.2z"/>
	<path class="st1" d="M376.6,596.3c2.9,0,5.8,0,8.7-0.1c0.4,0,0.7,0.1,1.1,0.1c0.4,0.1,0.9,0.3,1.3,0.4c0.5,0.9,1.3,0.9,2.1,0.8
		c0,0,0.1-0.1,0.1-0.1c-0.9,3.6-2.6,6.7-4.5,9.8c-4.5,7.2-10.9,12.6-16.4,18.9c-2.1,2.4-4.5,3-7.5,3.5c-15.3,2.2-30.6-0.7-45.8,0
		c-1.5,0.1-3.4,0.4-4-1.8c8.3-6.9,15.7-14.9,25.2-20.4c12.2-7.1,25.1-10,38.8-11C375.9,596.4,376.2,596.4,376.6,596.3z"/>
	<path class="st1" d="M222.7,622.9c5.2-8.5,13.3-13.8,21.2-18.9c16.4-10.3,34.6-13.9,53.7-12.6c1.3,2.2,0,4.3-0.6,6.3
		c-2.3,7.8-8.5,13-12.9,19.4c-3.5,5.2-8.1,7.1-14.2,7.1c-12.8,0.1-25.6-0.7-38.3,0.9C228.9,625.4,224.7,627.5,222.7,622.9z"/>
	<path class="st1" d="M440.6,520.3c0.8,6.7-1.3,13-2.1,19.5c-0.5,3.8-2.9,2.8-5.2,2c-8.9-3.1-17.3-7.6-26.5-9.2
		c-4.5-0.8-9-2.2-13.8-1c11.6,2.4,23.2,4.5,34.4,10.7c-6,1-8.2,5.9-11.7,9.3c-3.1,3-6,6.3-10.1,7.9c-8.1-6.5-14.5-13.9-16.4-24.9
		c-0.7-4-4-7.6-6.1-11.4c-0.9-1.7-1.9-3.4-3.1-5.7C400.4,518.9,420.8,512.4,440.6,520.3z"/>
	<path class="st1" d="M208.5,553.1c5.3,3.7,10.6,7.4,15.9,10.9c3.2,2.1,5.8,4.7,8.1,7.5c-3.1,2.5-6.1,5-9.2,7.4
		c-3.8,3-7.7,4.8-11.6,0.1c-4.7-4.2-9.3-8.4-14-12.6c-3-2.6-5.3-5.8-7.6-9c-1.3-1.8-2.8-3.6-5.2-1.3c-4.1-3.2-6-7.8-7.6-12.6
		c0-9,0.3-9.2,9.2-9.4c1.2,0,2.5-0.1,3.7-0.2c1.7,1.5,3.7,1,5.6,1.3c9.5,1.3,19.2,2,28.1,6.5c0.7,1.6,2,1.2,3.3,1.2l-0.1-0.2
		c-0.4,4.5,0.9,9.4-3.1,13.2c-1.5,1.5-2.4,2.2-4.4,1.3c-3.5-1.6-7.2-3-10.8-4.5c-0.4-0.2-0.9-0.5-1.3-0.7c-0.1,0-0.2,0.2-0.3,0.4
		C207.7,552.6,208.1,552.8,208.5,553.1z"/>
	<path class="st1" d="M97.3,502.1c1.2,8.1-2,12.1-9.9,12.2C74,498.3,58,485.8,39.1,477.4c-8.2-3.7-16.9-6.1-25.7-7.9
		c-1.5-0.3-4.1,0.4-4.2-1.5c-0.1-2.4,2.7-2.6,4.5-2.8c9.9-1.1,19.7-1.6,29.6,0.6c22,4.9,39.3,16.9,52.8,34.9
		c0.4,0.6,0.7,1.1,1.1,1.7L97.3,502.1z"/>
	<path class="st1" d="M873.2,448.5c-4.5-4.3-12.4-4.6-14-12.3c0,0,0,0.1,0,0.1c2.4,0.1,2.5-1.5,2.4-3.3c0,0-0.1,0.1-0.1,0.1
		c1.1-0.4,1.3-1.3,1.1-2.4c0,0,0,0.2,0,0.2c0.4-0.6,0.8-1.2,1.2-1.8l-0.2-0.3c0,0,0.3-0.3,0.3-0.3c0.3-0.4,0.6-0.8,0.9-1.3
		c15.7-24.8,34.9-45.8,60.1-60.6c0.7,0.6,1.4,1.2,2.1,1.8C906.1,393.2,889.4,420.7,873.2,448.5z"/>
	<path class="st0" d="M222.7,622.9c2,4.6,6.2,2.6,9,2.2c12.8-1.6,25.6-0.8,38.3-0.9c6.1,0,10.7-1.9,14.2-7.1
		c4.4-6.4,10.6-11.6,12.9-19.4c0.6-2.1,1.8-4.1,0.6-6.3c12.3,1.1,24.2,3.6,35,11.3c-10.9,6.1-20.2,13-26.7,23.2
		c-1.2,1.5-2.4,2.9-3.7,4.4c-11.8-0.2-23.5-1.8-35.2-3.1c-1.8-0.2-3.5-0.2-5.3-0.4c-13.7-1-27.4-0.3-41.1-0.4l-0.3-0.2
		c0,0-0.4,0-0.4,0c0-0.3-0.1-0.5,0-0.8C221.5,625.3,221.6,623.5,222.7,622.9z"/>
	<path class="st1" d="M233.8,150.7c-0.8,1.5-0.4,3-0.1,4.5c-8.6-3-17.7-5.3-25.8-9.3c-14.5-7.2-22.8-19.6-26.1-35.6
		c-0.6-3.1-0.3-4.2,3.7-3.8c19.1,2,31.8,12.4,40.1,29.3c2.1,4.4,4,8.9,7,12.8c-0.2,0.3-0.3,0.7-0.5,1c0.3,0,0.5,0.1,0.8,0.1
		c0,0-0.1,0-0.1,0c-0.1,0.9,0.2,1.3,1.1,1.2L233.8,150.7z"/>
	<path class="st1" d="M389.8,548.4c-16.8,2.2-32.2,8.4-46.1,18.2c-3.8,2.7-7.5,5.7-11.4,8.3c-4.8,3.2-11.7,2.7-15.7-0.7
		c-1.5-1.3-0.4-2.3,0.1-3.3c2.5-5,5.1-10,9.5-13.8c0.9,0.1,1.8,0.1,1.7-1.2c0,0-0.1,0-0.1,0c3.2,0.7,4.4-2.1,6.3-3.7
		c0.8-0.5,1.6-1.1,2.5-1.6c0.4-0.3,0.9-0.6,1.3-0.9c0,0-0.1,0.1-0.1,0.1c0.9-0.1,1.7-0.5,2.1-1.4c13.2-8.3,27.7-11.5,43-10.8
		c5,0.3,7.6,4.3,7.5,9.6c-0.3,0.4-0.6,0.7-0.9,1.1L389.8,548.4z"/>
	<path class="st0" d="M783.9,343.1c8.6,1.1,12.4-5.1,16.4-11c1.7-2.4,0.4-4.6-0.8-6.6c-2.8-4.6-5.9-9-8.4-14c3.3,2.1,6,4.9,8.3,8.2
		c1.9,2.8,3.7,2.9,4.9-0.4c4.6-12.6,9.6-25.2,9.9-38.9c12.6,12.9,14.9,28,9.4,44.8c-0.3,0.8-0.8,1.7,0.1,2.4c0,0,0.1-0.1,0.1-0.1
		c-0.6-0.9-1.1-0.2-1.4,0.2c-0.1,0.2,0.2,0.7,0.3,1.1c-2.6,5.9-6.2,10.9-12.6,12.9c-1.3,0.4-2.1,1.2-2.6,2.5
		C799.5,346.9,791.6,346.6,783.9,343.1z"/>
	<path class="st0" d="M311.6,627.8c0.6,2.2,2.5,1.9,4,1.8c15.3-0.7,30.5,2.2,45.8,0c3-0.4,5.4-1,7.5-3.5
		c5.5-6.3,11.9-11.6,16.4-18.9c1.9-3.1,3.7-6.2,4.5-9.8c10.7,0.5,20.3,4.5,30.4,9.3c-9.8,6.6-17.4,15-25,23.3
		c-2,2.1-4.1,3.1-7.1,2.9c-23.9-1.8-47.9-0.8-71.8-1.2c-1.9,0-3.9-0.4-5.8-0.6c-0.4-0.5-0.9-1.1-1.3-1.6
		C309.9,629,310.8,628.4,311.6,627.8z"/>
	<path class="st1" d="M591.1,301.2c-0.6,2.2,0.7,5.7-3.5,5.7c-4.9-1.6-9.9-3-14.8-4.7c-13-4.4-23.2-20.1-23-34.6
		c0-3.2,1.7-2.7,3.4-2.3c10.2,2,19.8,5.4,26.5,14.1c4.6,5.9,8,12.4,10.4,19.6c0.2,0.9-0.1,2.1,1.1,2.6L591.1,301.2z"/>
	<path class="st1" d="M243.5,90.4c-0.1-1.9-3.6-0.1-3-2.8c4.8-2.7,7-7.5,8.1-12.3c3.5-15.3,13.8-23.3,27.8-27.5
		c8.8-2.7,9-2.6,7.2,7.1c-2.7,14.7-10.3,25.5-24.6,30.7C253.9,87.3,248.7,88.7,243.5,90.4z"/>
	<path class="st1" d="M592.2,241.6c-0.1,2-0.2,4-0.3,6.1c-4-2-8.1-3.9-12.4-5.3c-15.6-5-25.2-15.5-28.1-32c-0.4-2.1-0.8-4.3-1.2-6.4
		c0-0.2,0.1-0.3,0.1-0.5C571,204.1,587.6,219.2,592.2,241.6z"/>
	<path class="st1" d="M232.7,85.9c-0.4,1.5-0.7,3-1.1,4.5c-10.1-3.1-20.6-5.4-28.4-13.3c-7.1-7.2-11.5-16-12.9-26.2
		c-0.4-3.2-0.6-4.8,4-4c16,3,26.4,12.5,32.8,27.2c1.1,2.5,2.3,4.9,3.4,7.4c0.3,0.9-0.1,2.1,1.2,2.4c0,0,0-0.1,0-0.1
		c-0.1,1-0.4,2.1,1.1,2.3L232.7,85.9z"/>
	<path class="st1" d="M912.8,490.7c-2.6-0.3-4.9-1.7-6.7-3.4c-2.2-2.1-4.6-2.7-7.5-2.7c1.2-3.5,5.7-4.1,6.4-7.8c0,0-0.1,0.2-0.1,0.2
		c0.4-0.4,0.7-0.7,1.1-1.1c21.6-15.1,44.8-20.3,70.2-10.4c-23.3,2-43.4,12.4-62.7,24.6c-0.6-0.6-0.7-0.1-0.9,0.3L912.8,490.7z"/>
	<path class="st1" d="M219.6,192.4c0.7,2.8,1.4,5.7,2,8.5c0.4,2-0.5,3.2-2.3,1.7c-5.5-4.7-10.5-3.1-15.7,0.4
		c-1.2,0.8-3.1,0.4-4.7,0.6c0,0,0.3,0,0.3,0c-0.6-0.4-1.2-0.8-1.8-1.2c-11.3-7.4-15-19.3-17.6-31.7c-0.3-1.5,0.2-2.6,2-2.3
		c15.7,2.5,30.2,7,37.8,23.1c0.1,0.3,0.1,0.7,0.2,1L219.6,192.4z"/>
	<path class="st0" d="M93.7,555c5.3,9.5,9.3,19.6,11.7,30.3c0.6,2.6,0.9,5-1.8,6.8c-5.7,3.7-11.2,7.7-16.5,13.1
		c-0.4-2.3-0.6-3.7-0.9-5.2c-3.2-15.1-5.2-30.5-10.4-45.1c0.9,0.2,1.8,0.1,2.5,0.6C82.6,558.1,89.5,558,93.7,555z"/>
	<path class="st0" d="M944.5,411.2c-6.1,5.3-12,11-16.5,17.6c-9.6,14-21.9,25.7-31.5,39.6c-3.7,5.3-7.4,10.7-11.1,16
		c-4.1,3.6-7.9,7.8-12.9,10.4c-3.2-2.4,0.2-3.9,1.1-5.1c7.3-9.7,14.7-19.4,22.4-28.8c3-3.6,3.5-5.4-1.1-8.1
		c-6.5-3.9-8.9-15.2-5.8-22.1c1-2.2,2.6-2.3,4.4-1.6c4.7,1.8,6,6,7.1,10.2c1.1,4.3,1.4,8.6,1,14.7c5.7-5.5,9.8-10.7,13.2-16.5
		l-0.1,0.1c6.4-6.5,11.7-13.9,17.5-20.9c1.7-0.9,1.8-3,3-4.3C938.4,412.3,941.3,410.3,944.5,411.2z"/>
	<path class="st1" d="M593.2,183.8c-9.9-4.8-20.3-8.9-27.1-18.2c-4.2-5.9-8.2-12-7-20c0.3-2.2,0.1-2.7,3-1.9
		c13.5,3.7,21.1,13.4,27,25.2c1.5,3,3.7,5.8,4.1,9.3C593.5,180.1,593.9,182,593.2,183.8z"/>
	<path class="st1" d="M584.6,351.8c0.2,7.1-0.3,7.4-6.7,4.8c-1.3-0.5-2.7-0.9-4.1-1.2c-1.3-0.4-2.6-0.7-4-1.1
		c-0.8,2.2-0.1,4.5-1.7,6.3c-9.7-6.2-13.5-16.1-16.1-26.7c-0.5-2.2-1.9-4.4-0.7-7.1c11.8,4.1,24.2,7.2,30.7,19.8
		c0.1,0.4,0.2,0.7,0.2,1c0,0,0-0.2,0-0.2c0.4,0.7,0.7,1.4,1.1,2.1c0,0,0.1,0.2,0.1,0.2C583.9,350.4,584.3,351.1,584.6,351.8
		L584.6,351.8z"/>
	<path class="st1" d="M292.4,106.6c-1,4.8-4.4,7.9-7.9,10.7c-11.9,9.4-23.6,19.1-35,29c-1.1,0.9-2,3.1-3.9,1.2
		c5.6-14.9,11.1-29.9,27.1-37C278.9,107.8,285.5,106.2,292.4,106.6z"/>
	<path class="st1" d="M294.5,168.4c-2.6,6.7-8.6,10.1-13.7,14.4c-9.6,8.2-19.8,15.8-29,24.5c-1.4,1.3-2.7,4.2-4.9,0.9
		c3.6-7.7,6-15.9,11.2-22.9C267.3,173,280.4,169.7,294.5,168.4z"/>
	<path class="st1" d="M454.6,374.9c-2.8,3.5-6.1,6.3-10.8,6.6c-0.8-0.6-1-1.4-0.8-2.3c0.6-0.3,1.6-0.3,1.2-1.3
		c-0.1-0.3-0.9-0.4-1.4-0.5c-4.2-14.2-5.8-28.8-6.5-43.6c-0.1-2.1,0.1-4.7,2.1-5c2.2-0.4,3.1,2.2,3.6,4.1
		C446.2,346.8,451.6,360.5,454.6,374.9z"/>
	<path class="st1" d="M120,486.8c-0.3,4.6-3.9,5.7-7.4,6.6c-2,0.5-3.8,0.8-5.1,2.6c-6.1-11.5-12.2-23-18.4-34.5
		c-0.7-1.3-1.6-2.9-0.5-4c1.2-1.2,2.6,0.1,3.9,0.6c8.2,3.5,14,10,19.6,16.6c2.9,3.4,5.6,7,7.5,11.1c-0.1,0.1-0.2,0.3-0.2,0.4
		c0.1,0.3,0.3,0.5,0.5,0.7L120,486.8z"/>
	<path class="st1" d="M73.9,549.5c-4.2-6.3-6-13.9-10.8-19.8c1.1-2.7-2.8-5.6,0.5-8.1c13.7,7.8,23.2,19.5,30.1,33.5
		c-4.3,3-11.1,3.1-15.3,0.4c-0.7-0.4-1.7-0.4-2.5-0.6c-0.6-0.4-0.7-1-0.4-1.7c0.5-0.5,1.3-1,0-1.5c0,0,0.1,0.1,0.1,0.1
		C75.7,550.5,75,549.8,73.9,549.5z"/>
	<path class="st1" d="M60.4,546.2c1.9,4.8,3.8,9.6,5.7,14.4c-0.2,2.9-0.9,5.3-4.4,5.6c-1.2,0.1-2.8,0.6-2.9,1.9
		c-0.5,3.8-2.5,1.3-4,1.1c0,0,0.2,0.1,0.2,0.1c-0.3-0.4,0.1-1.6-1.1-1.2c-4.8-7.1-8.8-14.7-12.2-22.5c-0.9-2.1-2.1-4.3,0.4-6.3
		c2.5,0.6,5,3.4,7.4,1.6c3.1-2.4,4.2-0.6,6,1.3C56.9,543.8,58.7,544.9,60.4,546.2z"/>
	<path class="st1" d="M944.5,411.2c-3.2-0.9-6.1,1.1-9.2,1.2c-2.3-7.5,2.9-12.8,5.5-18.8c2.5-2.5,4.8-5.4,7.7-7.5
		c4.1-2.9,7-1.4,8.2,3.5C958.9,398.2,954.5,406,944.5,411.2z"/>
	<path class="st0" d="M729.3,649.3c10.8-1.7,21.6-0.6,32.4-1c7.7-0.3,15.5,0,23.3-0.1c2.4,0,4.1,0.8,4,3.2c-0.1,2-1.2,3.4-3.8,3.4
		c-18.2-0.1-36.3,0-54.5-0.1c-0.4,0-0.8-0.6-1.2-0.9C729.3,652.4,729.3,650.8,729.3,649.3z"/>
	<path class="st0" d="M672.3,680.6c-8.3,0-16.6,0-24.9,0c-2.5,0-4.5,0.1-4.6-3.5c-0.1-3.6,1.7-3.7,4.4-3.7
		c16.9,0.1,33.9,0.2,50.8,0.1c2.8,0,3.7,0.9,3.6,3.8c0,3.1-1.2,3.5-3.9,3.4C689.2,680.5,680.7,680.6,672.3,680.6
		C672.3,680.6,672.3,680.6,672.3,680.6z"/>
	<path class="st0" d="M937.3,436.2c1.5,0.1,2.6,0,3.7,0.2c3.8,0.9,8.9,1.3,10.2,5c0.8,2.3-4,4.5-6.4,6.6c-7.8,6.7-16.7,6.1-24.3-0.9
		c-1.6-1.5-1.4-1.8,0.1-3.6C925.1,438.1,931.1,436.5,937.3,436.2z"/>
	<path class="st0" d="M524.6,680.5c-7.7,0-15.5-0.1-23.2,0c-2.3,0-3.7-0.2-3.6-3.1c0.1-2.7,0.7-3.9,3.7-3.9c15.7,0.1,31.3,0,47-0.1
		c2.8,0,3.7,1.2,3.7,3.9c0.1,3.2-1.7,2.9-3.8,2.9c-7.9,0-15.8,0-23.8,0C524.6,680.4,524.6,680.5,524.6,680.5z"/>
	<path class="st1" d="M601.5,186c-4.2,2.9-2.5,7.3-2.8,11.1c-0.7,8.2-0.6,16.5,0.9,24.7c-0.5,0-1,0-1.5,0c0-3.9,0.1-7.7,0-11.6
		c0-1.7,0.7-3.9-2-4.3c-0.6-1.9-0.6-3.7,0-5.6c1.9-0.4,1.9-1.9,2-3.3c0.2-5.9,0.5-11.9-2.6-17.3c1.8-1.6,1-3.8,1-5.7
		c-0.1-9.7,0.3-19.4,1.1-29.1c0.1-1.6-0.4-3.4,2.3-5c3.1,13.6,1.7,27.1,2.4,40.9c3.4-1.2,5.1-4.5,8.5-6.3
		C608.5,179.8,604,182.1,601.5,186z M600.9,183.2c-0.3-0.4-0.5-0.7-0.7-0.9c-0.2,0.4-0.5,0.8-0.6,1.3c0,0.2,0.4,0.5,0.6,0.8
		C600.4,184,600.6,183.6,600.9,183.2z"/>
	<path class="st1" d="M916,502.1c-1,4.9,1,9.4,2.3,13.8c2.5,8.6-1.9,15.9-3.1,23.7c-0.3,2-2.2,2.2-3.8,2.2c0,0,0.2,0,0.2,0
		c-0.3-0.7-0.6-1.4-0.9-2.1c-0.4-0.2-0.4-0.5-0.3-0.9c-0.3-1.2,0.3-2.7-1.1-3.6c0,0,0.1,0.1,0.1,0.1c-0.2-1.1,0.2-2.5-1.1-3.3
		c-2.6-8.3-0.7-16.3,1.4-24.3c0.6-2.4,1.8-4.6,2.8-6.8c1.1,0,2.1,0.1,3.2,0.1C915.8,501.4,915.9,501.8,916,502.1z"/>
	<path class="st0" d="M914.9,437.5c-5.8-1.4-9-5.5-10.7-10.9c-1.6-5.1-1.6-10.4-1.2-15.7c0.3-3.4,1.4-4.9,5.2-3.6
		c5.8,1.9,8.1,6.4,8.6,11.8c0.6,5.8,0.8,11.7-2.6,16.9C913.8,436.8,913.9,437.3,914.9,437.5C914.8,437.6,914.9,437.5,914.9,437.5z"
		/>
	<path class="st0" d="M967.8,265.2c0,5.5-4.8,10.8-9.9,10.8c-5.2,0-10-5.2-9.9-10.7c0.1-5,5.4-11.2,9.4-11
		C963,254.5,967.9,259.6,967.8,265.2z"/>
	<path class="st0" d="M177.4,543.5c1.6,4.8,3.5,9.4,7.6,12.6c0.3,12-4.1,15.3-15.4,12.1c-2.1-0.6-1.2-1.8-1.1-2.8
		c0.2-5.7,1.9-11,3.7-16.3c0.9-2.6,1.6-5.2,2.4-7.7C177.3,539.7,176,543.4,177.4,543.5z"/>
	<path class="st0" d="M951.8,214.8c-3.1-8.2-2-12.8,4-15.7c4.1-2,7.9-1.7,11.2,2c3.3,3.6,2.5,7.4,0.5,10.9c-2.4,4.1-6.1,6-10.9,4.5
		c-1.7-0.5-3-2-4.9-1.9C951.6,214.6,951.8,214.8,951.8,214.8z"/>
	<path class="st0" d="M669.6,455.8c2.2,2.5,1.8,5.4,1.8,8c0.1,14.3,0,28.5,0,42.8c0,2.4,0.1,4.4-3.2,4.4c-2.9,0-2.5-2.1-2.5-3.8
		c-0.1-13.9-0.5-27.8,0.7-41.7C666.8,462,668,458.9,669.6,455.8z"/>
	<path class="st0" d="M368,680.7c-3.6-0.6-8.7,0.9-10.1-5.1c-0.2-0.9-0.6-1.8-0.5-2.6c0.6-4.8,7.2-7.1,14.6-5.4
		c4.7,1.1,6.8,4.7,5.4,9.3C376.3,680.3,374.8,681,368,680.7z"/>
	<path class="st1" d="M64.9,301.2c-1.6-1.1-3.4-1.5-5.3-0.9c-3.2-1.6-4.7-4.3-4.8-7.8c-0.2-4.2,1.3-7.8,4.9-9.6
		c2.4-1.2,5.4-1,7.4,1.4c2.8,3.2,3.9,6.9,2.2,11.1C68.4,297.7,67.3,300,64.9,301.2z"/>
	<path class="st0" d="M180.6,507.7c1.5,6.9,7.1,9.6,12.5,12.5c-0.8,2.7-0.7,6-3.8,7.6c-5.4,0-10.9,0-16.3,0.1
		C174.3,520.6,177.4,514.1,180.6,507.7z"/>
	<path class="st1" d="M907.9,551.8c-3.5,2.9-3.6,7.8-6.4,11.1c-3-2-1.7-5.4-2.2-8c-1.3-6.1-2.8-12.3-2.5-20
		C902.2,540.4,905.7,545.6,907.9,551.8z"/>
	<path class="st0" d="M421.2,482.5c4,2.6,4.2,7.5,6.3,11.2c0,4.2,0.2,8.4-0.1,12.5c-0.1,1.7,1.7,4.5-2.4,4.7
		c-3.8,0.1-4.4-1.7-4.3-4.9C421.1,498.1,421.1,490.3,421.2,482.5z"/>
	<path class="st1" d="M51.8,516.6c1,5.6-1.8,8.8-7.6,8.8c-1.5-5.1-6.2-8.4-7.5-14.1C42.5,511.3,46.8,514.8,51.8,516.6z"/>
	<path class="st0" d="M578.6,416.2c4.2,5.1,8.3,10,12.3,14.9c0.9,1.1,2.3,2.4,1,3.8c-1.2,1.4-3,0.7-4.5,0
		C581.5,432.2,577.3,423.5,578.6,416.2z"/>
	<path class="st1" d="M752.5,631.7c0.5-2.6-2.8-2.1-3.2-3.9c4.6-1.2,9.2,0.6,13.9,0.2c5.3,0.8,10.7,1.5,16,2.3
		C770.4,633.2,761.5,632.6,752.5,631.7z"/>
	<path class="st0" d="M156.5,636.1c2.1,0.3,5.3-1.1,5.1,3.3c-0.2,3.5-1.1,6.2-5.3,6c-3.3-0.2-6.1-1.1-6.1-5.3
		C150.1,635.5,153.5,636.3,156.5,636.1z"/>
	<path class="st0" d="M809,643.9c-2.3-0.3-6,1.1-5.7-3.4c0.2-2.9,1.5-5.7,5.3-5.6c3.2,0.1,5.7,0.7,5.7,4.8
		C814.2,643.5,812.3,644.5,809,643.9z"/>
	<path class="st1" d="M563.3,675.9c4.5-1.4,9.2-1.3,13.8-1.2c1.4,0,3-0.1,3.1,2c0.2,2.6-1.7,2.3-3.2,2.4c-4.5,0.3-8.9,0.6-13.3-0.6
		C563.6,677.7,563.4,676.8,563.3,675.9z"/>
	<path class="st4" d="M903.9,577c1.8,7,2.5,14,2,21.3c-1.9-6.3-2.9-12.9-5.3-19.1C902.2,579.2,902.9,577.8,903.9,577z"/>
	<path class="st0" d="M846.2,647.4c3.1-0.1,4.4,1.5,4.5,3.6c0.1,1.9-0.3,4.1-3,4.2c-2.6,0.1-2.6-2.1-2.9-3.8
		C844.5,649.7,844.4,647.8,846.2,647.4z"/>
	<path class="st0" d="M714.7,680.2c-2.2,0.3-3.5-0.8-3.4-3.3c0.1-2.3,1.3-3.5,3.7-3.4c2.1,0.1,3.8,0.1,3.8,3
		C718.9,679.4,717.5,680.2,714.7,680.2z"/>
	<path class="st4" d="M67.1,590.9c3.5,4.1,5.6,8.9,6.3,14.7c-2.6-3.7-5.2-7.5-7.9-11.2C66.1,593.2,66.6,592.1,67.1,590.9z"/>
	<path class="st0" d="M510.9,91.5c-0.7,0.1-1.4,0.2-2.2,0.3c-0.4,0-0.7-0.1-1.1-0.1c-2.6-1.9-2.3-4.5-0.9-6.7
		c1.4-2.2,3.5-0.7,5.2,0.1c0.1,0.3,0.2,0.7,0.3,1c0,0.7,0,1.5,0.1,2.2c0,0.4-0.1,0.7-0.1,1.1c-0.2,0.3-0.3,0.7-0.3,1
		C511.6,90.8,511.2,91.2,510.9,91.5z"/>
	<path class="st0" d="M338.7,86.6c-0.1,1.7-1,3.3-3,3.7c-1.8,0.3-3.1-0.8-3.3-2.8c-0.2-2.1,0.5-3.7,2.8-3.7
		C336.9,83.8,338.6,83.9,338.7,86.6z"/>
	<path class="st0" d="M595.3,179.7c3.2,5.4,2.8,11.4,2.6,17.3c0,1.4-0.1,3-2,3.3c0-3.8-0.2-7.5-0.1-11.3c0-2.3-0.5-4.2-2.7-5.2
		c0.8-1.9,0.4-3.8,0.1-5.6C593.9,178.7,594.6,179.2,595.3,179.7z"/>
	<path class="st0" d="M827.4,645c-1.3,0.1-2.4-0.5-2.2-2.4c0.2-1.7,0.5-3.4,2.7-3.1c1.8,0.2,3.7,0.8,3.5,3.1
		C831.2,644.7,829.5,645,827.4,645z"/>
	<path class="st4" d="M846.7,544.1c-0.9,3.7-1.8,7.3-2.6,11c-0.6,0-1.1,0-1.7,0c0.1-3.8,0.8-7.4,2.1-11
		C845.2,544,845.9,544,846.7,544.1z"/>
	<path class="st0" d="M266.9,374.1c-3.3-1.4-3.8-3.4-2.9-6c0.3-0.9,1.2-1,1.7-0.7C268.3,369,267.2,371.4,266.9,374.1z"/>
	<path class="st1" d="M601.2,204.7c-0.8-5.4-0.8-10.8-0.1-16.2C601.1,193.9,601.1,199.3,601.2,204.7z"/>
	<path class="st1" d="M726.7,631.3c4.5-1.1,9-1,13.5-0.1C735.7,631.2,731.2,631.2,726.7,631.3z"/>
	<path class="st4" d="M894,604.6c-1.4-1.5-2.8-3-4.2-4.5c1-0.4,2-0.8,3-1.2c0.7,1.7,1.4,3.3,2.1,5
		C894.6,604.1,894.3,604.3,894,604.6z"/>
	<path class="st1" d="M601.4,221.1c-1.2-4.4-0.8-8.8-0.2-13.2C601.9,212.3,601.8,216.7,601.4,221.1z"/>
	<path class="st3" d="M687.1,80.6c0.4,3.3,0.8,6.6,1.2,9.9"/>
	<path class="st0" d="M915.7,501c-1.1,0-2.1-0.1-3.2-0.1c0.3-1,0.5-2.7,0.9-2.7C915.3,497.9,914.9,500,915.7,501z"/>
	<path class="st0" d="M861.7,433c0.1,1.8,0,3.4-2.4,3.3C859.7,434.9,860.3,433.6,861.7,433z"/>
	<path class="st5" d="M469.5,146.6c-0.6,1.1-1.6,1.8-2.9,2.1C466.7,146.8,468,146.5,469.5,146.6z"/>
	<path class="st3" d="M687.6,66.4c-0.1,1.8-0.3,3.6-0.4,5.4"/>
	<path class="st0" d="M801.1,439.6c-1.2-0.8-3-1.4-0.9-3.2C800.9,437.4,801.2,438.4,801.1,439.6z"/>
	<path class="st1" d="M596.1,232.1c0.6,1.8,0.7,3.5,0,5.3C595.5,235.6,595.5,233.8,596.1,232.1z"/>
	<path class="st5" d="M460.7,154.3c-0.5,1.1-1.2,1.9-2.4,2.3"/>
	<path class="st1" d="M901,565.9c1.4,0,2.4,0.3,1.4,2.1C900.9,568,900.7,567.1,901,565.9z"/>
	<path class="st0" d="M442.8,377.3c0.5,0.2,1.3,0.2,1.4,0.5c0.4,1.1-0.6,1.1-1.2,1.3C442.9,378.6,442.8,378,442.8,377.3z"/>
	<path class="st0" d="M794.7,423.2c-1.3-0.8-0.7-2.2-1-3.3C794.5,420.9,794.7,422,794.7,423.2z"/>
	<path class="st0" d="M799.4,434.1c-1.6-0.7-1.1-2.2-1.4-3.4C798.4,431.8,798.9,433,799.4,434.1z"/>
	<path class="st5" d="M462.9,152.1c-0.6,0.5-1.1,1.1-1.7,1.6C461.2,152.6,461.8,152.1,462.9,152.1z"/>
	<path class="st0" d="M909.3,535.2c1.4,0.9,0.8,2.4,1.1,3.6C909.4,537.8,909.2,536.5,909.3,535.2z"/>
	<path class="st0" d="M908.2,532c1.3,0.8,0.9,2.1,1.1,3.3C907.9,534.6,908.5,533.2,908.2,532z"/>
	<path class="st0" d="M862.7,430.7c0.3,1.1,0,1.9-1.1,2.4C861.6,432.1,861.6,431.2,862.7,430.7z"/>
	<path class="st5" d="M458.1,156.8c-0.4,0.5-0.8,1-1.2,1.5C456.9,157.4,457.2,156.9,458.1,156.8z"/>
	<path class="st0" d="M53.9,568.1c1.2-0.4,0.8,0.8,1.1,1.2C54.6,569,54.3,568.5,53.9,568.1z"/>
	<path class="st4" d="M691.1,590.7c0.5,0.5,1,1.1,1.6,1.6C691.7,592.3,691.1,591.8,691.1,590.7z"/>
	<path class="st5" d="M340,548.5c-0.5,0.9-1.2,1.2-2.1,1.4C338.2,548.7,339,548.5,340,548.5z"/>
	<path class="st0" d="M389.8,597.7c-0.8,0.1-1.6,0-2.1-0.8C388.5,596.9,389.5,596.4,389.8,597.7z"/>
	<path class="st5" d="M472.8,144.4c-0.6,0.4-1.2,0.7-1.8,1.1C471.3,144.7,471.9,144.4,472.8,144.4z"/>
	<path class="st0" d="M231.6,83.9c-1.3-0.3-0.9-1.5-1.2-2.4C230.8,82.3,231.2,83.1,231.6,83.9z"/>
	<path class="st4" d="M768,63.7c-0.1-1-0.3-1.9-0.4-2.9C768.3,61.7,768.5,62.7,768,63.7z"/>
	<path class="st0" d="M777.4,437.6c0.3,0.7,0.7,1.5,1,2.2C777.5,439.3,777.4,438.4,777.4,437.6z"/>
	<path class="st0" d="M61.7,591.2c-1.2-0.3-1.3-1.2-1.3-2.2C61.2,589.5,62.4,589.8,61.7,591.2z"/>
	<path class="st0" d="M180.7,469.4c-0.1-1.2,0.3-2.1,1.2-2.8C182.5,468,181.9,468.8,180.7,469.4z"/>
	<path class="st5" d="M427.4,6.9c-0.4-0.6-0.8-1.2-1.2-1.9C427.1,5.4,427.4,6,427.4,6.9z"/>
	<path class="st0" d="M232.7,86.1c-1.5-0.2-1.3-1.2-1.1-2.3C232.7,84.2,232.6,85.2,232.7,86.1z"/>
	<path class="st0" d="M591.1,301.3c-1.2-0.5-0.9-1.6-1.1-2.6C590.4,299.6,590.7,300.5,591.1,301.3z"/>
	<path class="st5" d="M476.2,142.3c-0.4,0.8-1.1,1-1.9,1.1C474.7,142.5,475.3,142.2,476.2,142.3z"/>
	<path class="st0" d="M240.2,47.8c0-1.2,0.8-1.7,1.6-2.3C241.4,46.3,241.3,47.4,240.2,47.8z"/>
	<path class="st0" d="M778.3,439.6c0.4,1,0.8,1.9,1.2,2.9C778.5,441.8,778.4,440.7,778.3,439.6z"/>
	<path class="st0" d="M910.6,539.8c0.3,0.7,0.6,1.4,0.9,2.1C910.5,541.5,910.6,540.6,910.6,539.8z"/>
	<path class="st0" d="M779.5,443.1c0.3,0.7,0.7,1.5,1,2.2C779.6,444.8,779.6,443.9,779.5,443.1z"/>
	<path class="st0" d="M583.4,349.5c-0.4-0.7-0.7-1.4-1.1-2.1C583.4,347.7,583.2,348.7,583.4,349.5z"/>
	<path class="st0" d="M584.6,351.8c-0.4-0.7-0.8-1.4-1.1-2.1C584.5,350,584.4,351,584.6,351.8z"/>
	<path class="st0" d="M795.8,425.5c-0.4-0.8-0.8-1.6-1.2-2.4C795.7,423.6,795.6,424.6,795.8,425.5z"/>
	<path class="st5" d="M545.7,161.9c0-0.4,0-0.7,0-1.1c0.1,0.3,0.2,0.5,0.3,0.8C546,161.6,545.8,161.8,545.7,161.9z"/>
	<path class="st5" d="M455.6,159.8c-0.3,0.4-0.5,0.7-0.8,1.1C455.1,160.6,455.4,160.2,455.6,159.8z"/>
	<path class="st5" d="M456.6,158.8c-0.2,0.3-0.5,0.6-0.7,0.8C456.1,159.3,456.3,159.1,456.6,158.8z"/>
	<path class="st3" d="M376.6,596.3c-0.3,0-0.7,0-1,0.1C375.9,596.4,376.2,596.4,376.6,596.3z"/>
	<path class="st3" d="M386.4,596.4c-0.4,0-0.7-0.1-1.1-0.1C385.6,596.3,386,596.3,386.4,596.4z"/>
	<path class="st5" d="M464,151.1l-0.1,0.4c0,0-0.4,0.1-0.4,0.1C463.5,151.3,463.7,151.1,464,151.1z"/>
	<path class="st0" d="M219.7,192.7c-0.1-0.3-0.1-0.7-0.2-1C219.5,192,219.6,192.3,219.7,192.7z"/>
	<path class="st5" d="M465.3,150c-0.2,0.2-0.5,0.5-0.7,0.7C464.6,150.3,464.9,150.1,465.3,150z"/>
	<path class="st0" d="M233.8,150.8c-0.9,0.1-1.3-0.3-1.1-1.2C233.4,149.7,233.8,150.1,233.8,150.8z"/>
	<path class="st5" d="M465.6,149.7"/>
	<path class="st0" d="M232.8,149.7c-0.3,0-0.5-0.1-0.8-0.1c0.2-0.3,0.3-0.7,0.5-1C232.6,148.9,232.7,149.3,232.8,149.7z"/>
	<path class="st5" d="M470.9,145.6c-0.3,0.3-0.6,0.5-1,0.8C470.3,146.1,470.6,145.9,470.9,145.6z"/>
	<path class="st0" d="M694,144.3c-0.4-0.4-0.8-0.8-1.2-1.2C693.5,143.2,693.9,143.6,694,144.3z"/>
	<path class="st0" d="M197.3,202.5c0.6,0.4,1.2,0.8,1.8,1.2C198.5,203.3,197.9,202.9,197.3,202.5z"/>
	<path class="st5" d="M474.2,143.5c-0.3,0.2-0.7,0.5-1,0.7C473.5,144,473.8,143.7,474.2,143.5z"/>
	<path class="st0" d="M797.6,429.6c-0.3-0.5-0.6-1-0.9-1.5C797,428.6,797.3,429.1,797.6,429.6z"/>
	<path class="st4" d="M193.5,463.9c0,0.4,0.1,0.7,0.1,1.1c-0.1-0.2-0.3-0.5-0.4-0.7C193.2,464.1,193.4,464,193.5,463.9z"/>
	<path class="st4" d="M193.7,466c0.1,0.2,0.3,0.5,0.4,0.7c0,0.1-0.1,0.3-0.2,0.4c-0.1-0.2-0.2-0.5-0.3-0.7
		C193.5,466.2,193.6,466.1,193.7,466z"/>
	<path class="st5" d="M337.9,549.8c-0.4,0.3-0.9,0.6-1.3,0.9C337.1,550.4,337.5,550.1,337.9,549.8z"/>
	<path class="st3" d="M828,468.2c0-0.3,0-0.7,0-1c0.1,0.2,0.3,0.5,0.4,0.7C828.4,468,828.1,468.1,828,468.2z"/>
	<path class="st5" d="M478.4,141.2c-0.3,0.2-0.6,0.4-1,0.6C477.8,141.6,478.1,141.4,478.4,141.2z"/>
	<path class="st1" d="M596.1,227.6c0,0.5,0,0.9,0,1.4c-0.1-0.3-0.3-0.6-0.3-0.9C595.8,227.9,596,227.8,596.1,227.6z"/>
	<path class="st4" d="M194.6,470.4c0,0.4,0.1,0.7,0.1,1.1c-0.1-0.2-0.3-0.5-0.4-0.7C194.3,470.7,194.5,470.6,194.6,470.4z"/>
	<path class="st0" d="M399.4,170.6c-0.1-0.3-0.2-0.6-0.3-0.9C399.3,170,399.4,170.2,399.4,170.6z"/>
	<path class="st5" d="M507.6,91.7c0.4,0,0.7,0.1,1.1,0.1C508.3,92.2,508,92.2,507.6,91.7z"/>
	<path class="st5" d="M510.9,91.5c0.3-0.4,0.7-0.7,1-1.1C511.6,90.8,511.2,91.2,510.9,91.5z"/>
	<path class="st5" d="M512.2,89.4c0-0.4,0.1-0.7,0.1-1.1c0.1,0.3,0.2,0.5,0.2,0.8C512.5,89.2,512.3,89.3,512.2,89.4z"/>
	<path class="st1" d="M596,240c0.1,0.2,0.2,0.5,0.2,0.7c0,0-0.2,0.1-0.4,0.2C595.6,240.5,595.6,240.2,596,240z"/>
	<path class="st5" d="M512.2,86.1c-0.1-0.3-0.2-0.7-0.3-1c0.2,0.2,0.4,0.4,0.5,0.7C512.5,85.8,512.3,86,512.2,86.1z"/>
	<path class="st0" d="M692.9,143.2c-0.4-0.5-0.8-1.1-1.1-1.6C692.1,142.1,692.5,142.7,692.9,143.2z"/>
	<path class="st0" d="M389.6,548.5c0.3-0.4,0.6-0.7,0.9-1.1C390.6,548.1,390.1,548.3,389.6,548.5z"/>
	<path class="st1" d="M603,243.6c-0.3,0.9-0.7,1-1.3,0.2C602.1,243.7,602.6,243.6,603,243.6z"/>
	<path class="st4" d="M596.4,655.1c0.4,0,0.7,0,1.1,0C597.2,655.1,596.8,655.1,596.4,655.1z"/>
	<path class="st0" d="M906,476c-0.4,0.4-0.7,0.7-1.1,1.1C905.3,476.7,905.7,476.3,906,476z"/>
	<path class="st5" d="M229.1,29c0,0.4,0,0.7,0,1.1c-0.1-0.2-0.3-0.5-0.3-0.8C228.8,29.3,229,29.1,229.1,29z"/>
	<path class="st5" d="M442.6,22.5c-0.3-0.4-0.6-0.7-0.9-1.1C442,21.7,442.3,22.1,442.6,22.5z"/>
	<path class="st5" d="M438.2,17.9c-0.3-0.3-0.6-0.6-0.9-0.9C437.6,17.3,437.9,17.6,438.2,17.9z"/>
	<path class="st5" d="M437.2,16.9c-0.3-0.3-0.7-0.6-1-1C436.5,16.3,436.8,16.6,437.2,16.9z"/>
	<path class="st5" d="M436.1,15.8c-0.3-0.3-0.7-0.6-1-1C435.4,15.2,435.7,15.5,436.1,15.8z"/>
	<path class="st0" d="M863.9,429.2c-0.4,0.6-0.8,1.2-1.2,1.8C863.1,430.3,863.5,429.8,863.9,429.2z"/>
	<path class="st5" d="M435,14.8c-0.3-0.3-0.7-0.7-1-1C434.3,14.1,434.6,14.5,435,14.8z"/>
	<path class="st5" d="M433.9,13.7c-0.3-0.3-0.7-0.7-1-1C433.2,13,433.6,13.3,433.9,13.7z"/>
	<path class="st0" d="M383.1,479.6c0.3-0.3-0.1-1.6,1-0.7C383.8,479.2,383.5,479.4,383.1,479.6z"/>
	<path class="st0" d="M864.9,427.4c-0.3,0.4-0.6,0.8-0.9,1.3C864.3,428.2,864.6,427.8,864.9,427.4z"/>
	<path class="st0" d="M796.7,427.5c-0.3-0.5-0.7-1.1-1-1.6C796,426.4,796.3,427,796.7,427.5z"/>
	<path class="st5" d="M430.6,10.4c-0.3-0.3-0.6-0.7-0.9-1C430,9.7,430.3,10,430.6,10.4z"/>
	<path class="st5" d="M429.6,9.2c-0.3-0.3-0.6-0.6-1-1C428.9,8.6,429.3,8.9,429.6,9.2z"/>
	<path class="st5" d="M428.5,8.1c-0.3-0.3-0.6-0.6-0.9-1C427.9,7.5,428.2,7.8,428.5,8.1z"/>
	<path class="st5" d="M424.2,3.7C424,3.9,423.6,4,423.3,4C423.5,3.4,423.8,3.3,424.2,3.7z"/>
	<path class="st0" d="M398.3,168.4c-0.4-0.6-0.8-1.1-1.2-1.7C397.6,167.3,397.9,167.8,398.3,168.4z"/>
	<path class="st0" d="M120.1,486.9c-0.2-0.2-0.4-0.4-0.5-0.7c0-0.1,0.1-0.3,0.2-0.4C119.9,486.2,120,486.6,120.1,486.9z"/>
	<path class="st0" d="M912.7,490.5c0.2-0.4,0.3-0.9,0.9-0.3C913.4,490.5,913.1,490.6,912.7,490.5z"/>
	<path class="st0" d="M97.3,502.3c-0.4-0.6-0.7-1.1-1.1-1.7C96.6,501.2,96.9,501.8,97.3,502.3z"/>
	<path class="st1" d="M99.4,504.4c-0.3-0.4-0.6-0.7-1-1.1C98.7,503.7,99.1,504.1,99.4,504.4z"/>
	<path class="st4" d="M541.1,535.2c-0.1,0.5-0.2,1.1-0.3,1.6C541,536.3,541,535.8,541.1,535.2z"/>
	<path class="st5" d="M432.8,12.6c-0.3-0.3-0.7-0.7-1-1C432.1,11.9,432.5,12.2,432.8,12.6z"/>
	<path class="st0" d="M180.8,506.7c0.9,0.7,0.3,0.9-0.4,1.1C180.6,507.4,180.7,507,180.8,506.7z"/>
	<path class="st4" d="M542.1,531.9c-0.1,0.5-0.3,1-0.4,1.6C541.9,533,542,532.5,542.1,531.9z"/>
	<path class="st0" d="M60.5,589c-0.4-0.5-0.8-1-1.2-1.5C59.7,588,60.1,588.5,60.5,589z"/>
	<path class="st4" d="M839.1,328.7c0-0.7,0.3-1,0.9-1C839.7,328.1,839.4,328.4,839.1,328.7z"/>
	<path class="st4" d="M837.7,330.7c0.3-0.4,0.7-0.8,1-1.2C838.4,329.9,838,330.3,837.7,330.7z"/>
	<path class="st4" d="M836.6,331.9c0.3-0.4,0.7-0.7,1-1.1C837.3,331.2,837,331.5,836.6,331.9z"/>
	<path class="st3" d="M620.7,524.6c-0.5,0.3-1,0.5-1.5,0.8C619.7,525.1,620.2,524.9,620.7,524.6z"/>
	<path class="st0" d="M582.4,347.5c-0.1-0.3-0.1-0.6-0.2-1C582.4,346.8,582.5,347.1,582.4,347.5z"/>
	<path class="st1" d="M230,387.5c0.8-0.3,1.4-0.3,0.7,0.8C230.4,388.1,230.2,387.8,230,387.5z"/>
	<path class="st0" d="M407.7,363c0.3,0.2,0.5,0.4,0.8,0.6c-0.2,0.1-0.3,0.2-0.5,0.3C407.9,363.6,407.8,363.3,407.7,363
		C407.8,363,407.7,363,407.7,363z"/>
	<path class="st0" d="M802.1,441.8c-0.3-0.4-0.6-0.9-0.9-1.3C801.5,440.9,801.8,441.3,802.1,441.8z"/>
	<path class="st5" d="M453.4,163.2c-0.2,0.4-0.5,0.7-0.7,1.1C452.9,163.9,453.1,163.5,453.4,163.2z"/>
	<path class="st1" d="M743.6,626.7l0.2,0.3c0,0-0.2,0.3-0.2,0.3c-3.1,1.6-6.3,1.1-9.5-0.5C737.2,626.7,740.4,626.7,743.6,626.7z"/>
	<path class="st4" d="M895.3,605.5c0.8,0.2,1,0.7,0.8,1.4c0,0.1-0.4,0.2-0.4,0.2C895.3,606.6,894.8,606.1,895.3,605.5
		C895.4,605.4,895.3,605.5,895.3,605.5z"/>
	<path class="st4" d="M698.1,597.8c1.5-0.5,1.9,0.6,2.3,1.7C699.7,599,698.9,598.4,698.1,597.8z"/>
	<path class="st4" d="M894.9,603.9c0.1,0.5,0.2,1.1,0.4,1.6c0,0,0.1-0.1,0.1-0.1c-1,0.7-1.1-0.3-1.3-0.8
		C894.3,604.3,894.6,604.1,894.9,603.9z"/>
	<path class="st4" d="M586.7,552.8c-0.6-0.2-0.8,0.1-0.8,0.7C586.1,553.2,586.4,553,586.7,552.8z"/>
	<path class="st4" d="M587.8,551.6c-0.4,0.4-0.8,0.7-1.2,1.1C587,552.4,587.4,552,587.8,551.6z"/>
	<path class="st3" d="M600.7,536.1c-0.4,0.4-0.7,0.8-1.1,1.2C599.9,536.9,600.3,536.5,600.7,536.1z"/>
	<path class="st2" d="M844.4,327.8c0.4-0.5,0.8-0.9,1.2-1.4C845.2,326.9,844.8,327.4,844.4,327.8z"/>
	<path class="st0" d="M216.3,484.7c2.2,0.7,4.1,1.7,4.3,4.4l0,0C218.5,488.4,216.9,487.1,216.3,484.7L216.3,484.7z"/>
	<path class="st0" d="M270.7,515c-0.3-0.1-0.7-0.2-0.8-0.4c-0.1-0.2,0.2-0.5,0.3-0.8c0.3,0.1,0.7,0.2,0.8,0.4
		C271.1,514.4,270.8,514.8,270.7,515z"/>
	<path class="st2" d="M238,546.1c-0.5-0.3-1.4-0.1-1.2-1.1C237.2,545.4,237.6,545.8,238,546.1z"/>
	<polygon class="st0" points="214.2,482.5 213.9,482.3 214.2,482.5 	"/>
	<path class="st0" d="M214.2,482.5c0.4,0.4,0.7,0.7,1.1,1.1c0,0,0,0,0,0C214.9,483.2,214.6,482.8,214.2,482.5
		C214.2,482.5,214.2,482.5,214.2,482.5z"/>
	<path class="st0" d="M216.4,484.7c-0.4-0.4-0.7-0.7-1.1-1.1c0,0,0,0,0,0C215.6,484,216,484.4,216.4,484.7
		C216.3,484.7,216.4,484.7,216.4,484.7z"/>
	<path class="st0" d="M220.7,489.1c0.4,0.3,0.8,0.7,1.2,1c0,0-0.1,0.1-0.1,0.1C221.4,489.8,221,489.5,220.7,489.1L220.7,489.1z"/>
	<path class="st1" d="M143.7,564.1c0,0.5,0,1.1,0,1.6C143.2,565.1,143.2,564.6,143.7,564.1z"/>
	<path class="st0" d="M466.3,471.8c-4-2.8-7.9-5.7-11-9.6c0.2-0.2,0.4-0.5,0.6-0.7c4.1,2.8,8.1,5.6,11,9.7
		C466.6,471.4,466.5,471.6,466.3,471.8z"/>
	<path class="st0" d="M455.3,462.1c-1.9-1.3-3.8-2.6-5.6-3.9c3.2-0.9,4.5,1.6,6.2,3.3C455.6,461.7,455.5,461.9,455.3,462.1z"/>
	<path class="st2" d="M467.4,534c-0.7-0.7-1.4-1.3-2.1-2C467.6,531,467.3,532.7,467.4,534z"/>
	<path class="st0" d="M466.8,471.2c0.4,0.4,0.7,0.7,1.1,1.1c-0.2,0.2-0.4,0.4-0.6,0.6c-0.4-0.4-0.7-0.7-1.1-1.1
		C466.5,471.6,466.6,471.4,466.8,471.2z"/>
	<path class="st0" d="M467.9,472.3c0.4,0.4,0.8,0.7,1.1,1.1c-0.2,0.2-0.4,0.4-0.6,0.7c-0.4-0.4-0.7-0.7-1.1-1.1
		C467.6,472.7,467.7,472.5,467.9,472.3z"/>
	<path class="st0" d="M469.1,473.3c0.4,0.4,0.7,0.7,1.1,1.1c-0.2,0.2-0.4,0.5-0.7,0.7c-0.3-0.4-0.7-0.8-1-1.1
		C468.6,473.7,468.8,473.5,469.1,473.3z"/>
	<path class="st0" d="M470.6,476.2c-0.4-0.4-0.7-0.7-1.1-1.1c0.2-0.2,0.4-0.5,0.7-0.7c0.4,0.4,0.7,0.7,1.1,1.1
		C471,475.7,470.8,475.9,470.6,476.2z"/>
	<path class="st0" d="M471.7,477.3c-0.4-0.4-0.7-0.7-1.1-1.1c0.2-0.2,0.4-0.4,0.7-0.7c0.4,0.4,0.7,0.7,1.1,1.1
		C472.1,476.8,471.9,477,471.7,477.3z"/>
	<path class="st4" d="M522.9,497.1c2.6,0.7,2.6,3,3,5.1C524.9,500.5,523.9,498.8,522.9,497.1z"/>
	<path class="st1" d="M536.1,541.8c-0.1,0.7-0.1,1.5-0.2,2.2C536,543.3,536,542.6,536.1,541.8z"/>
	<path class="st0" d="M679.9,332.4c0.8,1.1,1.7,2.1,2.7,3.4c0-7,0-13.6,0-20.1c0-3-1.4-5-3.9-6.5c8.7-1.2,8.6-1.2,8.6,7.6
		c0,4,0.2,8,0.2,11.9c0,2.2,0,4.4,0,6.9c3-0.6,3.6-3.1,4.8-4.8c4.3-5.8,9.4-9.7,17-9.8c4.6,0,4.9,2,3.2,5.2
		c-4.1,7.4-9.6,13.5-18.4,14.4c-5.8,0.6-7.3,2.8-6.8,8.5c0.6,6,0,12.1,0,18.1c0.8,1.5,1.5,3,2.3,4.5c-2.9,0.2-2.1,2.3-2.2,4
		c0,6.8,0,13.5,0,21.4c2.9-3.5,5.2-6.3,7.5-9c3.7-4.4,8.4-6.7,14.2-6.6c3.7,0.1,5,1.4,3.3,5.1c-3.7,8.3-10.3,13-18.9,14.5
		c-4.6,0.8-6.9,2.4-6.2,7.6c0.5,3.4,0.3,6.9-1,10.3c-2.6-0.5-4.2-1.8-4.4-4.6c0.1-3.1,0.2-6.1,0.2-9.2c0-1.1,0.4-2.9-1.6-2.7
		c-4.7,0.4-7-3.5-10.3-5.6c-0.8-1.2-1.4-2.8-3.3-2.3c0,0,0.1,0.1,0.1,0.1c0.7-1.3-0.5-1.7-1.2-2.3c0,0,0.1,0.1,0.1,0.1
		c-0.4-0.4-0.7-0.8-1.1-1.2c0,0,0,0.1,0,0.1c-0.6-0.6-1.3-1.2-1.9-1.9c0-0.3-0.1-0.5-0.4-0.6c-0.3-0.3-0.7-0.6-1-0.9
		c0,0,0.1,0.1,0.1,0.1c-0.4-0.4-0.8-0.8-1.2-1.2c0,0,0.1,0.1,0.1,0.1c-0.6-1.3-1.2-2.6-1.7-3.9c3-5.3,7.5-2.7,11-1.5
		c5.9,2.1,9.6,7.1,13.2,13.6c0-8.3,0-15.5,0-22.6c0-1.3-0.7-2-1.9-2.2c-0.3-2-0.4-3.9,0.3-5.8c2.3-3.2,2.2-20.8-0.2-23.9
		C681,337.9,679.2,335.3,679.9,332.4z"/>
	<path class="st4" d="M670.3,398.6c-1.2-1.3-2.3-2.7-3.5-4"/>
	<path class="st4" d="M662.8,389.5c0.6,0.6,1.3,1.2,1.9,1.9C664.1,390.8,663.4,390.1,662.8,389.5z"/>
	<path class="st4" d="M665.7,392.4c0.6,0.7,1.8,1,1.2,2.3C666.5,393.9,666.1,393.2,665.7,392.4z"/>
	<path class="st4" d="M664.7,391.3c0.4,0.4,0.7,0.8,1.1,1.2C665.4,392.1,665.1,391.7,664.7,391.3z"/>
	<path class="st4" d="M661.3,388c0.3,0.3,0.7,0.6,1,0.9C662,388.6,661.7,388.3,661.3,388z"/>
	<path class="st4" d="M660.3,386.9c0.4,0.4,0.8,0.8,1.2,1.2C661.1,387.7,660.7,387.3,660.3,386.9z"/>
	<path class="st0" d="M661.3,169.6c-0.5-0.4-1.3-1-0.6-1.4c0.7-0.5,0.9,0.5,1.1,1.1C661.7,169.4,661.5,169.5,661.3,169.6z"/>
	<path class="st2" d="M822.7,328.8c-0.1-0.4-0.4-0.9-0.3-1.1c0.3-0.4,0.8-1.1,1.4-0.2C823.5,328,823.1,328.4,822.7,328.8z"/>
	<path class="st5" d="M327.9,556c0.1,1.3-0.8,1.3-1.7,1.2C326.8,556.8,327.3,556.4,327.9,556z"/>
	<path class="st4" d="M731.1,475.9c-0.1-11-0.1-22-0.2-32.9"/>
	<path class="st1" d="M739.4,469.3c-0.1,0.2-0.2,0.3-0.2,0.5C739.2,469.6,739.3,469.5,739.4,469.3
		C739.4,469.3,739.4,469.3,739.4,469.3z"/>
	<path class="st4" d="M724,507.8c-0.1-0.3-0.2-0.5-0.3-0.8c0-0.1,0.2-0.2,0.3-0.3C724,507,724,507.4,724,507.8z"/>
	<path class="st0" d="M784.5,303.8c-2.1-0.5-3-2.1-4.3-4.7c3,1,4.1,2.4,4.6,4.4C784.9,303.5,784.5,303.8,784.5,303.8z"/>
	<path class="st0" d="M787.9,308.1c-2.3-0.5-3.1-2.2-3.4-4.3c0,0,0.4-0.3,0.4-0.3c1.5,1.2,3,2.3,3.2,4.4L787.9,308.1z"/>
	<path class="st0" d="M779.5,296.9c-1.4,0-2.3-0.7-2.8-2C778.4,294.4,778.7,296,779.5,296.9L779.5,296.9z"/>
	<path class="st0" d="M788.2,307.9c0.5,0.5,1,1,1.4,1.4c-0.2,0.2-0.4,0.3-0.7,0.5c-0.3-0.6-0.7-1.1-1-1.7
		C787.9,308.1,788.2,307.9,788.2,307.9z"/>
	<path class="st0" d="M779.4,296.9c0.1,0.1,0.2,0.1,0.3,0.2c0,0.1,0,0.2,0,0.3C779.7,297.3,779.6,297.1,779.4,296.9
		C779.5,296.9,779.4,296.9,779.4,296.9z"/>
	<path class="st1" d="M608.1,361.5c6.2-21.3,22.5-30.7,41.8-36.2c-2.2,13.8-9.1,27.1-20.8,32c-5.3,1.1-10.6,2.2-15.4,4.8
		C611.5,363.3,609.8,363.1,608.1,361.5z"/>
	<path class="st1" d="M606.9,301.1c1.9-7.5,5.8-14,9.7-20.4c6.9-11.2,18-15.1,30-16.3c3.5-0.4,2.4,2.6,0.7,4.5
		c-0.7,0.8-1.4,1.7-1.2,2.9c0,0,0.2,0,0.2,0c-6.6,2.9-11.7,8-17.2,12.4c-6.4,5.3-13.4,9.8-18.9,16.1
		C609.4,301.4,608.2,301.4,606.9,301.1z"/>
	<path class="st0" d="M948.5,309.2c-0.2,0.6-0.3,1.2-1.1,1.1C947.7,309.9,948.1,309.5,948.5,309.2z"/>
	<path class="st0" d="M224,541.7c1.1,0.4,2.6-0.3,3.3,1.2C226,542.9,224.7,543.2,224,541.7z"/>
	<path class="st0" d="M208.5,553.1c-0.4-0.2-0.9-0.5-1.3-0.7c0.1-0.1,0.3-0.4,0.3-0.4c0.4,0.2,0.9,0.5,1.3,0.7
		C208.9,552.7,208.5,553.1,208.5,553.1z"/>
	<path class="st0" d="M73.9,549.5c1.1,0.4,1.8,1,1.6,2.3C74.1,551.7,74.1,550.5,73.9,549.5z"/>
	<path class="st0" d="M75.4,551.7c1.3,0.5,0.5,1,0,1.5C75.4,552.7,75.4,552.2,75.4,551.7z"/>
	<path class="st0" d="M600.9,183.2c-0.2,0.4-0.5,0.7-0.8,1.1c-0.2-0.3-0.6-0.6-0.6-0.8c0.1-0.4,0.4-0.9,0.6-1.3
		C600.4,182.6,600.6,182.8,600.9,183.2z"/>
	<path class="st1" d="M687.5,328.7c-0.1-4-0.3-8-0.2-11.9c0.1-8.8,0.1-8.8-8.6-7.6c-4.1-2.2-7-5.6-9.6-9.3c-2.8-4.1-2-7.3,2.7-7.3
		c8.4,0.1,9.7-5.6,11.4-11.5c0.6-2.1,1.4-4.1,2.8-6.2c2.6,10,14.4,18.8,7,29.8C687.8,312.7,688.5,320.6,687.5,328.7z"/>
	<path class="st1" d="M689.6,371.7c-0.8-1.5-1.5-3-2.3-4.5c3.9-4.9,7.2-10.4,13.1-13.3c4.2-2.1,9.8-4.7,12.8-0.6
		c2.5,3.5-2,7.8-4.8,11C703.4,369.9,696.8,371.7,689.6,371.7z"/>
	<path class="st1" d="M681.1,364.6c-0.6,1.9-0.5,3.9-0.3,5.8c-10.4,0.3-18.4-4-23.5-13.3c-2.7-4.8-2-5.7,3.7-5.6
		C670.4,351.6,676.4,357.1,681.1,364.6z"/>
	<path class="st1" d="M679.9,332.4c-0.7,2.9,1.1,5.5,1,8.3c-9.8-0.5-16.7-5.9-21.7-13.8c-2.9-4.5-1.7-6.1,3.5-5.9
		C670.6,321.3,676.5,324.9,679.9,332.4z"/>
	<path class="st0" d="M646.3,271.8c-0.2-1.2,0.4-2.1,1.2-2.9C648.3,270.4,647.8,271.3,646.3,271.8z"/>
</g>
</svg>
